<svg width="235" height="22" viewBox="0 0 235 22" fill="none" xmlns="http://www.w3.org/2000/svg">
<path d="M23.924 21.2333H20.3681V4.69524L13.1971 21.2333H10.5809L3.40989 4.69524V21.2333H0V0.369048H5.05668L11.9631 16.2929L18.8696 0.369048H23.924V21.2333ZM44.7437 0.364286H41.1263L31.9595 21.2286H35.6887L36.7812 18.6952L36.8588 18.5119L40.6975 9.41667L40.8298 9.09524L42.8597 4.20238L46.5662 13.1024H42.066L40.7431 16.2333H47.8913L50.0308 21.231H53.9128L44.7437 0.364286ZM73.8932 0.364286H70.2757L61.109 21.2286H64.8382L65.9307 18.6952L66.0082 18.5119L69.8469 9.41667L69.9792 9.09524L72.0092 4.20238L75.7156 13.1024H71.2155L69.8926 16.2333H77.0408L79.1802 21.231H83.0623L73.8932 0.364286ZM171.425 0.364286H167.808L158.641 21.2286H162.37L163.463 18.6952L163.54 18.5119L167.379 9.41667L167.511 9.09524L169.541 4.20238L173.248 13.1024H168.748L167.425 16.2333H174.573L176.712 21.231H180.594L171.425 0.364286ZM110.1 0.369048V21.2333H106.779L94.4917 4.54286V21.2333H91.0818V0.369048H95.55L106.69 15.4952V0.369048H110.1ZM120.088 0.369048H123.643V21.2333H120.088V0.369048ZM132.525 10.8619C132.525 4.23571 136.875 0 143.695 0C146.489 0 148.927 0.704762 151.043 2.17857L149.896 5.21667C147.898 3.89762 145.93 3.31429 143.843 3.31429C139.11 3.31429 136.17 6.29048 136.17 10.8C136.17 15.4024 139.197 18.2857 144.078 18.2857C146.429 18.2857 148.516 17.6119 150.455 16.231L151.748 19.3C149.837 20.7738 146.986 21.6 143.87 21.6C136.845 21.6 132.525 17.4571 132.525 10.8619ZM204.103 21.2333L198.636 13.0714H192.17V21.2333H188.614V0.369048H200.545C204.954 0.369048 207.365 2.60952 207.365 6.71905C207.365 10.0952 205.72 12.2119 202.691 12.8548L208.334 21.231H204.101L204.103 21.2333ZM192.17 9.88095H200.046C202.545 9.88095 203.747 8.8381 203.747 6.72143C203.747 4.60476 202.543 3.5619 200.046 3.5619H192.17V9.88333V9.88095ZM220.231 3.55952V9.11191H232.489V12.3024H220.231V18.0405H234.4V21.231H216.675V0.369048H234.4V3.55952H220.231Z" fill="#591B42"/>
</svg>
