<svg width="32" height="32" viewBox="0 0 32 32" fill="none" xmlns="http://www.w3.org/2000/svg">
<mask id="mask0_26_21321" style="mask-type:alpha" maskUnits="userSpaceOnUse" x="0" y="0" width="32" height="32">
<rect width="32" height="32" fill="#D9D9D9"/>
</mask>
<g mask="url(#mask0_26_21321)">
<path d="M14.0827 20.5287L22.611 12.0003L21.6673 11.0567L14.0827 18.6413L10.2827 14.8413L9.33898 15.785L14.0827 20.5287ZM7.48798 26.667C6.89132 26.667 6.3831 26.4572 5.96332 26.0377C5.54376 25.6179 5.33398 25.1097 5.33398 24.513V7.48766C5.33398 6.89099 5.54376 6.38277 5.96332 5.96299C6.3831 5.54344 6.89132 5.33366 7.48798 5.33366H13.7547C13.6331 4.65321 13.7959 4.03866 14.243 3.48999C14.6899 2.94133 15.2758 2.66699 16.0007 2.66699C16.7424 2.66699 17.3369 2.94133 17.784 3.48999C18.2311 4.03866 18.3853 4.65321 18.2467 5.33366H24.5133C25.11 5.33366 25.6182 5.54344 26.038 5.96299C26.4575 6.38277 26.6673 6.89099 26.6673 7.48766V24.513C26.6673 25.1097 26.4575 25.6179 26.038 26.0377C25.6182 26.4572 25.11 26.667 24.5133 26.667H7.48798ZM7.48798 25.3337H24.5133C24.7187 25.3337 24.9068 25.2482 25.0777 25.0773C25.2485 24.9064 25.334 24.7183 25.334 24.513V7.48766C25.334 7.28233 25.2485 7.09421 25.0777 6.92333C24.9068 6.75244 24.7187 6.66699 24.5133 6.66699H7.48798C7.28265 6.66699 7.09454 6.75244 6.92365 6.92333C6.75276 7.09421 6.66732 7.28233 6.66732 7.48766V24.513C6.66732 24.7183 6.75276 24.9064 6.92365 25.0773C7.09454 25.2482 7.28265 25.3337 7.48798 25.3337ZM16.0007 5.92333C16.2895 5.92333 16.5284 5.82888 16.7173 5.63999C16.9062 5.4511 17.0007 5.21221 17.0007 4.92333C17.0007 4.63444 16.9062 4.39555 16.7173 4.20666C16.5284 4.01777 16.2895 3.92333 16.0007 3.92333C15.7118 3.92333 15.4729 4.01777 15.284 4.20666C15.0951 4.39555 15.0007 4.63444 15.0007 4.92333C15.0007 5.21221 15.0951 5.4511 15.284 5.63999C15.4729 5.82888 15.7118 5.92333 16.0007 5.92333Z" fill="#C89C66"/>
</g>
</svg>
