<svg width="22" height="24" viewBox="0 0 22 24" fill="none" xmlns="http://www.w3.org/2000/svg">
<path d="M8.74867 17.8617L17.277 9.33333L16.3333 8.38967L8.74867 15.9743L4.94867 12.1743L4.005 13.118L8.74867 17.8617ZM2.154 24C1.55733 24 1.04911 23.7902 0.629333 23.3707C0.209778 22.9509 0 22.4427 0 21.846V4.82067C0 4.224 0.209778 3.71578 0.629333 3.296C1.04911 2.87644 1.55733 2.66667 2.154 2.66667H8.42067C8.29911 1.98622 8.46189 1.37167 8.909 0.823C9.35589 0.274333 9.94178 0 10.6667 0C11.4084 0 12.0029 0.274333 12.45 0.823C12.8971 1.37167 13.0513 1.98622 12.9127 2.66667H19.1793C19.776 2.66667 20.2842 2.87644 20.704 3.296C21.1236 3.71578 21.3333 4.224 21.3333 4.82067V21.846C21.3333 22.4427 21.1236 22.9509 20.704 23.3707C20.2842 23.7902 19.776 24 19.1793 24H2.154ZM2.154 22.6667H19.1793C19.3847 22.6667 19.5728 22.5812 19.7437 22.4103C19.9146 22.2394 20 22.0513 20 21.846V4.82067C20 4.61533 19.9146 4.42722 19.7437 4.25633C19.5728 4.08544 19.3847 4 19.1793 4H2.154C1.94867 4 1.76056 4.08544 1.58967 4.25633C1.41878 4.42722 1.33333 4.61533 1.33333 4.82067V21.846C1.33333 22.0513 1.41878 22.2394 1.58967 22.4103C1.76056 22.5812 1.94867 22.6667 2.154 22.6667ZM10.6667 3.25633C10.9556 3.25633 11.1944 3.16189 11.3833 2.973C11.5722 2.78411 11.6667 2.54522 11.6667 2.25633C11.6667 1.96744 11.5722 1.72856 11.3833 1.53967C11.1944 1.35078 10.9556 1.25633 10.6667 1.25633C10.3778 1.25633 10.1389 1.35078 9.95 1.53967C9.76111 1.72856 9.66667 1.96744 9.66667 2.25633C9.66667 2.54522 9.76111 2.78411 9.95 2.973C10.1389 3.16189 10.3778 3.25633 10.6667 3.25633Z" fill="#C89C66"/>
</svg>
