<svg width="32" height="32" viewBox="0 0 32 32" fill="none" xmlns="http://www.w3.org/2000/svg">
<mask id="mask0_26_21309" style="mask-type:alpha" maskUnits="userSpaceOnUse" x="0" y="0" width="32" height="32">
<rect width="32" height="32" fill="#D9D9D9"/>
</mask>
<g mask="url(#mask0_26_21309)">
<path d="M12.2307 28.9258C11.2084 28.9258 10.3132 28.6163 9.545 27.9974C8.77656 27.3788 8.247 26.5856 7.95633 25.6181C7.68633 26.0676 7.31333 26.4116 6.83733 26.6501C6.36111 26.8885 5.85978 27.0078 5.33333 27.0078C4.40511 27.0078 3.61756 26.6836 2.97067 26.0354C2.32356 25.3874 2 24.6004 2 23.6744C2 22.8555 2.28544 22.1099 2.85633 21.4374C3.42722 20.7648 4.14778 20.4241 5.018 20.4154C4.57 20.0052 4.21567 19.5116 3.955 18.9348C3.69433 18.3579 3.564 17.7574 3.564 17.1334C3.564 16.3936 3.74478 15.7002 4.10633 15.0531C4.46789 14.4058 4.97433 13.8719 5.62567 13.4514C5.68633 13.6481 5.76811 13.8583 5.871 14.0821C5.97411 14.3061 6.07956 14.5079 6.18733 14.6874C5.77356 15.0001 5.46067 15.3729 5.24867 15.8058C5.03667 16.2384 4.93067 16.6921 4.93067 17.1668C4.93067 18.5479 5.44178 19.4384 6.464 19.8384C7.48622 20.2384 8.53844 20.5444 9.62067 20.7564L9.92067 21.2848C9.67622 21.9959 9.47789 22.5971 9.32567 23.0884C9.17344 23.58 9.09733 24.0343 9.09733 24.4514C9.09733 25.2821 9.39833 26.009 10.0003 26.6321C10.6023 27.2552 11.3372 27.5668 12.205 27.5668C13.1521 27.5668 13.9291 27.2103 14.536 26.4974C15.1427 25.7848 15.6409 24.9387 16.0307 23.9591C16.4204 22.9795 16.7227 21.9719 16.9373 20.9361C17.1518 19.9001 17.3317 19.0531 17.477 18.3951L18.795 18.7618C18.6121 19.642 18.3932 20.6668 18.1383 21.8361C17.8837 23.0052 17.5209 24.1133 17.05 25.1604C16.5791 26.2073 15.9612 27.0966 15.1963 27.8284C14.4312 28.56 13.4427 28.9258 12.2307 28.9258ZM5.33333 25.6744C5.882 25.6744 6.35256 25.4783 6.745 25.0861C7.13722 24.6936 7.33333 24.2231 7.33333 23.6744C7.33333 23.1258 7.13722 22.6552 6.745 22.2628C6.35256 21.8705 5.882 21.6744 5.33333 21.6744C4.78467 21.6744 4.31411 21.8705 3.92167 22.2628C3.52944 22.6552 3.33333 23.1258 3.33333 23.6744C3.33333 24.2231 3.52944 24.6936 3.92167 25.0861C4.31411 25.4783 4.78467 25.6744 5.33333 25.6744ZM13.441 20.1771C12.5386 19.3684 11.7133 18.6124 10.9653 17.9091C10.2176 17.2058 9.57144 16.516 9.027 15.8398C8.48256 15.1638 8.06422 14.4878 7.772 13.8118C7.47956 13.1355 7.33333 12.4316 7.33333 11.7001C7.33333 10.4432 7.76356 9.38454 8.624 8.52409C9.48444 7.66365 10.5431 7.23343 11.8 7.23343C12.0427 7.23343 12.2614 7.24754 12.4563 7.27576C12.6512 7.30398 12.8359 7.34376 13.0103 7.39509C12.9043 7.18998 12.8206 6.97898 12.759 6.76209C12.6974 6.54543 12.6667 6.31787 12.6667 6.07943C12.6667 5.15365 12.9904 4.36665 13.638 3.71843C14.2856 3.0702 15.0719 2.74609 15.997 2.74609C16.9221 2.74609 17.7094 3.0702 18.359 3.71843C19.0086 4.36665 19.3333 5.15365 19.3333 6.07943C19.3333 6.32387 19.3026 6.55165 19.241 6.76276C19.1794 6.97387 19.0957 7.18209 18.9897 7.38743C19.1641 7.33609 19.3488 7.29754 19.5437 7.27176C19.7386 7.24621 19.9573 7.23343 20.2 7.23343C21.2084 7.23343 22.0897 7.5202 22.8437 8.09376C23.5974 8.66732 24.1146 9.39932 24.395 10.2898C24.1854 10.2573 23.9497 10.2411 23.6877 10.2411C23.4259 10.2411 23.1864 10.2548 22.9693 10.2821C22.7282 9.77098 22.3637 9.35732 21.8757 9.04109C21.3877 8.72487 20.8329 8.56676 20.2113 8.56676C19.3747 8.56676 18.7098 8.78176 18.2167 9.21176C17.7236 9.64154 17.0821 10.3154 16.2923 11.2334H15.6743C14.8623 10.2881 14.2098 9.60731 13.7167 9.19109C13.2236 8.77487 12.5847 8.56676 11.8 8.56676C10.8967 8.56676 10.1487 8.8632 9.556 9.45609C8.96311 10.0488 8.66667 10.7968 8.66667 11.7001C8.66667 12.2168 8.79833 12.7502 9.06167 13.3004C9.32478 13.8506 9.70333 14.4313 10.1973 15.0424C10.6916 15.6535 11.2908 16.3035 11.995 16.9924C12.6992 17.6813 13.4983 18.4258 14.3923 19.2258L13.441 20.1771ZM16 8.07943C16.5487 8.07943 17.0192 7.88332 17.4117 7.49109C17.8039 7.09887 18 6.62832 18 6.07943C18 5.53076 17.8039 5.06031 17.4117 4.66809C17.0192 4.27565 16.5487 4.07943 16 4.07943C15.4513 4.07943 14.9808 4.27565 14.5883 4.66809C14.1961 5.06031 14 5.53076 14 6.07943C14 6.62832 14.1961 7.09887 14.5883 7.49109C14.9808 7.88332 15.4513 8.07943 16 8.07943ZM19.6847 28.9514C19.3682 28.9514 19.0554 28.9175 18.7463 28.8498C18.4372 28.7822 18.1389 28.6751 17.8513 28.5284C17.9749 28.3686 18.0984 28.1803 18.222 27.9634C18.3456 27.7465 18.4579 27.5468 18.559 27.3641C18.7563 27.4461 18.9538 27.5047 19.1513 27.5398C19.3487 27.5749 19.5461 27.5924 19.7437 27.5924C20.6086 27.5924 21.3482 27.2816 21.9627 26.6601C22.5773 26.0388 22.8847 25.3 22.8847 24.4438C22.8847 24.0266 22.8086 23.5766 22.6563 23.0938C22.5043 22.6109 22.3061 22.0139 22.0617 21.3028L22.3873 20.7744C23.4916 20.5624 24.5492 20.2522 25.5603 19.8438C26.5714 19.4351 27.077 18.5402 27.077 17.1591C27.077 16.0822 26.6979 15.2839 25.9397 14.7641C25.1817 14.2445 24.3282 13.9848 23.3793 13.9848C22.4833 13.9848 21.438 14.1369 20.2433 14.4411C19.0487 14.7453 17.6692 15.1581 16.105 15.6794L15.7383 14.3618C17.2666 13.8744 18.6422 13.459 19.8653 13.1154C21.0882 12.7719 22.2109 12.6001 23.2333 12.6001C24.5787 12.6001 25.7778 12.9959 26.8307 13.7874C27.8838 14.5788 28.4103 15.7026 28.4103 17.1591C28.4103 17.7758 28.2842 18.3615 28.032 18.9164C27.78 19.4713 27.43 19.971 26.982 20.4154C27.8522 20.4412 28.5728 20.7819 29.1437 21.4374C29.7146 22.093 30 22.8386 30 23.6744C30 24.5804 29.6764 25.3625 29.0293 26.0208C28.3824 26.6788 27.5949 27.0078 26.6667 27.0078C26.1402 27.0078 25.6389 26.8885 25.1627 26.6501C24.6867 26.4116 24.3137 26.0676 24.0437 25.6181C23.753 26.5856 23.2149 27.3831 22.4293 28.0104C21.644 28.6378 20.7291 28.9514 19.6847 28.9514ZM26.7 25.6744C27.2487 25.6744 27.7137 25.4783 28.095 25.0861C28.4761 24.6936 28.6667 24.2231 28.6667 23.6744C28.6667 23.1258 28.4706 22.6496 28.0783 22.2461C27.6859 21.8428 27.2153 21.6411 26.6667 21.6411C26.118 21.6411 25.6474 21.8372 25.255 22.2294C24.8628 22.6219 24.6667 23.0924 24.6667 23.6411C24.6667 24.1898 24.8683 24.6659 25.2717 25.0694C25.6752 25.4728 26.1513 25.6744 26.7 25.6744Z" fill="#C89C66"/>
</g>
</svg>
