<svg width="81" height="63" viewBox="0 0 81 63" fill="none" xmlns="http://www.w3.org/2000/svg">
<path d="M24.6656 18.4213V13.3043H11.291V18.4213H14.3612V29.3612H11.291V34.4782H24.6656V29.3612H21.5954V18.4213H24.6656ZM39.4165 21.4209C38.6048 21.1739 34.3348 19.9741 33.5938 19.727C32.8527 19.48 32.2528 19.1271 32.2528 18.7036C32.2528 18.2802 32.9233 17.7861 34.2995 17.7861C38.6048 17.7861 40.6869 20.4328 40.6869 20.4328C40.6869 20.4328 40.9339 20.7504 41.0045 20.8563H45.1686V13.6219H40.6869V14.9276C40.334 14.6806 37.8285 13.0573 33.9114 13.0573C28.7591 13.0573 25.9007 15.7393 25.9007 19.727C25.9007 23.7148 29.5355 25.3734 30.5236 25.7969C31.5117 26.2204 35.4641 27.3144 37.158 27.8437C38.8518 28.3731 39.4518 28.7612 39.4518 29.0083C39.4518 29.2553 38.7107 29.9964 36.6286 29.9964C32.9586 29.9964 31.0882 27.8437 30.7353 27.4202C30.7353 27.4202 30.5236 27.1026 30.453 27.032C30.4177 26.9615 30.2766 26.785 30.206 26.6791H26.0419V34.4076H30.7001V32.7843C31.2294 33.1372 34.0172 34.8664 37.3697 34.8664C41.1104 34.8664 45.8391 33.243 45.8391 28.1966C45.8391 23.1502 40.1928 21.5974 39.3812 21.3504L39.4165 21.4209ZM57.7315 12.9867C51.5207 12.9867 46.439 16.0922 46.439 24.0324C46.439 31.9726 51.9794 34.937 57.7668 34.937C63.5543 34.937 69.0594 32.0079 69.0594 24.1383C69.0594 16.2686 63.5895 13.022 57.7668 13.022L57.7315 12.9867ZM57.8021 29.6435C55.6848 29.6435 54.3085 29.1494 54.3085 23.9971C54.3085 18.8448 55.3319 18.3154 57.8727 18.3154C59.4254 18.3154 61.2958 18.4213 61.2958 23.8559C61.2958 29.2906 59.9195 29.6435 57.7668 29.6435H57.8021ZM20.1839 10.9399C21.5954 8.89305 23.2893 7.05797 25.2655 5.54051C26.0772 6.14044 26.9241 6.66978 27.8063 7.12855C26.3242 8.78718 24.9832 10.6222 24.7715 10.9399H25.6537C26.183 10.2341 27.3123 8.75189 28.4768 7.48145C29.7472 8.11667 31.1235 8.61073 32.5351 8.99892C32.1469 9.81058 31.8646 10.5164 31.6881 10.9399H32.4645C32.641 10.4811 32.888 9.88116 33.2409 9.17536C35.0406 9.63413 36.9462 9.88116 38.8871 9.91645V10.9399H39.5929V9.91645C41.5338 9.91645 43.4041 9.66942 45.2039 9.28123C45.5215 9.91645 45.7685 10.5164 45.945 10.9399H46.7213C46.5449 10.5164 46.2979 9.88116 45.945 9.10478C47.3918 8.7166 48.7681 8.22254 50.0738 7.62261C51.2031 8.89305 52.2617 10.2694 52.7558 10.9399H53.638C53.4263 10.6575 52.1559 8.89305 50.709 7.26971C51.6971 6.77565 52.6499 6.17573 53.4968 5.54051C55.473 7.05797 57.1669 8.89305 58.5785 10.9399H59.4607C55.1907 4.37594 47.78 0 39.3812 0C30.9824 0 23.6069 4.37594 19.3369 10.9399H20.2192H20.1839ZM32.8527 8.3637C31.5117 8.0108 30.206 7.51674 29.0062 6.9521C29.1826 6.77565 29.3238 6.5992 29.5002 6.45805C31.1588 4.83471 33.9114 3.07022 34.5113 2.68203C35.0053 2.96435 35.5347 3.17609 36.0993 3.35254C35.6758 3.91718 34.7936 5.11703 33.8408 6.59921C33.4879 7.16384 33.135 7.79906 32.8527 8.3637ZM38.8871 9.21065C37.0521 9.17536 35.2876 8.96363 33.5585 8.54015C33.8408 8.0108 34.1231 7.48145 34.4407 6.98739C35.5347 5.25819 36.5228 3.98775 36.8404 3.56428C37.4756 3.70544 38.1814 3.81131 38.8871 3.8466V9.21065ZM39.5929 9.21065V3.8466C40.2987 3.8466 40.9692 3.77602 41.6044 3.63486C41.9926 4.12891 42.9101 5.36406 43.9335 6.98739C44.2864 7.51674 44.5687 8.08138 44.851 8.64602C43.1571 9.03421 41.3927 9.21065 39.5576 9.24594L39.5929 9.21065ZM45.5921 8.43428C45.2745 7.83435 44.9216 7.16384 44.5334 6.56391C43.6512 5.15232 42.8042 4.02305 42.3455 3.42312C42.9454 3.24667 43.51 3.03493 44.0394 2.75261C44.8863 3.28196 47.3565 4.90529 48.874 6.38747C49.0857 6.5992 49.2974 6.81094 49.5092 7.02268C48.2741 7.58732 46.9331 8.04609 45.5568 8.39899L45.5921 8.43428ZM52.9322 5.08174C52.0853 5.68167 51.1678 6.24631 50.215 6.70507C49.9326 6.42276 49.6856 6.14044 49.4033 5.89341C47.9565 4.5171 45.8038 3.03493 44.7451 2.36442C45.098 2.11739 45.4156 1.87036 45.7332 1.58804C48.3446 2.32913 50.7443 3.52899 52.8969 5.08174H52.9322ZM39.4165 0.705797C41.3221 0.705797 43.1571 0.952826 44.9569 1.3763C43.6159 2.47029 41.6044 3.10551 39.4165 3.10551C37.2285 3.10551 35.2171 2.47029 33.8761 1.3763C35.6405 0.952826 37.5109 0.705797 39.4165 0.705797ZM33.0644 1.58804C33.3114 1.79978 33.5585 2.01152 33.8408 2.22326C32.888 2.82319 30.5236 4.41123 29.0062 5.89341C28.7944 6.10515 28.5474 6.35218 28.3357 6.56391C27.4887 6.10515 26.6771 5.61109 25.9007 5.08174C28.0534 3.52899 30.453 2.32913 33.0644 1.58804ZM58.6491 36.8426C57.2728 38.8541 55.6142 40.6539 53.7086 42.1361C52.7911 41.4656 51.803 40.8304 50.7796 40.301C52.0147 38.8894 53.144 37.4073 53.5674 36.8426H52.6852C52.1206 37.5837 51.1678 38.8189 50.1444 39.9834C48.8387 39.3482 47.4624 38.8541 46.0155 38.5012C46.3331 37.8307 46.5449 37.2661 46.7213 36.8426H45.945C45.7685 37.2308 45.5568 37.7602 45.3098 38.3248C43.51 37.9013 41.6397 37.6896 39.6988 37.6896V36.8779H38.993V37.7249C37.0521 37.7602 35.1465 38.0072 33.3467 38.466C33.0644 37.866 32.8174 37.3367 32.641 36.9132H31.8646C32.041 37.3367 32.2881 37.9719 32.6057 38.6424C31.1941 39.0306 29.8178 39.5599 28.5474 40.1599C27.4887 38.96 26.4654 37.6543 25.8654 36.8779H24.9832C25.4067 37.4778 26.6065 39.0306 27.8769 40.5128C26.9241 41.0068 26.0419 41.5715 25.2302 42.2067C23.3246 40.7245 21.6307 38.9247 20.2898 36.9132H19.4075C23.6775 43.4771 31.0882 47.8531 39.487 47.8531C47.8859 47.8531 55.2966 43.4771 59.5666 36.9132H58.6844L58.6491 36.8426ZM45.6274 39.1365C47.0036 39.4894 48.3093 39.9481 49.5798 40.5128C49.368 40.7245 49.1563 40.9362 48.9445 41.148C47.3918 42.6302 44.9569 44.2535 44.1099 44.7828C43.5806 44.5005 43.016 44.2888 42.416 44.1123C42.8748 43.5124 43.6865 42.3831 44.604 40.9715C44.9922 40.3716 45.3451 39.7011 45.6627 39.1012L45.6274 39.1365ZM39.6282 38.3601C41.428 38.3601 43.2277 38.5718 44.9216 38.96C44.6393 39.5246 44.3217 40.0893 44.0041 40.6186C42.9807 42.242 42.0279 43.4771 41.675 43.9712C41.0398 43.83 40.334 43.7594 39.6635 43.7594V38.3954L39.6282 38.3601ZM38.9224 38.3601V43.7241C38.2166 43.7241 37.5461 43.8653 36.8757 44.0065C36.5581 43.583 35.57 42.3125 34.476 40.5833C34.1584 40.0893 33.8408 39.5247 33.5938 39.0306C35.2876 38.6424 37.0874 38.3954 38.9224 38.3601ZM32.888 39.207C33.1703 39.807 33.5232 40.4069 33.8761 40.9715C34.8289 42.4537 35.6758 43.6183 36.1346 44.2182C35.57 44.3946 35.0406 44.6417 34.5466 44.8887C33.9467 44.5005 31.1941 42.736 29.5355 41.1127C29.3591 40.9715 29.2179 40.7951 29.0415 40.6186C30.2766 40.0187 31.547 39.5599 32.888 39.207ZM25.7949 42.5596C26.6065 41.9597 27.4534 41.4303 28.371 40.9715C28.5827 41.2186 28.8297 41.4303 29.0415 41.642C30.5942 43.1242 32.9233 44.677 33.8761 45.3122C33.5232 45.5592 33.2409 45.8062 32.9586 46.0886C30.3472 45.3122 27.9475 44.1123 25.7949 42.5596ZM39.4518 47.0061C37.4756 47.0061 35.57 46.7591 33.7349 46.3003C35.0759 45.1357 37.1933 44.4299 39.4518 44.4299C41.7103 44.4299 43.8276 45.1357 45.1686 46.3003C43.3336 46.7591 41.428 47.0061 39.4518 47.0061ZM45.9803 46.0886C45.6627 45.7357 45.2745 45.4533 44.851 45.171C45.9097 44.5005 48.0623 43.0183 49.4739 41.642C49.7562 41.395 50.0032 41.1127 50.2855 40.8304C51.2736 41.3244 52.2264 41.9244 53.1087 42.5596C50.956 44.1123 48.5564 45.3122 45.945 46.0886H45.9803Z" fill="#C89C66"/>
<path d="M1.70277 53.3441H2.5214V62.1572H1.70277V53.3441ZM7.22284 62.3107C6.66856 62.3107 6.1697 62.1956 5.72628 61.9654C5.29138 61.7351 4.94602 61.4324 4.6902 61.0572C4.43437 60.6735 4.29794 60.2641 4.28088 59.8292H5.08672C5.12083 60.1277 5.22742 60.4091 5.4065 60.6735C5.5941 60.9293 5.8414 61.1382 6.14839 61.3002C6.4639 61.4537 6.82205 61.5305 7.22284 61.5305C7.67479 61.5305 8.05853 61.4452 8.37404 61.2746C8.69808 61.1041 8.94111 60.8824 9.10313 60.6095C9.26516 60.3366 9.34617 60.0552 9.34617 59.7653C9.34617 59.3219 9.18415 58.968 8.8601 58.7036C8.53606 58.4393 8.12248 58.2431 7.61936 58.1152L6.42979 57.8338C5.61969 57.6462 5.06967 57.352 4.77973 56.9512C4.4898 56.5505 4.34484 56.1156 4.34484 55.6465C4.34484 55.1775 4.47275 54.7554 4.72857 54.3802C4.99292 54.005 5.33828 53.7151 5.76465 53.5104C6.19955 53.2972 6.65577 53.1906 7.1333 53.1906C7.63642 53.1906 8.09264 53.2887 8.50195 53.4848C8.91127 53.681 9.23531 53.9581 9.47408 54.3163C9.72137 54.6744 9.85355 55.0923 9.8706 55.5698H9.05197C9.02639 55.0923 8.83026 54.7085 8.46358 54.4186C8.10543 54.1201 7.65774 53.9709 7.12051 53.9709C6.77941 53.9709 6.45964 54.0434 6.16118 54.1884C5.86272 54.3248 5.61969 54.5209 5.43208 54.7767C5.25301 55.0326 5.16347 55.3182 5.16347 55.6338C5.16347 55.9322 5.25727 56.2136 5.44487 56.478C5.641 56.7338 6.03326 56.9342 6.62166 57.0792L7.82402 57.3733C8.55738 57.5609 9.13298 57.8466 9.55082 58.2304C9.96867 58.6141 10.1776 59.1129 10.1776 59.7269C10.1776 60.1533 10.0625 60.5669 9.83223 60.9677C9.60199 61.3684 9.26516 61.6925 8.82173 61.9398C8.3783 62.1871 7.84534 62.3107 7.22284 62.3107ZM15.658 62.3107C14.8394 62.3107 14.0889 62.1061 13.4067 61.6967C12.7331 61.2874 12.2001 60.7374 11.8079 60.0467C11.4156 59.3474 11.2195 58.5885 11.2195 57.7699C11.2195 56.9427 11.4156 56.1795 11.8079 55.4803C12.2001 54.781 12.7331 54.2267 13.4067 53.8174C14.0889 53.3996 14.8394 53.1906 15.658 53.1906C16.4766 53.1906 17.227 53.3996 17.9092 53.8174C18.5914 54.2267 19.1286 54.781 19.5209 55.4803C19.9132 56.1795 20.1093 56.9427 20.1093 57.7699C20.1093 58.5885 19.9132 59.3474 19.5209 60.0467C19.1286 60.7374 18.5914 61.2874 17.9092 61.6967C17.227 62.1061 16.4766 62.3107 15.658 62.3107ZM15.658 61.5305C16.3231 61.5305 16.9328 61.3642 17.4871 61.0316C18.0499 60.6905 18.4891 60.23 18.8046 59.6502C19.1286 59.0703 19.2907 58.4435 19.2907 57.7699C19.2907 57.0962 19.1286 56.4652 18.8046 55.8768C18.4891 55.2884 18.0499 54.8236 17.4871 54.4826C16.9328 54.1415 16.3231 53.9709 15.658 53.9709C14.9928 53.9709 14.3831 54.1457 13.8289 54.4953C13.2746 54.8364 12.8354 55.3012 12.5114 55.8896C12.1959 56.4694 12.0381 57.0962 12.0381 57.7699C12.0381 58.4435 12.1959 59.0703 12.5114 59.6502C12.8354 60.2215 13.2746 60.6777 13.8289 61.0188C14.3831 61.3599 14.9928 61.5305 15.658 61.5305ZM25.795 54.3163L26.1019 54.6872L23.9658 55.5954V54.8151L26.5368 53.6255H26.588V62.1572H25.795V54.3163ZM32.2543 55.4163L32.395 55.4675L28.9414 59.906L28.7623 59.6118H34.3136V60.3793H27.8413V60.1874L32.8682 53.7407H33.0473V62.1572H32.2543V55.4163ZM38.3623 62.3107C37.2538 62.3107 36.4778 61.9227 36.0343 61.1467C35.5909 60.3622 35.3692 59.3005 35.3692 57.9617C35.3692 56.6144 35.5909 55.557 36.0343 54.7895C36.4778 54.0135 37.2538 53.6255 38.3623 53.6255C39.4624 53.6255 40.2341 54.0135 40.6775 54.7895C41.1209 55.557 41.3427 56.6144 41.3427 57.9617C41.3427 59.3005 41.1209 60.3622 40.6775 61.1467C40.2341 61.9227 39.4624 62.3107 38.3623 62.3107ZM38.3623 61.556C39.1724 61.556 39.7395 61.232 40.0635 60.5839C40.3876 59.9358 40.5496 59.0618 40.5496 57.9617C40.5496 56.8532 40.3876 55.9834 40.0635 55.3523C39.7395 54.7128 39.1724 54.393 38.3623 54.393C37.5437 54.393 36.9724 54.7128 36.6483 55.3523C36.3243 55.9919 36.1623 56.8617 36.1623 57.9617C36.1623 59.0618 36.3243 59.9358 36.6483 60.5839C36.9724 61.232 37.5437 61.556 38.3623 61.556ZM45.6887 62.3107C44.5802 62.3107 43.8042 61.9227 43.3608 61.1467C42.9173 60.3622 42.6956 59.3005 42.6956 57.9617C42.6956 56.6144 42.9173 55.557 43.3608 54.7895C43.8042 54.0135 44.5802 53.6255 45.6887 53.6255C46.7888 53.6255 47.5605 54.0135 48.0039 54.7895C48.4474 55.557 48.6691 56.6144 48.6691 57.9617C48.6691 59.3005 48.4474 60.3622 48.0039 61.1467C47.5605 61.9227 46.7888 62.3107 45.6887 62.3107ZM45.6887 61.556C46.4989 61.556 47.0659 61.232 47.39 60.5839C47.714 59.9358 47.876 59.0618 47.876 57.9617C47.876 56.8532 47.714 55.9834 47.39 55.3523C47.0659 54.7128 46.4989 54.393 45.6887 54.393C44.8701 54.393 44.2988 54.7128 43.9747 55.3523C43.6507 55.9919 43.4887 56.8617 43.4887 57.9617C43.4887 59.0618 43.6507 59.9358 43.9747 60.5839C44.2988 61.232 44.8701 61.556 45.6887 61.556ZM51.3907 54.3163L51.6977 54.6872L49.5616 55.5954V54.8151L52.1326 53.6255H52.1837V62.1572H51.3907V54.3163ZM54.7801 57.2454C54.6011 57.2454 54.4476 57.19 54.3197 57.0792C54.2003 56.9683 54.1406 56.8276 54.1406 56.657C54.1406 56.478 54.2003 56.333 54.3197 56.2221C54.4476 56.1113 54.6011 56.0559 54.7801 56.0559C54.9592 56.0559 55.1084 56.1113 55.2278 56.2221C55.3557 56.333 55.4197 56.478 55.4197 56.657C55.4197 56.8276 55.3557 56.9683 55.2278 57.0792C55.1084 57.19 54.9592 57.2454 54.7801 57.2454ZM54.7801 62.2851C54.6011 62.2851 54.4476 62.2297 54.3197 62.1189C54.2003 62.008 54.1406 61.8673 54.1406 61.6967C54.1406 61.5177 54.2003 61.3727 54.3197 61.2618C54.4476 61.151 54.6011 61.0956 54.7801 61.0956C54.9592 61.0956 55.1084 61.151 55.2278 61.2618C55.3557 61.3727 55.4197 61.5177 55.4197 61.6967C55.4197 61.8673 55.3557 62.008 55.2278 62.1189C55.1084 62.2297 54.9592 62.2851 54.7801 62.2851ZM56.7268 61.8119L60.0653 57.7955C60.3211 57.4799 60.5258 57.1687 60.6792 56.8617C60.8413 56.5462 60.9223 56.2648 60.9223 56.0175C60.9223 55.5314 60.7603 55.1392 60.4362 54.8407C60.1122 54.5422 59.6943 54.393 59.1827 54.393C58.7137 54.393 58.3172 54.5124 57.9931 54.7512C57.6691 54.9814 57.4687 55.2969 57.3919 55.6977L56.6756 55.5314C56.778 54.9516 57.0551 54.4911 57.507 54.15C57.9675 53.8004 58.5261 53.6255 59.1827 53.6255C59.6773 53.6255 60.1164 53.7279 60.5002 53.9325C60.8839 54.1287 61.1824 54.4101 61.3955 54.7767C61.6087 55.1349 61.7153 55.5485 61.7153 56.0175C61.7153 56.3586 61.6258 56.7167 61.4467 57.0919C61.2762 57.4671 61.0502 57.8253 60.7688 58.1664L57.878 61.62L57.7757 61.377H61.8177V62.1572H56.7268V61.8119ZM66.0631 62.3107C64.9545 62.3107 64.1785 61.9227 63.7351 61.1467C63.2917 60.3622 63.07 59.3005 63.07 57.9617C63.07 56.6144 63.2917 55.557 63.7351 54.7895C64.1785 54.0135 64.9545 53.6255 66.0631 53.6255C67.1631 53.6255 67.9349 54.0135 68.3783 54.7895C68.8217 55.557 69.0434 56.6144 69.0434 57.9617C69.0434 59.3005 68.8217 60.3622 68.3783 61.1467C67.9349 61.9227 67.1631 62.3107 66.0631 62.3107ZM66.0631 61.556C66.8732 61.556 67.4403 61.232 67.7643 60.5839C68.0884 59.9358 68.2504 59.0618 68.2504 57.9617C68.2504 56.8532 68.0884 55.9834 67.7643 55.3523C67.4403 54.7128 66.8732 54.393 66.0631 54.393C65.2445 54.393 64.6731 54.7128 64.3491 55.3523C64.0251 55.9919 63.863 56.8617 63.863 57.9617C63.863 59.0618 64.0251 59.9358 64.3491 60.5839C64.6731 61.232 65.2445 61.556 66.0631 61.556ZM71.7651 54.3163L72.072 54.6872L69.9359 55.5954V54.8151L72.5069 53.6255H72.5581V62.1572H71.7651V54.3163ZM77.0988 62.3107C76.4507 62.3107 75.8708 62.153 75.3592 61.8374C74.8475 61.5134 74.451 61.087 74.1696 60.5583L74.8475 60.1874C75.0607 60.5967 75.3592 60.9293 75.7429 61.1851C76.1266 61.4324 76.5615 61.556 77.0476 61.556C77.4569 61.556 77.8236 61.4708 78.1476 61.3002C78.4717 61.1211 78.7232 60.8781 78.9023 60.5711C79.0899 60.2641 79.1837 59.9188 79.1837 59.535C79.1837 59.1598 79.0942 58.8273 78.9151 58.5373C78.7445 58.2389 78.5058 58.0129 78.1988 57.8594C77.8918 57.6974 77.5464 57.6164 77.1627 57.6164C76.8216 57.6164 76.4549 57.6803 76.0627 57.8082C75.6704 57.9276 75.2952 58.0982 74.9371 58.3199L74.4766 57.9106L75.2057 53.7407H79.414V54.4953H75.5382L75.922 54.1628L75.2696 57.7443L75.1673 57.5524C75.4913 57.3478 75.8367 57.1857 76.2034 57.0664C76.5786 56.947 76.9495 56.8873 77.3162 56.8873C77.8279 56.8873 78.2841 56.9981 78.6849 57.2199C79.0942 57.433 79.4097 57.74 79.6314 58.1408C79.8616 58.5331 79.9768 58.9936 79.9768 59.5223C79.9768 60.0595 79.8531 60.5413 79.6058 60.9677C79.3585 61.394 79.0132 61.7266 78.5697 61.9654C78.1348 62.1956 77.6445 62.3107 77.0988 62.3107Z" fill="#C89C66"/>
</svg>
