<svg width="80" height="80" viewBox="0 0 80 80" fill="none" xmlns="http://www.w3.org/2000/svg">
<g opacity="0.4">
<mask id="mask0_26_12347" style="mask-type:alpha" maskUnits="userSpaceOnUse" x="0" y="0" width="80" height="80">
<rect width="80" height="80" fill="#D9D9D9"/>
</mask>
<g mask="url(#mask0_26_12347)">
<path d="M19.2308 67.4361C17.3792 67.4361 15.805 66.7881 14.5083 65.492C13.2122 64.1953 12.5642 62.6211 12.5642 60.7695C12.5642 59.2011 13.0394 57.8261 13.99 56.6445C14.9411 55.4628 16.1325 54.682 17.5642 54.302V25.6986C16.1325 25.3186 14.9411 24.5378 13.99 23.3561C13.0394 22.1745 12.5642 20.7995 12.5642 19.2311C12.5642 17.3795 13.2122 15.8053 14.5083 14.5086C15.805 13.2125 17.3792 12.5645 19.2308 12.5645C20.7992 12.5645 22.1742 13.0397 23.3558 13.9903C24.5375 14.9414 25.3183 16.1328 25.6983 17.5645H54.3017C54.6689 16.1328 55.4481 14.9414 56.6392 13.9903C57.8303 13.0397 59.2069 12.5645 60.7692 12.5645C62.6208 12.5645 64.195 13.2125 65.4917 14.5086C66.7878 15.8053 67.4358 17.3795 67.4358 19.2311C67.4358 20.7933 66.9606 22.17 66.01 23.3611C65.0589 24.5522 63.8675 25.3314 62.4358 25.6986V54.302C63.8675 54.682 65.0589 55.4628 66.01 56.6445C66.9606 57.8261 67.4358 59.2011 67.4358 60.7695C67.4358 62.6211 66.7878 64.1953 65.4917 65.492C64.195 66.7881 62.6208 67.4361 60.7692 67.4361C59.2008 67.4361 57.8258 66.9608 56.6442 66.0103C55.4625 65.0592 54.6817 63.8678 54.3017 62.4361H25.6983C25.3183 63.8678 24.5375 65.0592 23.3558 66.0103C22.1742 66.9608 20.7992 67.4361 19.2308 67.4361ZM19.2308 22.5645C20.1753 22.5645 20.9669 22.245 21.6058 21.6061C22.2447 20.9672 22.5642 20.1756 22.5642 19.2311C22.5642 18.2867 22.2447 17.495 21.6058 16.8561C20.9669 16.2172 20.1753 15.8978 19.2308 15.8978C18.2864 15.8978 17.4947 16.2172 16.8558 16.8561C16.2169 17.495 15.8975 18.2867 15.8975 19.2311C15.8975 20.1756 16.2169 20.9672 16.8558 21.6061C17.4947 22.245 18.2864 22.5645 19.2308 22.5645ZM60.7692 22.5645C61.7136 22.5645 62.5053 22.245 63.1442 21.6061C63.7831 20.9672 64.1025 20.1756 64.1025 19.2311C64.1025 18.2867 63.7831 17.495 63.1442 16.8561C62.5053 16.2172 61.7136 15.8978 60.7692 15.8978C59.8247 15.8978 59.0331 16.2172 58.3942 16.8561C57.7553 17.495 57.4358 18.2867 57.4358 19.2311C57.4358 20.1756 57.7553 20.9672 58.3942 21.6061C59.0331 22.245 59.8247 22.5645 60.7692 22.5645ZM25.6983 59.1028H54.3017C54.6306 57.915 55.2158 56.9 56.0575 56.0578C56.8997 55.2161 57.9147 54.6308 59.1025 54.302V25.6986C57.9147 25.4125 56.8892 24.8378 56.0258 23.9745C55.1625 23.1111 54.5878 22.0856 54.3017 20.8978H25.6983C25.3694 22.0856 24.7842 23.1006 23.9425 23.9428C23.1003 24.7845 22.0853 25.3697 20.8975 25.6986V54.302C22.0853 54.6308 23.1003 55.2161 23.9425 56.0578C24.7842 56.9 25.3694 57.915 25.6983 59.1028ZM60.7692 64.1028C61.7136 64.1028 62.5053 63.7833 63.1442 63.1445C63.7831 62.5056 64.1025 61.7139 64.1025 60.7695C64.1025 59.825 63.7831 59.0333 63.1442 58.3945C62.5053 57.7556 61.7136 57.4361 60.7692 57.4361C59.8247 57.4361 59.0331 57.7556 58.3942 58.3945C57.7553 59.0333 57.4358 59.825 57.4358 60.7695C57.4358 61.7139 57.7553 62.5056 58.3942 63.1445C59.0331 63.7833 59.8247 64.1028 60.7692 64.1028ZM19.2308 64.1028C20.1753 64.1028 20.9669 63.7833 21.6058 63.1445C22.2447 62.5056 22.5642 61.7139 22.5642 60.7695C22.5642 59.825 22.2447 59.0333 21.6058 58.3945C20.9669 57.7556 20.1753 57.4361 19.2308 57.4361C18.2864 57.4361 17.4947 57.7556 16.8558 58.3945C16.2169 59.0333 15.8975 59.825 15.8975 60.7695C15.8975 61.7139 16.2169 62.5056 16.8558 63.1445C17.4947 63.7833 18.2864 64.1028 19.2308 64.1028Z" fill="#7B7B7B"/>
</g>
</g>
</svg>
