<svg width="18" height="18" viewBox="0 0 18 18" fill="none" xmlns="http://www.w3.org/2000/svg">
<mask id="mask0_26_13891" style="mask-type:alpha" maskUnits="userSpaceOnUse" x="0" y="0" width="18" height="18">
<rect width="17.424" height="17.424" fill="#D9D9D9"/>
</mask>
<g mask="url(#mask0_26_13891)">
<path d="M10.8906 14.5208C9.26916 14.5208 7.89581 13.9581 6.77051 12.8328C5.64521 11.7075 5.08256 10.3342 5.08256 8.71279C5.08256 7.10349 5.64521 5.73316 6.77051 4.60181C7.89581 3.47046 9.26916 2.90479 10.8906 2.90479C12.4999 2.90479 13.8702 3.47046 15.0015 4.60181C16.1329 5.73316 16.6986 7.10349 16.6986 8.71279C16.6986 10.3342 16.1329 11.7075 15.0015 12.8328C13.8702 13.9581 12.4999 14.5208 10.8906 14.5208ZM10.8906 13.0688C12.1006 13.0688 13.1291 12.6453 13.9761 11.7983C14.8231 10.9513 15.2466 9.92279 15.2466 8.71279C15.2466 7.50279 14.8231 6.47429 13.9761 5.62729C13.1291 4.78029 12.1006 4.35679 10.8906 4.35679C9.68056 4.35679 8.65206 4.78029 7.80506 5.62729C6.95806 6.47429 6.53456 7.50279 6.53456 8.71279C6.53456 9.92279 6.95806 10.9513 7.80506 11.7983C8.65206 12.6453 9.68056 13.0688 10.8906 13.0688ZM12.5422 11.4171L13.5768 10.3826L11.6166 8.42239V5.80879H10.1646V9.02134L12.5422 11.4171ZM1.45256 6.53479V5.08279H4.35656V6.53479H1.45256ZM0.726562 9.43879V7.98679H4.35656V9.43879H0.726562ZM1.45256 12.3428V10.8908H4.35656V12.3428H1.45256Z" fill="#591B42"/>
</g>
</svg>
