<svg width="18" height="18" viewBox="0 0 18 18" fill="none" xmlns="http://www.w3.org/2000/svg">
<mask id="mask0_26_15203" style="mask-type:alpha" maskUnits="userSpaceOnUse" x="0" y="0" width="18" height="18">
<rect width="17.424" height="17.424" fill="#D9D9D9"/>
</mask>
<g mask="url(#mask0_26_15203)">
<path d="M10.8901 14.5203C9.26867 14.5203 7.89532 13.9576 6.77002 12.8323C5.64472 11.707 5.08207 10.3337 5.08207 8.7123C5.08207 7.103 5.64472 5.73267 6.77002 4.60132C7.89532 3.46997 9.26867 2.9043 10.8901 2.9043C12.4994 2.9043 13.8697 3.46997 15.001 4.60132C16.1324 5.73267 16.6981 7.103 16.6981 8.7123C16.6981 10.3337 16.1324 11.707 15.001 12.8323C13.8697 13.9576 12.4994 14.5203 10.8901 14.5203ZM12.5417 11.4166L13.5763 10.3821L11.6161 8.4219V5.8083H10.1641V9.02085L12.5417 11.4166ZM1.45207 6.5343V5.0823H4.35607V6.5343H1.45207ZM0.726074 9.4383V7.9863H4.35607V9.4383H0.726074ZM1.45207 12.3423V10.8903H4.35607V12.3423H1.45207Z" fill="#591B42"/>
</g>
</svg>
