<svg width="48" height="48" viewBox="0 0 48 48" fill="none" xmlns="http://www.w3.org/2000/svg">
<mask id="mask0_26_10231" style="mask-type:alpha" maskUnits="userSpaceOnUse" x="0" y="0" width="48" height="48">
<rect width="48" height="48" fill="#D9D9D9"/>
</mask>
<g mask="url(#mask0_26_10231)">
<path d="M23.3016 29.1619L18.6476 24.5079L32.7091 10.4464C33.0271 10.1234 33.4047 9.96191 33.8421 9.96191C34.2791 9.96191 34.6592 10.1234 34.9826 10.4464L37.3631 12.8274C37.6861 13.1454 37.8476 13.5229 37.8476 13.9599C37.8476 14.3972 37.6861 14.7774 37.3631 15.1004L23.3016 29.1619ZM23.3016 26.3079L35.7016 13.9579L33.8516 12.1079L21.5016 24.5079L23.3016 26.3079ZM25.6941 38.4234L27.6941 36.4234H44.2706V38.4234H25.6941ZM11.4206 38.4619C10.4906 38.4619 9.59592 38.3286 8.73658 38.0619C7.87725 37.7952 7.06808 37.3977 6.30908 36.8694L16.5206 26.6694L20.2976 30.4464C20.5969 30.7297 20.8321 31.0534 21.0031 31.4174C21.1737 31.7817 21.2591 32.1661 21.2591 32.5704C21.2591 32.9751 21.1771 33.3647 21.0131 33.7394C20.8491 34.1144 20.6234 34.4437 20.3361 34.7274L19.3861 35.7159C18.4991 36.6286 17.4626 37.3144 16.2766 37.7734C15.0906 38.2324 13.8719 38.4619 12.6206 38.4619H11.4206ZM11.4206 36.4619H12.6206C13.6206 36.4619 14.5872 36.2702 15.5206 35.8869C16.4539 35.5036 17.2706 34.9619 17.9706 34.2619L18.9206 33.3119C19.1206 33.1119 19.2142 32.8722 19.2016 32.5929C19.1889 32.3132 19.0697 32.0606 18.8441 31.8349L16.5206 29.5119L9.79758 36.1849C9.98758 36.2772 10.2369 36.3466 10.5456 36.3929C10.8546 36.4389 11.1462 36.4619 11.4206 36.4619Z" fill="#C89C66"/>
</g>
</svg>
