<svg width="80" height="80" viewBox="0 0 80 80" fill="none" xmlns="http://www.w3.org/2000/svg">
<g opacity="0.4">
<mask id="mask0_26_12332" style="mask-type:alpha" maskUnits="userSpaceOnUse" x="0" y="0" width="80" height="80">
<rect width="80" height="80" fill="#D9D9D9"/>
</mask>
<g mask="url(#mask0_26_12332)">
<path d="M11.6669 67.1794V23.846H25.0002V10.5127H55.0002V37.1794H68.3335V67.1794H45.0002V53.846H35.0002V67.1794H11.6669ZM15.0002 63.846H25.0002V53.846H15.0002V63.846ZM15.0002 50.5127H25.0002V40.5127H15.0002V50.5127ZM15.0002 37.1794H25.0002V27.1794H15.0002V37.1794ZM28.3335 50.5127H38.3335V40.5127H28.3335V50.5127ZM28.3335 37.1794H38.3335V27.1794H28.3335V37.1794ZM28.3335 23.846H38.3335V13.846H28.3335V23.846ZM41.6669 50.5127H51.6669V40.5127H41.6669V50.5127ZM41.6669 37.1794H51.6669V27.1794H41.6669V37.1794ZM41.6669 23.846H51.6669V13.846H41.6669V23.846ZM55.0002 63.846H65.0002V53.846H55.0002V63.846ZM55.0002 50.5127H65.0002V40.5127H55.0002V50.5127Z" fill="#7B7B7B"/>
</g>
</g>
</svg>
