<svg width="18" height="18" viewBox="0 0 18 18" fill="none" xmlns="http://www.w3.org/2000/svg">
<mask id="mask0_26_15258" style="mask-type:alpha" maskUnits="userSpaceOnUse" x="0" y="0" width="18" height="18">
<rect width="17.424" height="17.424" fill="#D9D9D9"/>
</mask>
<g mask="url(#mask0_26_15258)">
<path d="M2.17773 15.2462V5.08222H5.08173V2.17822H12.3417V7.98622H15.2457V15.2462H9.43773V12.3422H7.98573V15.2462H2.17773ZM3.62973 13.7942H5.08173V12.3422H3.62973V13.7942ZM3.62973 10.8902H5.08173V9.43822H3.62973V10.8902ZM3.62973 7.98622H5.08173V6.53422H3.62973V7.98622ZM6.53373 10.8902H7.98573V9.43822H6.53373V10.8902ZM6.53373 7.98622H7.98573V6.53422H6.53373V7.98622ZM6.53373 5.08222H7.98573V3.63022H6.53373V5.08222ZM9.43773 10.8902H10.8897V9.43822H9.43773V10.8902ZM9.43773 7.98622H10.8897V6.53422H9.43773V7.98622ZM9.43773 5.08222H10.8897V3.63022H9.43773V5.08222ZM12.3417 13.7942H13.7937V12.3422H12.3417V13.7942ZM12.3417 10.8902H13.7937V9.43822H12.3417V10.8902Z" fill="#591B42"/>
</g>
</svg>
