<svg width="40" height="40" viewBox="0 0 40 40" fill="none" xmlns="http://www.w3.org/2000/svg">
<mask id="mask0_26_18905" style="mask-type:alpha" maskUnits="userSpaceOnUse" x="0" y="0" width="40" height="40">
<rect width="40" height="40" fill="#D9D9D9"/>
</mask>
<g mask="url(#mask0_26_18905)">
<path d="M9.99852 32.0503C9.43435 32.0503 8.95143 31.8494 8.54977 31.4478C8.1481 31.0461 7.94727 30.5632 7.94727 29.999C7.94727 29.4348 8.1481 28.9519 8.54977 28.5503C8.95143 28.1486 9.43435 27.9478 9.99852 27.9478C10.5627 27.9478 11.0456 28.1486 11.4473 28.5503C11.8489 28.9519 12.0498 29.4348 12.0498 29.999C12.0498 30.5632 11.8489 31.0461 11.4473 31.4478C11.0456 31.8494 10.5627 32.0503 9.99852 32.0503ZM19.9985 32.0503C19.4344 32.0503 18.9514 31.8494 18.5498 31.4478C18.1481 31.0461 17.9473 30.5632 17.9473 29.999C17.9473 29.4348 18.1481 28.9519 18.5498 28.5503C18.9514 28.1486 19.4344 27.9478 19.9985 27.9478C20.5627 27.9478 21.0456 28.1486 21.4473 28.5503C21.8489 28.9519 22.0498 29.4348 22.0498 29.999C22.0498 30.5632 21.8489 31.0461 21.4473 31.4478C21.0456 31.8494 20.5627 32.0503 19.9985 32.0503ZM29.9985 32.0503C29.4344 32.0503 28.9514 31.8494 28.5498 31.4478C28.1481 31.0461 27.9473 30.5632 27.9473 29.999C27.9473 29.4348 28.1481 28.9519 28.5498 28.5503C28.9514 28.1486 29.4344 27.9478 29.9985 27.9478C30.5627 27.9478 31.0456 28.1486 31.4473 28.5503C31.8489 28.9519 32.0498 29.4348 32.0498 29.999C32.0498 30.5632 31.8489 31.0461 31.4473 31.4478C31.0456 31.8494 30.5627 32.0503 29.9985 32.0503ZM9.99852 22.0503C9.43435 22.0503 8.95143 21.8494 8.54977 21.4478C8.1481 21.0461 7.94727 20.5632 7.94727 19.999C7.94727 19.4348 8.1481 18.9519 8.54977 18.5503C8.95143 18.1486 9.43435 17.9478 9.99852 17.9478C10.5627 17.9478 11.0456 18.1486 11.4473 18.5503C11.8489 18.9519 12.0498 19.4348 12.0498 19.999C12.0498 20.5632 11.8489 21.0461 11.4473 21.4478C11.0456 21.8494 10.5627 22.0503 9.99852 22.0503ZM19.9985 22.0503C19.4344 22.0503 18.9514 21.8494 18.5498 21.4478C18.1481 21.0461 17.9473 20.5632 17.9473 19.999C17.9473 19.4348 18.1481 18.9519 18.5498 18.5503C18.9514 18.1486 19.4344 17.9478 19.9985 17.9478C20.5627 17.9478 21.0456 18.1486 21.4473 18.5503C21.8489 18.9519 22.0498 19.4348 22.0498 19.999C22.0498 20.5632 21.8489 21.0461 21.4473 21.4478C21.0456 21.8494 20.5627 22.0503 19.9985 22.0503ZM29.9985 22.0503C29.4344 22.0503 28.9514 21.8494 28.5498 21.4478C28.1481 21.0461 27.9473 20.5632 27.9473 19.999C27.9473 19.4348 28.1481 18.9519 28.5498 18.5503C28.9514 18.1486 29.4344 17.9478 29.9985 17.9478C30.5627 17.9478 31.0456 18.1486 31.4473 18.5503C31.8489 18.9519 32.0498 19.4348 32.0498 19.999C32.0498 20.5632 31.8489 21.0461 31.4473 21.4478C31.0456 21.8494 30.5627 22.0503 29.9985 22.0503ZM9.99852 12.0503C9.43435 12.0503 8.95143 11.8494 8.54977 11.4478C8.1481 11.0461 7.94727 10.5632 7.94727 9.999C7.94727 9.43484 8.1481 8.95192 8.54977 8.55025C8.95143 8.14859 9.43435 7.94775 9.99852 7.94775C10.5627 7.94775 11.0456 8.14859 11.4473 8.55025C11.8489 8.95192 12.0498 9.43484 12.0498 9.999C12.0498 10.5632 11.8489 11.0461 11.4473 11.4478C11.0456 11.8494 10.5627 12.0503 9.99852 12.0503ZM19.9985 12.0503C19.4344 12.0503 18.9514 11.8494 18.5498 11.4478C18.1481 11.0461 17.9473 10.5632 17.9473 9.999C17.9473 9.43484 18.1481 8.95192 18.5498 8.55025C18.9514 8.14859 19.4344 7.94775 19.9985 7.94775C20.5627 7.94775 21.0456 8.14859 21.4473 8.55025C21.8489 8.95192 22.0498 9.43484 22.0498 9.999C22.0498 10.5632 21.8489 11.0461 21.4473 11.4478C21.0456 11.8494 20.5627 12.0503 19.9985 12.0503ZM29.9985 12.0503C29.4344 12.0503 28.9514 11.8494 28.5498 11.4478C28.1481 11.0461 27.9473 10.5632 27.9473 9.999C27.9473 9.43484 28.1481 8.95192 28.5498 8.55025C28.9514 8.14859 29.4344 7.94775 29.9985 7.94775C30.5627 7.94775 31.0456 8.14859 31.4473 8.55025C31.8489 8.95192 32.0498 9.43484 32.0498 9.999C32.0498 10.5632 31.8489 11.0461 31.4473 11.4478C31.0456 11.8494 30.5627 12.0503 29.9985 12.0503Z" fill="#591B42"/>
</g>
</svg>
