<svg width="18" height="18" viewBox="0 0 18 18" fill="none" xmlns="http://www.w3.org/2000/svg">
<mask id="mask0_26_14027" style="mask-type:alpha" maskUnits="userSpaceOnUse" x="0" y="0" width="18" height="18">
<rect width="17.424" height="17.424" fill="#D9D9D9"/>
</mask>
<g mask="url(#mask0_26_14027)">
<path d="M4.90123 15.2462L4.71973 13.649L6.78883 7.94992C6.97033 8.11932 7.16695 8.2615 7.3787 8.37645C7.59045 8.4914 7.81733 8.57912 8.05933 8.63962L6.06283 14.1209L4.90123 15.2462ZM12.5242 15.2462L11.3626 14.1209L9.36613 8.63962C9.60813 8.57912 9.835 8.4914 10.0468 8.37645C10.2585 8.2615 10.4551 8.11932 10.6366 7.94992L12.7057 13.649L12.5242 15.2462ZM8.71273 7.98622C8.10773 7.98622 7.59348 7.77447 7.16998 7.35097C6.74648 6.92747 6.53473 6.41322 6.53473 5.80822C6.53473 5.33632 6.67085 4.91585 6.9431 4.5468C7.21535 4.17775 7.56323 3.92062 7.98673 3.77542V2.17822H9.43873V3.77542C9.86223 3.92062 10.2101 4.17775 10.4824 4.5468C10.7546 4.91585 10.8907 5.33632 10.8907 5.80822C10.8907 6.41322 10.679 6.92747 10.2555 7.35097C9.83198 7.77447 9.31773 7.98622 8.71273 7.98622ZM8.71273 6.53422C8.91843 6.53422 9.09085 6.46465 9.23 6.3255C9.36915 6.18635 9.43873 6.01392 9.43873 5.80822C9.43873 5.60252 9.36915 5.4301 9.23 5.29095C9.09085 5.1518 8.91843 5.08222 8.71273 5.08222C8.50703 5.08222 8.3346 5.1518 8.19545 5.29095C8.0563 5.4301 7.98673 5.60252 7.98673 5.80822C7.98673 6.01392 8.0563 6.18635 8.19545 6.3255C8.3346 6.46465 8.50703 6.53422 8.71273 6.53422Z" fill="#591B42"/>
</g>
</svg>
