<svg width="80" height="80" viewBox="0 0 80 80" fill="none" xmlns="http://www.w3.org/2000/svg">
<g opacity="0.4">
<mask id="mask0_26_9990" style="mask-type:alpha" maskUnits="userSpaceOnUse" x="0" y="0" width="80" height="80">
<rect width="80" height="80" fill="#D9D9D9"/>
</mask>
<g mask="url(#mask0_26_9990)">
<path d="M23.7815 66.41L23.3331 62.9233L31.9356 39.1925C32.3845 39.5853 32.8492 39.8961 33.3298 40.125C33.8109 40.3539 34.3079 40.5431 34.8206 40.6925L26.4231 63.9358L23.7815 66.41ZM56.2181 66.41L53.5765 63.9358L45.179 40.6925C45.6917 40.5431 46.1887 40.3539 46.6698 40.125C47.1504 39.8961 47.6151 39.5853 48.064 39.1925L56.6665 62.9233L56.2181 66.41ZM39.9998 35C37.692 35 35.7262 34.1881 34.1023 32.5642C32.4784 30.9403 31.6665 28.9744 31.6665 26.6667C31.6665 24.5 32.3448 22.6869 33.7015 21.2275C35.0587 19.7681 36.6026 18.8972 38.3331 18.615V10H41.6665V18.615C43.397 18.8972 44.9409 19.7681 46.2981 21.2275C47.6548 22.6869 48.3331 24.5 48.3331 26.6667C48.3331 28.9744 47.5212 30.9403 45.8973 32.5642C44.2734 34.1881 42.3076 35 39.9998 35ZM39.9998 31.6667C41.3715 31.6667 42.5478 31.1764 43.529 30.1958C44.5095 29.2147 44.9998 28.0383 44.9998 26.6667C44.9998 25.295 44.5095 24.1186 43.529 23.1375C42.5478 22.1569 41.3715 21.6667 39.9998 21.6667C38.6281 21.6667 37.4517 22.1569 36.4706 23.1375C35.4901 24.1186 34.9998 25.295 34.9998 26.6667C34.9998 28.0383 35.4901 29.2147 36.4706 30.1958C37.4517 31.1764 38.6281 31.6667 39.9998 31.6667Z" fill="#7B7B7B"/>
</g>
</g>
</svg>
