<svg width="82" height="92" viewBox="0 0 82 92" fill="none" xmlns="http://www.w3.org/2000/svg">
<path d="M40.765 91.625C37.775 91.625 35.2333 90.5675 33.14 88.4525C31.0467 86.3383 30 83.7708 30 80.75C30 78.0833 30.875 75.7292 32.625 73.6875C34.375 71.6458 36.5417 70.4167 39.125 70V56.625C37.7083 56.4583 36.4167 56.0208 35.25 55.3125C34.0833 54.6042 33.0833 53.7083 32.25 52.625L21 59.375C21.25 60 21.4375 60.6562 21.5625 61.3438C21.6875 62.0312 21.75 62.7083 21.75 63.375C21.75 66.3958 20.6667 68.9633 18.5 71.0775C16.3333 73.1925 13.755 74.25 10.765 74.25C7.775 74.25 5.23333 73.195 3.14 71.085C1.04667 68.9742 0 66.4117 0 63.3975C0 60.3825 1.045 57.8125 3.135 55.6875C5.22583 53.5625 7.76417 52.5 10.75 52.5C12.4533 52.5 14.0458 52.8542 15.5275 53.5625C17.0092 54.2708 18.25 55.2083 19.25 56.375L30.5 49.625C30.3333 49.0417 30.1875 48.4271 30.0625 47.7813C29.9375 47.1354 29.875 46.4896 29.875 45.8438C29.875 45.1979 29.9375 44.5625 30.0625 43.9375C30.1875 43.3125 30.375 42.6667 30.625 42L19.375 35.5C18.375 36.75 17.1208 37.7292 15.6125 38.4375C14.105 39.1458 12.4842 39.5 10.75 39.5C7.76417 39.5 5.22583 38.445 3.135 36.335C1.045 34.2242 0 31.6617 0 28.6475C0 25.6325 1.04667 23.0625 3.14 20.9375C5.23333 18.8125 7.775 17.75 10.765 17.75C13.755 17.75 16.3333 18.8071 18.5 20.9212C20.6667 23.0362 21.75 25.6042 21.75 28.625C21.75 29.2917 21.7083 29.9583 21.625 30.625C21.5417 31.2917 21.375 31.9167 21.125 32.5L32.375 39C33.2083 38 34.1875 37.1458 35.3125 36.4375C36.4375 35.7292 37.7083 35.2917 39.125 35.125V21.625C36.5417 21.2083 34.375 19.9792 32.625 17.9375C30.875 15.8958 30 13.5417 30 10.875C30 7.85417 31.0467 5.28625 33.14 3.17125C35.2333 1.05708 37.775 0 40.765 0C43.755 0 46.3333 1.05708 48.5 3.17125C50.6667 5.28625 51.75 7.85417 51.75 10.875C51.75 13.5417 50.875 15.8958 49.125 17.9375C47.375 19.9792 45.2083 21.2083 42.625 21.625V35.25C43.9583 35.5 45.1875 35.9583 46.3125 36.625C47.4375 37.2917 48.4167 38.125 49.25 39.125L60.75 32.625C60.5 32 60.3125 31.3438 60.1875 30.6562C60.0625 29.9688 60 29.2917 60 28.625C60 25.6042 61.0467 23.0362 63.14 20.9212C65.2333 18.8071 67.775 17.75 70.765 17.75C73.755 17.75 76.3333 18.805 78.5 20.915C80.6667 23.0258 81.75 25.5883 81.75 28.6025C81.75 31.6175 80.6667 34.1875 78.5 36.3125C76.3333 38.4375 73.75 39.5 70.75 39.5C69.0808 39.5 67.5383 39.1458 66.1225 38.4375C64.7075 37.7292 63.5 36.7917 62.5 35.625L51 42.125C51.25 42.7083 51.4167 43.3125 51.5 43.9375C51.5833 44.5625 51.625 45.2083 51.625 45.875C51.625 46.5417 51.5625 47.1667 51.4375 47.75C51.3125 48.3333 51.1667 48.9167 51 49.5L62.5 56.375C63.5 55.2083 64.7075 54.2708 66.1225 53.5625C67.5383 52.8542 69.0808 52.5 70.75 52.5C73.75 52.5 76.3333 53.555 78.5 55.665C80.6667 57.7758 81.75 60.3383 81.75 63.3525C81.75 66.3675 80.6667 68.9375 78.5 71.0625C76.3333 73.1875 73.755 74.25 70.765 74.25C67.775 74.25 65.2333 73.1925 63.14 71.0775C61.0467 68.9633 60 66.3958 60 63.375C60 62.6692 60.0625 61.9925 60.1875 61.345C60.3125 60.6983 60.5 60.0417 60.75 59.375L49.375 52.625C48.5417 53.7083 47.5625 54.5833 46.4375 55.25C45.3125 55.9167 44.0417 56.375 42.625 56.625V70C45.2083 70.4167 47.375 71.6458 49.125 73.6875C50.875 75.7292 51.75 78.0833 51.75 80.75C51.75 83.7708 50.6667 86.3383 48.5 88.4525C46.3333 90.5675 43.755 91.625 40.765 91.625ZM40.8125 88.125C42.8542 88.125 44.6042 87.4187 46.0625 86.0062C47.5208 84.5946 48.25 82.8446 48.25 80.7563C48.25 78.6688 47.5312 76.9167 46.0938 75.5C44.6562 74.0833 42.875 73.375 40.75 73.375C38.75 73.375 37.0417 74.1042 35.625 75.5625C34.2083 77.0208 33.5 78.75 33.5 80.75C33.5 82.75 34.2083 84.4792 35.625 85.9375C37.0417 87.3958 38.7708 88.125 40.8125 88.125ZM10.8125 70.75C12.8542 70.75 14.6042 70.0437 16.0625 68.6312C17.5208 67.2196 18.25 65.4696 18.25 63.3812C18.25 61.2937 17.5312 59.5417 16.0938 58.125C14.6562 56.7083 12.875 56 10.75 56C8.75 56 7.04167 56.7292 5.625 58.1875C4.20833 59.6458 3.5 61.375 3.5 63.375C3.5 65.375 4.20833 67.1042 5.625 68.5625C7.04167 70.0208 8.77083 70.75 10.8125 70.75ZM70.8125 70.75C72.8542 70.75 74.6042 70.0437 76.0625 68.6312C77.5208 67.2196 78.25 65.4696 78.25 63.3812C78.25 61.2937 77.5312 59.5417 76.0938 58.125C74.6562 56.7083 72.875 56 70.75 56C68.75 56 67.0417 56.7292 65.625 58.1875C64.2083 59.6458 63.5 61.375 63.5 63.375C63.5 65.375 64.2083 67.1042 65.625 68.5625C67.0417 70.0208 68.7708 70.75 70.8125 70.75ZM40.8125 53.25C42.8542 53.25 44.6042 52.5437 46.0625 51.1312C47.5208 49.7196 48.25 47.9696 48.25 45.8812C48.25 43.7937 47.5312 42.0417 46.0938 40.625C44.6562 39.2083 42.875 38.5 40.75 38.5C38.75 38.5 37.0417 39.2292 35.625 40.6875C34.2083 42.1458 33.5 43.875 33.5 45.875C33.5 47.875 34.2083 49.6042 35.625 51.0625C37.0417 52.5208 38.7708 53.25 40.8125 53.25ZM10.8125 36C12.8542 36 14.6042 35.2938 16.0625 33.8812C17.5208 32.4696 18.25 30.7196 18.25 28.6312C18.25 26.5437 17.5312 24.7917 16.0938 23.375C14.6562 21.9583 12.875 21.25 10.75 21.25C8.75 21.25 7.04167 21.9792 5.625 23.4375C4.20833 24.8958 3.5 26.625 3.5 28.625C3.5 30.625 4.20833 32.3542 5.625 33.8125C7.04167 35.2708 8.77083 36 10.8125 36ZM70.8125 36C72.8542 36 74.6042 35.2938 76.0625 33.8812C77.5208 32.4696 78.25 30.7196 78.25 28.6312C78.25 26.5437 77.5312 24.7917 76.0938 23.375C74.6562 21.9583 72.875 21.25 70.75 21.25C68.75 21.25 67.0417 21.9792 65.625 23.4375C64.2083 24.8958 63.5 26.625 63.5 28.625C63.5 30.625 64.2083 32.3542 65.625 33.8125C67.0417 35.2708 68.7708 36 70.8125 36ZM40.8125 18.25C42.8542 18.25 44.6042 17.5437 46.0625 16.1312C47.5208 14.7196 48.25 12.9696 48.25 10.8812C48.25 8.79375 47.5312 7.04167 46.0938 5.625C44.6562 4.20833 42.875 3.5 40.75 3.5C38.75 3.5 37.0417 4.22917 35.625 5.6875C34.2083 7.14583 33.5 8.875 33.5 10.875C33.5 12.875 34.2083 14.6042 35.625 16.0625C37.0417 17.5208 38.7708 18.25 40.8125 18.25Z" fill="white"/>
</svg>
