<svg width="40" height="40" viewBox="0 0 40 40" fill="none" xmlns="http://www.w3.org/2000/svg">
<mask id="mask0_26_18929" style="mask-type:alpha" maskUnits="userSpaceOnUse" x="0" y="0" width="40" height="40">
<rect width="40" height="40" fill="#D9D9D9"/>
</mask>
<g mask="url(#mask0_26_18929)">
<path d="M12.5003 27.4998H22.5003V25.8332H12.5003V27.4998ZM12.5003 20.8332H27.5003V19.1665H12.5003V20.8332ZM12.5003 14.1665H27.5003V12.4998H12.5003V14.1665ZM9.35949 33.3332C8.59227 33.3332 7.95171 33.0762 7.43783 32.5623C6.92394 32.0484 6.66699 31.4079 6.66699 30.6407V9.359C6.66699 8.59178 6.92394 7.95123 7.43783 7.43734C7.95171 6.92345 8.59227 6.6665 9.35949 6.6665H30.6412C31.4084 6.6665 32.0489 6.92345 32.5628 7.43734C33.0767 7.95123 33.3337 8.59178 33.3337 9.359V30.6407C33.3337 31.4079 33.0767 32.0484 32.5628 32.5623C32.0489 33.0762 31.4084 33.3332 30.6412 33.3332H9.35949ZM9.35949 31.6665H30.6412C30.8978 31.6665 31.133 31.5597 31.3466 31.3461C31.5602 31.1325 31.667 30.8973 31.667 30.6407V9.359C31.667 9.10234 31.5602 8.8672 31.3466 8.65359C31.133 8.43998 30.8978 8.33317 30.6412 8.33317H9.35949C9.10283 8.33317 8.86769 8.43998 8.65408 8.65359C8.44046 8.8672 8.33366 9.10234 8.33366 9.359V30.6407C8.33366 30.8973 8.44046 31.1325 8.65408 31.3461C8.86769 31.5597 9.10283 31.6665 9.35949 31.6665Z" fill="#591B42"/>
</g>
</svg>
