<svg width="80" height="80" viewBox="0 0 80 80" fill="none" xmlns="http://www.w3.org/2000/svg">
<g opacity="0.4">
<mask id="mask0_26_9980" style="mask-type:alpha" maskUnits="userSpaceOnUse" x="0" y="0" width="80" height="80">
<rect width="80" height="80" fill="#D9D9D9"/>
</mask>
<g mask="url(#mask0_26_9980)">
<path d="M18.7181 66.6665C17.2265 66.6665 15.9559 66.1421 14.9065 65.0932C13.8576 64.0437 13.3331 62.7732 13.3331 61.2815V18.7182C13.3331 17.2265 13.8576 15.9559 14.9065 14.9065C15.9559 13.8576 17.2265 13.3332 18.7181 13.3332H34.3848C34.0809 11.6321 34.4879 10.0957 35.6056 8.724C36.7229 7.35234 38.1876 6.6665 39.9998 6.6665C41.8542 6.6665 43.3404 7.35234 44.4581 8.724C45.5759 10.0957 45.9615 11.6321 45.6148 13.3332H61.2815C62.7731 13.3332 64.0437 13.8576 65.0931 14.9065C66.142 15.9559 66.6665 17.2265 66.6665 18.7182V61.2815C66.6665 62.7732 66.142 64.0437 65.0931 65.0932C64.0437 66.1421 62.7731 66.6665 61.2815 66.6665H18.7181ZM18.7181 63.3332H61.2815C61.7948 63.3332 62.2651 63.1196 62.6923 62.6923C63.1195 62.2651 63.3331 61.7948 63.3331 61.2815V18.7182C63.3331 18.2048 63.1195 17.7346 62.6923 17.3073C62.2651 16.8801 61.7948 16.6665 61.2815 16.6665H18.7181C18.2048 16.6665 17.7345 16.8801 17.3073 17.3073C16.8801 17.7346 16.6665 18.2048 16.6665 18.7182V61.2815C16.6665 61.7948 16.8801 62.2651 17.3073 62.6923C17.7345 63.1196 18.2048 63.3332 18.7181 63.3332ZM24.9998 54.2307H44.9998V50.8973H24.9998V54.2307ZM24.9998 41.6665H54.9998V38.3332H24.9998V41.6665ZM24.9998 29.1023H54.9998V25.769H24.9998V29.1023ZM39.9998 14.8073C40.722 14.8073 41.3192 14.5712 41.7915 14.099C42.2637 13.6268 42.4998 13.0296 42.4998 12.3073C42.4998 11.5851 42.2637 10.9879 41.7915 10.5157C41.3192 10.0434 40.722 9.80734 39.9998 9.80734C39.2776 9.80734 38.6804 10.0434 38.2081 10.5157C37.7359 10.9879 37.4998 11.5851 37.4998 12.3073C37.4998 13.0296 37.7359 13.6268 38.2081 14.099C38.6804 14.5712 39.2776 14.8073 39.9998 14.8073Z" fill="#7B7B7B"/>
</g>
</g>
</svg>
