<svg width="24" height="24" viewBox="0 0 24 24" fill="none" xmlns="http://www.w3.org/2000/svg">
<mask id="mask0_27_7829" style="mask-type:alpha" maskUnits="userSpaceOnUse" x="0" y="0" width="24" height="24">
<rect width="24" height="24" fill="#D9D9D9"/>
</mask>
<g mask="url(#mask0_27_7829)">
<path d="M5.88477 20.5002V19.5002H10.8848V16.5002H10.3848C9.13977 16.5002 8.07852 16.0614 7.20102 15.1839C6.32352 14.3064 5.88477 13.2452 5.88477 12.0002C5.88477 11.0758 6.15118 10.2348 6.68402 9.47717C7.21668 8.7195 7.91952 8.16817 8.79252 7.82317C8.82335 7.14117 9.11602 6.61234 9.67052 6.23667C10.225 5.861 10.8131 5.78217 11.4348 6.00017L10.7695 4.18092L11.7195 3.83092L11.3695 2.89242L12.5388 2.46167L12.8773 3.41167L13.7503 3.10017L16.231 9.86942L15.358 10.2194L15.708 11.1694L14.5388 11.6002L14.2003 10.6502L13.2503 11.0387L12.6118 9.19642C12.4131 9.48092 12.1577 9.70717 11.8455 9.87517C11.5333 10.0432 11.1978 10.1233 10.8388 10.1157C10.4208 10.1078 10.0438 9.98567 9.70802 9.74917C9.37202 9.51267 9.11943 9.20784 8.95027 8.83467C8.32077 9.11417 7.81918 9.53667 7.44552 10.1022C7.07168 10.6675 6.88477 11.3002 6.88477 12.0002C6.88477 12.9723 7.2251 13.7988 7.90577 14.4794C8.58627 15.1599 9.4126 15.5002 10.3848 15.5002H17.8848V16.5002H12.1158V19.5002H18.1158V20.5002H5.88477ZM13.804 9.85792L15.0888 9.35392L13.2348 4.23092L11.9003 4.69642L13.804 9.85792ZM10.8835 9.23092C11.2318 9.23092 11.5243 9.11309 11.7608 8.87742C11.9974 8.64175 12.1158 8.34975 12.1158 8.00142C12.1158 7.65309 11.9979 7.36067 11.7623 7.12417C11.5266 6.88767 11.2346 6.76942 10.8863 6.76942C10.5379 6.76942 10.2455 6.88725 10.009 7.12292C9.77235 7.35859 9.65402 7.65059 9.65402 7.99892C9.65402 8.34725 9.77185 8.63967 10.0075 8.87617C10.2432 9.11267 10.5352 9.23092 10.8835 9.23092Z" fill="#C89C66"/>
</g>
</svg>
