<svg width="48" height="48" viewBox="0 0 48 48" fill="none" xmlns="http://www.w3.org/2000/svg">
<mask id="mask0_26_10207" style="mask-type:alpha" maskUnits="userSpaceOnUse" x="0" y="0" width="48" height="48">
<rect width="48" height="48" fill="#D9D9D9"/>
</mask>
<g mask="url(#mask0_26_10207)">
<path d="M6 40V38H10V8H38V38H42V40H6ZM12 15.5H28.5V10H12V15.5ZM12 23H28.5V17.5H12V23ZM12 38H36V25H30.5V29.496C30.8897 29.7013 31.1987 29.977 31.427 30.323C31.655 30.6693 31.769 31.0617 31.769 31.5C31.769 32.1267 31.5468 32.6615 31.1025 33.1045C30.6582 33.5475 30.1217 33.769 29.493 33.769C28.8643 33.769 28.3302 33.5475 27.8905 33.1045C27.4508 32.6615 27.231 32.1267 27.231 31.5C27.231 31.0617 27.345 30.6693 27.573 30.323C27.8013 29.977 28.1103 29.7013 28.5 29.496V25H12V38ZM30.5 15.5H36V10H30.5V15.5ZM30.5 23H36V17.5H30.5V23Z" fill="#C89C66"/>
</g>
</svg>
