<svg width="40" height="40" viewBox="0 0 40 40" fill="none" xmlns="http://www.w3.org/2000/svg">
<mask id="mask0_26_18921" style="mask-type:alpha" maskUnits="userSpaceOnUse" x="0" y="0" width="40" height="40">
<rect width="40" height="40" fill="#D9D9D9"/>
</mask>
<g mask="url(#mask0_26_18921)">
<path d="M6.66699 33.3332V31.2819H8.71824V33.3332H6.66699ZM6.66699 27.1794V25.1282H8.71824V27.1794H6.66699ZM6.66699 14.8715V12.8203H8.71824V14.8715H6.66699ZM6.66699 8.71775V6.6665H8.71824V8.71775H6.66699ZM12.8207 33.3332V31.2819H14.872V33.3332H12.8207ZM12.8207 8.71775V6.6665H14.872V8.71775H12.8207ZM25.1287 33.3332V31.2819H27.1799V33.3332H25.1287ZM31.2824 33.3332V31.2819H33.3337V33.3332H31.2824ZM31.2824 27.1794V25.1282H33.3337V27.1794H31.2824ZM31.2824 14.8715V12.8203H33.3337V14.8715H31.2824ZM31.2824 8.71775V6.6665H33.3337V8.71775H31.2824ZM25.1287 8.71775V6.6665H27.1799V8.71775H25.1287ZM19.167 33.3332V20.8332H6.66699V19.1665H19.167V6.6665H20.8337V19.1665H33.3337V20.8332H20.8337V33.3332H19.167Z" fill="#591B42"/>
</g>
</svg>
