<svg width="56" height="56" viewBox="0 0 56 56" fill="none" xmlns="http://www.w3.org/2000/svg">
<mask id="mask0_26_12281" style="mask-type:alpha" maskUnits="userSpaceOnUse" x="0" y="0" width="56" height="56">
<rect width="56" height="56" fill="#D9D9D9"/>
</mask>
<g mask="url(#mask0_26_12281)">
<path d="M17.2305 41.2368V23.5578C17.2305 23.3481 17.1559 23.1687 17.0065 23.0193C16.8568 22.8696 16.6773 22.7948 16.4681 22.7948H7.76302C7.55341 22.7948 7.37394 22.8696 7.2246 23.0193C7.07488 23.1687 7.00002 23.3481 7.00002 23.5578V41.2368C7.00002 41.4464 7.07488 41.6259 7.2246 41.7753C7.37394 41.925 7.55341 41.9998 7.76302 41.9998H16.4681C16.6773 41.9998 16.8568 41.925 17.0065 41.7753C17.1559 41.6259 17.2305 41.4464 17.2305 41.2368ZM7.49352 44.3332C6.70835 44.3332 6.04083 44.0584 5.49094 43.5089C4.94144 42.959 4.66669 42.2915 4.66669 41.5063V23.2883C4.66669 22.5031 4.94144 21.8356 5.49094 21.2857C6.04083 20.7362 6.70835 20.4614 7.49352 20.4614H16.737C17.5226 20.4614 18.1901 20.7362 18.7396 21.2857C19.2891 21.8356 19.5639 22.5031 19.5639 23.2883V41.5063C19.5639 42.2915 19.2891 42.959 18.7396 43.5089C18.1901 44.0584 17.5226 44.3332 16.737 44.3332H7.49352ZM12.1071 29.1665C12.5582 29.1665 12.9341 29.0104 13.2347 28.6981C13.5357 28.3854 13.6862 28.0208 13.6862 27.6043C13.6862 27.1532 13.5359 26.7772 13.2353 26.4762C12.935 26.1756 12.5553 26.0253 12.096 26.0253C11.6721 26.0253 11.3077 26.1756 11.0029 26.4762C10.6976 26.7764 10.5449 27.1561 10.5449 27.6154C10.5449 28.0393 10.7011 28.4037 11.0134 28.7086C11.326 29.0139 11.6906 29.1665 12.1071 29.1665ZM35.8529 50.7948V39.2628C35.5029 39.0711 35.2209 38.801 35.007 38.4526C34.7931 38.1041 34.6862 37.731 34.6862 37.3332C34.6862 36.7176 34.9051 36.1972 35.343 35.7722C35.7809 35.3471 36.2919 35.1346 36.876 35.1346C37.4889 35.1346 38.01 35.3471 38.4394 35.7722C38.8687 36.1972 39.0834 36.7176 39.0834 37.3332C39.0834 37.731 38.9885 38.0989 38.7987 38.4368C38.6085 38.7752 38.3145 39.0505 37.9167 39.2628V50.7948H35.8529ZM31.1903 43.7452C30.3048 42.8807 29.5966 41.8991 29.0658 40.8005C28.5349 39.7015 28.2695 38.5457 28.2695 37.3332C28.2695 34.9279 29.1121 32.8907 30.7971 31.2216C32.4826 29.5525 34.5087 28.7179 36.8754 28.7179C39.2776 28.7179 41.3156 29.5525 42.9894 31.2216C44.6631 32.8907 45.5 34.9279 45.5 37.3332C45.5 38.5687 45.2465 39.7427 44.7394 40.8553C44.2323 41.9683 43.5165 42.9421 42.5921 43.7767L41.1163 42.3137C41.84 41.6798 42.4076 40.931 42.819 40.0673C43.2305 39.2039 43.4362 38.2926 43.4362 37.3332C43.4362 35.4988 42.8029 33.9483 41.5363 32.6817C40.2697 31.4151 38.7192 30.7818 36.8848 30.7818C35.0718 30.7818 33.5267 31.4151 32.2496 32.6817C30.9721 33.9483 30.3334 35.4988 30.3334 37.3332C30.3334 38.2821 30.5488 39.1833 30.9797 40.0369C31.4102 40.8909 31.9725 41.6351 32.6667 42.2693L31.1903 43.7452ZM27.0935 47.8868C25.6126 46.4989 24.4662 44.8862 23.6542 43.0487C22.8422 41.2112 22.4362 39.306 22.4362 37.3332C22.4362 33.2949 23.843 29.8772 26.6566 27.0799C29.4706 24.283 32.8769 22.8846 36.8754 22.8846C40.9109 22.8846 44.3295 24.283 47.131 27.0799C49.9326 29.8772 51.3334 33.2949 51.3334 37.3332C51.3334 39.3165 50.9416 41.2318 50.1579 43.079C49.3739 44.9262 48.2176 46.5094 46.6889 47.8285L45.3029 46.397C46.6099 45.2397 47.5977 43.8688 48.2662 42.2845C48.9351 40.7002 49.2695 39.0497 49.2695 37.3332C49.2695 33.8654 48.0712 30.9344 45.6744 28.54C43.2777 26.1456 40.3439 24.9484 36.8731 24.9484C33.4435 24.9484 30.5239 26.1456 28.1144 28.54C25.7048 30.9344 24.5 33.8654 24.5 37.3332C24.5 39.0591 24.8463 40.7142 25.5389 42.2985C26.2316 43.8824 27.2269 45.2681 28.525 46.4553L27.0935 47.8868ZM7.00002 13.9998C7.23919 13.3146 7.66619 12.7544 8.28102 12.3193C8.89585 11.8841 9.60558 11.6665 10.4102 11.6665H44.6921C45.7662 11.6665 46.663 12.0262 47.3824 12.7457C48.1019 13.4651 48.4616 14.3619 48.4616 15.436V21.0267C48.0817 20.7786 47.7046 20.5444 47.3305 20.3243C46.9568 20.1046 46.5561 19.8886 46.1283 19.6763V15.436C46.1283 15.0767 45.9787 14.7475 45.6797 14.4484C45.3802 14.1494 45.0511 13.9998 44.6921 13.9998H7.00002Z" fill="#C89C66"/>
</g>
</svg>
