<svg width="18" height="18" viewBox="0 0 18 18" fill="none" xmlns="http://www.w3.org/2000/svg">
<mask id="mask0_26_15218" style="mask-type:alpha" maskUnits="userSpaceOnUse" x="0" y="0" width="18" height="18">
<rect width="17.424" height="17.424" fill="#D9D9D9"/>
</mask>
<g mask="url(#mask0_26_15218)">
<path d="M8.71279 15.2462C7.92629 15.2462 7.19726 15.0526 6.52571 14.6654C5.85416 14.2782 5.32479 13.7458 4.93759 13.0682H2.90479V11.6162H4.42939C4.39309 11.3742 4.37191 11.1322 4.36586 10.8902C4.35981 10.6482 4.35679 10.4062 4.35679 10.1642H2.90479V8.71222H4.35679C4.35679 8.47022 4.35981 8.22822 4.36586 7.98622C4.37191 7.74422 4.39309 7.50222 4.42939 7.26022H2.90479V5.80822H4.93759C5.10699 5.52992 5.29756 5.26977 5.50931 5.02777C5.72106 4.78577 5.96609 4.57402 6.24439 4.39252L5.08279 3.19462L6.09919 2.17822L7.66009 3.73912C7.99889 3.63022 8.34374 3.57577 8.69464 3.57577C9.04554 3.57577 9.39039 3.63022 9.72919 3.73912L11.3264 2.17822L12.3428 3.19462L11.1449 4.39252C11.4232 4.57402 11.6743 4.78275 11.8981 5.0187C12.122 5.25465 12.3186 5.51782 12.488 5.80822H14.5208V7.26022H12.9962C13.0325 7.50222 13.0537 7.74422 13.0597 7.98622C13.0658 8.22822 13.0688 8.47022 13.0688 8.71222H14.5208V10.1642H13.0688C13.0688 10.4062 13.0658 10.6482 13.0597 10.8902C13.0537 11.1322 13.0325 11.3742 12.9962 11.6162H14.5208V13.0682H12.488C12.1008 13.7458 11.5714 14.2782 10.8999 14.6654C10.2283 15.0526 9.49929 15.2462 8.71279 15.2462ZM7.26079 11.6162H10.1648V10.1642H7.26079V11.6162ZM7.26079 8.71222H10.1648V7.26022H7.26079V8.71222Z" fill="#591B42"/>
</g>
</svg>
