<svg width="18" height="18" viewBox="0 0 18 18" fill="none" xmlns="http://www.w3.org/2000/svg">
<mask id="mask0_26_15243" style="mask-type:alpha" maskUnits="userSpaceOnUse" x="0" y="0" width="18" height="18">
<rect width="17.424" height="17.424" fill="#D9D9D9"/>
</mask>
<g mask="url(#mask0_26_15243)">
<path d="M12.4506 15.0279L8.05833 10.5993C7.81633 10.6961 7.57131 10.7687 7.32326 10.8171C7.07521 10.8655 6.81203 10.8897 6.53373 10.8897C5.32373 10.8897 4.29523 10.4662 3.44823 9.61923C2.60123 8.77223 2.17773 7.74373 2.17773 6.53373C2.17773 6.09813 2.23823 5.68371 2.35923 5.29046C2.48023 4.89721 2.64963 4.52513 2.86743 4.17423L5.51733 6.82413L6.82413 5.51733L4.17423 2.86743C4.52513 2.64963 4.89721 2.48023 5.29046 2.35923C5.68371 2.23823 6.09813 2.17773 6.53373 2.17773C7.74373 2.17773 8.77223 2.60123 9.61923 3.44823C10.4662 4.29523 10.8897 5.32373 10.8897 6.53373C10.8897 6.81203 10.8655 7.07521 10.8171 7.32326C10.7687 7.57131 10.6961 7.81633 10.5993 8.05833L15.0279 12.4506C15.1731 12.5958 15.2457 12.7713 15.2457 12.977C15.2457 13.1827 15.1731 13.3581 15.0279 13.5033L13.5033 15.0279C13.3581 15.1731 13.1827 15.2457 12.977 15.2457C12.7713 15.2457 12.5958 15.1731 12.4506 15.0279Z" fill="#591B42"/>
</g>
</svg>
