<svg width="32" height="32" viewBox="0 0 32 32" fill="none" xmlns="http://www.w3.org/2000/svg">
<mask id="mask0_26_13811" style="mask-type:alpha" maskUnits="userSpaceOnUse" x="0" y="0" width="32" height="32">
<rect width="32" height="32" fill="#D9D9D9"/>
</mask>
<g mask="url(#mask0_26_13811)">
<path d="M14.6 24.4665L9.86667 19.7332L11.8 17.7998L14.6 20.5998L20.2 14.9998L22.1333 16.9332L14.6 24.4665ZM6.66667 29.3332C5.93333 29.3332 5.30556 29.0721 4.78333 28.5498C4.26111 28.0276 4 27.3998 4 26.6665V7.99984C4 7.2665 4.26111 6.63873 4.78333 6.1165C5.30556 5.59428 5.93333 5.33317 6.66667 5.33317H8V2.6665H10.6667V5.33317H21.3333V2.6665H24V5.33317H25.3333C26.0667 5.33317 26.6944 5.59428 27.2167 6.1165C27.7389 6.63873 28 7.2665 28 7.99984V26.6665C28 27.3998 27.7389 28.0276 27.2167 28.5498C26.6944 29.0721 26.0667 29.3332 25.3333 29.3332H6.66667ZM6.66667 26.6665H25.3333V13.3332H6.66667V26.6665ZM6.66667 10.6665H25.3333V7.99984H6.66667V10.6665Z" fill="#C89C66"/>
</g>
</svg>
