<svg width="32" height="37" viewBox="0 0 32 37" fill="none" xmlns="http://www.w3.org/2000/svg">
<path d="M3.231 36.4615C2.31033 36.4615 1.54167 36.1532 0.925 35.5365C0.308333 34.9198 0 34.1512 0 33.2305V7.6925C0 6.77183 0.308333 6.00317 0.925 5.3865C1.54167 4.76983 2.31033 4.4615 3.231 4.4615H6.769V0H8.923V4.4615H23.231V0H25.231V4.4615H28.769C29.6897 4.4615 30.4583 4.76983 31.075 5.3865C31.6917 6.00317 32 6.77183 32 7.6925V33.2305C32 34.1512 31.6917 34.9198 31.075 35.5365C30.4583 36.1532 29.6897 36.4615 28.769 36.4615H3.231ZM3.231 34.4615H28.769C29.077 34.4615 29.3592 34.3333 29.6155 34.077C29.8718 33.8207 30 33.5385 30 33.2305V15.6925H2V33.2305C2 33.5385 2.12817 33.8207 2.3845 34.077C2.64083 34.3333 2.923 34.4615 3.231 34.4615ZM2 13.692H30V7.6925C30 7.3845 29.8718 7.10233 29.6155 6.846C29.3592 6.58967 29.077 6.4615 28.769 6.4615H3.231C2.923 6.4615 2.64083 6.58967 2.3845 6.846C2.12817 7.10233 2 7.3845 2 7.6925V13.692ZM16 22.769C15.5873 22.769 15.2277 22.6158 14.921 22.3095C14.6147 22.0032 14.4615 21.6435 14.4615 21.2305C14.4615 20.8178 14.6147 20.4583 14.921 20.152C15.2277 19.8457 15.5873 19.6925 16 19.6925C16.4127 19.6925 16.7723 19.8457 17.079 20.152C17.3853 20.4583 17.5385 20.8178 17.5385 21.2305C17.5385 21.6435 17.3853 22.0032 17.079 22.3095C16.7723 22.6158 16.4127 22.769 16 22.769ZM8 22.769C7.58733 22.769 7.22767 22.6158 6.921 22.3095C6.61467 22.0032 6.4615 21.6435 6.4615 21.2305C6.4615 20.8178 6.61467 20.4583 6.921 20.152C7.22767 19.8457 7.58733 19.6925 8 19.6925C8.41267 19.6925 8.77233 19.8457 9.079 20.152C9.38533 20.4583 9.5385 20.8178 9.5385 21.2305C9.5385 21.6435 9.38533 22.0032 9.079 22.3095C8.77233 22.6158 8.41267 22.769 8 22.769ZM24 22.769C23.5873 22.769 23.2277 22.6158 22.921 22.3095C22.6147 22.0032 22.4615 21.6435 22.4615 21.2305C22.4615 20.8178 22.6147 20.4583 22.921 20.152C23.2277 19.8457 23.5873 19.6925 24 19.6925C24.4127 19.6925 24.7723 19.8457 25.079 20.152C25.3853 20.4583 25.5385 20.8178 25.5385 21.2305C25.5385 21.6435 25.3853 22.0032 25.079 22.3095C24.7723 22.6158 24.4127 22.769 24 22.769ZM16 30.4615C15.5873 30.4615 15.2277 30.3083 14.921 30.002C14.6147 29.6957 14.4615 29.336 14.4615 28.923C14.4615 28.5103 14.6147 28.1507 14.921 27.844C15.2277 27.5377 15.5873 27.3845 16 27.3845C16.4127 27.3845 16.7723 27.5377 17.079 27.844C17.3853 28.1507 17.5385 28.5103 17.5385 28.923C17.5385 29.336 17.3853 29.6957 17.079 30.002C16.7723 30.3083 16.4127 30.4615 16 30.4615ZM8 30.4615C7.58733 30.4615 7.22767 30.3083 6.921 30.002C6.61467 29.6957 6.4615 29.336 6.4615 28.923C6.4615 28.5103 6.61467 28.1507 6.921 27.844C7.22767 27.5377 7.58733 27.3845 8 27.3845C8.41267 27.3845 8.77233 27.5377 9.079 27.844C9.38533 28.1507 9.5385 28.5103 9.5385 28.923C9.5385 29.336 9.38533 29.6957 9.079 30.002C8.77233 30.3083 8.41267 30.4615 8 30.4615ZM24 30.4615C23.5873 30.4615 23.2277 30.3083 22.921 30.002C22.6147 29.6957 22.4615 29.336 22.4615 28.923C22.4615 28.5103 22.6147 28.1507 22.921 27.844C23.2277 27.5377 23.5873 27.3845 24 27.3845C24.4127 27.3845 24.7723 27.5377 25.079 27.844C25.3853 28.1507 25.5385 28.5103 25.5385 28.923C25.5385 29.336 25.3853 29.6957 25.079 30.002C24.7723 30.3083 24.4127 30.4615 24 30.4615Z" fill="#C89C66"/>
</svg>
