<svg width="51" height="51" viewBox="0 0 51 51" fill="none" xmlns="http://www.w3.org/2000/svg">
<circle cx="25.5" cy="25.5" r="25" stroke="white"/>
<mask id="mask0_26_1095" style="mask-type:alpha" maskUnits="userSpaceOnUse" x="7" y="7" width="38" height="38">
<rect x="7" y="7" width="38" height="38" fill="#D9D9D9"/>
</mask>
<g mask="url(#mask0_26_1095)">
<path d="M36.9736 38.6663C34.3044 38.6663 31.5681 37.998 28.7648 36.6614C25.9615 35.3246 23.3571 33.4483 20.9515 31.0327C18.5461 28.6173 16.675 26.013 15.3381 23.2197C14.0016 20.4265 13.3333 17.6952 13.3333 15.026C13.3333 14.5423 13.4916 14.1392 13.8083 13.8167C14.1249 13.4942 14.5208 13.333 14.9958 13.333H18.9113C19.3417 13.333 19.7173 13.4685 20.0379 13.7395C20.3588 14.0105 20.5761 14.3582 20.6898 14.7825L21.4751 18.558C21.5482 19.0005 21.5351 19.3873 21.4356 19.7182C21.3361 20.0491 21.1605 20.3201 20.9087 20.5312L17.4349 23.7707C18.0843 24.9501 18.8023 26.0457 19.589 27.0577C20.3757 28.0698 21.2146 29.0283 22.1057 29.9335C23.0251 30.8531 24.0147 31.7083 25.0745 32.4989C26.134 33.2895 27.2971 34.036 28.5637 34.7385L31.9497 31.2916C32.2075 31.0134 32.4973 30.8303 32.8189 30.7422C33.1406 30.6538 33.4963 30.6359 33.8861 30.6887L37.217 31.3707C37.6474 31.4763 37.9967 31.6931 38.2648 32.0211C38.5327 32.3488 38.6666 32.7249 38.6666 33.1492V37.0038C38.6666 37.4788 38.5054 37.8747 38.1829 38.1913C37.8604 38.508 37.4573 38.6663 36.9736 38.6663ZM16.6919 22.2848L19.7307 19.4898C19.832 19.4085 19.898 19.2969 19.9286 19.1549C19.959 19.0127 19.9538 18.8807 19.9132 18.7591L19.2098 15.4036C19.1692 15.2411 19.0982 15.1193 18.9968 15.0383C18.8952 14.957 18.7633 14.9163 18.601 14.9163H15.352C15.2301 14.9163 15.1286 14.957 15.0476 15.0383C14.9663 15.1193 14.9257 15.2207 14.9257 15.3427C14.956 16.4246 15.1256 17.5542 15.4343 18.7314C15.7428 19.9089 16.162 21.0933 16.6919 22.2848ZM30.0711 35.4815C31.1406 36.0114 32.2809 36.4031 33.4919 36.6567C34.7026 36.9106 35.7576 37.0466 36.6569 37.0648C36.7789 37.0648 36.8803 37.0242 36.9613 36.9429C37.0426 36.8616 37.0833 36.7601 37.0833 36.6385V33.4596C37.0833 33.2973 37.0426 33.1653 36.9613 33.0637C36.8803 32.9624 36.7585 32.8914 36.596 32.8508L33.6668 32.2507C33.5452 32.21 33.4387 32.205 33.3474 32.2356C33.2558 32.266 33.1594 32.332 33.058 32.4335L30.0711 35.4815Z" fill="white"/>
</g>
</svg>
