<svg width="80" height="40" viewBox="0 0 80 40" fill="none" xmlns="http://www.w3.org/2000/svg">
<mask id="mask0_26_14089" style="mask-type:alpha" maskUnits="userSpaceOnUse" x="0" y="0" width="40" height="40">
<rect width="40" height="40" fill="#D9D9D9"/>
</mask>
<g mask="url(#mask0_26_14089)">
<path opacity="0.4" d="M8.71824 30V32.5C8.71824 32.7361 8.63838 32.934 8.47866 33.0938C8.31894 33.2535 8.12102 33.3333 7.88491 33.3333H7.50033C7.26421 33.3333 7.0663 33.2535 6.90658 33.0938C6.74685 32.934 6.66699 32.7361 6.66699 32.5V20.2563L9.97449 10.8333C10.0559 10.5683 10.2124 10.3632 10.4441 10.2179C10.676 10.0726 10.9341 10 11.2182 10H28.9107C29.163 10 29.392 10.0764 29.5978 10.2292C29.8037 10.3819 29.9464 10.5833 30.0262 10.8333L33.3337 20.2563V32.5C33.3337 32.7361 33.2538 32.934 33.0941 33.0938C32.9344 33.2535 32.7364 33.3333 32.5003 33.3333H32.1157C31.8796 33.3333 31.6817 33.2535 31.522 33.0938C31.3623 32.934 31.2824 32.7361 31.2824 32.5V30H8.71824ZM9.02616 18.5896H30.9745L28.5195 11.6667H11.4812L9.02616 18.5896ZM12.3795 26.1538C12.8981 26.1538 13.3363 25.9724 13.6941 25.6096C14.0521 25.2465 14.2312 24.8058 14.2312 24.2875C14.2312 23.7689 14.0496 23.3307 13.6866 22.9729C13.3238 22.6149 12.8831 22.4358 12.3645 22.4358C11.8462 22.4358 11.408 22.6174 11.0499 22.9804C10.6921 23.3432 10.5132 23.7839 10.5132 24.3025C10.5132 24.8208 10.6946 25.259 11.0574 25.6171C11.4205 25.9749 11.8612 26.1538 12.3795 26.1538ZM27.6362 26.1538C28.1545 26.1538 28.5927 25.9724 28.9507 25.6096C29.3085 25.2465 29.4874 24.8058 29.4874 24.2875C29.4874 23.7689 29.306 23.3307 28.9432 22.9729C28.5802 22.6149 28.1395 22.4358 27.6212 22.4358C27.1025 22.4358 26.6644 22.6174 26.3066 22.9804C25.9485 23.3432 25.7695 23.7839 25.7695 24.3025C25.7695 24.8208 25.951 25.259 26.3141 25.6171C26.6769 25.9749 27.1175 26.1538 27.6362 26.1538ZM8.33366 28.3333H31.667V20.2563H8.33366V28.3333Z" fill="#7B7B7B"/>
</g>
<mask id="mask1_26_14089" style="mask-type:alpha" maskUnits="userSpaceOnUse" x="40" y="0" width="40" height="40">
<rect x="40" width="40" height="40" fill="#D9D9D9"/>
</mask>
<g mask="url(#mask1_26_14089)">
<path opacity="0.4" d="M46.6663 30.8332C45.0466 30.8332 43.6695 30.2658 42.5351 29.1311C41.4004 27.9966 40.833 26.6196 40.833 24.9998C40.833 23.4379 41.3666 22.0993 42.4338 20.984C43.5013 19.8684 44.8161 19.2754 46.378 19.2048H47.5959L44.9547 16.9869H40.833V15.5128H46.7305L51.6022 18.3973L58.4613 15.8332H65.3138L61.3843 10.8332H57.4997V9.1665H62.1984L65.3138 13.1536L70.2559 11.3461V14.2307H66.1663L70.5572 19.859C70.9738 19.6068 71.4188 19.4283 71.8922 19.3236C72.3655 19.2189 72.8458 19.1665 73.333 19.1665C74.9527 19.1665 76.3298 19.7339 77.4643 20.8686C78.599 22.003 79.1663 23.3801 79.1663 24.9998C79.1663 26.6196 78.599 27.9966 77.4643 29.1311C76.3298 30.2658 74.9527 30.8332 73.333 30.8332C71.7133 30.8332 70.3362 30.2658 69.2018 29.1311C68.067 27.9966 67.4997 26.6196 67.4997 24.9998C67.4997 24.2071 67.653 23.4619 67.9597 22.7644C68.2663 22.0666 68.6984 21.4443 69.2559 20.8973L67.2688 18.359L61.2818 27.4998H56.9868L52.4997 23.6215V25.0961C52.4677 26.6964 51.8876 28.0526 50.7593 29.1648C49.6312 30.2771 48.2669 30.8332 46.6663 30.8332ZM46.6663 29.1665C47.8394 29.1665 48.8272 28.7654 49.6297 27.9632C50.4319 27.1607 50.833 26.1729 50.833 24.9998C50.833 23.8268 50.4319 22.839 49.6297 22.0365C48.8272 21.2343 47.8394 20.8332 46.6663 20.8332C45.4933 20.8332 44.5055 21.2343 43.703 22.0365C42.9008 22.839 42.4997 23.8268 42.4997 24.9998C42.4997 26.1729 42.9008 27.1607 43.703 27.9632C44.5055 28.7654 45.4933 29.1665 46.6663 29.1665ZM73.333 29.1665C74.5061 29.1665 75.4938 28.7654 76.2963 27.9632C77.0986 27.1607 77.4997 26.1729 77.4997 24.9998C77.4997 23.8268 77.0986 22.839 76.2963 22.0365C75.4938 21.2343 74.5061 20.8332 73.333 20.8332C72.16 20.8332 71.1722 21.2343 70.3697 22.0365C69.5675 22.839 69.1663 23.8268 69.1663 24.9998C69.1663 26.1729 69.5675 27.1607 70.3697 27.9632C71.1722 28.7654 72.16 29.1665 73.333 29.1665ZM60.3651 25.8332L65.8713 17.4998H58.788L51.3138 20.2628L57.5959 25.8332H60.3651Z" fill="#7B7B7B"/>
</g>
</svg>
