<svg width="40" height="40" viewBox="0 0 40 40" fill="none" xmlns="http://www.w3.org/2000/svg">
<mask id="mask0_26_14063" style="mask-type:alpha" maskUnits="userSpaceOnUse" x="0" y="0" width="40" height="40">
<rect width="40" height="40" fill="#D9D9D9"/>
</mask>
<g mask="url(#mask0_26_14063)">
<path opacity="0.4" d="M31.5962 33.3335L22.3428 24.0801L24.112 22.311L33.3653 31.5643L31.5962 33.3335ZM8.43576 33.3335L6.66659 31.5643L18.2628 19.9681L13.3141 15.0514L12.4037 15.9618L10.8237 14.3493V17.3493L9.91326 18.2597L5.54492 13.891L6.45492 12.981H9.45492L7.85242 11.4106L11.4616 7.80139C11.846 7.41667 12.2669 7.13139 12.7241 6.94556C13.1816 6.75973 13.6688 6.66681 14.1858 6.66681C14.703 6.66681 15.1902 6.75973 15.6474 6.94556C16.1046 7.13139 16.5256 7.41667 16.9103 7.80139L14.1666 10.5451L15.9937 12.3718L15.0833 13.2822L20.032 18.1989L24.2949 13.936C24.0341 13.5663 23.853 13.1881 23.7516 12.8014C23.6499 12.4147 23.5991 11.9906 23.5991 11.5289C23.5991 10.1678 24.0709 9.01556 25.0145 8.07222C25.9578 7.12889 27.1101 6.65723 28.4712 6.65723C28.7595 6.65723 29.0378 6.6775 29.3062 6.71806C29.5742 6.75861 29.8385 6.84084 30.0991 6.96473L26.6474 10.4168L29.5833 13.3526L33.0353 9.90098C33.1656 10.1615 33.2494 10.4258 33.2866 10.6939C33.3241 10.9622 33.3428 11.2406 33.3428 11.5289C33.3428 12.89 32.8712 14.0422 31.9278 14.9856C30.9845 15.9292 29.8323 16.401 28.4712 16.401C28.0095 16.401 27.5853 16.3518 27.1987 16.2535C26.812 16.1551 26.4338 15.9724 26.0641 15.7051L8.43576 33.3335Z" fill="#7B7B7B"/>
</g>
</svg>
