<svg width="48" height="48" viewBox="0 0 48 48" fill="none" xmlns="http://www.w3.org/2000/svg">
<mask id="mask0_26_10189" style="mask-type:alpha" maskUnits="userSpaceOnUse" x="0" y="0" width="48" height="48">
<rect width="48" height="48" fill="#D9D9D9"/>
</mask>
<g mask="url(#mask0_26_10189)">
<path d="M30.4113 41.7144C30.096 42.0297 29.7352 42.2682 29.3288 42.4299C28.9222 42.5912 28.5163 42.6719 28.1113 42.6719C27.7063 42.6719 27.305 42.5912 26.9073 42.4299C26.51 42.2682 26.1537 42.0297 25.8383 41.7144L23.3458 39.2604C23.0305 38.945 22.8005 38.5944 22.6558 38.2084C22.5108 37.8227 22.4345 37.4349 22.4268 37.0449C22.4192 36.6552 22.4903 36.2655 22.6403 35.8759C22.7903 35.4862 23.0025 35.1297 23.2768 34.8064L23.8073 34.2144L7.50732 10.9144L13.9998 4.42188L38.5653 28.9874C38.8807 29.3027 39.1192 29.6635 39.2808 30.0699C39.4422 30.4765 39.5228 30.8824 39.5228 31.2874C39.5228 31.6924 39.4422 32.0937 39.2808 32.4914C39.1192 32.8887 38.8807 33.245 38.5653 33.5604L30.4113 41.7144ZM25.1958 32.7874L32.4228 25.6489L13.9998 7.22587L10.0923 11.1334L25.1958 32.7874ZM27.3038 40.2874C27.5602 40.518 27.855 40.6334 28.1883 40.6334C28.5217 40.6334 28.8037 40.518 29.0343 40.2874L37.1383 32.1834C37.369 31.9527 37.4843 31.6707 37.4843 31.3374C37.4843 31.004 37.369 30.7092 37.1383 30.4529L33.7998 27.0259L24.7613 36.0644C24.505 36.3207 24.3768 36.6219 24.3768 36.9679C24.3768 37.3142 24.505 37.6027 24.7613 37.8334L27.3038 40.2874Z" fill="#C89C66"/>
</g>
</svg>
