<svg width="80" height="80" viewBox="0 0 80 80" fill="none" xmlns="http://www.w3.org/2000/svg">
<g opacity="0.4">
<mask id="mask0_26_10016" style="mask-type:alpha" maskUnits="userSpaceOnUse" x="0" y="0" width="80" height="80">
<rect width="80" height="80" fill="#D9D9D9"/>
</mask>
<g mask="url(#mask0_26_10016)">
<path d="M50.6855 69.5257C50.16 70.0513 49.5586 70.4488 48.8814 70.7182C48.2036 70.9871 47.5272 71.1216 46.8522 71.1216C46.1772 71.1216 45.5083 70.9871 44.8455 70.7182C44.1833 70.4488 43.5894 70.0513 43.0639 69.5257L38.9097 65.4357C38.3842 64.9102 38.0008 64.3257 37.7597 63.6824C37.518 63.0396 37.3908 62.3932 37.378 61.7432C37.3653 61.0938 37.4839 60.4444 37.7339 59.7949C37.9839 59.1455 38.3375 58.5513 38.7947 58.0124L39.6789 57.0257L12.5122 18.1924L23.333 7.37158L64.2755 48.3141C64.8011 48.8396 65.1986 49.441 65.468 50.1182C65.7369 50.796 65.8714 51.4724 65.8714 52.1474C65.8714 52.8224 65.7369 53.4913 65.468 54.1541C65.1986 54.8163 64.8011 55.4102 64.2755 55.9358L50.6855 69.5257ZM41.993 54.6474L54.038 42.7499L23.333 12.0449L16.8205 18.5574L41.993 54.6474ZM45.5064 67.1474C45.9336 67.5319 46.425 67.7241 46.9805 67.7241C47.5361 67.7241 48.0061 67.5319 48.3905 67.1474L61.8972 53.6407C62.2817 53.2563 62.4739 52.7863 62.4739 52.2307C62.4739 51.6752 62.2817 51.1838 61.8972 50.7566L56.333 45.0449L41.2689 60.1091C40.8417 60.5363 40.628 61.0382 40.628 61.6149C40.628 62.1921 40.8417 62.673 41.2689 63.0574L45.5064 67.1474Z" fill="#7B7B7B"/>
</g>
</g>
</svg>
