<svg width="48" height="48" viewBox="0 0 48 48" fill="none" xmlns="http://www.w3.org/2000/svg">
<mask id="mask0_26_10201" style="mask-type:alpha" maskUnits="userSpaceOnUse" x="0" y="0" width="48" height="48">
<rect width="48" height="48" fill="#D9D9D9"/>
</mask>
<g mask="url(#mask0_26_10201)">
<path d="M10.076 38.6929C9.79232 38.6929 9.55499 38.5971 9.36399 38.4054C9.17299 38.2137 9.07749 37.9762 9.07749 37.6929V35.6929H8.00049C6.87215 35.6929 5.92349 35.3082 5.15449 34.5389C4.38516 33.7696 4.00049 32.8209 4.00049 31.6929V21.6929C4.00049 20.4106 4.42349 19.4234 5.26949 18.7314C6.11582 18.0391 7.02615 17.6929 8.00049 17.6929V14.4619C8.00049 13.3336 8.38516 12.3849 9.15449 11.6159C9.92349 10.8466 10.8722 10.4619 12.0005 10.4619H36.0005C37.1288 10.4619 38.0775 10.8466 38.8465 11.6159C39.6158 12.3849 40.0005 13.3336 40.0005 14.4619V17.6929C41.0775 17.6929 42.0133 18.0582 42.808 18.7889C43.603 19.5196 44.0005 20.4876 44.0005 21.6929V31.6929C44.0005 32.8209 43.6158 33.7696 42.8465 34.5389C42.0775 35.3082 41.1288 35.6929 40.0005 35.6929H38.9235V37.6929C38.9235 37.9762 38.8408 38.2137 38.6755 38.4054C38.5102 38.5971 38.2857 38.6929 38.002 38.6929C37.7183 38.6929 37.4805 38.5971 37.2885 38.4054C37.0965 38.2137 37.0005 37.9762 37.0005 37.6929V35.6929H11.0775V37.6929C11.0775 37.9772 10.9815 38.2151 10.7895 38.4064C10.5975 38.5974 10.3597 38.6929 10.076 38.6929ZM8.00049 33.6929H40.0005C40.5672 33.6929 41.0422 33.5012 41.4255 33.1179C41.8088 32.7346 42.0005 32.2596 42.0005 31.6929V21.6929C42.0005 21.1262 41.8088 20.6512 41.4255 20.2679C41.0422 19.8846 40.5672 19.6929 40.0005 19.6929C39.4338 19.6929 38.9588 19.8846 38.5755 20.2679C38.1922 20.6512 38.0005 21.1262 38.0005 21.6929V28.6929H10.0005V21.6929C10.0005 21.1262 9.80882 20.6512 9.42549 20.2679C9.04216 19.8846 8.56715 19.6929 8.00049 19.6929C7.43382 19.6929 6.95882 19.8846 6.57549 20.2679C6.19215 20.6512 6.00049 21.1262 6.00049 21.6929V31.6929C6.00049 32.2596 6.19215 32.7346 6.57549 33.1179C6.95882 33.5012 7.43382 33.6929 8.00049 33.6929ZM12.0005 26.6929H36.0005V21.6929C36.0005 20.9722 36.1838 20.3094 36.5505 19.7044C36.9172 19.0991 37.4005 18.6286 38.0005 18.2929V14.4619C38.0005 13.8952 37.8088 13.4202 37.4255 13.0369C37.0422 12.6536 36.5672 12.4619 36.0005 12.4619H12.0005C11.4338 12.4619 10.9588 12.6536 10.5755 13.0369C10.1922 13.4202 10.0005 13.8952 10.0005 14.4619V18.2929C10.6005 18.6286 11.0838 19.0991 11.4505 19.7044C11.8172 20.3094 12.0005 20.9722 12.0005 21.6929V26.6929Z" fill="#C89C66"/>
</g>
</svg>
