<svg width="40" height="40" viewBox="0 0 40 40" fill="none" xmlns="http://www.w3.org/2000/svg">
<path opacity="0.4" d="M31.6139 18.2806C31.3535 18.5584 31.0844 18.8535 30.8066 19.166C30.5289 19.4785 30.1773 19.8952 29.752 20.416C29.3266 20.9368 28.9837 21.4577 28.7233 21.9785C28.4629 22.4993 28.3327 22.9507 28.3327 23.3327C28.3327 23.8014 27.521 24.1964 25.8978 24.5176C24.2745 24.8388 22.3084 24.9993 19.9993 24.9993C17.6903 24.9993 15.7242 24.8388 14.1009 24.5176C12.4776 24.1964 11.666 23.8014 11.666 23.3327C11.666 22.8292 11.4316 22.1999 10.9629 21.4447C10.4941 20.6895 10.0558 20.0818 9.64779 19.6217C9.2398 19.1617 8.83615 18.732 8.43685 18.3327C7.25629 17.1868 6.66602 15.798 6.66602 14.166C6.66602 12.5514 7.23459 11.1756 8.37174 10.0384C9.5089 8.90126 10.8848 8.33268 12.4993 8.33268C12.8987 8.33268 13.3153 8.37608 13.7493 8.46289C13.4716 9.1747 13.3327 9.96463 13.3327 10.8327C13.3327 12.6903 13.9056 14.2355 15.0514 15.4681C15.0167 14.5306 14.9993 13.541 14.9993 12.4993C14.9993 10.8848 15.4855 9.5089 16.4577 8.37174C17.4299 7.23459 18.6105 6.66602 19.9993 6.66602C21.3882 6.66602 22.5688 7.23459 23.541 8.37174C24.5132 9.5089 24.9993 10.8848 24.9993 12.4993C24.9993 13.5584 24.982 14.548 24.9473 15.4681C26.0931 14.2355 26.666 12.6903 26.666 10.8327C26.666 9.96463 26.5271 9.1747 26.2493 8.46289C26.6834 8.37608 27.1 8.33268 27.4993 8.33268C29.1139 8.33268 30.4898 8.90126 31.627 10.0384C32.7641 11.1756 33.3327 12.5514 33.3327 14.166C33.3327 15.7806 32.7598 17.1521 31.6139 18.2806ZM19.9863 26.666C22.2867 26.666 24.2528 26.5011 25.8848 26.1712C27.5167 25.8414 28.3327 25.4507 28.3327 24.9993V31.666C28.3327 32.1174 27.5167 32.508 25.8848 32.8379C24.2528 33.1677 22.2867 33.3327 19.9863 33.3327C17.686 33.3327 15.7242 33.1677 14.1009 32.8379C12.4776 32.508 11.666 32.1174 11.666 31.666V24.9993C11.666 25.4681 12.4776 25.8631 14.1009 26.1842C15.7242 26.5054 17.686 26.666 19.9863 26.666Z" fill="#7B7B7B"/>
</svg>
