<svg width="56" height="56" viewBox="0 0 56 56" fill="none" xmlns="http://www.w3.org/2000/svg">
<mask id="mask0_26_920" style="mask-type:alpha" maskUnits="userSpaceOnUse" x="0" y="0" width="56" height="56">
<rect width="56" height="56" fill="#D9D9D9"/>
</mask>
<g mask="url(#mask0_26_920)">
<path d="M11.6666 44.333V11.6663V37.8802V33.1464V44.333ZM13.1028 46.6663C12.0286 46.6663 11.1319 46.3066 10.4124 45.5872C9.69297 44.8677 9.33325 43.971 9.33325 42.8968V13.1025C9.33325 12.0284 9.69297 11.1316 10.4124 10.4122C11.1319 9.69273 12.0286 9.33301 13.1028 9.33301H42.8971C43.9712 9.33301 44.868 9.69273 45.5874 10.4122C46.3069 11.1316 46.6666 12.0284 46.6666 13.1025V31.6793H44.3333V13.1025C44.3333 12.7432 44.1837 12.414 43.8847 12.1149C43.5856 11.8159 43.2564 11.6663 42.8971 11.6663H13.1028C12.7434 11.6663 12.4142 11.8159 12.1152 12.1149C11.8161 12.414 11.6666 12.7432 11.6666 13.1025V42.8968C11.6666 43.2562 11.8161 43.5854 12.1152 43.8844C12.4142 44.1835 12.7434 44.333 13.1028 44.333H27.9101V46.6663H13.1028ZM40.2587 48.9997L33.8601 42.646L35.5249 40.9946L40.2587 45.7283L49.7268 36.2608L51.3782 37.9251L40.2587 48.9997ZM18.9361 29.7946C19.4475 29.7946 19.8745 29.6233 20.2171 29.2807C20.5593 28.9381 20.7304 28.5111 20.7304 27.9997C20.7304 27.4883 20.5593 27.0613 20.2171 26.7187C19.8745 26.3761 19.4475 26.2048 18.9361 26.2048C18.4243 26.2048 17.9971 26.3761 17.6545 26.7187C17.3123 27.0613 17.1412 27.4883 17.1412 27.9997C17.1412 28.5111 17.3123 28.9381 17.6545 29.2807C17.9971 29.6233 18.4243 29.7946 18.9361 29.7946ZM18.9361 20.9997C19.4475 20.9997 19.8745 20.8284 20.2171 20.4858C20.5593 20.1431 20.7304 19.7161 20.7304 19.2048C20.7304 18.6934 20.5593 18.2664 20.2171 17.9238C19.8745 17.5811 19.4475 17.4098 18.9361 17.4098C18.4243 17.4098 17.9971 17.5811 17.6545 17.9238C17.3123 18.2664 17.1412 18.6934 17.1412 19.2048C17.1412 19.7161 17.3123 20.1431 17.6545 20.4858C17.9971 20.8284 18.4243 20.9997 18.9361 20.9997ZM26.1152 29.1663H38.6796V26.833H26.1152V29.1663ZM26.1152 20.3714H38.6796V18.0381H26.1152V20.3714Z" fill="#C89C66"/>
</g>
</svg>
