<svg width="80" height="80" viewBox="0 0 80 80" fill="none" xmlns="http://www.w3.org/2000/svg">
<g opacity="0.4">
<mask id="mask0_26_13547" style="mask-type:alpha" maskUnits="userSpaceOnUse" x="0" y="0" width="80" height="80">
<rect width="80" height="80" fill="#7B7B7B"/>
</mask>
<g mask="url(#mask0_26_13547)">
<path d="M6.6665 79.9999V73.3332H73.3332V79.9999H6.6665ZM19.9998 56.0899H23.5765L52.9098 26.7757L51.1348 24.9357L49.314 23.1791L19.9998 52.5124V56.0899ZM16.6665 59.4232V51.0899L54.064 13.7115C54.4185 13.3565 54.8062 13.0979 55.2273 12.9357C55.6484 12.7735 56.0773 12.6924 56.514 12.6924C56.9507 12.6924 57.3737 12.7735 57.7832 12.9357C58.1926 13.0979 58.581 13.3629 58.9482 13.7307L62.3782 17.1791C62.7454 17.5341 63.0071 17.9179 63.1632 18.3307C63.3193 18.744 63.3973 19.171 63.3973 19.6116C63.3973 20.0243 63.316 20.4446 63.1532 20.8724C62.991 21.3002 62.7326 21.691 62.3782 22.0449L24.9998 59.4232H16.6665ZM52.9098 26.7757L51.1348 24.9357L49.314 23.1791L52.9098 26.7757Z" fill="#7B7B7B"/>
</g>
</g>
</svg>
