<svg width="121" height="112" viewBox="0 0 121 112" fill="none" xmlns="http://www.w3.org/2000/svg">
<path d="M0 111.333V0H58V26.6667H120.667V111.333H0ZM4.66667 106.667H26.6667V84.6667H4.66667V106.667ZM4.66667 80H26.6667V58H4.66667V80ZM4.66667 53.3333H26.6667V31.3333H4.66667V53.3333ZM4.66667 26.6667H26.6667V4.66667H4.66667V26.6667ZM31.3333 106.667H53.3333V84.6667H31.3333V106.667ZM31.3333 80H53.3333V58H31.3333V80ZM31.3333 53.3333H53.3333V31.3333H31.3333V53.3333ZM31.3333 26.6667H53.3333V4.66667H31.3333V26.6667ZM58 106.667H116V31.3333H58V53.3333H74.6667V58H58V80H74.6667V84.6667H58V106.667ZM91.3333 58V53.3333H96V58H91.3333ZM91.3333 84.6667V80H96V84.6667H91.3333Z" fill="#C89C66"/>
</svg>
