<svg width="18" height="18" viewBox="0 0 18 18" fill="none" xmlns="http://www.w3.org/2000/svg">
<mask id="mask0_26_15122" style="mask-type:alpha" maskUnits="userSpaceOnUse" x="0" y="0" width="18" height="18">
<rect width="17.424" height="17.424" fill="#D9D9D9"/>
</mask>
<g mask="url(#mask0_26_15122)">
<path d="M2.90366 14.5198V8.71181H1.45166V7.25981H4.35566C3.95636 7.25981 3.61454 7.11763 3.33019 6.83328C3.04584 6.54893 2.90366 6.20711 2.90366 5.80781V2.90381H7.25966V5.80781C7.25966 6.20711 7.11748 6.54893 6.83313 6.83328C6.54878 7.11763 6.20696 7.25981 5.80766 7.25981H11.6157V5.08181C11.6157 4.87611 11.5461 4.70368 11.4069 4.56453C11.2678 4.42538 11.0954 4.35581 10.8897 4.35581C10.684 4.35581 10.5115 4.42538 10.3724 4.56453C10.2332 4.70368 10.1637 4.87611 10.1637 5.08181H8.71166C8.71166 4.47681 8.92341 3.96256 9.34691 3.53906C9.77041 3.11556 10.2847 2.90381 10.8897 2.90381C11.4947 2.90381 12.0089 3.11556 12.4324 3.53906C12.8559 3.96256 13.0677 4.47681 13.0677 5.08181V7.25981H15.9717V8.71181H14.5197V14.5198H2.90366ZM4.35566 5.80781H5.80766V4.35581H4.35566V5.80781ZM4.35566 13.0678H7.98566V8.71181H4.35566V13.0678ZM9.43766 13.0678H13.0677V8.71181H9.43766V13.0678Z" fill="#591B42"/>
</g>
</svg>
