<svg width="56" height="56" viewBox="0 0 56 56" fill="none" xmlns="http://www.w3.org/2000/svg">
<mask id="mask0_26_12286" style="mask-type:alpha" maskUnits="userSpaceOnUse" x="0" y="0" width="56" height="56">
<rect width="56" height="56" fill="#D9D9D9"/>
</mask>
<g mask="url(#mask0_26_12286)">
<path d="M31.6214 46.6668L17.5 31.9487V28.8973H24.5C26.8602 28.8973 29.0059 28.1518 30.9371 26.6608C32.8679 25.1694 33.8544 23.0432 33.8964 20.2821H15.1667V17.9487H33.6449C33.1631 16.1089 32.0839 14.602 30.4074 13.4279C28.7305 12.2539 26.7614 11.6668 24.5 11.6668H15.1667V9.3335H40.8334V11.6668H31.6348C32.7474 12.3279 33.712 13.2195 34.5287 14.3414C35.3454 15.463 35.8554 16.6654 36.0588 17.9487H40.8334V20.2821H36.2431C36.231 23.5876 35.0494 26.2389 32.6982 28.2358C30.347 30.2324 27.6142 31.2307 24.5 31.2307H20.0714L34.8653 46.6668H31.6214Z" fill="#C89C66"/>
</g>
</svg>
