<svg width="64" height="64" viewBox="0 0 64 64" fill="none" xmlns="http://www.w3.org/2000/svg">
<mask id="mask0_26_1001" style="mask-type:alpha" maskUnits="userSpaceOnUse" x="0" y="0" width="64" height="64">
<rect width="64" height="64" fill="#D9D9D9"/>
</mask>
<g mask="url(#mask0_26_1001)">
<path d="M24.5747 54.6924C19.7814 53.1404 15.8291 50.3029 12.718 46.1798C9.60693 42.0566 8.05137 37.3182 8.05137 31.9644C8.05137 30.5698 8.1667 29.1886 8.39737 27.8211C8.62804 26.4535 8.99648 25.1166 9.5027 23.8104L3.71804 27.1491L2.43604 24.8571L12.81 18.8571L18.81 29.2158L16.5027 30.6004L12.492 23.6671C11.9009 24.9698 11.466 26.3253 11.1874 27.7338C10.9087 29.1422 10.7694 30.5695 10.7694 32.0158C10.7694 36.8055 12.1949 41.0611 15.046 44.7824C17.8976 48.5038 21.5351 51.0209 25.9587 52.3338L24.5747 54.6924ZM40.564 21.2824V18.6158H48.4974C46.4872 16.0824 44.0376 14.1329 41.1487 12.7671C38.2598 11.4013 35.2103 10.7184 32 10.7184C29.1796 10.7184 26.5436 11.2244 24.092 12.2364C21.6409 13.2484 19.47 14.6484 17.5794 16.4364L16.1947 14.0258C18.3147 12.1626 20.7114 10.7013 23.3847 9.64176C26.058 8.58176 28.9127 8.05176 31.9487 8.05176C35.4256 8.05176 38.7127 8.74998 41.81 10.1464C44.9078 11.5433 47.6036 13.5544 49.8974 16.1798V9.28242H52.564V21.2824H40.564ZM40.9334 61.0258L30.5587 54.9751L36.5587 44.6671L38.8514 46.0004L34.692 53.0978C39.9707 52.4106 44.3803 50.0671 47.9207 46.0671C51.4607 42.0671 53.2307 37.3782 53.2307 32.0004C53.2307 31.0671 53.1683 30.15 53.0434 29.2491C52.9189 28.3482 52.7267 27.4704 52.4667 26.6158H55.2514C55.4669 27.4704 55.6285 28.3398 55.736 29.2238C55.8436 30.1073 55.8974 31.0158 55.8974 31.9491C55.8974 37.7442 54.0743 42.8373 50.428 47.2284C46.7818 51.62 42.1434 54.3473 36.5127 55.4104L42.2667 58.7338L40.9334 61.0258Z" fill="#591B42"/>
</g>
</svg>
