<svg width="80" height="80" viewBox="0 0 80 80" fill="none" xmlns="http://www.w3.org/2000/svg">
<g opacity="0.4">
<mask id="mask0_26_13561" style="mask-type:alpha" maskUnits="userSpaceOnUse" x="0" y="0" width="80" height="80">
<rect width="80" height="80" fill="#7B7B7B"/>
</mask>
<g mask="url(#mask0_26_13561)">
<path d="M40.0002 29.6347C44.6496 29.6347 49.4307 28.9444 54.3435 27.5638C59.2557 26.1833 62.1882 24.7152 63.141 23.1597C62.231 21.5486 59.386 20.0636 54.606 18.7047C49.826 17.3458 44.9574 16.6663 40.0002 16.6663C35.2013 16.6663 30.3604 17.3427 25.4777 18.6955C20.5954 20.0477 17.6799 21.5358 16.731 23.1597C17.6499 24.7708 20.5099 26.2527 25.311 27.6055C30.1121 28.9583 35.0085 29.6347 40.0002 29.6347ZM37.6735 63.2755C37.9296 63.9122 38.2157 64.5041 38.5318 65.0513C38.8485 65.598 39.2227 66.1363 39.6543 66.6663C35.8549 66.6536 32.3346 66.3855 29.0935 65.8622C25.8518 65.3383 23.0718 64.6074 20.7535 63.6697C18.4352 62.7313 16.6188 61.6063 15.3043 60.2947C13.9904 58.9825 13.3335 57.5594 13.3335 56.0255V23.333C13.3335 22.0552 14.0824 20.8138 15.5802 19.6088C17.0779 18.4038 19.0704 17.3397 21.5577 16.4163C24.0449 15.493 26.8943 14.7483 30.106 14.1822C33.3177 13.6161 36.6157 13.333 40.0002 13.333C43.3418 13.333 46.6185 13.6161 49.8302 14.1822C53.0418 14.7483 55.8913 15.5036 58.3785 16.448C60.8657 17.3925 62.8688 18.4566 64.3877 19.6405C65.9071 20.8244 66.6668 22.0552 66.6668 23.333C66.6668 24.4825 65.8646 25.6277 64.2602 26.7688C62.6552 27.91 60.5771 28.9419 58.026 29.8647C55.4743 30.788 52.6143 31.5327 49.446 32.0988C46.2771 32.665 43.1285 32.948 40.0002 32.948C35.3635 32.948 30.9918 32.478 26.8852 31.538C22.7779 30.598 19.3718 29.2797 16.6668 27.583V40.8713C19.1029 42.5852 22.1904 43.893 25.9293 44.7947C29.6688 45.6963 33.7243 46.2219 38.096 46.3713C37.8654 46.7775 37.6432 47.2444 37.4293 47.7722C37.216 48.2999 37.0324 48.9313 36.8785 49.6663C33.3741 49.4913 29.796 49.0319 26.1443 48.288C22.4927 47.5447 19.3335 46.3694 16.6668 44.7622V56.6663C17.8291 58.5252 20.2991 60.0444 24.0768 61.2238C27.8546 62.4033 32.3868 63.0872 37.6735 63.2755ZM70.9743 73.333L62.1027 64.5255C61.0943 65.1622 60.0088 65.678 58.846 66.073C57.6838 66.4686 56.4874 66.6663 55.2568 66.6663C52.1157 66.6663 49.4288 65.5499 47.196 63.3172C44.9627 61.0844 43.846 58.3974 43.846 55.2563C43.846 52.1152 44.9627 49.4283 47.196 47.1955C49.4288 44.9622 52.1157 43.8455 55.2568 43.8455C58.3979 43.8455 61.0849 44.9622 63.3177 47.1955C65.5504 49.4283 66.6668 52.1152 66.6668 55.2563C66.6668 56.4869 66.4904 57.6941 66.1377 58.878C65.7854 60.0619 65.2268 61.1366 64.4618 62.1022L73.3335 70.9738L70.9743 73.333ZM55.2568 63.333C57.5046 63.333 59.4127 62.5488 60.981 60.9805C62.5493 59.4122 63.3335 57.5041 63.3335 55.2563C63.3335 53.0086 62.5493 51.1002 60.981 49.5313C59.4127 47.963 57.5046 47.1788 55.2568 47.1788C53.0091 47.1788 51.1007 47.963 49.5318 49.5313C47.9635 51.1002 47.1793 53.0086 47.1793 55.2563C47.1793 57.5041 47.9635 59.4122 49.5318 60.9805C51.1007 62.5488 53.0091 63.333 55.2568 63.333Z" fill="#7B7B7B"/>
</g>
</g>
</svg>
