<svg width="87" height="87" viewBox="0 0 87 87" fill="none" xmlns="http://www.w3.org/2000/svg">
<path d="M26 24.5V21H66V24.5H26ZM26 38V34.5H66V38H26ZM37.5 87H8.5C6.08333 87 4.0625 86.1875 2.4375 84.5625C0.8125 82.9375 0 80.9167 0 78.5V65H15V0H77V37.75C76.3333 37.8333 75.7292 37.9375 75.1875 38.0625C74.6458 38.1875 74.0833 38.3333 73.5 38.5V3.5H18.5V65H44.25L40.75 68.5H3.5V78.5C3.5 79.9167 3.97917 81.1042 4.9375 82.0625C5.89583 83.0208 7.08333 83.5 8.5 83.5H37.5V87ZM50 87V77.25L76.375 51C76.7917 50.5833 77.2083 50.3125 77.625 50.1875C78.0417 50.0625 78.4583 50 78.875 50C79.2917 50 79.7292 50.0833 80.1875 50.25C80.6458 50.4167 81.0417 50.6667 81.375 51L86 55.75C86.3333 56.1667 86.5833 56.5833 86.75 57C86.9167 57.4167 87 57.8333 87 58.25C87 58.6667 86.9167 59.0833 86.75 59.5C86.5833 59.9167 86.3333 60.3333 86 60.75L59.75 87H50ZM53.5 83.5H58.25L76.25 65.5L73.875 63.125L71.625 60.625L53.5 78.75V83.5ZM73.875 63.125L71.625 60.625L76.25 65.5L73.875 63.125Z" fill="white"/>
</svg>
