<svg width="18" height="18" viewBox="0 0 18 18" fill="none" xmlns="http://www.w3.org/2000/svg">
<mask id="mask0_26_13940" style="mask-type:alpha" maskUnits="userSpaceOnUse" x="0" y="0" width="18" height="18">
<rect width="17.424" height="17.424" fill="#D9D9D9"/>
</mask>
<g mask="url(#mask0_26_13940)">
<path d="M7.98637 15.9721C6.77637 15.9721 5.74787 15.5486 4.90087 14.7016C4.05387 13.8546 3.63037 12.8261 3.63037 11.6161V10.1641C4.48947 10.152 5.30017 10.3275 6.06247 10.6905C6.82477 11.0535 7.46607 11.5435 7.98637 12.1606V9.3837C6.94577 9.2143 6.08062 8.72727 5.39092 7.92262C4.70122 7.11797 4.35637 6.17115 4.35637 5.08215V2.61375C4.35637 2.29915 4.49552 2.07832 4.77382 1.95127C5.05212 1.82422 5.31227 1.86355 5.55427 2.06925L6.89737 3.23085L8.14972 1.70625C8.29492 1.53685 8.48247 1.45215 8.71237 1.45215C8.94227 1.45215 9.12982 1.53685 9.27502 1.70625L10.5274 3.23085L11.8705 2.06925C12.1125 1.86355 12.3726 1.82422 12.6509 1.95127C12.9292 2.07832 13.0684 2.29915 13.0684 2.61375V5.08215C13.0684 6.17115 12.7235 7.11797 12.0338 7.92262C11.3441 8.72727 10.479 9.2143 9.43837 9.3837V12.1606C9.95867 11.5435 10.6 11.0535 11.3623 10.6905C12.1246 10.3275 12.9353 10.152 13.7944 10.1641V11.6161C13.7944 12.8261 13.3709 13.8546 12.5239 14.7016C11.6769 15.5486 10.6484 15.9721 9.43837 15.9721H7.98637Z" fill="#591B42"/>
</g>
</svg>
