<svg width="18" height="18" viewBox="0 0 18 18" fill="none" xmlns="http://www.w3.org/2000/svg">
<mask id="mask0_26_15193" style="mask-type:alpha" maskUnits="userSpaceOnUse" x="0" y="0" width="18" height="18">
<rect width="17.424" height="17.424" fill="#D9D9D9"/>
</mask>
<g mask="url(#mask0_26_15193)">
<path d="M7.98588 15.9721C6.77588 15.9721 5.74738 15.5486 4.90038 14.7016C4.05338 13.8546 3.62988 12.8261 3.62988 11.6161V10.1641C4.48898 10.152 5.29968 10.3275 6.06198 10.6905C6.82428 11.0535 7.46558 11.5435 7.98588 12.1606V9.3837C6.94528 9.2143 6.08013 8.72727 5.39043 7.92262C4.70073 7.11797 4.35588 6.17115 4.35588 5.08215V2.61375C4.35588 2.29915 4.49503 2.07832 4.77333 1.95127C5.05163 1.82422 5.31178 1.86355 5.55378 2.06925L6.89688 3.23085L8.14923 1.70625C8.29443 1.53685 8.48198 1.45215 8.71188 1.45215C8.94178 1.45215 9.12933 1.53685 9.27453 1.70625L10.5269 3.23085L11.87 2.06925C12.112 1.86355 12.3721 1.82422 12.6504 1.95127C12.9287 2.07832 13.0679 2.29915 13.0679 2.61375V5.08215C13.0679 6.17115 12.723 7.11797 12.0333 7.92262C11.3436 8.72727 10.4785 9.2143 9.43788 9.3837V12.1606C9.95818 11.5435 10.5995 11.0535 11.3618 10.6905C12.1241 10.3275 12.9348 10.152 13.7939 10.1641V11.6161C13.7939 12.8261 13.3704 13.8546 12.5234 14.7016C11.6764 15.5486 10.6479 15.9721 9.43788 15.9721H7.98588Z" fill="#591B42"/>
</g>
</svg>
