<svg width="40" height="40" viewBox="0 0 40 40" fill="none" xmlns="http://www.w3.org/2000/svg">
<mask id="mask0_26_14074" style="mask-type:alpha" maskUnits="userSpaceOnUse" x="0" y="0" width="40" height="40">
<rect width="40" height="40" fill="#D9D9D9"/>
</mask>
<g mask="url(#mask0_26_14074)">
<path opacity="0.4" d="M6.67042 35.8333C5.51403 35.8333 4.52986 35.4286 3.71792 34.6192C2.90597 33.8097 2.5 32.8268 2.5 31.6704C2.5 30.514 2.90472 29.5299 3.71417 28.7179C4.52361 27.906 5.50653 27.5 6.66292 27.5C7.81931 27.5 8.80347 27.9047 9.61542 28.7142C10.4274 29.5236 10.8333 30.5065 10.8333 31.6629C10.8333 32.8193 10.4286 33.8035 9.61917 34.6154C8.80972 35.4274 7.82681 35.8333 6.67042 35.8333ZM6.66667 34.1667C7.3525 34.1667 7.94069 33.9215 8.43125 33.4312C8.92153 32.9407 9.16667 32.3525 9.16667 31.6667C9.16667 30.9808 8.92153 30.3926 8.43125 29.9021C7.94069 29.4118 7.3525 29.1667 6.66667 29.1667C5.98083 29.1667 5.39264 29.4118 4.90208 29.9021C4.41181 30.3926 4.16667 30.9808 4.16667 31.6667C4.16667 32.3525 4.41181 32.9407 4.90208 33.4312C5.39264 33.9215 5.98083 34.1667 6.66667 34.1667ZM12.9167 35.8333C13.1133 35.5469 13.271 35.2718 13.3896 35.0079C13.5082 34.744 13.6156 34.4636 13.7117 34.1667H17.8846V21.6667C17.8846 20.5208 17.4767 19.54 16.6608 18.7242C15.8447 17.9081 14.8638 17.5 13.7179 17.5H5.83333V24.2308C5.57056 24.2522 5.28792 24.2917 4.98542 24.3492C4.68319 24.4069 4.41028 24.4829 4.16667 24.5771V15.8333H9.16667V9.33333C9.16667 7.42694 9.82875 5.81139 11.1529 4.48667C12.4771 3.16222 14.0921 2.5 15.9979 2.5C17.384 2.5 18.6465 2.87555 19.7854 3.62667C20.9243 4.37778 21.7565 5.38681 22.2821 6.65375L33.9133 34.1667H37.5V35.8333H27.5V34.1667H32.1154L20.7787 7.34625C20.3601 6.36958 19.7239 5.59556 18.87 5.02417C18.0164 4.4525 17.0642 4.16667 16.0133 4.16667C14.5686 4.16667 13.344 4.66875 12.3396 5.67292C11.3354 6.67736 10.8333 7.8975 10.8333 9.33333V15.8333H13.7179C15.3376 15.8333 16.7147 16.4007 17.8492 17.5354C18.9839 18.6699 19.5513 20.0469 19.5513 21.6667V35.8333H12.9167Z" fill="#7B7B7B"/>
</g>
</svg>
