<svg width="40" height="40" viewBox="0 0 40 40" fill="none" xmlns="http://www.w3.org/2000/svg">
<mask id="mask0_26_14048" style="mask-type:alpha" maskUnits="userSpaceOnUse" x="0" y="0" width="40" height="40">
<rect width="40" height="40" fill="#D9D9D9"/>
</mask>
<g mask="url(#mask0_26_14048)">
<path opacity="0.4" d="M19.1665 32.8561V20.4777L8.33317 14.2052V26.0065C8.33317 26.1776 8.37595 26.3379 8.4615 26.4873C8.54678 26.637 8.67498 26.7652 8.84609 26.8719L19.1665 32.8561ZM20.8332 32.8561L31.1536 26.8719C31.3247 26.7652 31.4529 26.637 31.5382 26.4873C31.6237 26.3379 31.6665 26.1776 31.6665 26.0065V14.2052L20.8332 20.4777V32.8561ZM18.6536 34.4777L8.01275 28.3465C7.59164 28.1051 7.26206 27.777 7.024 27.3623C6.78567 26.9479 6.6665 26.4991 6.6665 26.0161V13.9844C6.6665 13.5013 6.78567 13.0526 7.024 12.6381C7.26206 12.2234 7.59164 11.8954 8.01275 11.654L18.6536 5.52273C19.0747 5.28134 19.5234 5.16064 19.9998 5.16064C20.4762 5.16064 20.925 5.28134 21.3461 5.52273L31.9869 11.654C32.408 11.8954 32.7376 12.2234 32.9757 12.6381C33.214 13.0526 33.3332 13.5013 33.3332 13.9844V26.0161C33.3332 26.4991 33.214 26.9479 32.9757 27.3623C32.7376 27.777 32.408 28.1051 31.9869 28.3465L21.3461 34.4777C20.925 34.7191 20.4762 34.8398 19.9998 34.8398C19.5234 34.8398 19.0747 34.7191 18.6536 34.4777ZM26.1857 15.4586L30.7082 12.8561L20.5128 6.95523C20.3416 6.84856 20.1707 6.79523 19.9998 6.79523C19.829 6.79523 19.658 6.84856 19.4869 6.95523L15.4998 9.2469L26.1857 15.4586ZM19.9998 19.0452L24.4998 16.4327L13.7915 10.244L9.2915 12.8561L19.9998 19.0452Z" fill="#7B7B7B"/>
</g>
</svg>
