<svg width="80" height="80" viewBox="0 0 80 80" fill="none" xmlns="http://www.w3.org/2000/svg">
<g opacity="0.4">
<mask id="mask0_26_9995" style="mask-type:alpha" maskUnits="userSpaceOnUse" x="0" y="0" width="80" height="80">
<rect width="80" height="80" fill="#D9D9D9"/>
</mask>
<g mask="url(#mask0_26_9995)">
<path d="M38.3337 65.7116V40.955L16.6671 28.41V52.0125C16.6671 52.3547 16.7526 52.6752 16.9237 52.9741C17.0943 53.2736 17.3507 53.53 17.6929 53.7433L38.3337 65.7116ZM41.6671 65.7116L62.3079 53.7433C62.6501 53.53 62.9065 53.2736 63.0771 52.9741C63.2482 52.6752 63.3337 52.3547 63.3337 52.0125V28.41L41.6671 40.955V65.7116ZM40.0004 38.09L61.4171 25.7116L41.0262 13.91C40.684 13.6966 40.3421 13.59 40.0004 13.59C39.6587 13.59 39.3168 13.6966 38.9746 13.91L18.5837 25.7116L40.0004 38.09ZM16.0262 56.6925C15.184 56.2097 14.5249 55.5536 14.0487 54.7241C13.5721 53.8952 13.3337 52.9977 13.3337 52.0316V27.9683C13.3337 27.0022 13.5721 26.1047 14.0487 25.2758C14.5249 24.4464 15.184 23.7902 16.0262 23.3075L37.3079 11.045C38.1501 10.5622 39.0476 10.3208 40.0004 10.3208C40.9532 10.3208 41.8507 10.5622 42.6929 11.045L63.9746 23.3075C64.8168 23.7902 65.476 24.4464 65.9521 25.2758C66.4287 26.1047 66.6671 27.0022 66.6671 27.9683V52.0316C66.6671 52.9977 66.4287 53.8952 65.9521 54.7241C65.476 55.5536 64.8168 56.2097 63.9746 56.6925L42.6929 68.955C41.8507 69.4378 40.9532 69.6791 40.0004 69.6791C39.0476 69.6791 38.1501 69.4378 37.3079 68.955L16.0262 56.6925Z" fill="#7B7B7B"/>
</g>
</g>
</svg>
