<svg width="32" height="32" viewBox="0 0 32 32" fill="none" xmlns="http://www.w3.org/2000/svg">
<mask id="mask0_26_13" style="mask-type:alpha" maskUnits="userSpaceOnUse" x="0" y="0" width="32" height="32">
<rect width="32" height="32" fill="#D9D9D9"/>
</mask>
<g mask="url(#mask0_26_13)">
<path d="M15.5334 26.3997V16.2664L6.66673 11.1331V20.6664C6.66673 20.8442 6.71118 21.0108 6.80007 21.1664C6.88895 21.322 7.02229 21.4553 7.20007 21.5664L15.5334 26.3997ZM16.4667 26.3997L24.8001 21.5664C24.9778 21.4553 25.1112 21.322 25.2001 21.1664C25.289 21.0108 25.3334 20.8442 25.3334 20.6664V11.1331L16.4667 16.2664V26.3997ZM16.0001 15.4664L24.7667 10.3997L16.5334 5.63307C16.3556 5.52196 16.1778 5.46641 16.0001 5.46641C15.8223 5.46641 15.6445 5.52196 15.4667 5.63307L7.2334 10.3997L16.0001 15.4664ZM6.7334 22.3997C6.42229 22.222 6.17784 21.9775 6.00007 21.6664C5.82229 21.3553 5.7334 21.022 5.7334 20.6664V11.3331C5.7334 10.9775 5.82229 10.6442 6.00007 10.3331C6.17784 10.022 6.42229 9.77752 6.7334 9.59974L15.0001 4.83307C15.3112 4.6553 15.6445 4.56641 16.0001 4.56641C16.3556 4.56641 16.689 4.6553 17.0001 4.83307L25.2667 9.59974C25.5778 9.77752 25.8223 10.022 26.0001 10.3331C26.1778 10.6442 26.2667 10.9775 26.2667 11.3331V20.6664C26.2667 21.022 26.1778 21.3553 26.0001 21.6664C25.8223 21.9775 25.5778 22.222 25.2667 22.3997L17.0001 27.1664C16.689 27.3442 16.3556 27.4331 16.0001 27.4331C15.6445 27.4331 15.3112 27.3442 15.0001 27.1664L6.7334 22.3997Z" fill="#C89C66"/>
</g>
</svg>
