<svg width="80" height="80" viewBox="0 0 80 80" fill="none" xmlns="http://www.w3.org/2000/svg">
<g opacity="0.4">
<mask id="mask0_26_9985" style="mask-type:alpha" maskUnits="userSpaceOnUse" x="0" y="0" width="80" height="80">
<rect width="80" height="80" fill="#D9D9D9"/>
</mask>
<g mask="url(#mask0_26_9985)">
<path d="M30.3592 39.1934L37.9742 31.5584L31.1283 24.6934L27.2692 28.5526L24.91 26.1934L28.75 22.3342L22.2433 15.8276L14.6092 23.4626L30.3592 39.1934ZM56.4742 65.3276L64.1092 57.6934L57.6025 51.1867L53.7433 55.0267L51.385 52.6676L55.2242 48.8084L48.4233 42.0267L40.8075 49.6417L56.4742 65.3276ZM23.8458 66.6676H13.3333V56.1551L27.9808 41.5076L10 23.4626L22.2433 11.2192L40.3717 29.2826L55.2625 14.3726C55.6303 14.0054 56.0172 13.7403 56.4233 13.5776C56.8289 13.4153 57.2625 13.3342 57.7242 13.3342C58.1858 13.3342 58.6197 13.4153 59.0258 13.5776C59.4319 13.7403 59.8186 14.0054 60.1858 14.3726L65.6283 20.0267C65.9956 20.394 66.2497 20.7806 66.3908 21.1867C66.5319 21.5928 66.6025 22.0267 66.6025 22.4884C66.6025 22.9495 66.5319 23.3692 66.3908 23.7476C66.2497 24.1259 65.9956 24.4987 65.6283 24.8659L50.865 39.7126L68.7817 57.7576L56.5383 70.0009L38.4933 52.0201L23.8458 66.6676ZM16.6667 63.3342H22.4233L55.1542 30.6226L49.3783 24.8467L16.6667 57.5776V63.3342ZM52.3075 27.7126L49.3783 24.8467L55.1542 30.6226L52.3075 27.7126Z" fill="#7B7B7B"/>
</g>
</g>
</svg>
