<svg width="18" height="18" viewBox="0 0 18 18" fill="none" xmlns="http://www.w3.org/2000/svg">
<mask id="mask0_26_15139" style="mask-type:alpha" maskUnits="userSpaceOnUse" x="0" y="0" width="18" height="18">
<rect width="17.424" height="17.424" fill="#D9D9D9"/>
</mask>
<g mask="url(#mask0_26_15139)">
<path d="M0.725098 14.5198V11.6158C0.725098 11.2044 0.867273 10.8596 1.15162 10.5813C1.43597 10.303 1.7778 10.1638 2.1771 10.1638H4.55475C4.79675 10.1638 5.02665 10.2243 5.24445 10.3453C5.46225 10.4663 5.6377 10.6297 5.7708 10.8354C6.1217 11.3073 6.55427 11.6763 7.06852 11.9425C7.58277 12.2087 8.1303 12.3418 8.7111 12.3418C9.304 12.3418 9.85757 12.2087 10.3718 11.9425C10.8861 11.6763 11.3126 11.3073 11.6514 10.8354C11.8087 10.6297 11.9932 10.4663 12.205 10.3453C12.4167 10.2243 12.6375 10.1638 12.8674 10.1638H15.2451C15.6565 10.1638 16.0013 10.303 16.2796 10.5813C16.5579 10.8596 16.6971 11.2044 16.6971 11.6158V14.5198H11.6151V12.8682C11.1916 13.1707 10.7348 13.4006 10.2448 13.5579C9.75472 13.7152 9.2435 13.7938 8.7111 13.7938C8.1908 13.7938 7.6826 13.7121 7.1865 13.5488C6.6904 13.3854 6.2306 13.1525 5.8071 12.85V14.5198H0.725098ZM8.7111 11.6158C8.2513 11.6158 7.8157 11.5099 7.4043 11.2982C6.9929 11.0864 6.64805 10.793 6.36975 10.4179C6.16405 10.1154 5.90692 9.87643 5.59837 9.70098C5.28982 9.52553 4.95405 9.43781 4.59105 9.43781C4.85725 8.99011 5.4199 8.63618 6.279 8.37603C7.1381 8.11588 7.9488 7.98581 8.7111 7.98581C9.4734 7.98581 10.2841 8.11588 11.1432 8.37603C12.0023 8.63618 12.5649 8.99011 12.8311 9.43781C12.4802 9.43781 12.1475 9.52553 11.8329 9.70098C11.5183 9.87643 11.2581 10.1154 11.0524 10.4179C10.7862 10.8051 10.4474 11.1016 10.036 11.3073C9.62465 11.513 9.183 11.6158 8.7111 11.6158ZM2.9031 9.43781C2.2981 9.43781 1.78385 9.22606 1.36035 8.80256C0.936848 8.37906 0.725098 7.86481 0.725098 7.25981C0.725098 6.64271 0.936848 6.12543 1.36035 5.70798C1.78385 5.29053 2.2981 5.08181 2.9031 5.08181C3.5202 5.08181 4.03747 5.29053 4.45492 5.70798C4.87237 6.12543 5.0811 6.64271 5.0811 7.25981C5.0811 7.86481 4.87237 8.37906 4.45492 8.80256C4.03747 9.22606 3.5202 9.43781 2.9031 9.43781ZM14.5191 9.43781C13.9141 9.43781 13.3998 9.22606 12.9763 8.80256C12.5528 8.37906 12.3411 7.86481 12.3411 7.25981C12.3411 6.64271 12.5528 6.12543 12.9763 5.70798C13.3998 5.29053 13.9141 5.08181 14.5191 5.08181C15.1362 5.08181 15.6535 5.29053 16.0709 5.70798C16.4884 6.12543 16.6971 6.64271 16.6971 7.25981C16.6971 7.86481 16.4884 8.37906 16.0709 8.80256C15.6535 9.22606 15.1362 9.43781 14.5191 9.43781ZM8.7111 7.25981C8.1061 7.25981 7.59185 7.04806 7.16835 6.62456C6.74485 6.20106 6.5331 5.68681 6.5331 5.08181C6.5331 4.46471 6.74485 3.94743 7.16835 3.52998C7.59185 3.11253 8.1061 2.90381 8.7111 2.90381C9.3282 2.90381 9.84547 3.11253 10.2629 3.52998C10.6804 3.94743 10.8891 4.46471 10.8891 5.08181C10.8891 5.68681 10.6804 6.20106 10.2629 6.62456C9.84547 7.04806 9.3282 7.25981 8.7111 7.25981Z" fill="#591B42"/>
</g>
</svg>
