<svg width="46" height="46" viewBox="0 0 46 46" fill="none" xmlns="http://www.w3.org/2000/svg">
<mask id="mask0_730_93" style="mask-type:alpha" maskUnits="userSpaceOnUse" x="0" y="0" width="46" height="46">
<rect width="45.0211" height="45.0211" fill="#D9D9D9"/>
</mask>
<g mask="url(#mask0_730_93)">
<path d="M16.1791 37.518C13.7692 37.518 11.7208 36.6744 10.0337 34.9874C8.34669 33.3004 7.50317 31.2519 7.50317 28.842C7.50317 27.6755 7.72687 26.5597 8.17427 25.4945C8.62167 24.429 9.2493 23.4922 10.0572 22.684L22.6832 10.0579C23.4914 9.25004 24.4283 8.6224 25.4938 8.175C26.559 7.7276 27.6748 7.50391 28.8413 7.50391C31.2512 7.50391 33.2996 8.34743 34.9867 10.0345C36.6737 11.7215 37.5172 13.77 37.5172 16.1798C37.5172 17.3463 37.2935 18.4622 36.8461 19.5273C36.3987 20.5928 35.7711 21.5297 34.9632 22.3379L22.3371 34.9639C21.529 35.7718 20.5921 36.3995 19.5266 36.8469C18.4614 37.2943 17.3456 37.518 16.1791 37.518ZM28.0042 26.6308L33.6717 21.0102C34.297 20.3849 34.7816 19.6502 35.1255 18.8061C35.4694 17.9619 35.6413 17.0865 35.6413 16.1798C35.6413 14.304 34.977 12.7017 33.6482 11.3729C32.3195 10.0442 30.7172 9.37978 28.8413 9.37978C27.9346 9.37978 27.0592 9.55174 26.2151 9.89565C25.3709 10.2396 24.6362 10.7242 24.0109 11.3495L18.3903 17.017L28.0042 26.6308ZM16.1791 35.6421C17.0858 35.6421 17.9612 35.4701 18.8053 35.1262C19.6495 34.7823 20.3842 34.2977 21.0095 33.6724L26.6301 28.0049L17.0162 18.391L11.3487 24.0116C10.7234 24.6369 10.2388 25.3716 9.89492 26.2158C9.55101 27.0599 9.37905 27.9353 9.37905 28.842C9.37905 30.7179 10.0434 32.3202 11.3722 33.649C12.7009 34.9777 14.3032 35.6421 16.1791 35.6421Z" fill="#C89C66"/>
</g>
</svg>
