<svg width="40" height="40" viewBox="0 0 40 40" fill="none" xmlns="http://www.w3.org/2000/svg">
<path opacity="0.4" d="M32.5 25.4167V21.25H36.6667C37.2569 21.25 37.7517 21.4497 38.151 21.849C38.5503 22.2483 38.75 22.7431 38.75 23.3333C38.75 23.9236 38.5503 24.4184 38.151 24.8177C37.7517 25.217 37.2569 25.4167 36.6667 25.4167H32.5ZM32.5 33.75V29.5833H36.6667C37.2569 29.5833 37.7517 29.783 38.151 30.1823C38.5503 30.5816 38.75 31.0764 38.75 31.6667C38.75 32.2569 38.5503 32.7517 38.151 33.151C37.7517 33.5503 37.2569 33.75 36.6667 33.75H32.5ZM24.1667 35.8333C23.0208 35.8333 22.0399 35.4253 21.224 34.6094C20.408 33.7934 20 32.8125 20 31.6667H15.8333V23.3333H20C20 22.1875 20.408 21.2066 21.224 20.3906C22.0399 19.5747 23.0208 19.1667 24.1667 19.1667H30.4167V35.8333H24.1667ZM9.58333 29.5833C7.29167 29.5833 5.32986 28.7674 3.69792 27.1354C2.06597 25.5035 1.25 23.5417 1.25 21.25C1.25 18.9583 2.06597 16.9965 3.69792 15.3646C5.32986 13.7326 7.29167 12.9167 9.58333 12.9167H12.7083C13.5764 12.9167 14.3142 12.6128 14.9219 12.0052C15.5295 11.3976 15.8333 10.6597 15.8333 9.79167C15.8333 8.92361 15.5295 8.18576 14.9219 7.57812C14.3142 6.97049 13.5764 6.66667 12.7083 6.66667H5.41667C4.82639 6.66667 4.3316 6.46701 3.93229 6.06771C3.53299 5.6684 3.33333 5.17361 3.33333 4.58333C3.33333 3.99306 3.53299 3.49826 3.93229 3.09896C4.3316 2.69965 4.82639 2.5 5.41667 2.5H12.7083C14.7222 2.5 16.441 3.21181 17.8646 4.63542C19.2882 6.05903 20 7.77778 20 9.79167C20 11.8056 19.2882 13.5243 17.8646 14.9479C16.441 16.3715 14.7222 17.0833 12.7083 17.0833H9.58333C8.4375 17.0833 7.4566 17.4913 6.64062 18.3073C5.82465 19.1233 5.41667 20.1042 5.41667 21.25C5.41667 22.3958 5.82465 23.3767 6.64062 24.1927C7.4566 25.0087 8.4375 25.4167 9.58333 25.4167H13.75V29.5833H9.58333Z" fill="#7B7B7B"/>
<mask id="mask0_26_14068" style="mask-type:alpha" maskUnits="userSpaceOnUse" x="0" y="0" width="40" height="40">
<rect width="40" height="40" fill="#D9D9D9"/>
</mask>
<g mask="url(#mask0_26_14068)">
</g>
</svg>
