<svg width="64" height="64" viewBox="0 0 64 64" fill="none" xmlns="http://www.w3.org/2000/svg">
<mask id="mask0_26_995" style="mask-type:alpha" maskUnits="userSpaceOnUse" x="0" y="0" width="64" height="64">
<rect width="64" height="64" fill="#D9D9D9"/>
</mask>
<g mask="url(#mask0_26_995)">
<path d="M32.0513 47.9997C36.4957 47.9997 40.2513 46.4357 43.3179 43.3077C46.3846 40.1792 47.9453 36.3979 47.9999 31.9637V15.9997H32.0359C27.6017 16.0543 23.8204 17.615 20.6919 20.6817C17.5639 23.7483 15.9999 27.5039 15.9999 31.9483C15.9999 36.3928 17.5604 40.1792 20.6813 43.3077C23.8026 46.4357 27.5926 47.9997 32.0513 47.9997ZM29.4079 41.6277L39.6426 32.4623C39.9764 32.1641 40.0715 31.8132 39.9279 31.4097C39.7844 31.0066 39.4801 30.7606 39.0152 30.6717L31.0053 29.943L35.8666 23.2917C35.9657 23.1379 36.0093 22.9697 35.9973 22.787C35.9853 22.6039 35.9246 22.4406 35.8153 22.297C35.6375 22.109 35.4379 22.0243 35.2166 22.043C34.9948 22.0617 34.7917 22.145 34.6073 22.293L24.4726 31.421C24.1406 31.7179 24.0377 32.0766 24.1639 32.497C24.2906 32.9175 24.5864 33.1721 25.0513 33.261L33.0613 33.9897L28.2359 40.641C28.1368 40.7948 28.0957 40.963 28.1126 41.1457C28.1299 41.3288 28.2017 41.4921 28.3279 41.6357C28.4546 41.7792 28.6199 41.851 28.8239 41.851C29.0279 41.851 29.2226 41.7766 29.4079 41.6277ZM32.0513 50.6663C29.6984 50.6663 27.4819 50.2603 25.4019 49.4483C23.3219 48.6363 21.4564 47.5192 19.8053 46.097L15.6253 50.2763C15.4924 50.4066 15.343 50.5041 15.1773 50.569C15.011 50.6339 14.8393 50.6663 14.6619 50.6663C14.2855 50.6663 13.9699 50.5377 13.7153 50.2803C13.4606 50.0235 13.3333 49.7048 13.3333 49.3243C13.3333 49.1457 13.3657 48.975 13.4306 48.8123C13.4955 48.6501 13.593 48.5041 13.7233 48.3743L17.9026 44.1943C16.4804 42.5432 15.3633 40.6777 14.5513 38.5977C13.7393 36.5177 13.3333 34.3012 13.3333 31.9483C13.3333 26.7515 15.1521 22.3497 18.7899 18.743C22.4273 15.1363 26.8453 13.333 32.0439 13.333H50.6666V31.9557C50.6666 37.1543 48.8632 41.5723 45.2566 45.2097C41.6499 48.8475 37.2481 50.6663 32.0513 50.6663Z" fill="#591B42"/>
</g>
</svg>
