<svg width="24" height="24" viewBox="0 0 24 24" fill="none" xmlns="http://www.w3.org/2000/svg">
<mask id="mask0_27_7811" style="mask-type:alpha" maskUnits="userSpaceOnUse" x="0" y="0" width="24" height="24">
<rect width="24" height="24" fill="#D9D9D9"/>
</mask>
<g mask="url(#mask0_27_7811)">
<path d="M1.91504 20.1924V18.5464C1.91504 18.1117 2.03104 17.7232 2.26304 17.3809C2.49504 17.0386 2.82262 16.7616 3.24579 16.5501C4.05729 16.1425 4.95787 15.8143 5.94754 15.5656C6.93737 15.3168 7.92654 15.1924 8.91504 15.1924C9.90337 15.1924 10.8925 15.3168 11.8823 15.5656C12.872 15.8143 13.7725 16.1425 14.584 16.5501C15.0072 16.7616 15.3348 17.0386 15.5668 17.3809C15.799 17.7232 15.915 18.1117 15.915 18.5464V20.1924H1.91504ZM2.91504 19.1924H14.915V18.5464C14.915 18.2732 14.8371 18.0488 14.6813 17.8731C14.5255 17.6975 14.3341 17.5488 14.1073 17.4271C13.4816 17.1015 12.698 16.8143 11.7563 16.5656C10.8146 16.3168 9.86754 16.1924 8.91504 16.1924C7.96237 16.1924 7.01521 16.3168 6.07354 16.5656C5.13187 16.8143 4.34821 17.1015 3.72254 17.4271C3.49571 17.5488 3.30437 17.6975 3.14854 17.8731C2.99287 18.0488 2.91504 18.2732 2.91504 18.5464V19.1924ZM8.91504 12.9616C8.05854 12.9616 7.34437 12.6757 6.77254 12.1039C6.20087 11.5322 5.91504 10.7797 5.91504 9.8464H5.70329C5.59179 9.8464 5.49987 9.81015 5.42754 9.73765C5.35504 9.66515 5.31879 9.57315 5.31879 9.46165C5.31879 9.35015 5.35504 9.25815 5.42754 9.18565C5.49987 9.11331 5.59179 9.07715 5.70329 9.07715H5.91504C5.94054 8.57065 6.04687 8.1104 6.23404 7.6964C6.42137 7.28223 6.72529 6.88732 7.14579 6.51165V7.46165C7.14579 7.57315 7.18196 7.66515 7.25429 7.73765C7.32679 7.81015 7.41879 7.8464 7.53029 7.8464C7.64179 7.8464 7.73379 7.81015 7.80629 7.73765C7.87879 7.66515 7.91504 7.57315 7.91504 7.46165V6.15015C8.05221 6.10015 8.20729 6.05623 8.38029 6.0184C8.55346 5.98056 8.73171 5.96165 8.91504 5.96165C9.09837 5.96165 9.27654 5.98056 9.44954 6.0184C9.62254 6.05623 9.77771 6.10015 9.91504 6.15015V7.46165C9.91504 7.57315 9.95121 7.66515 10.0235 7.73765C10.096 7.81015 10.188 7.8464 10.2995 7.8464C10.411 7.8464 10.503 7.81015 10.5755 7.73765C10.6479 7.66515 10.684 7.57315 10.684 7.46165V6.51165C11.1174 6.88732 11.4245 7.28223 11.6053 7.6964C11.7861 8.1104 11.8894 8.57065 11.915 9.07715H12.1265C12.238 9.07715 12.33 9.11331 12.4025 9.18565C12.4749 9.25815 12.511 9.35015 12.511 9.46165C12.511 9.57315 12.4749 9.66515 12.4025 9.73765C12.33 9.81015 12.238 9.8464 12.1265 9.8464H11.915C11.915 10.7797 11.6291 11.5322 11.0573 12.1039C10.4855 12.6757 9.77137 12.9616 8.91504 12.9616ZM8.91504 11.9616C9.49054 11.9616 9.96771 11.7722 10.3465 11.3934C10.7255 11.0146 10.915 10.5373 10.915 9.96165H6.91504C6.91504 10.5373 7.10446 11.0146 7.48329 11.3934C7.86212 11.7722 8.33937 11.9616 8.91504 11.9616ZM16.4533 14.8464L16.3803 14.1346C16.2546 14.1013 16.1235 14.0478 15.987 13.9741C15.8505 13.9005 15.7342 13.8156 15.638 13.7194L14.9765 14.0079L14.5918 13.3386L15.1803 12.9156C15.1546 12.84 15.1418 12.7707 15.1418 12.7079V12.3021C15.1418 12.2456 15.1546 12.1731 15.1803 12.0846L14.5918 11.6616L14.9765 10.9924L15.638 11.2809C15.7304 11.1886 15.8457 11.1046 15.984 11.0289C16.1225 10.9534 16.2546 10.899 16.3803 10.8656L16.4533 10.1539H17.2225L17.2958 10.8656C17.4213 10.899 17.5533 10.9534 17.6918 11.0289C17.8303 11.1046 17.9457 11.1886 18.038 11.2809L18.6995 10.9924L19.084 11.6616L18.4958 12.0846C18.5213 12.1731 18.534 12.2456 18.534 12.3021V12.7079C18.534 12.7707 18.5213 12.84 18.4958 12.9156L19.084 13.3386L18.6995 14.0079L18.038 13.7194C17.9419 13.8156 17.8255 13.9005 17.689 13.9741C17.5524 14.0478 17.4213 14.1013 17.2958 14.1346L17.2225 14.8464H16.4533ZM16.838 13.4039C17.0894 13.4039 17.3028 13.3161 17.4783 13.1406C17.654 12.965 17.7418 12.7515 17.7418 12.5001C17.7418 12.2488 17.654 12.0353 17.4783 11.8596C17.3028 11.6841 17.0894 11.5964 16.838 11.5964C16.5867 11.5964 16.3732 11.6841 16.1975 11.8596C16.0219 12.0353 15.934 12.2488 15.934 12.5001C15.934 12.7515 16.0219 12.965 16.1975 13.1406C16.3732 13.3161 16.5867 13.4039 16.838 13.4039ZM18.8688 9.42315L18.784 8.6424C18.5957 8.60523 18.3974 8.5299 18.189 8.4164C17.9807 8.30307 17.8137 8.16431 17.688 8.00015L16.9458 8.31165L16.515 7.57315L17.1725 7.0924C17.1392 6.99623 17.1161 6.89756 17.1033 6.7964C17.0905 6.69506 17.084 6.59631 17.084 6.50015C17.084 6.40398 17.0905 6.30523 17.1033 6.2039C17.1161 6.10273 17.1392 6.00406 17.1725 5.9079L16.515 5.42715L16.9458 4.68865L17.688 5.00015C17.8137 4.83598 17.9807 4.69723 18.189 4.5839C18.3974 4.4704 18.5957 4.39506 18.784 4.3579L18.8688 3.57715H19.7303L19.815 4.3579C20.0034 4.39506 20.2017 4.4704 20.41 4.5839C20.6184 4.69723 20.7854 4.83598 20.911 5.00015L21.6533 4.68865L22.084 5.42715L21.4265 5.9079C21.4599 6.00406 21.483 6.10273 21.4958 6.2039C21.5086 6.30523 21.515 6.40398 21.515 6.50015C21.515 6.59631 21.5086 6.69506 21.4958 6.7964C21.483 6.89756 21.4599 6.99623 21.4265 7.0924L22.084 7.57315L21.6533 8.31165L20.911 8.00015C20.7854 8.16431 20.6184 8.30307 20.41 8.4164C20.2017 8.5299 20.0034 8.60523 19.815 8.6424L19.7303 9.42315H18.8688ZM19.2995 7.86565C19.688 7.86565 20.0127 7.73515 20.2735 7.47415C20.5345 7.21332 20.665 6.88865 20.665 6.50015C20.665 6.11165 20.5345 5.78698 20.2735 5.52615C20.0127 5.26515 19.688 5.13465 19.2995 5.13465C18.911 5.13465 18.5864 5.26515 18.3255 5.52615C18.0645 5.78698 17.934 6.11165 17.934 6.50015C17.934 6.88865 18.0645 7.21332 18.3255 7.47415C18.5864 7.73515 18.911 7.86565 19.2995 7.86565Z" fill="#C89C66"/>
</g>
</svg>
