<svg width="46" height="46" viewBox="0 0 46 46" fill="none" xmlns="http://www.w3.org/2000/svg">
<mask id="mask0_730_98" style="mask-type:alpha" maskUnits="userSpaceOnUse" x="0" y="0" width="46" height="46">
<rect width="45.0211" height="45.0211" fill="#D9D9D9"/>
</mask>
<g mask="url(#mask0_730_98)">
<path d="M3.59082 37.8791V34.7914C3.59082 33.976 3.80842 33.2473 4.24363 32.6051C4.67883 31.9629 5.29334 31.4435 6.08715 31.0467C7.60942 30.282 9.2988 29.6664 11.1553 29.1999C13.0121 28.7331 14.8677 28.4997 16.722 28.4997C18.576 28.4997 20.4314 28.7331 22.2882 29.1999C24.1447 29.6664 25.834 30.282 27.3563 31.0467C28.1501 31.4435 28.7646 31.9629 29.1998 32.6051C29.6354 33.2473 29.8531 33.976 29.8531 34.7914V37.8791H3.59082ZM5.4667 36.0032H27.9772V34.7914C27.9772 34.279 27.8311 33.858 27.5388 33.5285C27.2464 33.199 26.8875 32.9201 26.462 32.6919C25.2883 32.0809 23.8183 31.5422 22.0518 31.0758C20.2854 30.609 18.5087 30.3756 16.722 30.3756C14.9349 30.3756 13.1581 30.609 11.3917 31.0758C9.62521 31.5422 8.15514 32.0809 6.98147 32.6919C6.55596 32.9201 6.19704 33.199 5.90472 33.5285C5.6127 33.858 5.4667 34.279 5.4667 34.7914V36.0032ZM16.722 24.3151C15.1153 24.3151 13.7756 23.7788 12.7029 22.7061C11.6305 21.6337 11.0943 20.2221 11.0943 18.4713H10.6971C10.488 18.4713 10.3155 18.4033 10.1798 18.2673C10.0438 18.1313 9.97584 17.9587 9.97584 17.7495C9.97584 17.5404 10.0438 17.3678 10.1798 17.2318C10.3155 17.0961 10.488 17.0283 10.6971 17.0283H11.0943C11.1422 16.0781 11.3416 15.2148 11.6927 14.4381C12.0442 13.6612 12.6143 12.9204 13.4031 12.2157V13.9978C13.4031 14.2069 13.4709 14.3795 13.6066 14.5155C13.7426 14.6515 13.9152 14.7195 14.1243 14.7195C14.3335 14.7195 14.5061 14.6515 14.6421 14.5155C14.7781 14.3795 14.8461 14.2069 14.8461 13.9978V11.5376C15.1034 11.4438 15.3943 11.3614 15.7188 11.2904C16.0437 11.2195 16.3781 11.184 16.722 11.184C17.0659 11.184 17.4001 11.2195 17.7246 11.2904C18.0492 11.3614 18.3402 11.4438 18.5978 11.5376V13.9978C18.5978 14.2069 18.6657 14.3795 18.8014 14.5155C18.9374 14.6515 19.11 14.7195 19.3191 14.7195C19.5283 14.7195 19.7009 14.6515 19.8369 14.5155C19.9726 14.3795 20.0404 14.2069 20.0404 13.9978V12.2157C20.8533 12.9204 21.4293 13.6612 21.7685 14.4381C22.1078 15.2148 22.3015 16.0781 22.3496 17.0283H22.7463C22.9555 17.0283 23.1281 17.0961 23.2641 17.2318C23.3998 17.3678 23.4676 17.5404 23.4676 17.7495C23.4676 17.9587 23.3998 18.1313 23.2641 18.2673C23.1281 18.4033 22.9555 18.4713 22.7463 18.4713H22.3496C22.3496 20.2221 21.8133 21.6337 20.7406 22.7061C19.6679 23.7788 18.3283 24.3151 16.722 24.3151ZM16.722 22.4392C17.8015 22.4392 18.6966 22.0839 19.4073 21.3733C20.1182 20.6626 20.4737 19.7674 20.4737 18.6875H12.9702C12.9702 19.7674 13.3255 20.6626 14.0362 21.3733C14.7468 22.0839 15.6421 22.4392 16.722 22.4392ZM30.8628 27.8507L30.7259 26.5155C30.4901 26.453 30.2442 26.3526 29.9882 26.2144C29.7321 26.0763 29.5139 25.917 29.3335 25.7366L28.0926 26.2778L27.3709 25.0223L28.4748 24.2288C28.4267 24.0869 28.4026 23.957 28.4026 23.8391V23.078C28.4026 22.972 28.4267 22.836 28.4748 22.67L27.3709 21.8765L28.0926 20.621L29.3335 21.1622C29.5067 20.989 29.7231 20.8315 29.9825 20.6895C30.2424 20.5479 30.4901 20.4458 30.7259 20.3833L30.8628 19.0481H32.3058L32.4432 20.3833C32.6787 20.4458 32.9263 20.5479 33.1861 20.6895C33.4459 20.8315 33.6624 20.989 33.8356 21.1622L35.0765 20.621L35.7978 21.8765L34.6943 22.67C34.7421 22.836 34.766 22.972 34.766 23.078V23.8391C34.766 23.957 34.7421 24.0869 34.6943 24.2288L35.7978 25.0223L35.0765 26.2778L33.8356 25.7366C33.6552 25.917 33.437 26.0763 33.1809 26.2144C32.9246 26.3526 32.6787 26.453 32.4432 26.5155L32.3058 27.8507H30.8628ZM31.5845 25.1447C32.056 25.1447 32.4564 24.9801 32.7856 24.6509C33.1151 24.3214 33.2799 23.9209 33.2799 23.4494C33.2799 22.9779 33.1151 22.5774 32.7856 22.2479C32.4564 21.9187 32.056 21.7541 31.5845 21.7541C31.1131 21.7541 30.7126 21.9187 30.383 22.2479C30.0535 22.5774 29.8888 22.9779 29.8888 23.4494C29.8888 23.9209 30.0535 24.3214 30.383 24.6509C30.7126 24.9801 31.1131 25.1447 31.5845 25.1447ZM35.394 17.6773L35.235 16.2127C34.8817 16.143 34.5097 16.0017 34.1189 15.7888C33.7281 15.5762 33.4148 15.3159 33.179 15.0079L31.7867 15.5923L30.9786 14.2069L32.212 13.3051C32.1495 13.1247 32.1062 12.9396 32.0821 12.7499C32.0581 12.5598 32.046 12.3745 32.046 12.1941C32.046 12.0137 32.0581 11.8285 32.0821 11.6384C32.1062 11.4486 32.1495 11.2635 32.212 11.0831L30.9786 10.1813L31.7867 8.79597L33.179 9.38031C33.4148 9.07235 33.7281 8.81208 34.1189 8.59948C34.5097 8.38656 34.8817 8.24525 35.235 8.17553L35.394 6.71094H37.0101L37.169 8.17553C37.5223 8.24525 37.8944 8.38656 38.2852 8.59948C38.676 8.81208 38.9893 9.07235 39.225 9.38031L40.6174 8.79597L41.4254 10.1813L40.192 11.0831C40.2545 11.2635 40.2978 11.4486 40.3219 11.6384C40.346 11.8285 40.358 12.0137 40.358 12.1941C40.358 12.3745 40.346 12.5598 40.3219 12.7499C40.2978 12.9396 40.2545 13.1247 40.192 13.3051L41.4254 14.2069L40.6174 15.5923L39.225 15.0079C38.9893 15.3159 38.676 15.5762 38.2852 15.7888C37.8944 16.0017 37.5223 16.143 37.169 16.2127L37.0101 17.6773H35.394ZM36.202 14.7556C36.9308 14.7556 37.5398 14.5108 38.0291 14.0212C38.5187 13.5319 38.7635 12.9229 38.7635 12.1941C38.7635 11.4654 38.5187 10.8563 38.0291 10.367C37.5398 9.87742 36.9308 9.63262 36.202 9.63262C35.4732 9.63262 34.8642 9.87742 34.3749 10.367C33.8853 10.8563 33.6405 11.4654 33.6405 12.1941C33.6405 12.9229 33.8853 13.5319 34.3749 14.0212C34.8642 14.5108 35.4732 14.7556 36.202 14.7556Z" fill="#C89C66"/>
</g>
</svg>
