<svg width="18" height="18" viewBox="0 0 18 18" fill="none" xmlns="http://www.w3.org/2000/svg">
<mask id="mask0_26_15151" style="mask-type:alpha" maskUnits="userSpaceOnUse" x="0" y="0" width="18" height="18">
<rect width="17.424" height="17.424" fill="#D9D9D9"/>
</mask>
<g mask="url(#mask0_26_15151)">
<path d="M2.90325 15.2462V10.8902H14.5192V15.2462H13.0672V12.3422H4.35525V15.2462H2.90325ZM3.26625 10.1642C2.96375 10.1642 2.70662 10.0583 2.49487 9.8466C2.28312 9.63485 2.17725 9.37772 2.17725 9.07522C2.17725 8.77272 2.28312 8.5156 2.49487 8.30385C2.70662 8.0921 2.96375 7.98622 3.26625 7.98622C3.56875 7.98622 3.82587 8.0921 4.03762 8.30385C4.24937 8.5156 4.35525 8.77272 4.35525 9.07522C4.35525 9.37772 4.24937 9.63485 4.03762 9.8466C3.82587 10.0583 3.56875 10.1642 3.26625 10.1642ZM5.08125 10.1642V3.63022C5.08125 3.23092 5.22342 2.8891 5.50777 2.60475C5.79212 2.3204 6.13395 2.17822 6.53325 2.17822H10.8892C11.2885 2.17822 11.6304 2.3204 11.9147 2.60475C12.1991 2.8891 12.3412 3.23092 12.3412 3.63022V10.1642H5.08125ZM14.1562 10.1642C13.8537 10.1642 13.5966 10.0583 13.3849 9.8466C13.1731 9.63485 13.0672 9.37772 13.0672 9.07522C13.0672 8.77272 13.1731 8.5156 13.3849 8.30385C13.5966 8.0921 13.8537 7.98622 14.1562 7.98622C14.4587 7.98622 14.7159 8.0921 14.9276 8.30385C15.1394 8.5156 15.2452 8.77272 15.2452 9.07522C15.2452 9.37772 15.1394 9.63485 14.9276 9.8466C14.7159 10.0583 14.4587 10.1642 14.1562 10.1642Z" fill="#591B42"/>
</g>
</svg>
