<svg width="77" height="86" viewBox="0 0 77 86" fill="none" xmlns="http://www.w3.org/2000/svg">
<path d="M36.75 81.875V43.875L3.5 24.625V60.375C3.5 61.0417 3.66667 61.6667 4 62.25C4.33333 62.8333 4.83333 63.3333 5.5 63.75L36.75 81.875ZM40.25 81.875L71.5 63.75C72.1667 63.3333 72.6667 62.8333 73 62.25C73.3333 61.6667 73.5 61.0417 73.5 60.375V24.625L40.25 43.875V81.875ZM38.5 40.875L71.375 21.875L40.5 4C39.8333 3.58333 39.1667 3.375 38.5 3.375C37.8333 3.375 37.1667 3.58333 36.5 4L5.625 21.875L38.5 40.875ZM3.75 66.875C2.58333 66.2083 1.66667 65.2917 1 64.125C0.333333 62.9583 0 61.7083 0 60.375V25.375C0 24.0417 0.333333 22.7917 1 21.625C1.66667 20.4583 2.58333 19.5417 3.75 18.875L34.75 1C35.9167 0.333333 37.1667 0 38.5 0C39.8333 0 41.0833 0.333333 42.25 1L73.25 18.875C74.4167 19.5417 75.3333 20.4583 76 21.625C76.6667 22.7917 77 24.0417 77 25.375V60.375C77 61.7083 76.6667 62.9583 76 64.125C75.3333 65.2917 74.4167 66.2083 73.25 66.875L42.25 84.75C41.0833 85.4167 39.8333 85.75 38.5 85.75C37.1667 85.75 35.9167 85.4167 34.75 84.75L3.75 66.875Z" fill="white"/>
</svg>
