<svg width="56" height="56" viewBox="0 0 56 56" fill="none" xmlns="http://www.w3.org/2000/svg">
<mask id="mask0_26_929" style="mask-type:alpha" maskUnits="userSpaceOnUse" x="0" y="0" width="56" height="56">
<rect width="56" height="56" fill="#D9D9D9"/>
</mask>
<g mask="url(#mask0_26_929)">
<path d="M10.5898 32.5456L14.6416 28.4938L10.5898 24.442L6.53792 28.4938L10.5898 32.5456ZM41.3717 31.859L45.4999 25.2184L49.6731 31.859H41.3717ZM28.0157 30.3336C26.5993 30.3336 25.3901 29.8362 24.3879 28.8415C23.3857 27.8471 22.8847 26.6394 22.8847 25.2184C22.8847 23.769 23.3819 22.5541 24.3763 21.5737C25.371 20.5929 26.5789 20.1025 27.9999 20.1025C29.4493 20.1025 30.6642 20.5914 31.6446 21.569C32.625 22.5463 33.1152 23.7575 33.1152 25.2026C33.1152 26.619 32.6265 27.8282 31.6493 28.8304C30.672 29.8325 29.4608 30.3336 28.0157 30.3336ZM27.9999 22.4359C27.249 22.4359 26.5976 22.7027 26.0458 23.2362C25.4939 23.7694 25.218 24.4301 25.218 25.2184C25.218 25.9689 25.4939 26.6203 26.0458 27.1725C26.5976 27.7244 27.2564 28.0003 28.0221 28.0003C28.7882 28.0003 29.4396 27.7244 29.9763 27.1725C30.5133 26.6203 30.7818 25.9613 30.7818 25.1956C30.7818 24.4299 30.5153 23.7785 29.9821 23.2415C29.4489 22.7044 28.7882 22.4359 27.9999 22.4359ZM2.33325 41.0133V38.9985C2.33325 37.5565 3.0947 36.3651 4.61759 35.4244C6.14047 34.4837 8.11661 34.0133 10.546 34.0133C10.9909 34.0133 11.4167 34.0304 11.8235 34.0646C12.2303 34.0992 12.6178 34.1554 12.9861 34.2332C12.6509 34.8313 12.3921 35.4596 12.2097 36.118C12.0273 36.7763 11.9361 37.4777 11.9361 38.222V41.0133H2.33325ZM16.3333 41.0133V38.3883C16.3333 36.4586 17.412 34.9254 19.5696 33.7887C21.7268 32.652 24.5409 32.0836 28.0122 32.0836C31.5161 32.0836 34.3343 32.652 36.467 33.7887C38.6001 34.9254 39.6666 36.4586 39.6666 38.3883V41.0133H16.3333ZM45.4999 34.0133C47.9499 34.0133 49.9235 34.4837 51.4207 35.4244C52.918 36.3651 53.6666 37.5565 53.6666 38.9985V41.0133H44.0638V38.222C44.0638 37.4777 43.9823 36.7763 43.8193 36.118C43.6564 35.4596 43.412 34.8313 43.0861 34.2332C43.454 34.1554 43.8419 34.0992 44.2498 34.0646C44.6578 34.0304 45.0745 34.0133 45.4999 34.0133ZM27.9947 34.417C25.3627 34.417 23.1793 34.7685 21.4444 35.4716C19.7092 36.1743 18.8056 37.0793 18.7337 38.1865V38.68H37.2796V38.1865C37.1987 37.0793 36.3004 36.1743 34.5846 35.4716C32.8692 34.7685 30.6726 34.417 27.9947 34.417Z" fill="#C89C66"/>
</g>
</svg>
