<svg width="18" height="18" viewBox="0 0 18 18" fill="none" xmlns="http://www.w3.org/2000/svg">
<mask id="mask0_26_14032" style="mask-type:alpha" maskUnits="userSpaceOnUse" x="0" y="0" width="18" height="18">
<rect width="17.424" height="17.424" fill="#D9D9D9"/>
</mask>
<g mask="url(#mask0_26_14032)">
<path d="M4.72061 12.7051L10.1656 10.1641L12.7066 4.71915L7.26161 7.26015L4.72061 12.7051ZM8.71361 9.43815C8.50791 9.43815 8.33549 9.36857 8.19634 9.22942C8.05719 9.09027 7.98761 8.91785 7.98761 8.71215C7.98761 8.50645 8.05719 8.33402 8.19634 8.19487C8.33549 8.05572 8.50791 7.98615 8.71361 7.98615C8.91931 7.98615 9.09174 8.05572 9.23089 8.19487C9.37004 8.33402 9.43961 8.50645 9.43961 8.71215C9.43961 8.91785 9.37004 9.09027 9.23089 9.22942C9.09174 9.36857 8.91931 9.43815 8.71361 9.43815ZM8.71361 15.9721C7.70931 15.9721 6.76551 15.7816 5.88221 15.4004C4.99891 15.0193 4.23056 14.502 3.57716 13.8486C2.92376 13.1952 2.40649 12.4268 2.02534 11.5435C1.64419 10.6602 1.45361 9.71645 1.45361 8.71215C1.45361 7.70785 1.64419 6.76405 2.02534 5.88075C2.40649 4.99745 2.92376 4.2291 3.57716 3.5757C4.23056 2.9223 4.99891 2.40502 5.88221 2.02387C6.76551 1.64272 7.70931 1.45215 8.71361 1.45215C9.71791 1.45215 10.6617 1.64272 11.545 2.02387C12.4283 2.40502 13.1967 2.9223 13.8501 3.5757C14.5035 4.2291 15.0207 4.99745 15.4019 5.88075C15.783 6.76405 15.9736 7.70785 15.9736 8.71215C15.9736 9.71645 15.783 10.6602 15.4019 11.5435C15.0207 12.4268 14.5035 13.1952 13.8501 13.8486C13.1967 14.502 12.4283 15.0193 11.545 15.4004C10.6617 15.7816 9.71791 15.9721 8.71361 15.9721Z" fill="#591B42"/>
</g>
</svg>
