<svg width="18" height="18" viewBox="0 0 18 18" fill="none" xmlns="http://www.w3.org/2000/svg">
<mask id="mask0_26_15107" style="mask-type:alpha" maskUnits="userSpaceOnUse" x="0" y="0" width="18" height="18">
<rect width="17.424" height="17.424" fill="#D9D9D9"/>
</mask>
<g mask="url(#mask0_26_15107)">
<path d="M1.4511 15.9717C1.802 15.0763 2.03492 14.1536 2.14987 13.2038C2.26482 12.2539 2.3344 11.3011 2.3586 10.3452C1.8867 10.1637 1.49647 9.86116 1.18792 9.43766C0.879373 9.01416 0.725098 8.53016 0.725098 7.98566V6.53366C2.1166 6.07386 3.53532 5.37206 4.98127 4.42826C6.42722 3.48446 7.6705 2.49226 8.7111 1.45166C9.7517 2.49226 10.995 3.48446 12.4409 4.42826C13.8869 5.37206 15.3056 6.07386 16.6971 6.53366V7.98566C16.6971 8.53016 16.5428 9.01416 16.2343 9.43766C15.9257 9.86116 15.5355 10.1637 15.0636 10.3452C15.0878 11.3011 15.1574 12.2539 15.2723 13.2038C15.3873 14.1536 15.6202 15.0763 15.9711 15.9717H1.4511ZM4.2825 6.53366H13.1397C12.1959 6.00126 11.3459 5.45373 10.5896 4.89109C9.83337 4.32844 9.2072 3.83536 8.7111 3.41186C8.215 3.83536 7.58882 4.32844 6.83257 4.89109C6.07632 5.45373 5.2263 6.00126 4.2825 6.53366ZM10.5261 9.07466C10.8286 9.07466 11.0857 8.96878 11.2975 8.75703C11.5092 8.54528 11.6151 8.28816 11.6151 7.98566H9.4371C9.4371 8.28816 9.54297 8.54528 9.75472 8.75703C9.96647 8.96878 10.2236 9.07466 10.5261 9.07466ZM6.8961 9.07466C7.1986 9.07466 7.45572 8.96878 7.66747 8.75703C7.87922 8.54528 7.9851 8.28816 7.9851 7.98566H5.8071C5.8071 8.28816 5.91297 8.54528 6.12472 8.75703C6.33647 8.96878 6.5936 9.07466 6.8961 9.07466ZM3.2661 9.07466C3.5686 9.07466 3.82572 8.96878 4.03747 8.75703C4.24922 8.54528 4.3551 8.28816 4.3551 7.98566H2.1771C2.1771 8.28816 2.28297 8.54528 2.49472 8.75703C2.70647 8.96878 2.9636 9.07466 3.2661 9.07466ZM3.375 14.5197H5.31705C5.42595 13.7937 5.51065 13.0737 5.57115 12.3598C5.63165 11.6459 5.68005 10.926 5.71635 10.2C5.60745 10.1395 5.49855 10.0759 5.38965 10.0094C5.28075 9.94283 5.1779 9.86116 5.0811 9.76436C4.8996 9.94586 4.70297 10.0941 4.49122 10.209C4.27947 10.324 4.0526 10.4117 3.8106 10.4722C3.7864 11.1619 3.74405 11.8425 3.68355 12.5141C3.62305 13.1856 3.5202 13.8542 3.375 14.5197ZM6.7872 14.5197H10.635C10.5382 13.8542 10.4626 13.1887 10.4081 12.5232C10.3537 11.8577 10.3083 11.1861 10.272 10.5085C9.9574 10.4843 9.67002 10.4087 9.40987 10.2816C9.14972 10.1546 8.9168 9.98821 8.7111 9.78251C8.5054 9.98821 8.26642 10.1546 7.99417 10.2816C7.72192 10.4087 7.4406 10.4843 7.1502 10.5085C7.1139 11.1861 7.06852 11.8577 7.01407 12.5232C6.95962 13.1887 6.884 13.8542 6.7872 14.5197ZM12.1051 14.5197H14.0472C13.902 13.8542 13.7991 13.1856 13.7386 12.5141C13.6781 11.8425 13.6358 11.1619 13.6116 10.4722C13.3696 10.4117 13.1397 10.324 12.9219 10.209C12.7041 10.0941 12.5105 9.94586 12.3411 9.76436C12.2443 9.86116 12.1414 9.94283 12.0325 10.0094C11.9236 10.0759 11.8147 10.1395 11.7058 10.2C11.7421 10.926 11.7936 11.6459 11.8601 12.3598C11.9267 13.0737 12.0083 13.7937 12.1051 14.5197ZM14.1561 9.07466C14.4586 9.07466 14.7157 8.96878 14.9275 8.75703C15.1392 8.54528 15.2451 8.28816 15.2451 7.98566H13.0671C13.0671 8.28816 13.173 8.54528 13.3847 8.75703C13.5965 8.96878 13.8536 9.07466 14.1561 9.07466Z" fill="#591B42"/>
</g>
</svg>
