<svg width="80" height="80" viewBox="0 0 80 80" fill="none" xmlns="http://www.w3.org/2000/svg">
<g opacity="0.4">
<mask id="mask0_26_10001" style="mask-type:alpha" maskUnits="userSpaceOnUse" x="0" y="0" width="80" height="80">
<rect width="80" height="80" fill="#D9D9D9"/>
</mask>
<g mask="url(#mask0_26_10001)">
<path d="M36.859 46.026C39.3973 46.026 41.5595 45.1327 43.3456 43.346C45.1323 41.5599 46.0256 39.3977 46.0256 36.8593C46.0256 34.321 45.1323 32.1585 43.3456 30.3718C41.5595 28.5857 39.3973 27.6927 36.859 27.6927C34.3206 27.6927 32.1581 28.5857 30.3715 30.3718C28.5854 32.1585 27.6923 34.321 27.6923 36.8593C27.6923 39.3977 28.5854 41.5599 30.3715 43.346C32.1581 45.1327 34.3206 46.026 36.859 46.026ZM53.6473 56.026L44.4481 46.7627C43.337 47.6132 42.1459 48.2585 40.8748 48.6985C39.6037 49.1391 38.2651 49.3593 36.859 49.3593C33.3845 49.3593 30.4326 48.1446 28.0031 45.7152C25.5737 43.2857 24.359 40.3338 24.359 36.8593C24.359 33.3849 25.5737 30.4329 28.0031 28.0035C30.4326 25.5741 33.3845 24.3593 36.859 24.3593C40.3334 24.3593 43.2854 25.5741 45.7148 28.0035C48.1442 30.4329 49.359 33.3849 49.359 36.8593C49.359 38.2654 49.1356 39.6041 48.689 40.8752C48.2423 42.1463 47.5937 43.3374 46.7431 44.4485L56.0256 53.6668L53.6473 56.026ZM18.7181 66.6668C17.1837 66.6668 15.9026 66.1529 14.8748 65.1252C13.847 64.0974 13.3331 62.8163 13.3331 61.2818V50.0002H16.6665V61.2818C16.6665 61.7952 16.8801 62.2654 17.3073 62.6927C17.7345 63.1199 18.2048 63.3335 18.7181 63.3335H29.9998V66.6668H18.7181ZM49.9998 66.6668V63.3335H61.2815C61.7948 63.3335 62.2651 63.1199 62.6923 62.6927C63.1195 62.2654 63.3331 61.7952 63.3331 61.2818V50.0002H66.6665V61.2818C66.6665 62.8163 66.1526 64.0974 65.1248 65.1252C64.097 66.1529 62.8159 66.6668 61.2815 66.6668H49.9998ZM13.3331 30.0002V18.7185C13.3331 17.1841 13.847 15.9029 14.8748 14.8752C15.9026 13.8474 17.1837 13.3335 18.7181 13.3335H29.9998V16.6668H18.7181C18.2048 16.6668 17.7345 16.8804 17.3073 17.3077C16.8801 17.7349 16.6665 18.2052 16.6665 18.7185V30.0002H13.3331ZM63.3331 30.0002V18.7185C63.3331 18.2052 63.1195 17.7349 62.6923 17.3077C62.2651 16.8804 61.7948 16.6668 61.2815 16.6668H49.9998V13.3335H61.2815C62.8159 13.3335 64.097 13.8474 65.1248 14.8752C66.1526 15.9029 66.6665 17.1841 66.6665 18.7185V30.0002H63.3331Z" fill="#7B7B7B"/>
</g>
</g>
</svg>
