<svg width="46" height="46" viewBox="0 0 46 46" fill="none" xmlns="http://www.w3.org/2000/svg">
<mask id="mask0_730_113" style="mask-type:alpha" maskUnits="userSpaceOnUse" x="0" y="0" width="46" height="46">
<rect width="45.0211" height="45.0211" fill="#D9D9D9"/>
</mask>
<g mask="url(#mask0_730_113)">
<path d="M18.7584 26.2622V18.7587H26.262V26.2622H18.7584ZM20.6343 24.3863H24.3861V20.6346H20.6343V24.3863ZM17.8205 36.6518V33.7657H14.2854C13.4219 33.7657 12.7009 33.4765 12.1225 32.8981C11.5441 32.3197 11.2549 31.5988 11.2549 30.7352V27.2001H8.3689V25.3243H11.2549V19.6966H8.3689V17.8208H11.2549V14.2857C11.2549 13.4221 11.5441 12.7012 12.1225 12.1228C12.7009 11.5444 13.4219 11.2552 14.2854 11.2552H17.8205V8.36914H19.6964V11.2552H25.324V8.36914H27.1999V11.2552H30.735C31.5985 11.2552 32.3195 11.5444 32.8979 12.1228C33.4763 12.7012 33.7655 13.4221 33.7655 14.2857V17.8208H36.6515V19.6966H33.7655V25.3243H36.6515V27.2001H33.7655V30.7352C33.7655 31.5988 33.4763 32.3197 32.8979 32.8981C32.3195 33.4765 31.5985 33.7657 30.735 33.7657H27.1999V36.6518H25.324V33.7657H19.6964V36.6518H17.8205ZM30.735 31.8898C31.0239 31.8898 31.2885 31.7696 31.529 31.5292C31.7694 31.2888 31.8896 31.0241 31.8896 30.7352V14.2857C31.8896 13.9968 31.7694 13.7321 31.529 13.4917C31.2885 13.2513 31.0239 13.1311 30.735 13.1311H14.2854C13.9965 13.1311 13.7319 13.2513 13.4915 13.4917C13.251 13.7321 13.1308 13.9968 13.1308 14.2857V30.7352C13.1308 31.0241 13.251 31.2888 13.4915 31.5292C13.7319 31.7696 13.9965 31.8898 14.2854 31.8898H30.735Z" fill="#C89C66"/>
</g>
</svg>
