<svg width="40" height="40" viewBox="0 0 40 40" fill="none" xmlns="http://www.w3.org/2000/svg">
<mask id="mask0_26_14084" style="mask-type:alpha" maskUnits="userSpaceOnUse" x="0" y="0" width="40" height="40">
<rect width="40" height="40" fill="#D9D9D9"/>
</mask>
<g mask="url(#mask0_26_14084)">
<path opacity="0.4" d="M18.7758 33.0131C18.5258 32.2856 18.2064 31.6142 17.8175 30.999C17.4286 30.3834 16.9703 29.8098 16.4425 29.2781C15.9147 28.7467 15.3453 28.2849 14.7341 27.8927C14.123 27.5008 13.4564 27.1798 12.7341 26.9298C12.7897 27.7353 12.9841 28.4853 13.3175 29.1798C13.6508 29.8742 14.0953 30.4992 14.6508 31.0548C15.2064 31.6103 15.8314 32.0563 16.5258 32.3927C17.2203 32.7294 17.9703 32.9362 18.7758 33.0131ZM21.1925 33.0131C21.998 32.9512 22.7509 32.7535 23.4512 32.4202C24.1515 32.0869 24.7818 31.6424 25.3421 31.0869C25.9023 30.5313 26.3491 29.9009 26.6825 29.1956C27.0158 28.4906 27.2136 27.7353 27.2758 26.9298C26.5586 27.1798 25.8897 27.4992 25.2691 27.8881C24.6486 28.277 24.0762 28.7353 23.5521 29.2631C23.0279 29.7909 22.5673 30.3673 22.1704 30.9923C21.7734 31.6173 21.4475 32.2909 21.1925 33.0131ZM20 19.2952C21.7691 19.2952 23.2691 18.6798 24.5 17.449C25.7308 16.2181 26.3462 14.7181 26.3462 12.949V9.98728L23.4296 12.4456L20 7.90395L16.5704 12.4456L13.6537 9.98728V12.949C13.6537 14.7181 14.2691 16.2181 15.5 17.449C16.7308 18.6798 18.2308 19.2952 20 19.2952ZM19.3591 34.6798C17.0441 34.6798 15.0765 33.8695 13.4562 32.249C11.8357 30.6287 11.0254 28.6612 11.0254 26.3465V24.8719C12.784 25.1433 14.3887 25.7758 15.8396 26.7694C17.2904 27.763 18.3994 28.9788 19.1666 30.4169V20.9327C17.1411 20.7363 15.438 19.8801 14.0575 18.364C12.6772 16.8478 11.9871 15.0428 11.9871 12.949V9.26937C11.9871 8.67548 12.2532 8.26465 12.7854 8.03687C13.3173 7.80937 13.7969 7.88895 14.2241 8.27562L16.3462 10.109L18.9325 6.7052C19.2094 6.35909 19.5672 6.18604 20.0058 6.18604C20.4441 6.18604 20.798 6.35909 21.0675 6.7052L23.6537 10.109L25.7758 8.27562C26.203 7.88895 26.6826 7.80937 27.2146 8.03687C27.7468 8.26465 28.0129 8.67548 28.0129 9.26937V12.949C28.0129 15.0428 27.3228 16.8478 25.9425 18.364C24.5619 19.8801 22.8589 20.7363 20.8333 20.9327V30.3848C21.6005 28.9681 22.7041 27.763 24.1441 26.7694C25.5844 25.7758 27.1732 25.1433 28.9104 24.8719V26.3465C28.9104 28.6612 28.1033 30.6287 26.4891 32.249C24.875 33.8695 22.915 34.6798 20.6091 34.6798H19.3591Z" fill="#7B7B7B"/>
</g>
</svg>
