<svg width="32" height="32" viewBox="0 0 32 32" fill="none" xmlns="http://www.w3.org/2000/svg">
<mask id="mask0_26_12240" style="mask-type:alpha" maskUnits="userSpaceOnUse" x="0" y="0" width="32" height="32">
<rect width="32" height="32" fill="#D9D9D9"/>
</mask>
<g mask="url(#mask0_26_12240)">
<path d="M15.9706 28.1999C15.1733 28.1999 14.4955 27.9179 13.9373 27.3539C13.3791 26.7902 13.1 26.1055 13.1 25.2999C13.1 24.5888 13.3333 23.961 13.8 23.4166C14.2666 22.8722 14.8444 22.5444 15.5333 22.4333V18.8666C15.1555 18.8222 14.8111 18.7055 14.5 18.5166C14.1889 18.3277 13.9222 18.0888 13.7 17.7999L10.7 19.5999C10.7666 19.7666 10.8166 19.9416 10.85 20.1249C10.8833 20.3083 10.9 20.4888 10.9 20.6666C10.9 21.4722 10.6111 22.1568 10.0333 22.7206C9.45553 23.2846 8.76798 23.5666 7.97064 23.5666C7.17331 23.5666 6.49553 23.2853 5.93731 22.7226C5.37909 22.1597 5.09998 21.4764 5.09998 20.6726C5.09998 19.8686 5.37864 19.1833 5.93598 18.6166C6.49353 18.0499 7.17042 17.7666 7.96664 17.7666C8.42086 17.7666 8.84553 17.861 9.24064 18.0499C9.63575 18.2388 9.96664 18.4888 10.2333 18.7999L13.2333 16.9999C13.1889 16.8444 13.15 16.6805 13.1166 16.5083C13.0833 16.336 13.0666 16.1638 13.0666 15.9916C13.0666 15.8194 13.0833 15.6499 13.1166 15.4833C13.15 15.3166 13.2 15.1444 13.2666 14.9666L10.2666 13.2333C9.99998 13.5666 9.66553 13.8277 9.26331 14.0166C8.86131 14.2055 8.42909 14.2999 7.96664 14.2999C7.17042 14.2999 6.49353 14.0186 5.93598 13.4559C5.37864 12.893 5.09998 12.2097 5.09998 11.4059C5.09998 10.6019 5.37909 9.9166 5.93731 9.34993C6.49553 8.78327 7.17331 8.49993 7.97064 8.49993C8.76798 8.49993 9.45553 8.78182 10.0333 9.3456C10.6111 9.9096 10.9 10.5944 10.9 11.3999C10.9 11.5777 10.8889 11.7555 10.8666 11.9333C10.8444 12.111 10.8 12.2777 10.7333 12.4333L13.7333 14.1666C13.9555 13.8999 14.2166 13.6722 14.5166 13.4833C14.8166 13.2944 15.1555 13.1777 15.5333 13.1333V9.53327C14.8444 9.42216 14.2666 9.09438 13.8 8.54993C13.3333 8.00549 13.1 7.37771 13.1 6.6666C13.1 5.86105 13.3791 5.17627 13.9373 4.61227C14.4955 4.04849 15.1733 3.7666 15.9706 3.7666C16.768 3.7666 17.4555 4.04849 18.0333 4.61227C18.6111 5.17627 18.9 5.86105 18.9 6.6666C18.9 7.37771 18.6666 8.00549 18.2 8.54993C17.7333 9.09438 17.1555 9.42216 16.4666 9.53327V13.1666C16.8222 13.2333 17.15 13.3555 17.45 13.5333C17.75 13.711 18.0111 13.9333 18.2333 14.1999L21.3 12.4666C21.2333 12.2999 21.1833 12.1249 21.15 11.9416C21.1166 11.7583 21.1 11.5777 21.1 11.3999C21.1 10.5944 21.3791 9.9096 21.9373 9.3456C22.4955 8.78182 23.1733 8.49993 23.9706 8.49993C24.768 8.49993 25.4555 8.78127 26.0333 9.34393C26.6111 9.90682 26.9 10.5902 26.9 11.3939C26.9 12.1979 26.6111 12.8833 26.0333 13.4499C25.4555 14.0166 24.7666 14.2999 23.9666 14.2999C23.5215 14.2999 23.1102 14.2055 22.7326 14.0166C22.3553 13.8277 22.0333 13.5777 21.7666 13.2666L18.7 14.9999C18.7666 15.1555 18.8111 15.3166 18.8333 15.4833C18.8555 15.6499 18.8666 15.8222 18.8666 15.9999C18.8666 16.1777 18.85 16.3444 18.8166 16.4999C18.7833 16.6555 18.7444 16.811 18.7 16.9666L21.7666 18.7999C22.0333 18.4888 22.3553 18.2388 22.7326 18.0499C23.1102 17.861 23.5215 17.7666 23.9666 17.7666C24.7666 17.7666 25.4555 18.0479 26.0333 18.6106C26.6111 19.1735 26.9 19.8568 26.9 20.6606C26.9 21.4646 26.6111 22.1499 26.0333 22.7166C25.4555 23.2833 24.768 23.5666 23.9706 23.5666C23.1733 23.5666 22.4955 23.2846 21.9373 22.7206C21.3791 22.1568 21.1 21.4722 21.1 20.6666C21.1 20.4784 21.1166 20.2979 21.15 20.1253C21.1833 19.9528 21.2333 19.7777 21.3 19.5999L18.2666 17.7999C18.0444 18.0888 17.7833 18.3222 17.4833 18.4999C17.1833 18.6777 16.8444 18.7999 16.4666 18.8666V22.4333C17.1555 22.5444 17.7333 22.8722 18.2 23.4166C18.6666 23.961 18.9 24.5888 18.9 25.2999C18.9 26.1055 18.6111 26.7902 18.0333 27.3539C17.4555 27.9179 16.768 28.1999 15.9706 28.1999ZM15.9833 27.2666C16.5278 27.2666 16.9944 27.0783 17.3833 26.7016C17.7722 26.3252 17.9666 25.8585 17.9666 25.3016C17.9666 24.7449 17.775 24.2777 17.3916 23.8999C17.0083 23.5222 16.5333 23.3333 15.9666 23.3333C15.4333 23.3333 14.9778 23.5277 14.6 23.9166C14.2222 24.3055 14.0333 24.7666 14.0333 25.2999C14.0333 25.8333 14.2222 26.2944 14.6 26.6833C14.9778 27.0722 15.4389 27.2666 15.9833 27.2666ZM7.98331 22.6333C8.52775 22.6333 8.99442 22.4449 9.38331 22.0683C9.7722 21.6918 9.96664 21.2252 9.96664 20.6683C9.96664 20.1116 9.77498 19.6444 9.39164 19.2666C9.00831 18.8888 8.53331 18.6999 7.96664 18.6999C7.43331 18.6999 6.97775 18.8944 6.59998 19.2833C6.2222 19.6722 6.03331 20.1333 6.03331 20.6666C6.03331 21.1999 6.2222 21.661 6.59998 22.0499C6.97775 22.4388 7.43886 22.6333 7.98331 22.6333ZM23.9833 22.6333C24.5278 22.6333 24.9944 22.4449 25.3833 22.0683C25.7722 21.6918 25.9666 21.2252 25.9666 20.6683C25.9666 20.1116 25.775 19.6444 25.3916 19.2666C25.0083 18.8888 24.5333 18.6999 23.9666 18.6999C23.4333 18.6999 22.9778 18.8944 22.6 19.2833C22.2222 19.6722 22.0333 20.1333 22.0333 20.6666C22.0333 21.1999 22.2222 21.661 22.6 22.0499C22.9778 22.4388 23.4389 22.6333 23.9833 22.6333ZM15.9833 17.9666C16.5278 17.9666 16.9944 17.7783 17.3833 17.4016C17.7722 17.0252 17.9666 16.5585 17.9666 16.0016C17.9666 15.4449 17.775 14.9777 17.3916 14.5999C17.0083 14.2222 16.5333 14.0333 15.9666 14.0333C15.4333 14.0333 14.9778 14.2277 14.6 14.6166C14.2222 15.0055 14.0333 15.4666 14.0333 15.9999C14.0333 16.5333 14.2222 16.9944 14.6 17.3833C14.9778 17.7722 15.4389 17.9666 15.9833 17.9666ZM7.98331 13.3666C8.52775 13.3666 8.99442 13.1783 9.38331 12.8016C9.7722 12.4252 9.96664 11.9585 9.96664 11.4016C9.96664 10.8449 9.77498 10.3777 9.39164 9.99993C9.00831 9.62216 8.53331 9.43327 7.96664 9.43327C7.43331 9.43327 6.97775 9.62771 6.59998 10.0166C6.2222 10.4055 6.03331 10.8666 6.03331 11.3999C6.03331 11.9333 6.2222 12.3944 6.59998 12.7833C6.97775 13.1722 7.43886 13.3666 7.98331 13.3666ZM23.9833 13.3666C24.5278 13.3666 24.9944 13.1783 25.3833 12.8016C25.7722 12.4252 25.9666 11.9585 25.9666 11.4016C25.9666 10.8449 25.775 10.3777 25.3916 9.99993C25.0083 9.62216 24.5333 9.43327 23.9666 9.43327C23.4333 9.43327 22.9778 9.62771 22.6 10.0166C22.2222 10.4055 22.0333 10.8666 22.0333 11.3999C22.0333 11.9333 22.2222 12.3944 22.6 12.7833C22.9778 13.1722 23.4389 13.3666 23.9833 13.3666ZM15.9833 8.63327C16.5278 8.63327 16.9944 8.44493 17.3833 8.06827C17.7722 7.69182 17.9666 7.22516 17.9666 6.66827C17.9666 6.1116 17.775 5.64438 17.3916 5.2666C17.0083 4.88882 16.5333 4.69993 15.9666 4.69993C15.4333 4.69993 14.9778 4.89438 14.6 5.28327C14.2222 5.67216 14.0333 6.13327 14.0333 6.6666C14.0333 7.19993 14.2222 7.66105 14.6 8.04993C14.9778 8.43882 15.4389 8.63327 15.9833 8.63327Z" fill="#C89C66"/>
</g>
</svg>
