<svg width="32" height="32" viewBox="0 0 32 32" fill="none" xmlns="http://www.w3.org/2000/svg">
<mask id="mask0_26_23" style="mask-type:alpha" maskUnits="userSpaceOnUse" x="0" y="0" width="32" height="32">
<rect width="32" height="32" fill="#D9D9D9"/>
</mask>
<g mask="url(#mask0_26_23)">
<path d="M15.9708 28.1999C15.1734 28.1999 14.4957 27.9179 13.9374 27.3539C13.3792 26.7902 13.1001 26.1055 13.1001 25.2999C13.1001 24.5888 13.3334 23.961 13.8001 23.4166C14.2668 22.8722 14.8445 22.5444 15.5334 22.4333V18.8666C15.1557 18.8222 14.8112 18.7055 14.5001 18.5166C14.189 18.3277 13.9223 18.0888 13.7001 17.7999L10.7001 19.5999C10.7668 19.7666 10.8168 19.9416 10.8501 20.1249C10.8834 20.3083 10.9001 20.4888 10.9001 20.6666C10.9001 21.4722 10.6112 22.1568 10.0334 22.7206C9.45565 23.2846 8.7681 23.5666 7.97076 23.5666C7.17343 23.5666 6.49565 23.2853 5.93743 22.7226C5.37921 22.1597 5.1001 21.4764 5.1001 20.6726C5.1001 19.8686 5.37876 19.1833 5.9361 18.6166C6.49365 18.0499 7.17054 17.7666 7.96676 17.7666C8.42099 17.7666 8.84565 17.861 9.24076 18.0499C9.63588 18.2388 9.96676 18.4888 10.2334 18.7999L13.2334 16.9999C13.189 16.8444 13.1501 16.6805 13.1168 16.5083C13.0834 16.336 13.0668 16.1638 13.0668 15.9916C13.0668 15.8194 13.0834 15.6499 13.1168 15.4833C13.1501 15.3166 13.2001 15.1444 13.2668 14.9666L10.2668 13.2333C10.0001 13.5666 9.66565 13.8277 9.26343 14.0166C8.86143 14.2055 8.42921 14.2999 7.96676 14.2999C7.17054 14.2999 6.49365 14.0186 5.9361 13.4559C5.37876 12.893 5.1001 12.2097 5.1001 11.4059C5.1001 10.6019 5.37921 9.9166 5.93743 9.34993C6.49565 8.78327 7.17343 8.49993 7.97076 8.49993C8.7681 8.49993 9.45565 8.78182 10.0334 9.3456C10.6112 9.9096 10.9001 10.5944 10.9001 11.3999C10.9001 11.5777 10.889 11.7555 10.8668 11.9333C10.8445 12.111 10.8001 12.2777 10.7334 12.4333L13.7334 14.1666C13.9557 13.8999 14.2168 13.6722 14.5168 13.4833C14.8168 13.2944 15.1557 13.1777 15.5334 13.1333V9.53327C14.8445 9.42216 14.2668 9.09438 13.8001 8.54993C13.3334 8.00549 13.1001 7.37771 13.1001 6.6666C13.1001 5.86105 13.3792 5.17627 13.9374 4.61227C14.4957 4.04849 15.1734 3.7666 15.9708 3.7666C16.7681 3.7666 17.4557 4.04849 18.0334 4.61227C18.6112 5.17627 18.9001 5.86105 18.9001 6.6666C18.9001 7.37771 18.6668 8.00549 18.2001 8.54993C17.7334 9.09438 17.1557 9.42216 16.4668 9.53327V13.1666C16.8223 13.2333 17.1501 13.3555 17.4501 13.5333C17.7501 13.711 18.0112 13.9333 18.2334 14.1999L21.3001 12.4666C21.2334 12.2999 21.1834 12.1249 21.1501 11.9416C21.1168 11.7583 21.1001 11.5777 21.1001 11.3999C21.1001 10.5944 21.3792 9.9096 21.9374 9.3456C22.4957 8.78182 23.1734 8.49993 23.9708 8.49993C24.7681 8.49993 25.4557 8.78127 26.0334 9.34393C26.6112 9.90682 26.9001 10.5902 26.9001 11.3939C26.9001 12.1979 26.6112 12.8833 26.0334 13.4499C25.4557 14.0166 24.7668 14.2999 23.9668 14.2999C23.5217 14.2999 23.1103 14.2055 22.7328 14.0166C22.3554 13.8277 22.0334 13.5777 21.7668 13.2666L18.7001 14.9999C18.7668 15.1555 18.8112 15.3166 18.8334 15.4833C18.8557 15.6499 18.8668 15.8222 18.8668 15.9999C18.8668 16.1777 18.8501 16.3444 18.8168 16.4999C18.7834 16.6555 18.7445 16.811 18.7001 16.9666L21.7668 18.7999C22.0334 18.4888 22.3554 18.2388 22.7328 18.0499C23.1103 17.861 23.5217 17.7666 23.9668 17.7666C24.7668 17.7666 25.4557 18.0479 26.0334 18.6106C26.6112 19.1735 26.9001 19.8568 26.9001 20.6606C26.9001 21.4646 26.6112 22.1499 26.0334 22.7166C25.4557 23.2833 24.7681 23.5666 23.9708 23.5666C23.1734 23.5666 22.4957 23.2846 21.9374 22.7206C21.3792 22.1568 21.1001 21.4722 21.1001 20.6666C21.1001 20.4784 21.1168 20.2979 21.1501 20.1253C21.1834 19.9528 21.2334 19.7777 21.3001 19.5999L18.2668 17.7999C18.0445 18.0888 17.7834 18.3222 17.4834 18.4999C17.1834 18.6777 16.8445 18.7999 16.4668 18.8666V22.4333C17.1557 22.5444 17.7334 22.8722 18.2001 23.4166C18.6668 23.961 18.9001 24.5888 18.9001 25.2999C18.9001 26.1055 18.6112 26.7902 18.0334 27.3539C17.4557 27.9179 16.7681 28.1999 15.9708 28.1999ZM15.9834 27.2666C16.5279 27.2666 16.9945 27.0783 17.3834 26.7016C17.7723 26.3252 17.9668 25.8585 17.9668 25.3016C17.9668 24.7449 17.7751 24.2777 17.3918 23.8999C17.0084 23.5222 16.5334 23.3333 15.9668 23.3333C15.4334 23.3333 14.9779 23.5277 14.6001 23.9166C14.2223 24.3055 14.0334 24.7666 14.0334 25.2999C14.0334 25.8333 14.2223 26.2944 14.6001 26.6833C14.9779 27.0722 15.439 27.2666 15.9834 27.2666ZM7.98343 22.6333C8.52788 22.6333 8.99454 22.4449 9.38343 22.0683C9.77232 21.6918 9.96676 21.2252 9.96676 20.6683C9.96676 20.1116 9.7751 19.6444 9.39176 19.2666C9.00843 18.8888 8.53343 18.6999 7.96676 18.6999C7.43343 18.6999 6.97788 18.8944 6.6001 19.2833C6.22232 19.6722 6.03343 20.1333 6.03343 20.6666C6.03343 21.1999 6.22232 21.661 6.6001 22.0499C6.97788 22.4388 7.43899 22.6333 7.98343 22.6333ZM23.9834 22.6333C24.5279 22.6333 24.9945 22.4449 25.3834 22.0683C25.7723 21.6918 25.9668 21.2252 25.9668 20.6683C25.9668 20.1116 25.7751 19.6444 25.3918 19.2666C25.0084 18.8888 24.5334 18.6999 23.9668 18.6999C23.4334 18.6999 22.9779 18.8944 22.6001 19.2833C22.2223 19.6722 22.0334 20.1333 22.0334 20.6666C22.0334 21.1999 22.2223 21.661 22.6001 22.0499C22.9779 22.4388 23.439 22.6333 23.9834 22.6333ZM15.9834 17.9666C16.5279 17.9666 16.9945 17.7783 17.3834 17.4016C17.7723 17.0252 17.9668 16.5585 17.9668 16.0016C17.9668 15.4449 17.7751 14.9777 17.3918 14.5999C17.0084 14.2222 16.5334 14.0333 15.9668 14.0333C15.4334 14.0333 14.9779 14.2277 14.6001 14.6166C14.2223 15.0055 14.0334 15.4666 14.0334 15.9999C14.0334 16.5333 14.2223 16.9944 14.6001 17.3833C14.9779 17.7722 15.439 17.9666 15.9834 17.9666ZM7.98343 13.3666C8.52788 13.3666 8.99454 13.1783 9.38343 12.8016C9.77232 12.4252 9.96676 11.9585 9.96676 11.4016C9.96676 10.8449 9.7751 10.3777 9.39176 9.99993C9.00843 9.62216 8.53343 9.43327 7.96676 9.43327C7.43343 9.43327 6.97788 9.62771 6.6001 10.0166C6.22232 10.4055 6.03343 10.8666 6.03343 11.3999C6.03343 11.9333 6.22232 12.3944 6.6001 12.7833C6.97788 13.1722 7.43899 13.3666 7.98343 13.3666ZM23.9834 13.3666C24.5279 13.3666 24.9945 13.1783 25.3834 12.8016C25.7723 12.4252 25.9668 11.9585 25.9668 11.4016C25.9668 10.8449 25.7751 10.3777 25.3918 9.99993C25.0084 9.62216 24.5334 9.43327 23.9668 9.43327C23.4334 9.43327 22.9779 9.62771 22.6001 10.0166C22.2223 10.4055 22.0334 10.8666 22.0334 11.3999C22.0334 11.9333 22.2223 12.3944 22.6001 12.7833C22.9779 13.1722 23.439 13.3666 23.9834 13.3666ZM15.9834 8.63327C16.5279 8.63327 16.9945 8.44493 17.3834 8.06827C17.7723 7.69182 17.9668 7.22516 17.9668 6.66827C17.9668 6.1116 17.7751 5.64438 17.3918 5.2666C17.0084 4.88882 16.5334 4.69993 15.9668 4.69993C15.4334 4.69993 14.9779 4.89438 14.6001 5.28327C14.2223 5.67216 14.0334 6.13327 14.0334 6.6666C14.0334 7.19993 14.2223 7.66105 14.6001 8.04993C14.9779 8.43882 15.439 8.63327 15.9834 8.63327Z" fill="#C89C66"/>
</g>
</svg>
