<svg width="18" height="18" viewBox="0 0 18 18" fill="none" xmlns="http://www.w3.org/2000/svg">
<path d="M14.1574 11.0719V9.25686H15.9724C16.2295 9.25686 16.4451 9.34382 16.619 9.51776C16.793 9.6917 16.8799 9.90723 16.8799 10.1644C16.8799 10.4215 16.793 10.637 16.619 10.811C16.4451 10.9849 16.2295 11.0719 15.9724 11.0719H14.1574ZM14.1574 14.7019V12.8869H15.9724C16.2295 12.8869 16.4451 12.9738 16.619 13.1478C16.793 13.3217 16.8799 13.5372 16.8799 13.7944C16.8799 14.0515 16.793 14.267 16.619 14.441C16.4451 14.6149 16.2295 14.7019 15.9724 14.7019H14.1574ZM10.5274 15.6094C10.0283 15.6094 9.60102 15.4316 9.24558 15.0762C8.89014 14.7208 8.71242 14.2935 8.71242 13.7944H6.89742V10.1644H8.71242C8.71242 9.66523 8.89014 9.23795 9.24558 8.88251C9.60102 8.52707 10.0283 8.34936 10.5274 8.34936H13.2499V15.6094H10.5274ZM4.17492 12.8869C3.17667 12.8869 2.32211 12.5314 1.61123 11.8205C0.900359 11.1097 0.544922 10.2551 0.544922 9.25686C0.544922 8.25861 0.900359 7.40404 1.61123 6.69317C2.32211 5.98229 3.17667 5.62686 4.17492 5.62686H5.53617C5.9143 5.62686 6.2357 5.49451 6.50039 5.22982C6.76508 4.96514 6.89742 4.64373 6.89742 4.26561C6.89742 3.88748 6.76508 3.56607 6.50039 3.30139C6.2357 3.0367 5.9143 2.90436 5.53617 2.90436H2.35992C2.1028 2.90436 1.88727 2.81739 1.71333 2.64345C1.53939 2.46951 1.45242 2.25398 1.45242 1.99686C1.45242 1.73973 1.53939 1.5242 1.71333 1.35026C1.88727 1.17632 2.1028 1.08936 2.35992 1.08936H5.53617C6.41342 1.08936 7.16211 1.39942 7.78223 2.01954C8.40236 2.63967 8.71242 3.38836 8.71242 4.26561C8.71242 5.14286 8.40236 5.89154 7.78223 6.51167C7.16211 7.13179 6.41342 7.44186 5.53617 7.44186H4.17492C3.6758 7.44186 3.24852 7.61957 2.89308 7.97501C2.53764 8.33045 2.35992 8.75773 2.35992 9.25686C2.35992 9.75598 2.53764 10.1833 2.89308 10.5387C3.24852 10.8941 3.6758 11.0719 4.17492 11.0719H5.98992V12.8869H4.17492Z" fill="#591B42"/>
<mask id="mask0_26_15156" style="mask-type:alpha" maskUnits="userSpaceOnUse" x="0" y="0" width="18" height="18">
<rect width="17.424" height="17.424" fill="#D9D9D9"/>
</mask>
<g mask="url(#mask0_26_15156)">
</g>
</svg>
