<svg width="18" height="18" viewBox="0 0 18 18" fill="none" xmlns="http://www.w3.org/2000/svg">
<path fill-rule="evenodd" clip-rule="evenodd" d="M4.99492 8.63419C5.11629 9.65266 5.69913 10.5353 6.5133 11.1722C6.60764 11.2461 6.70318 11.3152 6.79931 11.3801V15.7237H4.37064C4.04257 15.7237 3.77578 15.4581 3.77518 15.1301V11.186C3.78059 10.2528 3.45373 9.34795 2.85226 8.63407L4.99492 8.63419ZM3.90436 3.4752C4.14891 3.4752 4.36942 3.62241 4.46316 3.84834C4.5563 4.07427 4.50462 4.33444 4.33157 4.50749C4.15792 4.67994 3.89775 4.73161 3.67182 4.63728C3.44589 4.54354 3.29928 4.32242 3.29988 4.07788C3.29928 3.91744 3.36297 3.76362 3.47653 3.65067C3.59009 3.53711 3.74394 3.474 3.90436 3.4752ZM1.80009 1.45215H6.01632C6.17975 1.45335 6.31255 1.58554 6.31315 1.74898V2.22425C6.31255 2.38829 6.17976 2.52048 6.01632 2.52108H1.80009C1.63606 2.52108 1.50266 2.38889 1.50146 2.22425V1.74898C1.50267 1.58494 1.63606 1.45215 1.80009 1.45215ZM5.8625 2.81791H1.94315V7.74017C1.94435 8.06884 2.20993 8.33503 2.5386 8.33563H5.27015C5.59702 8.33323 5.86079 8.06884 5.86261 7.74197V4.6734H4.58157C4.33341 4.9564 3.93625 5.05615 3.58414 4.92396C3.23203 4.79177 2.99889 4.45468 2.99889 4.07855C2.99889 3.70241 3.23203 3.36593 3.58414 3.23373C3.93625 3.10094 4.33341 3.20128 4.58157 3.48429H5.86261L5.8625 2.81791ZM6.1437 3.78109C6.29992 3.7925 6.4207 3.92229 6.4207 4.07852C6.4207 4.23534 6.29993 4.36513 6.1437 4.37654H4.75931C4.82721 4.18367 4.82721 3.97396 4.75931 3.78109H6.1437ZM5.9334 8.33741H15.0167C15.2576 8.33741 15.4535 8.14154 15.4535 7.90059C15.4535 7.65905 15.2576 7.46377 15.0167 7.46377H6.1612V7.74197C6.1612 7.96189 6.08001 8.17398 5.9334 8.33741ZM14.9902 8.63424H5.2995C5.55006 10.5552 7.62542 12.0549 10.1479 12.0549C12.6709 12.0549 14.7398 10.5552 14.9902 8.63424ZM11.5154 12.2058C12.1024 13.1197 12.7989 13.9586 13.5889 14.7042C13.7626 14.8724 13.8166 15.1296 13.7253 15.3537C13.634 15.5784 13.4159 15.7244 13.1737 15.7238H7.09302V11.5707C8.02196 12.0946 9.07224 12.3656 10.1388 12.3566C10.6015 12.356 11.063 12.3056 11.5154 12.2058Z" fill="#591B42"/>
</svg>
