<svg width="18" height="18" viewBox="0 0 18 18" fill="none" xmlns="http://www.w3.org/2000/svg">
<path d="M15.5405 7.14639C14.1769 6.44617 12.193 5.89317 10.2943 7.05794C10.2623 6.93917 10.2123 6.82784 10.1556 6.72144L11.2252 5.95132C11.2899 5.90493 11.3282 5.83008 11.3282 5.75029L11.3275 4.15504L11.6419 4.03319C11.7689 3.9837 11.8324 3.84082 11.7837 3.71339C11.7344 3.58597 11.592 3.52226 11.465 3.57112L10.9928 3.75359C10.8979 3.79009 10.835 3.88225 10.835 3.98431V5.62295L9.85911 6.32564C9.81718 6.2842 9.77526 6.24275 9.72903 6.20626C9.90842 5.98295 10.0114 5.70336 10.0114 5.41079C10.0114 4.88995 9.69698 4.44334 9.24942 4.24725L9.58232 3.92684C9.68034 3.8322 9.68404 3.67571 9.58972 3.57674C9.4954 3.47777 9.33944 3.47468 9.2408 3.56932L8.99298 3.80808L8.99175 1.89977C8.99175 1.76307 8.8814 1.65234 8.74516 1.65234C8.60892 1.65234 8.49857 1.76307 8.49857 1.89977V3.80872L8.25198 3.57119C8.15397 3.47655 7.99738 3.47964 7.90307 3.57799C7.80875 3.67634 7.81183 3.83346 7.90985 3.92809L8.24213 4.24789C7.79458 4.44336 7.48018 4.8912 7.48018 5.41142C7.48018 5.70401 7.58313 5.98359 7.76191 6.20689C7.71506 6.24338 7.67376 6.28545 7.63184 6.32627L6.65596 5.6242V3.98556C6.65596 3.88288 6.59308 3.79133 6.49814 3.75484L6.02531 3.57237C5.89831 3.5235 5.7553 3.5866 5.7066 3.71464C5.65728 3.84207 5.72078 3.98557 5.84839 4.03444L6.16279 4.15506V5.75094C6.16279 5.83073 6.20101 5.90558 6.26574 5.95197L7.33531 6.72147C7.27859 6.82786 7.22866 6.93858 7.1966 7.05797C5.29854 5.89258 3.31463 6.44558 1.95661 7.14395C1.38822 7.41983 1.11698 7.69571 1.10156 8.03592C1.11697 8.35263 1.38884 8.62851 1.95106 8.90192C2.74322 9.30894 3.74496 9.66646 4.81764 9.66646C5.04574 9.66646 5.27692 9.64914 5.50994 9.6145L3.88916 10.7811C3.82443 10.8275 3.78621 10.9024 3.78621 10.9822L3.78683 14.8388L2.79492 15.2236C2.66792 15.2731 2.60505 15.416 2.65374 15.5434C2.69135 15.6417 2.78505 15.7017 2.88368 15.7017C2.91327 15.7017 2.94348 15.6962 2.97245 15.685L4.12218 15.2397C4.21712 15.2026 4.28 15.111 4.28 15.0089V11.1095L7.17625 9.02494C7.21509 9.17464 7.2829 9.31319 7.37291 9.43319L5.8903 10.5002C5.82557 10.5466 5.78735 10.6215 5.78735 10.7013V13.5467L5.13881 13.7978C5.01182 13.8473 4.94833 13.9902 4.99764 14.1176C5.03525 14.216 5.12895 14.276 5.22758 14.276C5.25717 14.276 5.28738 14.2704 5.31635 14.2593L6.1227 13.9469C6.21764 13.9098 6.28052 13.8182 6.28052 13.7162L6.28114 10.8281L7.67313 9.82606C7.54613 10.1922 7.4549 10.5776 7.39633 10.9723H10.0958C10.0366 10.5782 9.9466 10.1922 9.81899 9.82667L11.2104 10.8281V13.7162C11.2104 13.8189 11.2733 13.9104 11.3682 13.9469L12.1758 14.2593C12.2054 14.2704 12.2349 14.276 12.2645 14.276C12.3632 14.276 12.4569 14.2154 12.4945 14.1176C12.5438 13.9902 12.4803 13.8467 12.3533 13.7978L11.7035 13.5467V10.7006C11.7035 10.6208 11.6653 10.546 11.6006 10.4996L10.118 9.43194C10.208 9.31194 10.2758 9.17338 10.3146 9.02369L13.2114 11.1083V15.0077C13.2114 15.1098 13.2742 15.2019 13.3692 15.2384L14.5189 15.6838C14.5485 15.6949 14.5781 15.7005 14.6077 15.7005C14.7063 15.7005 14.8 15.6399 14.8376 15.5421C14.8869 15.4147 14.8234 15.2712 14.6964 15.2223L13.7045 14.8376V10.982C13.7045 10.9022 13.6663 10.8274 13.6016 10.781L11.9803 9.61436C12.214 9.65024 12.4458 9.66694 12.6745 9.66694C13.7459 9.66694 14.7465 9.31003 15.5362 8.90486C16.1039 8.62836 16.3752 8.35248 16.3906 8.01228C16.3746 7.69619 16.1033 7.42042 15.5405 7.14639ZM7.138 8.43672C5.37235 9.6491 3.47066 9.12704 2.1704 8.4596C1.63408 8.19919 1.59647 8.03526 1.59339 8.03526C1.59463 8.0198 1.62422 7.85465 2.17534 7.58681C3.47055 6.92062 5.3724 6.39793 7.13789 7.61217L7.138 8.43672ZM15.3161 8.46208C14.0203 9.12703 12.1178 9.64849 10.3523 8.43672V7.61217C12.1179 6.39854 14.0202 6.92061 15.3203 7.58929C15.8567 7.85031 15.8949 8.01362 15.8973 8.01362C15.8955 8.02909 15.866 8.19362 15.3161 8.46208Z" fill="#591B42"/>
</svg>
