<svg width="18" height="18" viewBox="0 0 18 18" fill="none" xmlns="http://www.w3.org/2000/svg">
<path d="M14.7921 7.34364L12.4515 9.68826C12.3683 10.0691 12.2376 10.4202 12.0535 10.7535C11.7208 11.3545 11.2693 11.8425 10.699 12.1876C10.1347 12.5328 9.48118 12.7113 8.75642 12.7113C8.03165 12.7113 7.396 12.5328 6.81382 12.1876C6.24352 11.8425 5.78014 11.3545 5.45341 10.7535C5.35836 10.5928 5.28113 10.4202 5.21578 10.2417C5.03756 9.77157 4.94845 9.25385 4.94845 8.70042C4.94845 8.40883 4.97221 8.12914 5.02568 7.86136C5.10291 7.42695 5.25142 7.02824 5.45935 6.66524C5.79202 6.06421 6.2554 5.58219 6.81976 5.23704C7.396 4.8919 8.04354 4.71337 8.76236 4.71337C9.30296 4.71337 9.79603 4.81454 10.2475 4.99901L11.8337 3.41014C10.9248 2.89837 9.89108 2.64844 8.76236 2.64844C7.63363 2.64844 6.52867 2.91622 5.60192 3.4518C4.66924 3.98142 3.92071 4.70742 3.38606 5.6179C2.85734 6.52837 2.57812 7.56382 2.57812 8.70637C2.57812 9.84893 2.85734 10.8903 3.38606 11.8008C3.92666 12.7172 4.67518 13.4492 5.60192 13.9848C6.53461 14.5144 7.5861 14.7881 8.76236 14.7881C9.93861 14.7881 10.9901 14.5203 11.9109 13.9848C12.8436 13.4551 13.5921 12.7172 14.1268 11.8008C14.6674 10.8903 14.9347 9.84893 14.9347 8.70637C14.9347 8.23626 14.8872 7.77805 14.7981 7.34959L14.7921 7.34364Z" fill="#591B42"/>
<path d="M14.5427 2.86816L8.55449 8.86659L7.3723 7.68238L6.10693 8.95585L7.92478 10.7768C8.09112 10.9434 8.31686 11.0386 8.56043 11.0386C8.804 11.0386 9.02974 10.9494 9.19608 10.7768L15.8199 4.14164L14.5546 2.87411L14.5427 2.86816Z" fill="#591B42"/>
</svg>
