<svg width="160" height="160" viewBox="0 0 160 160" fill="none" xmlns="http://www.w3.org/2000/svg">
<mask id="mask0_26_13626" style="mask-type:alpha" maskUnits="userSpaceOnUse" x="0" y="0" width="160" height="160">
<rect width="160" height="160" fill="#D9D9D9"/>
</mask>
<g mask="url(#mask0_26_13626)">
<path d="M8.6665 116.334V112C8.6665 108.111 10.7776 104.861 14.9998 102.25C19.2221 99.6392 24.6109 98.3337 31.1665 98.3337C32.0554 98.3337 33.0554 98.3892 34.1665 98.5003C35.2776 98.6114 36.4998 98.7781 37.8332 99.0003C36.9443 100.667 36.3054 102.361 35.9165 104.084C35.5276 105.806 35.3332 107.5 35.3332 109.167V116.334H8.6665ZM48.6665 116.334V109.834C48.6665 107.407 49.3887 105.189 50.8332 103.18C52.2776 101.171 54.4443 99.4448 57.3332 98.0003C60.2221 96.5559 63.5554 95.4725 67.3332 94.7503C71.1109 94.0281 75.311 93.667 79.9332 93.667C84.6443 93.667 88.8887 94.0281 92.6665 94.7503C96.4443 95.4725 99.7776 96.5559 102.667 98.0003C105.555 99.4448 107.722 101.171 109.167 103.18C110.611 105.189 111.333 107.407 111.333 109.834V116.334H48.6665ZM124.666 116.334V109.217C124.666 107.319 124.472 105.531 124.083 103.852C123.694 102.173 123.111 100.556 122.333 99.0003C123.778 98.7781 125.028 98.6114 126.083 98.5003C127.139 98.3892 128.111 98.3337 129 98.3337C135.555 98.3337 140.917 99.6392 145.083 102.25C149.25 104.861 151.333 108.111 151.333 112V116.334H124.666ZM53.3332 111.667H106.667V109.834C106.667 106.389 104.222 103.611 99.3332 101.5C94.4443 99.3892 87.9998 98.3337 79.9998 98.3337C71.9998 98.3337 65.5554 99.3892 60.6665 101.5C55.7776 103.611 53.3332 106.389 53.3332 109.834V111.667ZM31.1215 92.167C28.8182 92.167 26.8609 91.3509 25.2498 89.7187C23.6387 88.0864 22.8332 86.1248 22.8332 83.8337C22.8332 81.6114 23.6493 79.6948 25.2815 78.0837C26.9137 76.4725 28.8754 75.667 31.1665 75.667C33.3887 75.667 35.3332 76.4725 36.9998 78.0837C38.6665 79.6948 39.4998 81.6281 39.4998 83.8837C39.4998 86.0725 38.6971 88.0003 37.0915 89.667C35.4859 91.3337 33.4959 92.167 31.1215 92.167ZM129 92.167C126.778 92.167 124.833 91.3337 123.167 89.667C121.5 88.0003 120.667 86.0725 120.667 83.8837C120.667 81.6281 121.5 79.6948 123.167 78.0837C124.833 76.4725 126.788 75.667 129.032 75.667C131.344 75.667 133.305 76.4725 134.917 78.0837C136.528 79.6948 137.333 81.6114 137.333 83.8337C137.333 86.1248 136.535 88.0864 134.938 89.7187C133.34 91.3509 131.361 92.167 129 92.167ZM80.0582 88.667C76.4637 88.667 73.3887 87.4031 70.8332 84.8753C68.2776 82.3475 66.9998 79.2781 66.9998 75.667C66.9998 71.9837 68.2637 68.8959 70.7915 66.4037C73.3193 63.9125 76.3887 62.667 79.9998 62.667C83.6832 62.667 86.771 63.907 89.2632 66.387C91.7543 68.8681 92.9998 71.942 92.9998 75.6087C92.9998 79.2031 91.7598 82.2781 89.2798 84.8337C86.7987 87.3892 83.7248 88.667 80.0582 88.667ZM80.0832 84.0003C82.3609 84.0003 84.3054 83.167 85.9165 81.5003C87.5276 79.8337 88.3332 77.8614 88.3332 75.5837C88.3332 73.3059 87.5348 71.3614 85.9382 69.7503C84.3404 68.1392 82.3609 67.3337 79.9998 67.3337C77.7776 67.3337 75.8332 68.132 74.1665 69.7287C72.4998 71.3264 71.6665 73.3059 71.6665 75.667C71.6665 77.8892 72.4998 79.8337 74.1665 81.5003C75.8332 83.167 77.8054 84.0003 80.0832 84.0003Z" fill="#C89C66"/>
</g>
</svg>
