<svg width="84" height="63" viewBox="0 0 84 63" fill="none" xmlns="http://www.w3.org/2000/svg">
<path d="M26.2763 18.4142V13.2991H12.8965V18.4142H15.9678V29.3498H12.8965V34.4649H26.2763V29.3498H23.2049V18.4142H26.2763ZM41.0329 21.4127C40.2209 21.1657 35.9492 19.9663 35.2079 19.7194C34.4665 19.4725 33.8664 19.1197 33.8664 18.6964C33.8664 18.2731 34.5371 17.7792 35.9139 17.7792C40.2209 17.7792 42.3038 20.4249 42.3038 20.4249C42.3038 20.4249 42.5509 20.7424 42.6215 20.8482H46.7872V13.6166H42.3038V14.9218C41.9507 14.6749 39.4442 13.0522 35.5256 13.0522C30.3714 13.0522 27.5119 15.7332 27.5119 19.7194C27.5119 23.7056 31.1481 25.3636 32.1365 25.7869C33.125 26.2102 37.0789 27.3038 38.7735 27.8329C40.468 28.3621 41.0682 28.7501 41.0682 28.9971C41.0682 29.244 40.3268 29.9848 38.2439 29.9848C34.5724 29.9848 32.7014 27.8329 32.3484 27.4096C32.3484 27.4096 32.1365 27.0921 32.0659 27.0216C32.0306 26.951 31.8894 26.7747 31.8188 26.6688H27.6531V34.3943H32.313V32.7716C32.8426 33.1244 35.6315 34.8529 38.9853 34.8529C42.7274 34.8529 47.458 33.2302 47.458 28.1857C47.458 23.1412 41.8095 21.5891 40.9975 21.3421L41.0329 21.4127ZM59.355 12.9817C53.1417 12.9817 48.0581 16.086 48.0581 24.0231C48.0581 31.9603 53.6007 34.9235 59.3903 34.9235C65.18 34.9235 70.6872 31.9955 70.6872 24.1289C70.6872 16.2623 65.2153 13.0169 59.3903 13.0169L59.355 12.9817ZM59.4256 29.632C57.3075 29.632 55.9307 29.1382 55.9307 23.9878C55.9307 18.8375 56.9544 18.3084 59.4962 18.3084C61.0496 18.3084 62.9206 18.4142 62.9206 23.8467C62.9206 29.2793 61.5438 29.632 59.3903 29.632H59.4256ZM21.7928 10.9356C23.2049 8.88961 24.8995 7.05525 26.8764 5.53837C27.6884 6.13806 28.5356 6.66721 29.4182 7.1258C27.9355 8.78378 26.594 10.6181 26.3822 10.9356H27.2647C27.7943 10.2301 28.924 8.7485 30.089 7.47856C31.3599 8.11353 32.7367 8.6074 34.1488 8.99544C33.7605 9.80679 33.478 10.5123 33.3015 10.9356H34.0782C34.2547 10.477 34.5018 9.87734 34.8549 9.17182C36.6553 9.63041 38.5617 9.87734 40.5033 9.91262V10.9356H41.2094V9.91262C43.151 9.91262 45.0221 9.66569 46.8225 9.27765C47.1402 9.91262 47.3874 10.5123 47.5639 10.9356H48.3405C48.164 10.5123 47.9169 9.87734 47.5639 9.10127C49.0113 8.71323 50.3881 8.21936 51.6943 7.61967C52.824 8.88961 53.8831 10.2654 54.3773 10.9356H55.2599C55.0481 10.6534 53.7772 8.88961 52.3298 7.2669C53.3182 6.77304 54.2714 6.17334 55.1187 5.53837C57.0956 7.05525 58.7902 8.88961 60.2023 10.9356H61.0849C56.8132 4.37425 49.3996 0 40.9975 0C32.5955 0 25.2172 4.37425 20.9455 10.9356H21.8281H21.7928ZM34.4665 8.36047C33.125 8.0077 31.8188 7.51384 30.6185 6.94942C30.795 6.77304 30.9362 6.59665 31.1128 6.45555C32.772 4.83284 35.5256 3.06903 36.1258 2.68099C36.62 2.9632 37.1495 3.17486 37.7144 3.35124C37.2908 3.91566 36.4082 5.11505 35.455 6.59665C35.102 7.16107 34.7489 7.79605 34.4665 8.36047ZM40.5033 9.2071C38.6676 9.17182 36.9024 8.96016 35.1726 8.53685C35.455 8.0077 35.7374 7.47856 36.0552 6.98469C37.1495 5.25616 38.138 3.98621 38.4557 3.5629C39.0912 3.704 39.7973 3.80983 40.5033 3.84511V9.2071ZM41.2094 9.2071V3.84511C41.9154 3.84511 42.5862 3.77456 43.2216 3.63345C43.61 4.12732 44.5278 5.36199 45.5516 6.98469C45.9046 7.51384 46.1871 8.07826 46.4695 8.64268C44.775 9.03071 43.0098 9.2071 41.1741 9.24237L41.2094 9.2071ZM47.2109 8.43102C46.8931 7.83132 46.5401 7.16107 46.1518 6.56138C45.2692 5.15033 44.4219 4.02149 43.963 3.42179C44.5631 3.24541 45.128 3.03376 45.6575 2.75155C46.5048 3.28069 48.976 4.9034 50.494 6.385C50.7058 6.59665 50.9176 6.80831 51.1295 7.01997C49.8939 7.58439 48.5524 8.04298 47.1755 8.39574L47.2109 8.43102ZM54.5538 5.07978C53.7066 5.67947 52.7887 6.24389 51.8355 6.70248C51.5531 6.42027 51.306 6.13806 51.0236 5.89113C49.5761 4.51536 47.4227 3.03376 46.3636 2.36351C46.7166 2.11657 47.0343 1.86964 47.3521 1.58743C49.9645 2.32823 52.3651 3.52762 54.5185 5.07978H54.5538ZM41.0329 0.705525C42.9392 0.705525 44.775 0.952458 46.5754 1.37577C45.2339 2.46934 43.2216 3.10431 41.0329 3.10431C38.8441 3.10431 36.8318 2.46934 35.4903 1.37577C37.2554 0.952458 39.1265 0.705525 41.0329 0.705525ZM34.6783 1.58743C34.9255 1.79909 35.1726 2.01074 35.455 2.2224C34.5018 2.8221 32.1365 4.40953 30.6185 5.89113C30.4067 6.10279 30.1596 6.34972 29.9478 6.56138C29.1005 6.10279 28.2885 5.60892 27.5119 5.07978C29.6653 3.52762 32.0659 2.32823 34.6783 1.58743ZM60.2729 36.8284C58.8961 38.8391 57.2369 40.6382 55.3305 42.1198C54.4126 41.4496 53.4242 40.8146 52.4004 40.2854C53.636 38.8744 54.7657 37.3928 55.1893 36.8284H54.3067C53.7419 37.5692 52.7887 38.8038 51.7649 39.968C50.4587 39.333 49.0819 38.8391 47.6345 38.4864C47.9522 37.8161 48.164 37.2517 48.3405 36.8284H47.5639C47.3874 37.2164 47.1755 37.7456 46.9284 38.31C45.128 37.8867 43.2569 37.675 41.3153 37.675V36.8637H40.6092V37.7103C38.6676 37.7456 36.7612 37.9925 34.9608 38.4511C34.6783 37.8514 34.4312 37.3222 34.2547 36.8989H33.478C33.6546 37.3222 33.9017 37.9572 34.2194 38.6275C32.8073 39.0155 31.4305 39.5447 30.1596 40.1443C29.1005 38.945 28.0767 37.6397 27.4766 36.8637H26.594C27.0176 37.4634 28.2179 39.0155 29.4888 40.4971C28.5356 40.991 27.6531 41.5554 26.8411 42.1904C24.9348 40.7088 23.2402 38.9097 21.8987 36.8989H21.0161C25.2878 43.4603 32.7014 47.8346 41.1035 47.8346C49.5055 47.8346 56.9191 43.4603 61.1908 36.8989H60.3082L60.2729 36.8284ZM47.2462 39.1213C48.623 39.4741 49.9292 39.9327 51.2001 40.4971C50.9883 40.7088 50.7764 40.9204 50.5646 41.1321C49.0113 42.6137 46.5754 44.2364 45.7281 44.7655C45.1986 44.4833 44.6337 44.2717 44.0336 44.0953C44.4925 43.4956 45.3045 42.3667 46.2224 40.9557C46.6107 40.356 46.9637 39.6858 47.2815 39.0861L47.2462 39.1213ZM41.2447 38.3453C43.0451 38.3453 44.8456 38.5569 46.5401 38.945C46.2577 39.5094 45.9399 40.0738 45.6222 40.6029C44.5984 42.2256 43.6453 43.4603 43.2922 43.9542C42.6568 43.8131 41.9507 43.7425 41.28 43.7425V38.3805L41.2447 38.3453ZM40.5386 38.3453V43.7072C39.8326 43.7072 39.1618 43.8484 38.491 43.9895C38.1733 43.5661 37.1848 42.2962 36.0905 40.5677C35.7727 40.0738 35.455 39.5094 35.2079 39.0155C36.9024 38.6275 38.7029 38.3805 40.5386 38.3453ZM34.5018 39.1919C34.7842 39.7916 35.1373 40.3913 35.4903 40.9557C36.4435 42.4373 37.2908 43.6014 37.7497 44.2011C37.1848 44.3775 36.6553 44.6244 36.1611 44.8714C35.5609 44.4833 32.8073 42.7195 31.1481 41.0968C30.9715 40.9557 30.8303 40.7793 30.6538 40.6029C31.8894 40.0032 33.1603 39.5446 34.5018 39.1919ZM27.406 42.5431C28.2179 41.9434 29.0652 41.4143 29.9831 40.9557C30.1949 41.2026 30.442 41.4143 30.6538 41.6259C32.2071 43.1075 34.5371 44.6597 35.4903 45.2947C35.1373 45.5416 34.8549 45.7885 34.5724 46.0708C31.96 45.2947 29.5594 44.0953 27.406 42.5431ZM41.0682 46.9879C39.0912 46.9879 37.1848 46.741 35.3491 46.2824C36.6906 45.1183 38.8088 44.4128 41.0682 44.4128C43.3275 44.4128 45.4457 45.1183 46.7872 46.2824C44.9515 46.741 43.0451 46.9879 41.0682 46.9879ZM47.5992 46.0708C47.2815 45.718 46.8931 45.4358 46.4695 45.1536C47.5286 44.4833 49.682 43.0017 51.0942 41.6259C51.3766 41.379 51.6237 41.0968 51.9061 40.8146C52.8946 41.3085 53.8478 41.9082 54.7304 42.5431C52.5769 44.0953 50.1763 45.2947 47.5639 46.0708H47.5992Z" fill="#C89C66"/>
<path d="M1.63508 53.3236H2.45372V62.1367H1.63508V53.3236ZM7.15516 62.2902C6.60087 62.2902 6.10202 62.1751 5.65859 61.9449C5.2237 61.7146 4.87833 61.4119 4.62251 61.0367C4.36669 60.6529 4.23025 60.2436 4.2132 59.8087H5.01904C5.05315 60.1072 5.15974 60.3886 5.33882 60.6529C5.52642 60.9088 5.77371 61.1177 6.0807 61.2797C6.39622 61.4332 6.75437 61.51 7.15516 61.51C7.60711 61.51 7.99084 61.4247 8.30636 61.2541C8.6304 61.0836 8.87343 60.8619 9.03545 60.589C9.19747 60.3161 9.27848 60.0347 9.27848 59.7448C9.27848 59.3014 9.11646 58.9475 8.79242 58.6831C8.46838 58.4188 8.0548 58.2226 7.55168 58.0947L6.36211 57.8133C5.552 57.6257 5.00198 57.3315 4.71205 56.9307C4.42212 56.5299 4.27715 56.095 4.27715 55.626C4.27715 55.157 4.40506 54.7349 4.66089 54.3597C4.92524 53.9845 5.2706 53.6946 5.69697 53.4899C6.13187 53.2767 6.58808 53.1701 7.06562 53.1701C7.56874 53.1701 8.02495 53.2682 8.43427 53.4643C8.84359 53.6605 9.16763 53.9376 9.4064 54.2958C9.65369 54.6539 9.78587 55.0717 9.80292 55.5493H8.98429C8.95871 55.0717 8.76258 54.688 8.3959 54.3981C8.03774 54.0996 7.59005 53.9504 7.05283 53.9504C6.71173 53.9504 6.39195 54.0229 6.09349 54.1678C5.79503 54.3043 5.552 54.5004 5.3644 54.7562C5.18532 55.0121 5.09578 55.2977 5.09578 55.6132C5.09578 55.9117 5.18959 56.1931 5.37719 56.4575C5.57332 56.7133 5.96558 56.9137 6.55397 57.0586L7.75634 57.3528C8.4897 57.5404 9.0653 57.8261 9.48314 58.2098C9.90099 58.5936 10.1099 59.0924 10.1099 59.7064C10.1099 60.1328 9.99479 60.5464 9.76455 60.9471C9.53431 61.3479 9.19747 61.672 8.75405 61.9193C8.31062 62.1666 7.77766 62.2902 7.15516 62.2902ZM15.5903 62.2902C14.7717 62.2902 14.0213 62.0856 13.3391 61.6762C12.6654 61.2669 12.1324 60.7169 11.7402 60.0262C11.3479 59.3269 11.1518 58.568 11.1518 57.7494C11.1518 56.9222 11.3479 56.159 11.7402 55.4597C12.1324 54.7605 12.6654 54.2062 13.3391 53.7969C14.0213 53.3791 14.7717 53.1701 15.5903 53.1701C16.4089 53.1701 17.1594 53.3791 17.8415 53.7969C18.5237 54.2062 19.061 54.7605 19.4532 55.4597C19.8455 56.159 20.0416 56.9222 20.0416 57.7494C20.0416 58.568 19.8455 59.3269 19.4532 60.0262C19.061 60.7169 18.5237 61.2669 17.8415 61.6762C17.1594 62.0856 16.4089 62.2902 15.5903 62.2902ZM15.5903 61.51C16.2554 61.51 16.8652 61.3437 17.4194 61.0111C17.9823 60.67 18.4214 60.2095 18.7369 59.6297C19.061 59.0498 19.223 58.423 19.223 57.7494C19.223 57.0757 19.061 56.4447 18.7369 55.8563C18.4214 55.2679 17.9823 54.8031 17.4194 54.462C16.8652 54.1209 16.2554 53.9504 15.5903 53.9504C14.9252 53.9504 14.3155 54.1252 13.7612 54.4748C13.2069 54.8159 12.7677 55.2807 12.4437 55.8691C12.1282 56.4489 11.9704 57.0757 11.9704 57.7494C11.9704 58.423 12.1282 59.0498 12.4437 59.6297C12.7677 60.201 13.2069 60.6572 13.7612 60.9983C14.3155 61.3394 14.9252 61.51 15.5903 61.51ZM28.1704 55.3958L28.3111 55.447L24.8575 59.8855L24.6784 59.5913H30.2298V60.3588H23.7574V60.1669L28.7844 53.7202H28.9634V62.1367H28.1704V55.3958ZM33.9715 62.2902C33.3234 62.2902 32.7435 62.1325 32.2319 61.8169C31.7202 61.4929 31.3237 61.0665 31.0423 60.5378L31.7202 60.1669C31.9334 60.5762 32.2319 60.9088 32.6156 61.1646C32.9993 61.4119 33.4342 61.5355 33.9203 61.5355C34.3296 61.5355 34.6963 61.4503 35.0203 61.2797C35.3444 61.1006 35.5959 60.8576 35.775 60.5506C35.9626 60.2436 36.0564 59.8983 36.0564 59.5145C36.0564 59.1393 35.9669 58.8068 35.7878 58.5168C35.6173 58.2184 35.3785 57.9924 35.0715 57.8389C34.7645 57.6769 34.4192 57.5959 34.0354 57.5959C33.6943 57.5959 33.3276 57.6598 32.9354 57.7877C32.5431 57.9071 32.1679 58.0777 31.8098 58.2994L31.3493 57.8901L32.0784 53.7202H36.2867V54.4748H32.4109L32.7947 54.1423L32.1423 57.7238L32.04 57.5319C32.364 57.3273 32.7094 57.1652 33.0761 57.0458C33.4513 56.9265 33.8222 56.8668 34.1889 56.8668C34.7006 56.8668 35.1568 56.9776 35.5576 57.1993C35.9669 57.4125 36.2824 57.7195 36.5041 58.1203C36.7344 58.5126 36.8495 58.973 36.8495 59.5017C36.8495 60.039 36.7258 60.5208 36.4785 60.9471C36.2312 61.3735 35.8859 61.7061 35.4424 61.9449C35.0075 62.1751 34.5172 62.2902 33.9715 62.2902ZM41.0178 62.2902C39.9092 62.2902 39.1332 61.9022 38.6898 61.1262C38.2464 60.3417 38.0247 59.28 38.0247 57.9412C38.0247 56.5939 38.2464 55.5365 38.6898 54.769C39.1332 53.993 39.9092 53.605 41.0178 53.605C42.1178 53.605 42.8896 53.993 43.333 54.769C43.7764 55.5365 43.9981 56.5939 43.9981 57.9412C43.9981 59.28 43.7764 60.3417 43.333 61.1262C42.8896 61.9022 42.1178 62.2902 41.0178 62.2902ZM41.0178 61.5355C41.8279 61.5355 42.395 61.2115 42.719 60.5634C43.043 59.9153 43.2051 59.0413 43.2051 57.9412C43.2051 56.8327 43.043 55.9629 42.719 55.3318C42.395 54.6923 41.8279 54.3725 41.0178 54.3725C40.1991 54.3725 39.6278 54.6923 39.3038 55.3318C38.9797 55.9714 38.8177 56.8412 38.8177 57.9412C38.8177 59.0413 38.9797 59.9153 39.3038 60.5634C39.6278 61.2115 40.1991 61.5355 41.0178 61.5355ZM48.3442 62.2902C47.2356 62.2902 46.4596 61.9022 46.0162 61.1262C45.5728 60.3417 45.3511 59.28 45.3511 57.9412C45.3511 56.5939 45.5728 55.5365 46.0162 54.769C46.4596 53.993 47.2356 53.605 48.3442 53.605C49.4442 53.605 50.216 53.993 50.6594 54.769C51.1028 55.5365 51.3245 56.5939 51.3245 57.9412C51.3245 59.28 51.1028 60.3417 50.6594 61.1262C50.216 61.9022 49.4442 62.2902 48.3442 62.2902ZM48.3442 61.5355C49.1543 61.5355 49.7214 61.2115 50.0454 60.5634C50.3695 59.9153 50.5315 59.0413 50.5315 57.9412C50.5315 56.8327 50.3695 55.9629 50.0454 55.3318C49.7214 54.6923 49.1543 54.3725 48.3442 54.3725C47.5256 54.3725 46.9542 54.6923 46.6302 55.3318C46.3061 55.9714 46.1441 56.8412 46.1441 57.9412C46.1441 59.0413 46.3061 59.9153 46.6302 60.5634C46.9542 61.2115 47.5256 61.5355 48.3442 61.5355ZM54.0462 54.2958L54.3531 54.6667L52.217 55.5749V54.7946L54.788 53.605H54.8392V62.1367H54.0462V54.2958ZM57.4356 57.2249C57.2565 57.2249 57.103 57.1695 56.9751 57.0586C56.8557 56.9478 56.796 56.8071 56.796 56.6365C56.796 56.4575 56.8557 56.3125 56.9751 56.2016C57.103 56.0908 57.2565 56.0353 57.4356 56.0353C57.6147 56.0353 57.7639 56.0908 57.8833 56.2016C58.0112 56.3125 58.0752 56.4575 58.0752 56.6365C58.0752 56.8071 58.0112 56.9478 57.8833 57.0586C57.7639 57.1695 57.6147 57.2249 57.4356 57.2249ZM57.4356 62.2646C57.2565 62.2646 57.103 62.2092 56.9751 62.0983C56.8557 61.9875 56.796 61.8468 56.796 61.6762C56.796 61.4972 56.8557 61.3522 56.9751 61.2413C57.103 61.1305 57.2565 61.0751 57.4356 61.0751C57.6147 61.0751 57.7639 61.1305 57.8833 61.2413C58.0112 61.3522 58.0752 61.4972 58.0752 61.6762C58.0752 61.8468 58.0112 61.9875 57.8833 62.0983C57.7639 62.2092 57.6147 62.2646 57.4356 62.2646ZM59.3823 61.7914L62.7207 57.7749C62.9766 57.4594 63.1812 57.1482 63.3347 56.8412C63.4967 56.5257 63.5777 56.2443 63.5777 55.997C63.5777 55.5109 63.4157 55.1187 63.0917 54.8202C62.7676 54.5217 62.3498 54.3725 61.8381 54.3725C61.3691 54.3725 60.9726 54.4919 60.6486 54.7307C60.3245 54.9609 60.1241 55.2764 60.0474 55.6772L59.3311 55.5109C59.4334 54.931 59.7106 54.4706 60.1625 54.1295C60.623 53.7798 61.1815 53.605 61.8381 53.605C62.3327 53.605 62.7719 53.7074 63.1556 53.912C63.5394 54.1082 63.8378 54.3896 64.051 54.7562C64.2642 55.1144 64.3708 55.528 64.3708 55.997C64.3708 56.3381 64.2813 56.6962 64.1022 57.0714C63.9316 57.4466 63.7057 57.8048 63.4243 58.1459L60.5335 61.5995L60.4311 61.3565H64.4731V62.1367H59.3823V61.7914ZM68.7186 62.2902C67.61 62.2902 66.834 61.9022 66.3906 61.1262C65.9472 60.3417 65.7255 59.28 65.7255 57.9412C65.7255 56.5939 65.9472 55.5365 66.3906 54.769C66.834 53.993 67.61 53.605 68.7186 53.605C69.8186 53.605 70.5904 53.993 71.0338 54.769C71.4772 55.5365 71.6989 56.5939 71.6989 57.9412C71.6989 59.28 71.4772 60.3417 71.0338 61.1262C70.5904 61.9022 69.8186 62.2902 68.7186 62.2902ZM68.7186 61.5355C69.5287 61.5355 70.0958 61.2115 70.4198 60.5634C70.7438 59.9153 70.9059 59.0413 70.9059 57.9412C70.9059 56.8327 70.7438 55.9629 70.4198 55.3318C70.0958 54.6923 69.5287 54.3725 68.7186 54.3725C67.9 54.3725 67.3286 54.6923 67.0046 55.3318C66.6805 55.9714 66.5185 56.8412 66.5185 57.9412C66.5185 59.0413 66.6805 59.9153 67.0046 60.5634C67.3286 61.2115 67.9 61.5355 68.7186 61.5355ZM74.4205 54.2958L74.7275 54.6667L72.5914 55.5749V54.7946L75.1624 53.605H75.2136V62.1367H74.4205V54.2958ZM79.9589 62.2902C79.3876 62.2902 78.8674 62.1751 78.3984 61.9449C77.9379 61.7146 77.5755 61.3991 77.3111 60.9983C77.0553 60.5975 76.9274 60.1498 76.9274 59.6552C76.9274 59.2545 77.0127 58.8835 77.1832 58.5424C77.3538 58.1928 77.5925 57.8986 77.8995 57.6598C78.2065 57.4211 78.5604 57.2548 78.9612 57.161L78.9356 57.3784C78.6883 57.2846 78.4666 57.1567 78.2705 56.9947C78.0829 56.8241 77.9379 56.6237 77.8356 56.3935C77.7332 56.1547 77.6821 55.8989 77.6821 55.626C77.6821 55.2508 77.7759 54.9097 77.9635 54.6027C78.1596 54.2958 78.4325 54.0527 78.7821 53.8736C79.1317 53.6946 79.524 53.605 79.9589 53.605C80.4023 53.605 80.7988 53.6946 81.1485 53.8736C81.4981 54.0527 81.771 54.2958 81.9671 54.6027C82.1632 54.9097 82.2613 55.2508 82.2613 55.626C82.2613 55.8989 82.2059 56.1547 82.095 56.3935C81.9927 56.6237 81.8435 56.8241 81.6473 56.9947C81.4597 57.1652 81.2423 57.2931 80.995 57.3784L80.9566 57.161C81.3574 57.2548 81.7113 57.4211 82.0183 57.6598C82.3338 57.8986 82.5768 58.1928 82.7474 58.5424C82.9179 58.8835 83.0032 59.2502 83.0032 59.6424C83.0032 60.1456 82.871 60.5975 82.6067 60.9983C82.3423 61.3991 81.9799 61.7146 81.5194 61.9449C81.0589 62.1751 80.5388 62.2902 79.9589 62.2902ZM79.9589 61.5355C80.3767 61.5355 80.7519 61.4503 81.0845 61.2797C81.4256 61.1006 81.69 60.8661 81.8776 60.5762C82.0737 60.2777 82.1718 59.9537 82.1718 59.6041C82.1718 59.2459 82.0737 58.9219 81.8776 58.6319C81.6814 58.3335 81.4128 58.099 81.0717 57.9284C80.7391 57.7494 80.3682 57.6598 79.9589 57.6598C79.5496 57.6683 79.1786 57.7579 78.8461 57.9284C78.5135 58.099 78.2491 58.3292 78.053 58.6192C77.8569 58.9091 77.7588 59.2331 77.7588 59.5913C77.7588 59.9494 77.8569 60.2777 78.053 60.5762C78.2491 60.8661 78.5135 61.1006 78.8461 61.2797C79.1786 61.4503 79.5496 61.5355 79.9589 61.5355ZM79.9589 56.9947C80.3853 56.9862 80.7391 56.8582 81.0206 56.6109C81.302 56.3637 81.4427 56.0567 81.4427 55.69C81.4427 55.4427 81.3787 55.2167 81.2508 55.0121C81.1229 54.8074 80.9438 54.6496 80.7136 54.5388C80.4833 54.4194 80.2318 54.3597 79.9589 54.3597C79.5496 54.3597 79.2042 54.4876 78.9228 54.7434C78.6499 54.9993 78.5135 55.3148 78.5135 55.69C78.5135 56.0567 78.6499 56.3637 78.9228 56.6109C79.1957 56.8582 79.541 56.9862 79.9589 56.9947Z" fill="#C89C66"/>
</svg>
