<svg width="56" height="56" viewBox="0 0 56 56" fill="none" xmlns="http://www.w3.org/2000/svg">
<path d="M19.0398 0C19.6584 0 20.1598 0.501445 20.1598 1.12C20.1598 1.73858 19.6584 2.23999 19.0398 2.23999C18.4212 2.23999 17.9198 1.73858 17.9198 1.12C17.9198 0.501445 18.4212 0 19.0398 0Z" fill="#591B42"/>
<path d="M21.2801 0C21.8987 0 22.4001 0.501445 22.4001 1.12C22.4001 1.73858 21.8987 2.23999 21.2801 2.23999C20.6615 2.23999 20.1601 1.73858 20.1601 1.12C20.1601 0.501445 20.6615 0 21.2801 0Z" fill="#591B42"/>
<path d="M23.5199 0C24.1385 0 24.6399 0.501445 24.6399 1.12C24.6399 1.73858 24.1385 2.23999 23.5199 2.23999C22.9013 2.23999 22.3999 1.73858 22.3999 1.12C22.3999 0.501445 22.9013 0 23.5199 0Z" fill="#591B42"/>
<path d="M27.9998 0C28.6184 0 29.1198 0.501445 29.1198 1.12C29.1198 1.73858 28.6184 2.23999 27.9998 2.23999C27.3813 2.23999 26.8798 1.73858 26.8798 1.12C26.8798 0.501445 27.3813 0 27.9998 0Z" fill="#591B42"/>
<path d="M32.4799 0C33.0985 0 33.5999 0.501445 33.5999 1.12C33.5999 1.73858 33.0985 2.23999 32.4799 2.23999C31.8614 2.23999 31.3599 1.73858 31.3599 1.12C31.3599 0.501445 31.8614 0 32.4799 0Z" fill="#591B42"/>
<path d="M25.76 2.23926C26.3785 2.23926 26.8799 2.7407 26.8799 3.35925C26.8799 3.97784 26.3785 4.47925 25.76 4.47925C25.1414 4.47925 24.64 3.97784 24.64 3.35925C24.64 2.7407 25.1414 2.23926 25.76 2.23926Z" fill="#591B42"/>
<path d="M27.9998 2.23926C28.6184 2.23926 29.1198 2.7407 29.1198 3.35925C29.1198 3.97784 28.6184 4.47925 27.9998 4.47925C27.3813 4.47925 26.8798 3.97784 26.8798 3.35925C26.8798 2.7407 27.3813 2.23926 27.9998 2.23926Z" fill="#591B42"/>
<path d="M30.2398 2.23926C30.8584 2.23926 31.3598 2.7407 31.3598 3.35925C31.3598 3.97784 30.8584 4.47925 30.2398 4.47925C29.6213 4.47925 29.1198 3.97784 29.1198 3.35925C29.1198 2.7407 29.6213 2.23926 30.2398 2.23926Z" fill="#591B42"/>
<path d="M32.4799 2.23926C33.0985 2.23926 33.5999 2.7407 33.5999 3.35925C33.5999 3.97784 33.0985 4.47925 32.4799 4.47925C31.8614 4.47925 31.3599 3.97784 31.3599 3.35925C31.3599 2.7407 31.8614 2.23926 32.4799 2.23926Z" fill="#591B42"/>
<path d="M36.9598 2.23926C37.5784 2.23926 38.0798 2.7407 38.0798 3.35925C38.0798 3.97784 37.5784 4.47925 36.9598 4.47925C36.3413 4.47925 35.8398 3.97784 35.8398 3.35925C35.8398 2.7407 36.3413 2.23926 36.9598 2.23926Z" fill="#591B42"/>
<path d="M19.0398 4.48047C19.6584 4.48047 20.1598 4.98191 20.1598 5.60047C20.1598 6.21905 19.6584 6.72046 19.0398 6.72046C18.4212 6.72046 17.9198 6.21905 17.9198 5.60047C17.9198 4.98191 18.4212 4.48047 19.0398 4.48047Z" fill="#591B42"/>
<path d="M23.5199 4.48047C24.1385 4.48047 24.6399 4.98191 24.6399 5.60047C24.6399 6.21905 24.1385 6.72046 23.5199 6.72046C22.9013 6.72046 22.3999 6.21905 22.3999 5.60047C22.3999 4.98191 22.9013 4.48047 23.5199 4.48047Z" fill="#591B42"/>
<path d="M25.76 4.48047C26.3785 4.48047 26.8799 4.98191 26.8799 5.60047C26.8799 6.21905 26.3785 6.72046 25.76 6.72046C25.1414 6.72046 24.64 6.21905 24.64 5.60047C24.64 4.98191 25.1414 4.48047 25.76 4.48047Z" fill="#591B42"/>
<path d="M30.2398 4.48047C30.8584 4.48047 31.3598 4.98191 31.3598 5.60047C31.3598 6.21905 30.8584 6.72046 30.2398 6.72046C29.6213 6.72046 29.1198 6.21905 29.1198 5.60047C29.1198 4.98191 29.6213 4.48047 30.2398 4.48047Z" fill="#591B42"/>
<path d="M36.9598 4.48047C37.5784 4.48047 38.0798 4.98191 38.0798 5.60047C38.0798 6.21905 37.5784 6.72046 36.9598 6.72046C36.3413 6.72046 35.8398 6.21905 35.8398 5.60047C35.8398 4.98191 36.3413 4.48047 36.9598 4.48047Z" fill="#591B42"/>
<path d="M23.5199 6.71973C24.1385 6.71973 24.6399 7.22117 24.6399 7.83972C24.6399 8.45831 24.1385 8.95972 23.5199 8.95972C22.9013 8.95972 22.3999 8.45831 22.3999 7.83972C22.3999 7.22117 22.9013 6.71973 23.5199 6.71973Z" fill="#591B42"/>
<path d="M25.76 6.71973C26.3785 6.71973 26.8799 7.22117 26.8799 7.83972C26.8799 8.45831 26.3785 8.95972 25.76 8.95972C25.1414 8.95972 24.64 8.45831 24.64 7.83972C24.64 7.22117 25.1414 6.71973 25.76 6.71973Z" fill="#591B42"/>
<path d="M30.2399 6.71973C30.8585 6.71973 31.3599 7.22117 31.3599 7.83972C31.3599 8.45831 30.8585 8.95972 30.2399 8.95972C29.6213 8.95972 29.1199 8.45831 29.1199 7.83972C29.1199 7.22117 29.6213 6.71973 30.2399 6.71973Z" fill="#591B42"/>
<path d="M32.4799 6.71973C33.0984 6.71973 33.5999 7.22117 33.5999 7.83972C33.5999 8.45831 33.0984 8.95972 32.4799 8.95972C31.8613 8.95972 31.3599 8.45831 31.3599 7.83972C31.3599 7.22117 31.8613 6.71973 32.4799 6.71973Z" fill="#591B42"/>
<path d="M21.2801 8.95898C21.8987 8.95898 22.4001 9.46043 22.4001 10.079C22.4001 10.6976 21.8987 11.199 21.2801 11.199C20.6615 11.199 20.1601 10.6976 20.1601 10.079C20.1601 9.46043 20.6615 8.95898 21.2801 8.95898Z" fill="#591B42"/>
<path d="M23.52 8.95898C24.1385 8.95898 24.64 9.46043 24.64 10.079C24.64 10.6976 24.1385 11.199 23.52 11.199C22.9014 11.199 22.4 10.6976 22.4 10.079C22.4 9.46043 22.9014 8.95898 23.52 8.95898Z" fill="#591B42"/>
<path d="M25.76 8.95898C26.3785 8.95898 26.8799 9.46043 26.8799 10.079C26.8799 10.6976 26.3785 11.199 25.76 11.199C25.1414 11.199 24.64 10.6976 24.64 10.079C24.64 9.46043 25.1414 8.95898 25.76 8.95898Z" fill="#591B42"/>
<path d="M32.4799 8.95898C33.0985 8.95898 33.5999 9.46043 33.5999 10.079C33.5999 10.6976 33.0985 11.199 32.4799 11.199C31.8614 11.199 31.3599 10.6976 31.3599 10.079C31.3599 9.46043 31.8614 8.95898 32.4799 8.95898Z" fill="#591B42"/>
<path d="M19.0399 11.2002C19.6584 11.2002 20.1599 11.7016 20.1599 12.3202C20.1599 12.9388 19.6584 13.4402 19.0399 13.4402C18.4213 13.4402 17.9199 12.9388 17.9199 12.3202C17.9199 11.7016 18.4213 11.2002 19.0399 11.2002Z" fill="#591B42"/>
<path d="M21.2801 11.2002C21.8987 11.2002 22.4001 11.7016 22.4001 12.3202C22.4001 12.9388 21.8987 13.4402 21.2801 13.4402C20.6615 13.4402 20.1601 12.9388 20.1601 12.3202C20.1601 11.7016 20.6615 11.2002 21.2801 11.2002Z" fill="#591B42"/>
<path d="M23.5199 11.2002C24.1385 11.2002 24.6399 11.7016 24.6399 12.3202C24.6399 12.9388 24.1385 13.4402 23.5199 13.4402C22.9013 13.4402 22.3999 12.9388 22.3999 12.3202C22.3999 11.7016 22.9013 11.2002 23.5199 11.2002Z" fill="#591B42"/>
<path d="M27.9998 11.2002C28.6184 11.2002 29.1198 11.7016 29.1198 12.3202C29.1198 12.9388 28.6184 13.4402 27.9998 13.4402C27.3813 13.4402 26.8798 12.9388 26.8798 12.3202C26.8798 11.7016 27.3813 11.2002 27.9998 11.2002Z" fill="#591B42"/>
<path d="M32.4799 11.2002C33.0985 11.2002 33.5999 11.7016 33.5999 12.3202C33.5999 12.9388 33.0985 13.4402 32.4799 13.4402C31.8614 13.4402 31.3599 12.9388 31.3599 12.3202C31.3599 11.7016 31.8614 11.2002 32.4799 11.2002Z" fill="#591B42"/>
<path d="M19.0399 13.4404C19.6584 13.4404 20.1599 13.9419 20.1599 14.5604C20.1599 15.179 19.6584 15.6804 19.0399 15.6804C18.4213 15.6804 17.9199 15.179 17.9199 14.5604C17.9199 13.9419 18.4213 13.4404 19.0399 13.4404Z" fill="#591B42"/>
<path d="M23.5199 13.4404C24.1385 13.4404 24.6399 13.9419 24.6399 14.5604C24.6399 15.179 24.1385 15.6804 23.5199 15.6804C22.9013 15.6804 22.3999 15.179 22.3999 14.5604C22.3999 13.9419 22.9013 13.4404 23.5199 13.4404Z" fill="#591B42"/>
<path d="M27.9998 13.4404C28.6184 13.4404 29.1198 13.9419 29.1198 14.5604C29.1198 15.179 28.6184 15.6804 27.9998 15.6804C27.3813 15.6804 26.8798 15.179 26.8798 14.5604C26.8798 13.9419 27.3813 13.4404 27.9998 13.4404Z" fill="#591B42"/>
<path d="M32.4799 13.4404C33.0985 13.4404 33.5999 13.9419 33.5999 14.5604C33.5999 15.179 33.0985 15.6804 32.4799 15.6804C31.8614 15.6804 31.3599 15.179 31.3599 14.5604C31.3599 13.9419 31.8614 13.4404 32.4799 13.4404Z" fill="#591B42"/>
<path d="M36.9598 13.4404C37.5784 13.4404 38.0798 13.9419 38.0798 14.5604C38.0798 15.179 37.5784 15.6804 36.9598 15.6804C36.3413 15.6804 35.8398 15.179 35.8398 14.5604C35.8398 13.9419 36.3413 13.4404 36.9598 13.4404Z" fill="#591B42"/>
<path d="M21.2801 15.6797C21.8987 15.6797 22.4001 16.1811 22.4001 16.7997C22.4001 17.4183 21.8987 17.9197 21.2801 17.9197C20.6615 17.9197 20.1601 17.4183 20.1601 16.7997C20.1601 16.1811 20.6615 15.6797 21.2801 15.6797Z" fill="#591B42"/>
<path d="M23.5199 15.6797C24.1385 15.6797 24.6399 16.1811 24.6399 16.7997C24.6399 17.4183 24.1385 17.9197 23.5199 17.9197C22.9013 17.9197 22.3999 17.4183 22.3999 16.7997C22.3999 16.1811 22.9013 15.6797 23.5199 15.6797Z" fill="#591B42"/>
<path d="M27.9998 15.6797C28.6184 15.6797 29.1198 16.1811 29.1198 16.7997C29.1198 17.4183 28.6184 17.9197 27.9998 17.9197C27.3813 17.9197 26.8798 17.4183 26.8798 16.7997C26.8798 16.1811 27.3813 15.6797 27.9998 15.6797Z" fill="#591B42"/>
<path d="M32.4799 15.6797C33.0984 15.6797 33.5999 16.1811 33.5999 16.7997C33.5999 17.4183 33.0984 17.9197 32.4799 17.9197C31.8613 17.9197 31.3599 17.4183 31.3599 16.7997C31.3599 16.1811 31.8613 15.6797 32.4799 15.6797Z" fill="#591B42"/>
<path d="M34.7198 15.6797C35.3384 15.6797 35.8398 16.1811 35.8398 16.7997C35.8398 17.4183 35.3384 17.9197 34.7198 17.9197C34.1012 17.9197 33.5998 17.4183 33.5998 16.7997C33.5998 16.1811 34.1012 15.6797 34.7198 15.6797Z" fill="#591B42"/>
<path d="M36.9598 15.6797C37.5784 15.6797 38.0798 16.1811 38.0798 16.7997C38.0798 17.4183 37.5784 17.9197 36.9598 17.9197C36.3413 17.9197 35.8398 17.4183 35.8398 16.7997C35.8398 16.1811 36.3413 15.6797 36.9598 15.6797Z" fill="#591B42"/>
<path d="M1.12 17.9199C1.73858 17.9199 2.23999 18.4214 2.23999 19.0399C2.23999 19.6585 1.73858 20.1599 1.12 20.1599C0.501445 20.1599 0 19.6585 0 19.0399C0 18.4214 0.501445 17.9199 1.12 17.9199Z" fill="#591B42"/>
<path d="M5.6001 17.9199C6.21868 17.9199 6.7201 18.4214 6.7201 19.0399C6.7201 19.6585 6.21868 20.1599 5.6001 20.1599C4.98155 20.1599 4.4801 19.6585 4.4801 19.0399C4.4801 18.4214 4.98155 17.9199 5.6001 17.9199Z" fill="#591B42"/>
<path d="M14.5599 17.9199C15.1785 17.9199 15.6799 18.4214 15.6799 19.0399C15.6799 19.6585 15.1785 20.1599 14.5599 20.1599C13.9414 20.1599 13.4399 19.6585 13.4399 19.0399C13.4399 18.4214 13.9414 17.9199 14.5599 17.9199Z" fill="#591B42"/>
<path d="M16.8 17.9199C17.4186 17.9199 17.92 18.4214 17.92 19.0399C17.92 19.6585 17.4186 20.1599 16.8 20.1599C16.1814 20.1599 15.68 19.6585 15.68 19.0399C15.68 18.4214 16.1814 17.9199 16.8 17.9199Z" fill="#591B42"/>
<path d="M21.2801 17.9199C21.8987 17.9199 22.4001 18.4214 22.4001 19.0399C22.4001 19.6585 21.8987 20.1599 21.2801 20.1599C20.6615 20.1599 20.1601 19.6585 20.1601 19.0399C20.1601 18.4214 20.6615 17.9199 21.2801 17.9199Z" fill="#591B42"/>
<path d="M25.76 17.9199C26.3785 17.9199 26.8799 18.4214 26.8799 19.0399C26.8799 19.6585 26.3785 20.1599 25.76 20.1599C25.1414 20.1599 24.64 19.6585 24.64 19.0399C24.64 18.4214 25.1414 17.9199 25.76 17.9199Z" fill="#591B42"/>
<path d="M27.9998 17.9199C28.6184 17.9199 29.1198 18.4214 29.1198 19.0399C29.1198 19.6585 28.6184 20.1599 27.9998 20.1599C27.3813 20.1599 26.8798 19.6585 26.8798 19.0399C26.8798 18.4214 27.3813 17.9199 27.9998 17.9199Z" fill="#591B42"/>
<path d="M30.2399 17.9199C30.8585 17.9199 31.3599 18.4214 31.3599 19.0399C31.3599 19.6585 30.8585 20.1599 30.2399 20.1599C29.6213 20.1599 29.1199 19.6585 29.1199 19.0399C29.1199 18.4214 29.6213 17.9199 30.2399 17.9199Z" fill="#591B42"/>
<path d="M32.4799 17.9199C33.0985 17.9199 33.5999 18.4214 33.5999 19.0399C33.5999 19.6585 33.0985 20.1599 32.4799 20.1599C31.8614 20.1599 31.3599 19.6585 31.3599 19.0399C31.3599 18.4214 31.8614 17.9199 32.4799 17.9199Z" fill="#591B42"/>
<path d="M36.9598 17.9199C37.5784 17.9199 38.0798 18.4214 38.0798 19.0399C38.0798 19.6585 37.5784 20.1599 36.9598 20.1599C36.3413 20.1599 35.8398 19.6585 35.8398 19.0399C35.8398 18.4214 36.3413 17.9199 36.9598 17.9199Z" fill="#591B42"/>
<path d="M43.6798 17.9199C44.2984 17.9199 44.7998 18.4214 44.7998 19.0399C44.7998 19.6585 44.2984 20.1599 43.6798 20.1599C43.0613 20.1599 42.5598 19.6585 42.5598 19.0399C42.5598 18.4214 43.0613 17.9199 43.6798 17.9199Z" fill="#591B42"/>
<path d="M50.3997 17.9199C51.0183 17.9199 51.5197 18.4214 51.5197 19.0399C51.5197 19.6585 51.0183 20.1599 50.3997 20.1599C49.7812 20.1599 49.2797 19.6585 49.2797 19.0399C49.2797 18.4214 49.7812 17.9199 50.3997 17.9199Z" fill="#591B42"/>
<path d="M54.8799 17.9199C55.4985 17.9199 55.9999 18.4214 55.9999 19.0399C55.9999 19.6585 55.4985 20.1599 54.8799 20.1599C54.2613 20.1599 53.7599 19.6585 53.7599 19.0399C53.7599 18.4214 54.2613 17.9199 54.8799 17.9199Z" fill="#591B42"/>
<path d="M1.12 20.1602C1.73858 20.1602 2.23999 20.6616 2.23999 21.2802C2.23999 21.8987 1.73858 22.4002 1.12 22.4002C0.501445 22.4002 0 21.8987 0 21.2802C0 20.6616 0.501445 20.1602 1.12 20.1602Z" fill="#591B42"/>
<path d="M10.08 20.1602C10.6986 20.1602 11.2 20.6616 11.2 21.2802C11.2 21.8987 10.6986 22.4002 10.08 22.4002C9.46147 22.4002 8.96002 21.8987 8.96002 21.2802C8.96002 20.6616 9.46147 20.1602 10.08 20.1602Z" fill="#591B42"/>
<path d="M12.3201 20.1602C12.9387 20.1602 13.4401 20.6616 13.4401 21.2802C13.4401 21.8987 12.9387 22.4002 12.3201 22.4002C11.7015 22.4002 11.2001 21.8987 11.2001 21.2802C11.2001 20.6616 11.7015 20.1602 12.3201 20.1602Z" fill="#591B42"/>
<path d="M30.2398 20.1602C30.8584 20.1602 31.3598 20.6616 31.3598 21.2802C31.3598 21.8987 30.8584 22.4002 30.2398 22.4002C29.6213 22.4002 29.1198 21.8987 29.1198 21.2802C29.1198 20.6616 29.6213 20.1602 30.2398 20.1602Z" fill="#591B42"/>
<path d="M34.7198 20.1602C35.3384 20.1602 35.8398 20.6616 35.8398 21.2802C35.8398 21.8987 35.3384 22.4002 34.7198 22.4002C34.1012 22.4002 33.5998 21.8987 33.5998 21.2802C33.5998 20.6616 34.1012 20.1602 34.7198 20.1602Z" fill="#591B42"/>
<path d="M41.4399 20.1602C42.0585 20.1602 42.5599 20.6616 42.5599 21.2802C42.5599 21.8987 42.0585 22.4002 41.4399 22.4002C40.8214 22.4002 40.3199 21.8987 40.3199 21.2802C40.3199 20.6616 40.8214 20.1602 41.4399 20.1602Z" fill="#591B42"/>
<path d="M43.6798 20.1602C44.2984 20.1602 44.7998 20.6616 44.7998 21.2802C44.7998 21.8987 44.2984 22.4002 43.6798 22.4002C43.0613 22.4002 42.5598 21.8987 42.5598 21.2802C42.5598 20.6616 43.0613 20.1602 43.6798 20.1602Z" fill="#591B42"/>
<path d="M48.1597 20.1602C48.7783 20.1602 49.2797 20.6616 49.2797 21.2802C49.2797 21.8987 48.7783 22.4002 48.1597 22.4002C47.5411 22.4002 47.0397 21.8987 47.0397 21.2802C47.0397 20.6616 47.5411 20.1602 48.1597 20.1602Z" fill="#591B42"/>
<path d="M52.6398 20.1602C53.2584 20.1602 53.7598 20.6616 53.7598 21.2802C53.7598 21.8987 53.2584 22.4002 52.6398 22.4002C52.0212 22.4002 51.5198 21.8987 51.5198 21.2802C51.5198 20.6616 52.0212 20.1602 52.6398 20.1602Z" fill="#591B42"/>
<path d="M54.8799 20.1602C55.4985 20.1602 55.9999 20.6616 55.9999 21.2802C55.9999 21.8987 55.4985 22.4002 54.8799 22.4002C54.2613 22.4002 53.7599 21.8987 53.7599 21.2802C53.7599 20.6616 54.2613 20.1602 54.8799 20.1602Z" fill="#591B42"/>
<path d="M3.36005 22.3994C3.97863 22.3994 4.48004 22.9009 4.48004 23.5194C4.48004 24.138 3.97863 24.6394 3.36005 24.6394C2.7415 24.6394 2.24005 24.138 2.24005 23.5194C2.24005 22.9009 2.7415 22.3994 3.36005 22.3994Z" fill="#591B42"/>
<path d="M10.08 22.3994C10.6986 22.3994 11.2 22.9009 11.2 23.5194C11.2 24.138 10.6986 24.6394 10.08 24.6394C9.46147 24.6394 8.96002 24.138 8.96002 23.5194C8.96002 22.9009 9.46147 22.3994 10.08 22.3994Z" fill="#591B42"/>
<path d="M12.3201 22.3994C12.9387 22.3994 13.4401 22.9009 13.4401 23.5194C13.4401 24.138 12.9387 24.6394 12.3201 24.6394C11.7015 24.6394 11.2001 24.138 11.2001 23.5194C11.2001 22.9009 11.7015 22.3994 12.3201 22.3994Z" fill="#591B42"/>
<path d="M14.5599 22.3994C15.1785 22.3994 15.6799 22.9009 15.6799 23.5194C15.6799 24.138 15.1785 24.6394 14.5599 24.6394C13.9414 24.6394 13.4399 24.138 13.4399 23.5194C13.4399 22.9009 13.9414 22.3994 14.5599 22.3994Z" fill="#591B42"/>
<path d="M16.8 22.3994C17.4186 22.3994 17.92 22.9009 17.92 23.5194C17.92 24.138 17.4186 24.6394 16.8 24.6394C16.1814 24.6394 15.68 24.138 15.68 23.5194C15.68 22.9009 16.1814 22.3994 16.8 22.3994Z" fill="#591B42"/>
<path d="M25.76 22.3994C26.3785 22.3994 26.8799 22.9009 26.8799 23.5194C26.8799 24.138 26.3785 24.6394 25.76 24.6394C25.1414 24.6394 24.64 24.138 24.64 23.5194C24.64 22.9009 25.1414 22.3994 25.76 22.3994Z" fill="#591B42"/>
<path d="M34.7198 22.3994C35.3384 22.3994 35.8398 22.9009 35.8398 23.5194C35.8398 24.138 35.3384 24.6394 34.7198 24.6394C34.1012 24.6394 33.5998 24.138 33.5998 23.5194C33.5998 22.9009 34.1012 22.3994 34.7198 22.3994Z" fill="#591B42"/>
<path d="M43.6798 22.3994C44.2984 22.3994 44.7998 22.9009 44.7998 23.5194C44.7998 24.138 44.2984 24.6394 43.6798 24.6394C43.0613 24.6394 42.5598 24.138 42.5598 23.5194C42.5598 22.9009 43.0613 22.3994 43.6798 22.3994Z" fill="#591B42"/>
<path d="M45.9199 22.3994C46.5384 22.3994 47.0399 22.9009 47.0399 23.5194C47.0399 24.138 46.5384 24.6394 45.9199 24.6394C45.3013 24.6394 44.7999 24.138 44.7999 23.5194C44.7999 22.9009 45.3013 22.3994 45.9199 22.3994Z" fill="#591B42"/>
<path d="M48.1597 22.3994C48.7783 22.3994 49.2797 22.9009 49.2797 23.5194C49.2797 24.138 48.7783 24.6394 48.1597 24.6394C47.5411 24.6394 47.0397 24.138 47.0397 23.5194C47.0397 22.9009 47.5411 22.3994 48.1597 22.3994Z" fill="#591B42"/>
<path d="M50.3997 22.3994C51.0183 22.3994 51.5197 22.9009 51.5197 23.5194C51.5197 24.138 51.0183 24.6394 50.3997 24.6394C49.7812 24.6394 49.2797 24.138 49.2797 23.5194C49.2797 22.9009 49.7812 22.3994 50.3997 22.3994Z" fill="#591B42"/>
<path d="M54.8798 22.3994C55.4984 22.3994 55.9998 22.9009 55.9998 23.5194C55.9998 24.138 55.4984 24.6394 54.8798 24.6394C54.2613 24.6394 53.7598 24.138 53.7598 23.5194C53.7598 22.9009 54.2613 22.3994 54.8798 22.3994Z" fill="#591B42"/>
<path d="M7.84015 24.6396C8.45873 24.6396 8.96015 25.1411 8.96015 25.7596C8.96015 26.3782 8.45873 26.8796 7.84015 26.8796C7.2216 26.8796 6.72015 26.3782 6.72015 25.7596C6.72015 25.1411 7.2216 24.6396 7.84015 24.6396Z" fill="#591B42"/>
<path d="M10.08 24.6396C10.6986 24.6396 11.2 25.1411 11.2 25.7596C11.2 26.3782 10.6986 26.8796 10.08 26.8796C9.46147 26.8796 8.96002 26.3782 8.96002 25.7596C8.96002 25.1411 9.46147 24.6396 10.08 24.6396Z" fill="#591B42"/>
<path d="M21.2801 24.6396C21.8987 24.6396 22.4001 25.1411 22.4001 25.7596C22.4001 26.3782 21.8987 26.8796 21.2801 26.8796C20.6615 26.8796 20.1601 26.3782 20.1601 25.7596C20.1601 25.1411 20.6615 24.6396 21.2801 24.6396Z" fill="#591B42"/>
<path d="M23.5199 24.6396C24.1385 24.6396 24.6399 25.1411 24.6399 25.7596C24.6399 26.3782 24.1385 26.8796 23.5199 26.8796C22.9013 26.8796 22.3999 26.3782 22.3999 25.7596C22.3999 25.1411 22.9013 24.6396 23.5199 24.6396Z" fill="#591B42"/>
<path d="M25.76 24.6396C26.3785 24.6396 26.8799 25.1411 26.8799 25.7596C26.8799 26.3782 26.3785 26.8796 25.76 26.8796C25.1414 26.8796 24.64 26.3782 24.64 25.7596C24.64 25.1411 25.1414 24.6396 25.76 24.6396Z" fill="#591B42"/>
<path d="M30.2399 24.6396C30.8585 24.6396 31.3599 25.1411 31.3599 25.7596C31.3599 26.3782 30.8585 26.8796 30.2399 26.8796C29.6213 26.8796 29.1199 26.3782 29.1199 25.7596C29.1199 25.1411 29.6213 24.6396 30.2399 24.6396Z" fill="#591B42"/>
<path d="M34.7197 24.6396C35.3383 24.6396 35.8397 25.1411 35.8397 25.7596C35.8397 26.3782 35.3383 26.8796 34.7197 26.8796C34.1012 26.8796 33.5997 26.3782 33.5997 25.7596C33.5997 25.1411 34.1012 24.6396 34.7197 24.6396Z" fill="#591B42"/>
<path d="M39.1999 24.6396C39.8185 24.6396 40.3199 25.1411 40.3199 25.7596C40.3199 26.3782 39.8185 26.8796 39.1999 26.8796C38.5813 26.8796 38.0799 26.3782 38.0799 25.7596C38.0799 25.1411 38.5813 24.6396 39.1999 24.6396Z" fill="#591B42"/>
<path d="M45.9199 24.6396C46.5384 24.6396 47.0399 25.1411 47.0399 25.7596C47.0399 26.3782 46.5384 26.8796 45.9199 26.8796C45.3013 26.8796 44.7999 26.3782 44.7999 25.7596C44.7999 25.1411 45.3013 24.6396 45.9199 24.6396Z" fill="#591B42"/>
<path d="M48.1597 24.6396C48.7783 24.6396 49.2797 25.1411 49.2797 25.7596C49.2797 26.3782 48.7783 26.8796 48.1597 26.8796C47.5411 26.8796 47.0397 26.3782 47.0397 25.7596C47.0397 25.1411 47.5411 24.6396 48.1597 24.6396Z" fill="#591B42"/>
<path d="M3.36005 26.8799C3.97863 26.8799 4.48004 27.3813 4.48004 27.9999C4.48004 28.6185 3.97863 29.1199 3.36005 29.1199C2.7415 29.1199 2.24005 28.6185 2.24005 27.9999C2.24005 27.3813 2.7415 26.8799 3.36005 26.8799Z" fill="#591B42"/>
<path d="M10.08 26.8799C10.6986 26.8799 11.2 27.3813 11.2 27.9999C11.2 28.6185 10.6986 29.1199 10.08 29.1199C9.46147 29.1199 8.96002 28.6185 8.96002 27.9999C8.96002 27.3813 9.46147 26.8799 10.08 26.8799Z" fill="#591B42"/>
<path d="M12.3201 26.8799C12.9387 26.8799 13.4401 27.3813 13.4401 27.9999C13.4401 28.6185 12.9387 29.1199 12.3201 29.1199C11.7015 29.1199 11.2001 28.6185 11.2001 27.9999C11.2001 27.3813 11.7015 26.8799 12.3201 26.8799Z" fill="#591B42"/>
<path d="M14.56 26.8799C15.1786 26.8799 15.68 27.3813 15.68 27.9999C15.68 28.6185 15.1786 29.1199 14.56 29.1199C13.9414 29.1199 13.44 28.6185 13.44 27.9999C13.44 27.3813 13.9414 26.8799 14.56 26.8799Z" fill="#591B42"/>
<path d="M19.0399 26.8799C19.6584 26.8799 20.1599 27.3813 20.1599 27.9999C20.1599 28.6185 19.6584 29.1199 19.0399 29.1199C18.4213 29.1199 17.9199 28.6185 17.9199 27.9999C17.9199 27.3813 18.4213 26.8799 19.0399 26.8799Z" fill="#591B42"/>
<path d="M25.76 26.8799C26.3785 26.8799 26.8799 27.3813 26.8799 27.9999C26.8799 28.6185 26.3785 29.1199 25.76 29.1199C25.1414 29.1199 24.64 28.6185 24.64 27.9999C24.64 27.3813 25.1414 26.8799 25.76 26.8799Z" fill="#591B42"/>
<path d="M27.9999 26.8799C28.6185 26.8799 29.1199 27.3813 29.1199 27.9999C29.1199 28.6185 28.6185 29.1199 27.9999 29.1199C27.3813 29.1199 26.8799 28.6185 26.8799 27.9999C26.8799 27.3813 27.3813 26.8799 27.9999 26.8799Z" fill="#591B42"/>
<path d="M30.2398 26.8799C30.8584 26.8799 31.3598 27.3813 31.3598 27.9999C31.3598 28.6185 30.8584 29.1199 30.2398 29.1199C29.6213 29.1199 29.1198 28.6185 29.1198 27.9999C29.1198 27.3813 29.6213 26.8799 30.2398 26.8799Z" fill="#591B42"/>
<path d="M34.7198 26.8799C35.3384 26.8799 35.8398 27.3813 35.8398 27.9999C35.8398 28.6185 35.3384 29.1199 34.7198 29.1199C34.1012 29.1199 33.5998 28.6185 33.5998 27.9999C33.5998 27.3813 34.1012 26.8799 34.7198 26.8799Z" fill="#591B42"/>
<path d="M41.44 26.8799C42.0586 26.8799 42.56 27.3813 42.56 27.9999C42.56 28.6185 42.0586 29.1199 41.44 29.1199C40.8215 29.1199 40.32 28.6185 40.32 27.9999C40.32 27.3813 40.8215 26.8799 41.44 26.8799Z" fill="#591B42"/>
<path d="M54.8799 26.8799C55.4985 26.8799 55.9999 27.3813 55.9999 27.9999C55.9999 28.6185 55.4985 29.1199 54.8799 29.1199C54.2613 29.1199 53.7599 28.6185 53.7599 27.9999C53.7599 27.3813 54.2613 26.8799 54.8799 26.8799Z" fill="#591B42"/>
<path d="M5.6001 29.1201C6.21868 29.1201 6.7201 29.6216 6.7201 30.2401C6.7201 30.8587 6.21868 31.3601 5.6001 31.3601C4.98155 31.3601 4.4801 30.8587 4.4801 30.2401C4.4801 29.6216 4.98155 29.1201 5.6001 29.1201Z" fill="#591B42"/>
<path d="M7.84015 29.1201C8.45873 29.1201 8.96015 29.6216 8.96015 30.2401C8.96015 30.8587 8.45873 31.3601 7.84015 31.3601C7.2216 31.3601 6.72015 30.8587 6.72015 30.2401C6.72015 29.6216 7.2216 29.1201 7.84015 29.1201Z" fill="#591B42"/>
<path d="M10.08 29.1201C10.6986 29.1201 11.2 29.6216 11.2 30.2401C11.2 30.8587 10.6986 31.3601 10.08 31.3601C9.46147 31.3601 8.96002 30.8587 8.96002 30.2401C8.96002 29.6216 9.46147 29.1201 10.08 29.1201Z" fill="#591B42"/>
<path d="M16.8 29.1201C17.4186 29.1201 17.92 29.6216 17.92 30.2401C17.92 30.8587 17.4186 31.3601 16.8 31.3601C16.1814 31.3601 15.68 30.8587 15.68 30.2401C15.68 29.6216 16.1814 29.1201 16.8 29.1201Z" fill="#591B42"/>
<path d="M19.0399 29.1201C19.6584 29.1201 20.1599 29.6216 20.1599 30.2401C20.1599 30.8587 19.6584 31.3601 19.0399 31.3601C18.4213 31.3601 17.9199 30.8587 17.9199 30.2401C17.9199 29.6216 18.4213 29.1201 19.0399 29.1201Z" fill="#591B42"/>
<path d="M21.2801 29.1201C21.8987 29.1201 22.4001 29.6216 22.4001 30.2401C22.4001 30.8587 21.8987 31.3601 21.2801 31.3601C20.6615 31.3601 20.1601 30.8587 20.1601 30.2401C20.1601 29.6216 20.6615 29.1201 21.2801 29.1201Z" fill="#591B42"/>
<path d="M23.5199 29.1201C24.1385 29.1201 24.6399 29.6216 24.6399 30.2401C24.6399 30.8587 24.1385 31.3601 23.5199 31.3601C22.9013 31.3601 22.3999 30.8587 22.3999 30.2401C22.3999 29.6216 22.9013 29.1201 23.5199 29.1201Z" fill="#591B42"/>
<path d="M27.9998 29.1201C28.6184 29.1201 29.1198 29.6216 29.1198 30.2401C29.1198 30.8587 28.6184 31.3601 27.9998 31.3601C27.3813 31.3601 26.8798 30.8587 26.8798 30.2401C26.8798 29.6216 27.3813 29.1201 27.9998 29.1201Z" fill="#591B42"/>
<path d="M34.7198 29.1201C35.3384 29.1201 35.8398 29.6216 35.8398 30.2401C35.8398 30.8587 35.3384 31.3601 34.7198 31.3601C34.1012 31.3601 33.5998 30.8587 33.5998 30.2401C33.5998 29.6216 34.1012 29.1201 34.7198 29.1201Z" fill="#591B42"/>
<path d="M36.9598 29.1201C37.5784 29.1201 38.0798 29.6216 38.0798 30.2401C38.0798 30.8587 37.5784 31.3601 36.9598 31.3601C36.3413 31.3601 35.8398 30.8587 35.8398 30.2401C35.8398 29.6216 36.3413 29.1201 36.9598 29.1201Z" fill="#591B42"/>
<path d="M41.4399 29.1201C42.0585 29.1201 42.5599 29.6216 42.5599 30.2401C42.5599 30.8587 42.0585 31.3601 41.4399 31.3601C40.8214 31.3601 40.3199 30.8587 40.3199 30.2401C40.3199 29.6216 40.8214 29.1201 41.4399 29.1201Z" fill="#591B42"/>
<path d="M52.6398 29.1201C53.2584 29.1201 53.7598 29.6216 53.7598 30.2401C53.7598 30.8587 53.2584 31.3601 52.6398 31.3601C52.0212 31.3601 51.5198 30.8587 51.5198 30.2401C51.5198 29.6216 52.0212 29.1201 52.6398 29.1201Z" fill="#591B42"/>
<path d="M54.8799 29.1201C55.4985 29.1201 55.9999 29.6216 55.9999 30.2401C55.9999 30.8587 55.4985 31.3601 54.8799 31.3601C54.2613 31.3601 53.7599 30.8587 53.7599 30.2401C53.7599 29.6216 54.2613 29.1201 54.8799 29.1201Z" fill="#591B42"/>
<path d="M1.12 31.3594C1.73858 31.3594 2.23999 31.8608 2.23999 32.4794C2.23999 33.098 1.73858 33.5994 1.12 33.5994C0.501445 33.5994 0 33.098 0 32.4794C0 31.8608 0.501445 31.3594 1.12 31.3594Z" fill="#591B42"/>
<path d="M3.36005 31.3594C3.97863 31.3594 4.48004 31.8608 4.48004 32.4794C4.48004 33.098 3.97863 33.5994 3.36005 33.5994C2.7415 33.5994 2.24005 33.098 2.24005 32.4794C2.24005 31.8608 2.7415 31.3594 3.36005 31.3594Z" fill="#591B42"/>
<path d="M7.84015 31.3594C8.45873 31.3594 8.96015 31.8608 8.96015 32.4794C8.96015 33.098 8.45873 33.5994 7.84015 33.5994C7.2216 33.5994 6.72015 33.098 6.72015 32.4794C6.72015 31.8608 7.2216 31.3594 7.84015 31.3594Z" fill="#591B42"/>
<path d="M12.3201 31.3594C12.9387 31.3594 13.4401 31.8608 13.4401 32.4794C13.4401 33.098 12.9387 33.5994 12.3201 33.5994C11.7015 33.5994 11.2001 33.098 11.2001 32.4794C11.2001 31.8608 11.7015 31.3594 12.3201 31.3594Z" fill="#591B42"/>
<path d="M14.5599 31.3594C15.1785 31.3594 15.6799 31.8608 15.6799 32.4794C15.6799 33.098 15.1785 33.5994 14.5599 33.5994C13.9414 33.5994 13.4399 33.098 13.4399 32.4794C13.4399 31.8608 13.9414 31.3594 14.5599 31.3594Z" fill="#591B42"/>
<path d="M23.5199 31.3594C24.1385 31.3594 24.6399 31.8608 24.6399 32.4794C24.6399 33.098 24.1385 33.5994 23.5199 33.5994C22.9013 33.5994 22.3999 33.098 22.3999 32.4794C22.3999 31.8608 22.9013 31.3594 23.5199 31.3594Z" fill="#591B42"/>
<path d="M27.9998 31.3594C28.6184 31.3594 29.1198 31.8608 29.1198 32.4794C29.1198 33.098 28.6184 33.5994 27.9998 33.5994C27.3813 33.5994 26.8798 33.098 26.8798 32.4794C26.8798 31.8608 27.3813 31.3594 27.9998 31.3594Z" fill="#591B42"/>
<path d="M30.2399 31.3594C30.8585 31.3594 31.3599 31.8608 31.3599 32.4794C31.3599 33.098 30.8585 33.5994 30.2399 33.5994C29.6213 33.5994 29.1199 33.098 29.1199 32.4794C29.1199 31.8608 29.6213 31.3594 30.2399 31.3594Z" fill="#591B42"/>
<path d="M32.4799 31.3594C33.0984 31.3594 33.5999 31.8608 33.5999 32.4794C33.5999 33.098 33.0984 33.5994 32.4799 33.5994C31.8613 33.5994 31.3599 33.098 31.3599 32.4794C31.3599 31.8608 31.8613 31.3594 32.4799 31.3594Z" fill="#591B42"/>
<path d="M34.7198 31.3594C35.3384 31.3594 35.8398 31.8608 35.8398 32.4794C35.8398 33.098 35.3384 33.5994 34.7198 33.5994C34.1013 33.5994 33.5999 33.098 33.5999 32.4794C33.5999 31.8608 34.1013 31.3594 34.7198 31.3594Z" fill="#591B42"/>
<path d="M36.9598 31.3594C37.5784 31.3594 38.0798 31.8608 38.0798 32.4794C38.0798 33.098 37.5784 33.5994 36.9598 33.5994C36.3413 33.5994 35.8398 33.098 35.8398 32.4794C35.8398 31.8608 36.3413 31.3594 36.9598 31.3594Z" fill="#591B42"/>
<path d="M39.1999 31.3594C39.8185 31.3594 40.3199 31.8608 40.3199 32.4794C40.3199 33.098 39.8185 33.5994 39.1999 33.5994C38.5813 33.5994 38.0799 33.098 38.0799 32.4794C38.0799 31.8608 38.5813 31.3594 39.1999 31.3594Z" fill="#591B42"/>
<path d="M41.4399 31.3594C42.0585 31.3594 42.5599 31.8608 42.5599 32.4794C42.5599 33.098 42.0585 33.5994 41.4399 33.5994C40.8214 33.5994 40.3199 33.098 40.3199 32.4794C40.3199 31.8608 40.8214 31.3594 41.4399 31.3594Z" fill="#591B42"/>
<path d="M48.1597 31.3594C48.7783 31.3594 49.2797 31.8608 49.2797 32.4794C49.2797 33.098 48.7783 33.5994 48.1597 33.5994C47.5411 33.5994 47.0397 33.098 47.0397 32.4794C47.0397 31.8608 47.5411 31.3594 48.1597 31.3594Z" fill="#591B42"/>
<path d="M50.3997 31.3594C51.0183 31.3594 51.5197 31.8608 51.5197 32.4794C51.5197 33.098 51.0183 33.5994 50.3997 33.5994C49.7812 33.5994 49.2797 33.098 49.2797 32.4794C49.2797 31.8608 49.7812 31.3594 50.3997 31.3594Z" fill="#591B42"/>
<path d="M54.8799 31.3594C55.4985 31.3594 55.9999 31.8608 55.9999 32.4794C55.9999 33.098 55.4985 33.5994 54.8799 33.5994C54.2613 33.5994 53.7599 33.098 53.7599 32.4794C53.7599 31.8608 54.2613 31.3594 54.8799 31.3594Z" fill="#591B42"/>
<path d="M5.6001 33.5996C6.21868 33.5996 6.7201 34.1011 6.7201 34.7196C6.7201 35.3382 6.21868 35.8396 5.6001 35.8396C4.98155 35.8396 4.4801 35.3382 4.4801 34.7196C4.4801 34.1011 4.98155 33.5996 5.6001 33.5996Z" fill="#591B42"/>
<path d="M10.08 33.5996C10.6986 33.5996 11.2 34.1011 11.2 34.7196C11.2 35.3382 10.6986 35.8396 10.08 35.8396C9.46147 35.8396 8.96002 35.3382 8.96002 34.7196C8.96002 34.1011 9.46147 33.5996 10.08 33.5996Z" fill="#591B42"/>
<path d="M16.8 33.5996C17.4186 33.5996 17.92 34.1011 17.92 34.7196C17.92 35.3382 17.4186 35.8396 16.8 35.8396C16.1814 35.8396 15.68 35.3382 15.68 34.7196C15.68 34.1011 16.1814 33.5996 16.8 33.5996Z" fill="#591B42"/>
<path d="M19.0399 33.5996C19.6584 33.5996 20.1599 34.1011 20.1599 34.7196C20.1599 35.3382 19.6584 35.8396 19.0399 35.8396C18.4213 35.8396 17.9199 35.3382 17.9199 34.7196C17.9199 34.1011 18.4213 33.5996 19.0399 33.5996Z" fill="#591B42"/>
<path d="M25.76 33.5996C26.3785 33.5996 26.8799 34.1011 26.8799 34.7196C26.8799 35.3382 26.3785 35.8396 25.76 35.8396C25.1414 35.8396 24.64 35.3382 24.64 34.7196C24.64 34.1011 25.1414 33.5996 25.76 33.5996Z" fill="#591B42"/>
<path d="M27.9998 33.5996C28.6184 33.5996 29.1198 34.1011 29.1198 34.7196C29.1198 35.3382 28.6184 35.8396 27.9998 35.8396C27.3813 35.8396 26.8798 35.3382 26.8798 34.7196C26.8798 34.1011 27.3813 33.5996 27.9998 33.5996Z" fill="#591B42"/>
<path d="M32.4799 33.5996C33.0985 33.5996 33.5999 34.1011 33.5999 34.7196C33.5999 35.3382 33.0985 35.8396 32.4799 35.8396C31.8614 35.8396 31.3599 35.3382 31.3599 34.7196C31.3599 34.1011 31.8614 33.5996 32.4799 33.5996Z" fill="#591B42"/>
<path d="M34.7198 33.5996C35.3384 33.5996 35.8398 34.1011 35.8398 34.7196C35.8398 35.3382 35.3384 35.8396 34.7198 35.8396C34.1012 35.8396 33.5998 35.3382 33.5998 34.7196C33.5998 34.1011 34.1012 33.5996 34.7198 33.5996Z" fill="#591B42"/>
<path d="M36.9599 33.5996C37.5785 33.5996 38.0799 34.1011 38.0799 34.7196C38.0799 35.3382 37.5785 35.8396 36.9599 35.8396C36.3413 35.8396 35.8399 35.3382 35.8399 34.7196C35.8399 34.1011 36.3413 33.5996 36.9599 33.5996Z" fill="#591B42"/>
<path d="M39.1999 33.5996C39.8185 33.5996 40.3199 34.1011 40.3199 34.7196C40.3199 35.3382 39.8185 35.8396 39.1999 35.8396C38.5813 35.8396 38.0799 35.3382 38.0799 34.7196C38.0799 34.1011 38.5813 33.5996 39.1999 33.5996Z" fill="#591B42"/>
<path d="M43.6798 33.5996C44.2984 33.5996 44.7998 34.1011 44.7998 34.7196C44.7998 35.3382 44.2984 35.8396 43.6798 35.8396C43.0613 35.8396 42.5598 35.3382 42.5598 34.7196C42.5598 34.1011 43.0613 33.5996 43.6798 33.5996Z" fill="#591B42"/>
<path d="M45.9199 33.5996C46.5384 33.5996 47.0399 34.1011 47.0399 34.7196C47.0399 35.3382 46.5384 35.8396 45.9199 35.8396C45.3013 35.8396 44.7999 35.3382 44.7999 34.7196C44.7999 34.1011 45.3013 33.5996 45.9199 33.5996Z" fill="#591B42"/>
<path d="M48.1597 33.5996C48.7783 33.5996 49.2797 34.1011 49.2797 34.7196C49.2797 35.3382 48.7783 35.8396 48.1597 35.8396C47.5411 35.8396 47.0397 35.3382 47.0397 34.7196C47.0397 34.1011 47.5411 33.5996 48.1597 33.5996Z" fill="#591B42"/>
<path d="M1.12 35.8389C1.73858 35.8389 2.23999 36.3403 2.23999 36.9589C2.23999 37.5774 1.73858 38.0789 1.12 38.0789C0.501445 38.0789 0 37.5774 0 36.9589C0 36.3403 0.501445 35.8389 1.12 35.8389Z" fill="#591B42"/>
<path d="M3.36005 35.8389C3.97863 35.8389 4.48004 36.3403 4.48004 36.9589C4.48004 37.5774 3.97863 38.0789 3.36005 38.0789C2.7415 38.0789 2.24005 37.5774 2.24005 36.9589C2.24005 36.3403 2.7415 35.8389 3.36005 35.8389Z" fill="#591B42"/>
<path d="M5.6001 35.8389C6.21868 35.8389 6.7201 36.3403 6.7201 36.9589C6.7201 37.5774 6.21868 38.0789 5.6001 38.0789C4.98155 38.0789 4.4801 37.5774 4.4801 36.9589C4.4801 36.3403 4.98155 35.8389 5.6001 35.8389Z" fill="#591B42"/>
<path d="M7.84015 35.8389C8.45873 35.8389 8.96015 36.3403 8.96015 36.9589C8.96015 37.5774 8.45873 38.0789 7.84015 38.0789C7.2216 38.0789 6.72015 37.5774 6.72015 36.9589C6.72015 36.3403 7.2216 35.8389 7.84015 35.8389Z" fill="#591B42"/>
<path d="M10.08 35.8389C10.6986 35.8389 11.2 36.3403 11.2 36.9589C11.2 37.5774 10.6986 38.0789 10.08 38.0789C9.46147 38.0789 8.96002 37.5774 8.96002 36.9589C8.96002 36.3403 9.46147 35.8389 10.08 35.8389Z" fill="#591B42"/>
<path d="M14.5599 35.8389C15.1785 35.8389 15.6799 36.3403 15.6799 36.9589C15.6799 37.5774 15.1785 38.0789 14.5599 38.0789C13.9414 38.0789 13.4399 37.5774 13.4399 36.9589C13.4399 36.3403 13.9414 35.8389 14.5599 35.8389Z" fill="#591B42"/>
<path d="M23.5199 35.8389C24.1385 35.8389 24.6399 36.3403 24.6399 36.9589C24.6399 37.5774 24.1385 38.0789 23.5199 38.0789C22.9013 38.0789 22.3999 37.5774 22.3999 36.9589C22.3999 36.3403 22.9013 35.8389 23.5199 35.8389Z" fill="#591B42"/>
<path d="M30.2399 35.8389C30.8585 35.8389 31.3599 36.3403 31.3599 36.9589C31.3599 37.5774 30.8585 38.0789 30.2399 38.0789C29.6213 38.0789 29.1199 37.5774 29.1199 36.9589C29.1199 36.3403 29.6213 35.8389 30.2399 35.8389Z" fill="#591B42"/>
<path d="M32.4799 35.8389C33.0985 35.8389 33.5999 36.3403 33.5999 36.9589C33.5999 37.5774 33.0985 38.0789 32.4799 38.0789C31.8614 38.0789 31.3599 37.5774 31.3599 36.9589C31.3599 36.3403 31.8614 35.8389 32.4799 35.8389Z" fill="#591B42"/>
<path d="M36.9598 35.8389C37.5784 35.8389 38.0798 36.3403 38.0798 36.9589C38.0798 37.5774 37.5784 38.0789 36.9598 38.0789C36.3413 38.0789 35.8398 37.5774 35.8398 36.9589C35.8398 36.3403 36.3413 35.8389 36.9598 35.8389Z" fill="#591B42"/>
<path d="M39.1999 35.8389C39.8185 35.8389 40.3199 36.3403 40.3199 36.9589C40.3199 37.5774 39.8185 38.0789 39.1999 38.0789C38.5813 38.0789 38.0799 37.5774 38.0799 36.9589C38.0799 36.3403 38.5813 35.8389 39.1999 35.8389Z" fill="#591B42"/>
<path d="M41.44 35.8389C42.0586 35.8389 42.56 36.3403 42.56 36.9589C42.56 37.5774 42.0586 38.0789 41.44 38.0789C40.8215 38.0789 40.32 37.5774 40.32 36.9589C40.32 36.3403 40.8215 35.8389 41.44 35.8389Z" fill="#591B42"/>
<path d="M43.6797 35.8389C44.2983 35.8389 44.7997 36.3403 44.7997 36.9589C44.7997 37.5774 44.2983 38.0789 43.6797 38.0789C43.0612 38.0789 42.5598 37.5774 42.5598 36.9589C42.5598 36.3403 43.0612 35.8389 43.6797 35.8389Z" fill="#591B42"/>
<path d="M45.9199 35.8389C46.5384 35.8389 47.0399 36.3403 47.0399 36.9589C47.0399 37.5774 46.5384 38.0789 45.9199 38.0789C45.3013 38.0789 44.7999 37.5774 44.7999 36.9589C44.7999 36.3403 45.3013 35.8389 45.9199 35.8389Z" fill="#591B42"/>
<path d="M52.6398 35.8389C53.2584 35.8389 53.7598 36.3403 53.7598 36.9589C53.7598 37.5774 53.2584 38.0789 52.6398 38.0789C52.0212 38.0789 51.5198 37.5774 51.5198 36.9589C51.5198 36.3403 52.0212 35.8389 52.6398 35.8389Z" fill="#591B42"/>
<path d="M19.0399 38.0801C19.6584 38.0801 20.1599 38.5815 20.1599 39.2001C20.1599 39.8187 19.6584 40.3201 19.0399 40.3201C18.4213 40.3201 17.9199 39.8187 17.9199 39.2001C17.9199 38.5815 18.4213 38.0801 19.0399 38.0801Z" fill="#591B42"/>
<path d="M21.2801 38.0801C21.8987 38.0801 22.4001 38.5815 22.4001 39.2001C22.4001 39.8187 21.8987 40.3201 21.2801 40.3201C20.6615 40.3201 20.1601 39.8187 20.1601 39.2001C20.1601 38.5815 20.6615 38.0801 21.2801 38.0801Z" fill="#591B42"/>
<path d="M23.5199 38.0801C24.1385 38.0801 24.6399 38.5815 24.6399 39.2001C24.6399 39.8187 24.1385 40.3201 23.5199 40.3201C22.9013 40.3201 22.3999 39.8187 22.3999 39.2001C22.3999 38.5815 22.9013 38.0801 23.5199 38.0801Z" fill="#591B42"/>
<path d="M30.2398 38.0801C30.8584 38.0801 31.3598 38.5815 31.3598 39.2001C31.3598 39.8187 30.8584 40.3201 30.2398 40.3201C29.6213 40.3201 29.1198 39.8187 29.1198 39.2001C29.1198 38.5815 29.6213 38.0801 30.2398 38.0801Z" fill="#591B42"/>
<path d="M32.4799 38.0801C33.0985 38.0801 33.5999 38.5815 33.5999 39.2001C33.5999 39.8187 33.0985 40.3201 32.4799 40.3201C31.8614 40.3201 31.3599 39.8187 31.3599 39.2001C31.3599 38.5815 31.8614 38.0801 32.4799 38.0801Z" fill="#591B42"/>
<path d="M36.9598 38.0801C37.5784 38.0801 38.0798 38.5815 38.0798 39.2001C38.0798 39.8187 37.5784 40.3201 36.9598 40.3201C36.3413 40.3201 35.8398 39.8187 35.8398 39.2001C35.8398 38.5815 36.3413 38.0801 36.9598 38.0801Z" fill="#591B42"/>
<path d="M45.9199 38.0801C46.5384 38.0801 47.0399 38.5815 47.0399 39.2001C47.0399 39.8187 46.5384 40.3201 45.9199 40.3201C45.3013 40.3201 44.7999 39.8187 44.7999 39.2001C44.7999 38.5815 45.3013 38.0801 45.9199 38.0801Z" fill="#591B42"/>
<path d="M54.8799 38.0801C55.4985 38.0801 55.9999 38.5815 55.9999 39.2001C55.9999 39.8187 55.4985 40.3201 54.8799 40.3201C54.2613 40.3201 53.7599 39.8187 53.7599 39.2001C53.7599 38.5815 54.2613 38.0801 54.8799 38.0801Z" fill="#591B42"/>
<path d="M19.0398 40.3203C19.6584 40.3203 20.1598 40.8218 20.1598 41.4403C20.1598 42.0589 19.6584 42.5603 19.0398 42.5603C18.4212 42.5603 17.9198 42.0589 17.9198 41.4403C17.9198 40.8218 18.4212 40.3203 19.0398 40.3203Z" fill="#591B42"/>
<path d="M21.2801 40.3203C21.8987 40.3203 22.4001 40.8218 22.4001 41.4403C22.4001 42.0589 21.8987 42.5603 21.2801 42.5603C20.6615 42.5603 20.1601 42.0589 20.1601 41.4403C20.1601 40.8218 20.6615 40.3203 21.2801 40.3203Z" fill="#591B42"/>
<path d="M23.5199 40.3203C24.1385 40.3203 24.6399 40.8218 24.6399 41.4403C24.6399 42.0589 24.1385 42.5603 23.5199 42.5603C22.9013 42.5603 22.3999 42.0589 22.3999 41.4403C22.3999 40.8218 22.9013 40.3203 23.5199 40.3203Z" fill="#591B42"/>
<path d="M25.76 40.3203C26.3785 40.3203 26.8799 40.8218 26.8799 41.4403C26.8799 42.0589 26.3785 42.5603 25.76 42.5603C25.1414 42.5603 24.64 42.0589 24.64 41.4403C24.64 40.8218 25.1414 40.3203 25.76 40.3203Z" fill="#591B42"/>
<path d="M36.9598 40.3203C37.5784 40.3203 38.0798 40.8218 38.0798 41.4403C38.0798 42.0589 37.5784 42.5603 36.9598 42.5603C36.3413 42.5603 35.8398 42.0589 35.8398 41.4403C35.8398 40.8218 36.3413 40.3203 36.9598 40.3203Z" fill="#591B42"/>
<path d="M41.4399 40.3203C42.0585 40.3203 42.5599 40.8218 42.5599 41.4403C42.5599 42.0589 42.0585 42.5603 41.4399 42.5603C40.8214 42.5603 40.3199 42.0589 40.3199 41.4403C40.3199 40.8218 40.8214 40.3203 41.4399 40.3203Z" fill="#591B42"/>
<path d="M45.9199 40.3203C46.5384 40.3203 47.0399 40.8218 47.0399 41.4403C47.0399 42.0589 46.5384 42.5603 45.9199 42.5603C45.3013 42.5603 44.7999 42.0589 44.7999 41.4403C44.7999 40.8218 45.3013 40.3203 45.9199 40.3203Z" fill="#591B42"/>
<path d="M54.8799 40.3203C55.4985 40.3203 55.9999 40.8218 55.9999 41.4403C55.9999 42.0589 55.4985 42.5603 54.8799 42.5603C54.2613 42.5603 53.7599 42.0589 53.7599 41.4403C53.7599 40.8218 54.2613 40.3203 54.8799 40.3203Z" fill="#591B42"/>
<path d="M30.2398 42.5596C30.8584 42.5596 31.3598 43.061 31.3598 43.6796C31.3598 44.2982 30.8584 44.7996 30.2398 44.7996C29.6213 44.7996 29.1198 44.2982 29.1198 43.6796C29.1198 43.061 29.6213 42.5596 30.2398 42.5596Z" fill="#591B42"/>
<path d="M34.7198 42.5596C35.3384 42.5596 35.8398 43.061 35.8398 43.6796C35.8398 44.2982 35.3384 44.7996 34.7198 44.7996C34.1012 44.7996 33.5998 44.2982 33.5998 43.6796C33.5998 43.061 34.1012 42.5596 34.7198 42.5596Z" fill="#591B42"/>
<path d="M36.9598 42.5596C37.5784 42.5596 38.0798 43.061 38.0798 43.6796C38.0798 44.2982 37.5784 44.7996 36.9598 44.7996C36.3413 44.7996 35.8398 44.2982 35.8398 43.6796C35.8398 43.061 36.3413 42.5596 36.9598 42.5596Z" fill="#591B42"/>
<path d="M45.9199 42.5596C46.5384 42.5596 47.0399 43.061 47.0399 43.6796C47.0399 44.2982 46.5384 44.7996 45.9199 44.7996C45.3013 44.7996 44.7999 44.2982 44.7999 43.6796C44.7999 43.061 45.3013 42.5596 45.9199 42.5596Z" fill="#591B42"/>
<path d="M52.6398 42.5596C53.2584 42.5596 53.7598 43.061 53.7598 43.6796C53.7598 44.2982 53.2584 44.7996 52.6398 44.7996C52.0212 44.7996 51.5198 44.2982 51.5198 43.6796C51.5198 43.061 52.0212 42.5596 52.6398 42.5596Z" fill="#591B42"/>
<path d="M54.8799 42.5596C55.4985 42.5596 55.9999 43.061 55.9999 43.6796C55.9999 44.2982 55.4985 44.7996 54.8799 44.7996C54.2613 44.7996 53.7599 44.2982 53.7599 43.6796C53.7599 43.061 54.2613 42.5596 54.8799 42.5596Z" fill="#591B42"/>
<path d="M25.76 44.7998C26.3785 44.7998 26.8799 45.3012 26.8799 45.9198C26.8799 46.5384 26.3785 47.0398 25.76 47.0398C25.1414 47.0398 24.64 46.5384 24.64 45.9198C24.64 45.3012 25.1414 44.7998 25.76 44.7998Z" fill="#591B42"/>
<path d="M27.9998 44.7998C28.6184 44.7998 29.1198 45.3012 29.1198 45.9198C29.1198 46.5384 28.6184 47.0398 27.9998 47.0398C27.3813 47.0398 26.8798 46.5384 26.8798 45.9198C26.8798 45.3012 27.3813 44.7998 27.9998 44.7998Z" fill="#591B42"/>
<path d="M30.2398 44.7998C30.8584 44.7998 31.3598 45.3012 31.3598 45.9198C31.3598 46.5384 30.8584 47.0398 30.2398 47.0398C29.6213 47.0398 29.1198 46.5384 29.1198 45.9198C29.1198 45.3012 29.6213 44.7998 30.2398 44.7998Z" fill="#591B42"/>
<path d="M34.7198 44.7998C35.3384 44.7998 35.8398 45.3012 35.8398 45.9198C35.8398 46.5384 35.3384 47.0398 34.7198 47.0398C34.1012 47.0398 33.5998 46.5384 33.5998 45.9198C33.5998 45.3012 34.1012 44.7998 34.7198 44.7998Z" fill="#591B42"/>
<path d="M36.9598 44.7998C37.5784 44.7998 38.0798 45.3012 38.0798 45.9198C38.0798 46.5384 37.5784 47.0398 36.9598 47.0398C36.3413 47.0398 35.8398 46.5384 35.8398 45.9198C35.8398 45.3012 36.3413 44.7998 36.9598 44.7998Z" fill="#591B42"/>
<path d="M39.2 44.7998C39.8186 44.7998 40.32 45.3012 40.32 45.9198C40.32 46.5384 39.8186 47.0398 39.2 47.0398C38.5815 47.0398 38.08 46.5384 38.08 45.9198C38.08 45.3012 38.5815 44.7998 39.2 44.7998Z" fill="#591B42"/>
<path d="M41.4399 44.7998C42.0585 44.7998 42.5599 45.3012 42.5599 45.9198C42.5599 46.5384 42.0585 47.0398 41.4399 47.0398C40.8214 47.0398 40.3199 46.5384 40.3199 45.9198C40.3199 45.3012 40.8214 44.7998 41.4399 44.7998Z" fill="#591B42"/>
<path d="M43.6798 44.7998C44.2984 44.7998 44.7998 45.3012 44.7998 45.9198C44.7998 46.5384 44.2984 47.0398 43.6798 47.0398C43.0613 47.0398 42.5598 46.5384 42.5598 45.9198C42.5598 45.3012 43.0613 44.7998 43.6798 44.7998Z" fill="#591B42"/>
<path d="M45.9199 44.7998C46.5384 44.7998 47.0399 45.3012 47.0399 45.9198C47.0399 46.5384 46.5384 47.0398 45.9199 47.0398C45.3013 47.0398 44.7999 46.5384 44.7999 45.9198C44.7999 45.3012 45.3013 44.7998 45.9199 44.7998Z" fill="#591B42"/>
<path d="M52.6398 44.7998C53.2584 44.7998 53.7598 45.3012 53.7598 45.9198C53.7598 46.5384 53.2584 47.0398 52.6398 47.0398C52.0212 47.0398 51.5198 46.5384 51.5198 45.9198C51.5198 45.3012 52.0212 44.7998 52.6398 44.7998Z" fill="#591B42"/>
<path d="M54.8799 44.7998C55.4985 44.7998 55.9999 45.3012 55.9999 45.9198C55.9999 46.5384 55.4985 47.0398 54.8799 47.0398C54.2613 47.0398 53.7599 46.5384 53.7599 45.9198C53.7599 45.3012 54.2613 44.7998 54.8799 44.7998Z" fill="#591B42"/>
<path d="M23.52 47.04C24.1385 47.04 24.64 47.5415 24.64 48.16C24.64 48.7786 24.1385 49.28 23.52 49.28C22.9014 49.28 22.4 48.7786 22.4 48.16C22.4 47.5415 22.9014 47.04 23.52 47.04Z" fill="#591B42"/>
<path d="M27.9998 47.04C28.6184 47.04 29.1198 47.5415 29.1198 48.16C29.1198 48.7786 28.6184 49.28 27.9998 49.28C27.3813 49.28 26.8798 48.7786 26.8798 48.16C26.8798 47.5415 27.3813 47.04 27.9998 47.04Z" fill="#591B42"/>
<path d="M34.7198 47.04C35.3384 47.04 35.8398 47.5415 35.8398 48.16C35.8398 48.7786 35.3384 49.28 34.7198 49.28C34.1012 49.28 33.5998 48.7786 33.5998 48.16C33.5998 47.5415 34.1012 47.04 34.7198 47.04Z" fill="#591B42"/>
<path d="M36.9599 47.04C37.5785 47.04 38.0799 47.5415 38.0799 48.16C38.0799 48.7786 37.5785 49.28 36.9599 49.28C36.3413 49.28 35.8399 48.7786 35.8399 48.16C35.8399 47.5415 36.3413 47.04 36.9599 47.04Z" fill="#591B42"/>
<path d="M39.1999 47.04C39.8185 47.04 40.3199 47.5415 40.3199 48.16C40.3199 48.7786 39.8185 49.28 39.1999 49.28C38.5813 49.28 38.0799 48.7786 38.0799 48.16C38.0799 47.5415 38.5813 47.04 39.1999 47.04Z" fill="#591B42"/>
<path d="M45.9199 47.04C46.5385 47.04 47.0399 47.5415 47.0399 48.16C47.0399 48.7786 46.5385 49.28 45.9199 49.28C45.3014 49.28 44.7999 48.7786 44.7999 48.16C44.7999 47.5415 45.3014 47.04 45.9199 47.04Z" fill="#591B42"/>
<path d="M50.3997 47.04C51.0183 47.04 51.5197 47.5415 51.5197 48.16C51.5197 48.7786 51.0183 49.28 50.3997 49.28C49.7812 49.28 49.2797 48.7786 49.2797 48.16C49.2797 47.5415 49.7812 47.04 50.3997 47.04Z" fill="#591B42"/>
<path d="M52.6398 47.04C53.2584 47.04 53.7598 47.5415 53.7598 48.16C53.7598 48.7786 53.2584 49.28 52.6398 49.28C52.0212 49.28 51.5198 48.7786 51.5198 48.16C51.5198 47.5415 52.0212 47.04 52.6398 47.04Z" fill="#591B42"/>
<path d="M19.0399 49.2803C19.6584 49.2803 20.1599 49.7817 20.1599 50.4003C20.1599 51.0189 19.6584 51.5203 19.0399 51.5203C18.4213 51.5203 17.9199 51.0189 17.9199 50.4003C17.9199 49.7817 18.4213 49.2803 19.0399 49.2803Z" fill="#591B42"/>
<path d="M21.2801 49.2803C21.8987 49.2803 22.4001 49.7817 22.4001 50.4003C22.4001 51.0189 21.8987 51.5203 21.2801 51.5203C20.6615 51.5203 20.1601 51.0189 20.1601 50.4003C20.1601 49.7817 20.6615 49.2803 21.2801 49.2803Z" fill="#591B42"/>
<path d="M27.9999 49.2803C28.6185 49.2803 29.1199 49.7817 29.1199 50.4003C29.1199 51.0189 28.6185 51.5203 27.9999 51.5203C27.3813 51.5203 26.8799 51.0189 26.8799 50.4003C26.8799 49.7817 27.3813 49.2803 27.9999 49.2803Z" fill="#591B42"/>
<path d="M30.2399 49.2803C30.8585 49.2803 31.3599 49.7817 31.3599 50.4003C31.3599 51.0189 30.8585 51.5203 30.2399 51.5203C29.6213 51.5203 29.1199 51.0189 29.1199 50.4003C29.1199 49.7817 29.6213 49.2803 30.2399 49.2803Z" fill="#591B42"/>
<path d="M32.4799 49.2803C33.0985 49.2803 33.5999 49.7817 33.5999 50.4003C33.5999 51.0189 33.0985 51.5203 32.4799 51.5203C31.8614 51.5203 31.3599 51.0189 31.3599 50.4003C31.3599 49.7817 31.8614 49.2803 32.4799 49.2803Z" fill="#591B42"/>
<path d="M43.6798 49.2803C44.2984 49.2803 44.7998 49.7817 44.7998 50.4003C44.7998 51.0189 44.2984 51.5203 43.6798 51.5203C43.0613 51.5203 42.5598 51.0189 42.5598 50.4003C42.5598 49.7817 43.0613 49.2803 43.6798 49.2803Z" fill="#591B42"/>
<path d="M45.9199 49.2803C46.5384 49.2803 47.0399 49.7817 47.0399 50.4003C47.0399 51.0189 46.5384 51.5203 45.9199 51.5203C45.3013 51.5203 44.7999 51.0189 44.7999 50.4003C44.7999 49.7817 45.3013 49.2803 45.9199 49.2803Z" fill="#591B42"/>
<path d="M48.1597 49.2803C48.7783 49.2803 49.2797 49.7817 49.2797 50.4003C49.2797 51.0189 48.7783 51.5203 48.1597 51.5203C47.5411 51.5203 47.0397 51.0189 47.0397 50.4003C47.0397 49.7817 47.5411 49.2803 48.1597 49.2803Z" fill="#591B42"/>
<path d="M52.6398 49.2803C53.2584 49.2803 53.7598 49.7817 53.7598 50.4003C53.7598 51.0189 53.2584 51.5203 52.6398 51.5203C52.0212 51.5203 51.5198 51.0189 51.5198 50.4003C51.5198 49.7817 52.0212 49.2803 52.6398 49.2803Z" fill="#591B42"/>
<path d="M54.8799 49.2803C55.4985 49.2803 55.9999 49.7817 55.9999 50.4003C55.9999 51.0189 55.4985 51.5203 54.8799 51.5203C54.2613 51.5203 53.7599 51.0189 53.7599 50.4003C53.7599 49.7817 54.2613 49.2803 54.8799 49.2803Z" fill="#591B42"/>
<path d="M21.2801 51.5195C21.8987 51.5195 22.4001 52.021 22.4001 52.6395C22.4001 53.2581 21.8987 53.7595 21.2801 53.7595C20.6615 53.7595 20.1601 53.2581 20.1601 52.6395C20.1601 52.021 20.6615 51.5195 21.2801 51.5195Z" fill="#591B42"/>
<path d="M23.5199 51.5195C24.1385 51.5195 24.6399 52.021 24.6399 52.6395C24.6399 53.2581 24.1385 53.7595 23.5199 53.7595C22.9013 53.7595 22.3999 53.2581 22.3999 52.6395C22.3999 52.021 22.9013 51.5195 23.5199 51.5195Z" fill="#591B42"/>
<path d="M25.76 51.5195C26.3785 51.5195 26.8799 52.021 26.8799 52.6395C26.8799 53.2581 26.3785 53.7595 25.76 53.7595C25.1414 53.7595 24.64 53.2581 24.64 52.6395C24.64 52.021 25.1414 51.5195 25.76 51.5195Z" fill="#591B42"/>
<path d="M27.9998 51.5195C28.6184 51.5195 29.1198 52.021 29.1198 52.6395C29.1198 53.2581 28.6184 53.7595 27.9998 53.7595C27.3813 53.7595 26.8798 53.2581 26.8798 52.6395C26.8798 52.021 27.3813 51.5195 27.9998 51.5195Z" fill="#591B42"/>
<path d="M32.4799 51.5195C33.0985 51.5195 33.5999 52.021 33.5999 52.6395C33.5999 53.2581 33.0985 53.7595 32.4799 53.7595C31.8614 53.7595 31.3599 53.2581 31.3599 52.6395C31.3599 52.021 31.8614 51.5195 32.4799 51.5195Z" fill="#591B42"/>
<path d="M36.9598 51.5195C37.5784 51.5195 38.0798 52.021 38.0798 52.6395C38.0798 53.2581 37.5784 53.7595 36.9598 53.7595C36.3413 53.7595 35.8398 53.2581 35.8398 52.6395C35.8398 52.021 36.3413 51.5195 36.9598 51.5195Z" fill="#591B42"/>
<path d="M43.6798 51.5195C44.2984 51.5195 44.7998 52.021 44.7998 52.6395C44.7998 53.2581 44.2984 53.7595 43.6798 53.7595C43.0613 53.7595 42.5598 53.2581 42.5598 52.6395C42.5598 52.021 43.0613 51.5195 43.6798 51.5195Z" fill="#591B42"/>
<path d="M45.9199 51.5195C46.5384 51.5195 47.0399 52.021 47.0399 52.6395C47.0399 53.2581 46.5384 53.7595 45.9199 53.7595C45.3013 53.7595 44.7999 53.2581 44.7999 52.6395C44.7999 52.021 45.3013 51.5195 45.9199 51.5195Z" fill="#591B42"/>
<path d="M19.0399 53.7598C19.6584 53.7598 20.1599 54.2612 20.1599 54.8798C20.1599 55.4983 19.6584 55.9998 19.0399 55.9998C18.4213 55.9998 17.9199 55.4983 17.9199 54.8798C17.9199 54.2612 18.4213 53.7598 19.0399 53.7598Z" fill="#591B42"/>
<path d="M21.2801 53.7598C21.8987 53.7598 22.4001 54.2612 22.4001 54.8798C22.4001 55.4983 21.8987 55.9998 21.2801 55.9998C20.6615 55.9998 20.1601 55.4983 20.1601 54.8798C20.1601 54.2612 20.6615 53.7598 21.2801 53.7598Z" fill="#591B42"/>
<path d="M23.5199 53.7598C24.1385 53.7598 24.6399 54.2612 24.6399 54.8798C24.6399 55.4983 24.1385 55.9998 23.5199 55.9998C22.9013 55.9998 22.3999 55.4983 22.3999 54.8798C22.3999 54.2612 22.9013 53.7598 23.5199 53.7598Z" fill="#591B42"/>
<path d="M30.2398 53.7598C30.8584 53.7598 31.3598 54.2612 31.3598 54.8798C31.3598 55.4983 30.8584 55.9998 30.2398 55.9998C29.6213 55.9998 29.1198 55.4983 29.1198 54.8798C29.1198 54.2612 29.6213 53.7598 30.2398 53.7598Z" fill="#591B42"/>
<path d="M32.4799 53.7598C33.0985 53.7598 33.5999 54.2612 33.5999 54.8798C33.5999 55.4983 33.0985 55.9998 32.4799 55.9998C31.8614 55.9998 31.3599 55.4983 31.3599 54.8798C31.3599 54.2612 31.8614 53.7598 32.4799 53.7598Z" fill="#591B42"/>
<path d="M36.9598 53.7598C37.5784 53.7598 38.0798 54.2612 38.0798 54.8798C38.0798 55.4983 37.5784 55.9998 36.9598 55.9998C36.3413 55.9998 35.8398 55.4983 35.8398 54.8798C35.8398 54.2612 36.3413 53.7598 36.9598 53.7598Z" fill="#591B42"/>
<path d="M48.1597 53.7598C48.7783 53.7598 49.2797 54.2612 49.2797 54.8798C49.2797 55.4983 48.7783 55.9998 48.1597 55.9998C47.5411 55.9998 47.0397 55.4983 47.0397 54.8798C47.0397 54.2612 47.5411 53.7598 48.1597 53.7598Z" fill="#591B42"/>
<path d="M54.8799 53.7598C55.4985 53.7598 55.9999 54.2612 55.9999 54.8798C55.9999 55.4983 55.4985 55.9998 54.8799 55.9998C54.2613 55.9998 53.7599 55.4983 53.7599 54.8798C53.7599 54.2612 54.2613 53.7598 54.8799 53.7598Z" fill="#591B42"/>
<path d="M7.83993 0.15332C3.59513 0.15332 0.153687 3.59476 0.153687 7.83957C0.153687 12.0844 3.59513 15.5258 7.83993 15.5258C12.0847 15.5258 15.5262 12.0844 15.5262 7.83957C15.5262 3.59476 12.0847 0.15332 7.83993 0.15332ZM7.83993 13.2199C4.8732 13.2199 2.45956 10.8063 2.45956 7.83957C2.45956 4.87283 4.8732 2.4592 7.83993 2.4592C10.8067 2.4592 13.2203 4.87283 13.2203 7.83957C13.2203 10.8063 10.8067 13.2199 7.83993 13.2199Z" fill="#591B42"/>
<path d="M48.16 0.15332C43.9152 0.15332 40.4738 3.59476 40.4738 7.83957C40.4738 12.0844 43.9152 15.5258 48.16 15.5258C52.4048 15.5258 55.8463 12.0844 55.8463 7.83957C55.8463 3.59476 52.4048 0.15332 48.16 0.15332ZM48.16 13.2199C45.1933 13.2199 42.7796 10.8063 42.7796 7.83957C42.7796 4.87283 45.1933 2.4592 48.16 2.4592C51.1267 2.4592 53.5404 4.87283 53.5404 7.83957C53.5404 10.8063 51.1267 13.2199 48.16 13.2199Z" fill="#591B42"/>
<path d="M7.83987 40.4736C3.59507 40.4736 0.153625 43.9151 0.153625 48.1599C0.153625 52.4047 3.59507 55.8461 7.83987 55.8461C12.0847 55.8461 15.5261 52.4047 15.5261 48.1599C15.5261 43.9151 12.0847 40.4736 7.83987 40.4736ZM7.83987 53.5403C4.87314 53.5403 2.4595 51.1266 2.4595 48.1599C2.4595 45.1931 4.87314 42.7795 7.83987 42.7795C10.8066 42.7795 13.2202 45.1931 13.2202 48.1599C13.2202 51.1266 10.8066 53.5403 7.83987 53.5403Z" fill="#591B42"/>
<path d="M7.77421 11.0687C9.59349 11.0687 11.0683 9.59386 11.0683 7.77458C11.0683 5.95529 9.59349 4.48047 7.77421 4.48047C5.95492 4.48047 4.4801 5.95529 4.4801 7.77458C4.4801 9.59386 5.95492 11.0687 7.77421 11.0687Z" fill="#591B42"/>
<path d="M48.094 11.0687C49.9133 11.0687 51.3881 9.59386 51.3881 7.77458C51.3881 5.95529 49.9133 4.48047 48.094 4.48047C46.2747 4.48047 44.7999 5.95529 44.7999 7.77458C44.7999 9.59386 46.2747 11.0687 48.094 11.0687Z" fill="#591B42"/>
<path d="M7.77421 51.388C9.59349 51.388 11.0683 49.9132 11.0683 48.0939C11.0683 46.2746 9.59349 44.7998 7.77421 44.7998C5.95492 44.7998 4.4801 46.2746 4.4801 48.0939C4.4801 49.9132 5.95492 51.388 7.77421 51.388Z" fill="#591B42"/>
</svg>
