<svg width="18" height="18" viewBox="0 0 18 18" fill="none" xmlns="http://www.w3.org/2000/svg">
<mask id="mask0_26_14015" style="mask-type:alpha" maskUnits="userSpaceOnUse" x="0" y="0" width="18" height="18">
<rect width="17.424" height="17.424" fill="#D9D9D9"/>
</mask>
<g mask="url(#mask0_26_14015)">
<path d="M4.3563 16.6977V11.0893C3.8965 10.5811 3.53955 10.0003 3.28545 9.34691C3.03135 8.69351 2.9043 7.99776 2.9043 7.25966C2.9043 5.63826 3.46695 4.26491 4.59225 3.13961C5.71755 2.01431 7.0909 1.45166 8.7123 1.45166C10.3337 1.45166 11.707 2.01431 12.8323 3.13961C13.9576 4.26491 14.5203 5.63826 14.5203 7.25966C14.5203 7.99776 14.3932 8.69351 14.1391 9.34691C13.885 10.0003 13.5281 10.5811 13.0683 11.0893V16.6977L8.7123 15.2457L4.3563 16.6977ZM8.7123 11.6157C9.9223 11.6157 10.9508 11.1922 11.7978 10.3452C12.6448 9.49816 13.0683 8.46966 13.0683 7.25966C13.0683 6.04966 12.6448 5.02116 11.7978 4.17416C10.9508 3.32716 9.9223 2.90366 8.7123 2.90366C7.5023 2.90366 6.4738 3.32716 5.6268 4.17416C4.7798 5.02116 4.3563 6.04966 4.3563 7.25966C4.3563 8.46966 4.7798 9.49816 5.6268 10.3452C6.4738 11.1922 7.5023 11.6157 8.7123 11.6157ZM5.8083 14.5378L8.7123 13.7937L11.6163 14.5378V12.2872C11.1928 12.5292 10.736 12.7198 10.246 12.8589C9.75592 12.9981 9.2447 13.0677 8.7123 13.0677C8.1799 13.0677 7.66867 12.9981 7.17862 12.8589C6.68857 12.7198 6.2318 12.5292 5.8083 12.2872V14.5378Z" fill="#591B42"/>
</g>
<path d="M5.73102 7.17367C6.49611 7.36371 7.12323 7.91294 7.4138 8.64594L7.53504 8.97799C7.73572 9.23903 7.81724 8.82345 7.88832 8.64594C8.12035 8.02153 8.6116 7.52869 9.23872 7.29688C9.38505 7.22588 9.66726 7.19038 9.65262 7.05881C9.66726 6.92725 9.35997 6.88339 9.23872 6.82492C8.50499 6.53673 7.9573 5.90814 7.76707 5.14381C7.74826 5.09578 7.70227 5.06445 7.6521 5.06445C7.60193 5.06445 7.55385 5.09578 7.53713 5.14381C7.34899 5.91023 6.80131 6.53673 6.06548 6.82492L5.73311 6.94604C5.68712 6.96484 5.65576 7.00869 5.65576 7.0609C5.65576 7.11311 5.68712 7.15696 5.73311 7.17576L5.73102 7.17367Z" fill="#591B42"/>
<path d="M9.23131 8.78031C9.72637 8.90328 10.1322 9.25867 10.3202 9.73296L10.3986 9.94781C10.5285 10.1167 10.5812 9.84782 10.6272 9.73296C10.7774 9.32893 11.0952 9.01003 11.501 8.86004C11.5957 8.8141 11.7783 8.79112 11.7688 8.70599C11.7783 8.62086 11.5795 8.59249 11.501 8.55465C11.0262 8.36818 10.6718 7.96144 10.5488 7.46688C10.5366 7.4358 10.5068 7.41553 10.4744 7.41553C10.4419 7.41553 10.4108 7.4358 10.4 7.46688C10.2782 7.96279 9.92385 8.36818 9.44773 8.55465L9.23266 8.63303C9.20291 8.64519 9.18262 8.67356 9.18262 8.70735C9.18262 8.74113 9.20291 8.7695 9.23266 8.78167L9.23131 8.78031Z" fill="#591B42"/>
<path d="M8.97776 5.46274C9.2928 5.54099 9.55103 5.76714 9.67067 6.06897L9.7206 6.20569C9.80323 6.31318 9.8368 6.14206 9.86607 6.06897C9.96161 5.81186 10.1639 5.60892 10.4221 5.51347C10.4824 5.48424 10.5986 5.46962 10.5925 5.41544C10.5986 5.36127 10.472 5.34321 10.4221 5.31914C10.12 5.20047 9.89447 4.94164 9.81614 4.62691C9.80839 4.60714 9.78946 4.59424 9.7688 4.59424C9.74814 4.59424 9.72834 4.60714 9.72146 4.62691C9.64399 4.9425 9.41847 5.20047 9.11549 5.31914L8.97863 5.36901C8.95969 5.37675 8.94678 5.39481 8.94678 5.4163C8.94678 5.4378 8.95969 5.45586 8.97863 5.4636L8.97776 5.46274Z" fill="#591B42"/>
</svg>
