<svg width="18" height="18" viewBox="0 0 18 18" fill="none" xmlns="http://www.w3.org/2000/svg">
<path d="M13.7701 7.96361C13.6567 8.08461 13.5395 8.21317 13.4185 8.3493C13.2975 8.48542 13.1443 8.66692 12.9591 8.8938C12.7738 9.12067 12.6244 9.34755 12.511 9.57442C12.3975 9.8013 12.3408 9.99792 12.3408 10.1643C12.3408 10.3685 11.9873 10.5405 11.2802 10.6804C10.5731 10.8203 9.71664 10.8903 8.71083 10.8903C7.70502 10.8903 6.84857 10.8203 6.14147 10.6804C5.43438 10.5405 5.08083 10.3685 5.08083 10.1643C5.08083 9.94498 4.97874 9.67084 4.77455 9.34187C4.57036 9.01291 4.37941 8.74822 4.20169 8.54781C4.02397 8.34741 3.84814 8.16023 3.67421 7.9863C3.15996 7.48717 2.90283 6.88217 2.90283 6.1713C2.90283 5.46798 3.1505 4.86866 3.64585 4.37331C4.14119 3.87797 4.74052 3.6303 5.44383 3.6303C5.61777 3.6303 5.79927 3.6492 5.98833 3.68702C5.86733 3.99708 5.80683 4.34117 5.80683 4.7193C5.80683 5.52848 6.05639 6.20155 6.55552 6.73848C6.54039 6.33011 6.53283 5.89905 6.53283 5.4453C6.53283 4.74198 6.74458 4.14266 7.16808 3.64731C7.59158 3.15197 8.10583 2.9043 8.71083 2.9043C9.31583 2.9043 9.83008 3.15197 10.2536 3.64731C10.6771 4.14266 10.8888 4.74198 10.8888 5.4453C10.8888 5.90661 10.8813 6.33767 10.8661 6.73848C11.3653 6.20155 11.6148 5.52848 11.6148 4.7193C11.6148 4.34117 11.5543 3.99708 11.4333 3.68702C11.6224 3.6492 11.8039 3.6303 11.9778 3.6303C12.6811 3.6303 13.2805 3.87797 13.7758 4.37331C14.2712 4.86866 14.5188 5.46798 14.5188 6.1713C14.5188 6.87461 14.2693 7.47205 13.7701 7.96361ZM8.70516 11.6163C9.70719 11.6163 10.5636 11.5445 11.2745 11.4008C11.9854 11.2571 12.3408 11.0869 12.3408 10.8903V13.7943C12.3408 13.9909 11.9854 14.1611 11.2745 14.3048C10.5636 14.4485 9.70719 14.5203 8.70516 14.5203C7.70313 14.5203 6.84857 14.4485 6.14147 14.3048C5.43438 14.1611 5.08083 13.9909 5.08083 13.7943V10.8903C5.08083 11.0945 5.43438 11.2665 6.14147 11.4064C6.84857 11.5463 7.70313 11.6163 8.70516 11.6163Z" fill="#591B42"/>
</svg>
