<svg width="18" height="18" viewBox="0 0 18 18" fill="none" xmlns="http://www.w3.org/2000/svg">
<mask id="mask0_26_15127" style="mask-type:alpha" maskUnits="userSpaceOnUse" x="0" y="0" width="18" height="18">
<rect width="17.424" height="17.424" fill="#D9D9D9"/>
</mask>
<g mask="url(#mask0_26_15127)">
<path d="M4.35679 16.6972V11.0888C3.89699 10.5806 3.54004 9.99982 3.28594 9.34642C3.03184 8.69302 2.90479 7.99727 2.90479 7.25917C2.90479 5.63777 3.46744 4.26442 4.59274 3.13912C5.71804 2.01382 7.09138 1.45117 8.71279 1.45117C10.3342 1.45117 11.7075 2.01382 12.8328 3.13912C13.9581 4.26442 14.5208 5.63777 14.5208 7.25917C14.5208 7.99727 14.3937 8.69302 14.1396 9.34642C13.8855 9.99982 13.5286 10.5806 13.0688 11.0888V16.6972L8.71279 15.2452L4.35679 16.6972ZM8.71279 11.6152C9.92279 11.6152 10.9513 11.1917 11.7983 10.3447C12.6453 9.49767 13.0688 8.46917 13.0688 7.25917C13.0688 6.04917 12.6453 5.02067 11.7983 4.17367C10.9513 3.32667 9.92279 2.90317 8.71279 2.90317C7.50279 2.90317 6.47429 3.32667 5.62729 4.17367C4.78029 5.02067 4.35679 6.04917 4.35679 7.25917C4.35679 8.46917 4.78029 9.49767 5.62729 10.3447C6.47429 11.1917 7.50279 11.6152 8.71279 11.6152ZM5.80879 14.5373L8.71279 13.7932L11.6168 14.5373V12.2867C11.1933 12.5287 10.7365 12.7193 10.2465 12.8584C9.75641 12.9976 9.24518 13.0672 8.71279 13.0672C8.18039 13.0672 7.66916 12.9976 7.17911 12.8584C6.68906 12.7193 6.23229 12.5287 5.80879 12.2867V14.5373Z" fill="#591B42"/>
</g>
<path d="M5.73053 7.17416C6.49562 7.3642 7.12274 7.91343 7.41331 8.64643L7.53455 8.97848C7.73523 9.23952 7.81676 8.82394 7.88783 8.64643C8.11987 8.02202 8.61111 7.52917 9.23823 7.29737C9.38456 7.22637 9.66677 7.19086 9.65213 7.0593C9.66677 6.92773 9.35948 6.88388 9.23823 6.82541C8.5045 6.53722 7.95681 5.90863 7.76659 5.1443C7.74777 5.09627 7.70178 5.06494 7.65161 5.06494C7.60144 5.06494 7.55336 5.09627 7.53664 5.1443C7.3485 5.91072 6.80082 6.53722 6.06499 6.82541L5.73262 6.94653C5.68663 6.96532 5.65527 7.00918 5.65527 7.06139C5.65527 7.1136 5.68663 7.15745 5.73262 7.17625L5.73053 7.17416Z" fill="#591B42"/>
<path d="M9.23131 8.78031C9.72637 8.90328 10.1322 9.25867 10.3202 9.73296L10.3986 9.94781C10.5285 10.1167 10.5812 9.84782 10.6272 9.73296C10.7774 9.32893 11.0952 9.01003 11.501 8.86004C11.5957 8.8141 11.7783 8.79112 11.7688 8.70599C11.7783 8.62086 11.5795 8.59249 11.501 8.55465C11.0262 8.36818 10.6718 7.96144 10.5488 7.46688C10.5366 7.4358 10.5068 7.41553 10.4744 7.41553C10.4419 7.41553 10.4108 7.4358 10.4 7.46688C10.2782 7.96279 9.92385 8.36818 9.44773 8.55465L9.23266 8.63303C9.20291 8.64519 9.18262 8.67356 9.18262 8.70735C9.18262 8.74113 9.20291 8.7695 9.23266 8.78167L9.23131 8.78031Z" fill="#591B42"/>
<path d="M8.97728 5.46274C9.29231 5.54099 9.55054 5.76714 9.67019 6.06897L9.72011 6.20569C9.80274 6.31318 9.83631 6.14206 9.86558 6.06897C9.96112 5.81186 10.1634 5.60892 10.4216 5.51347C10.4819 5.48424 10.5981 5.46962 10.5921 5.41544C10.5981 5.36127 10.4715 5.34321 10.4216 5.31914C10.1195 5.20047 9.89398 4.94164 9.81565 4.62691C9.80791 4.60714 9.78897 4.59424 9.76831 4.59424C9.74765 4.59424 9.72786 4.60714 9.72097 4.62691C9.6435 4.9425 9.41798 5.20047 9.115 5.31914L8.97814 5.36901C8.9592 5.37675 8.94629 5.39481 8.94629 5.4163C8.94629 5.4378 8.9592 5.45586 8.97814 5.4636L8.97728 5.46274Z" fill="#591B42"/>
</svg>
