<svg width="77" height="63" viewBox="0 0 77 63" fill="none" xmlns="http://www.w3.org/2000/svg">
<path d="M23.0535 18.4304V13.3108H9.68555V18.4304H12.7542V29.3756H9.68555V34.4952H23.0535V29.3756H19.9849V18.4304H23.0535ZM37.7971 21.4315C36.9859 21.1843 32.718 19.9839 31.9773 19.7367C31.2366 19.4896 30.637 19.1365 30.637 18.7128C30.637 18.2892 31.3071 17.7948 32.6827 17.7948C36.9859 17.7948 39.0669 20.4429 39.0669 20.4429C39.0669 20.4429 39.3138 20.7607 39.3844 20.8666H43.5464V13.6286H39.0669V14.935C38.7142 14.6878 36.2099 13.0637 32.2947 13.0637C27.1451 13.0637 24.288 15.747 24.288 19.7367C24.288 23.7265 27.921 25.3859 28.9086 25.8096C29.8963 26.2333 33.8467 27.3278 35.5397 27.8574C37.2328 28.387 37.8324 28.7754 37.8324 29.0225C37.8324 29.2697 37.0917 30.0112 35.0107 30.0112C31.3424 30.0112 29.473 27.8574 29.1203 27.4337C29.1203 27.4337 28.9086 27.116 28.8381 27.0453C28.8028 26.9747 28.6617 26.7982 28.5912 26.6923H24.4291V34.4246H29.085V32.8004C29.6141 33.1535 32.4005 34.8836 35.7514 34.8836C39.4902 34.8836 44.2166 33.2594 44.2166 28.2105C44.2166 23.1615 38.5731 21.608 37.7619 21.3609L37.7971 21.4315ZM56.1032 12.9931C49.8953 12.9931 44.8162 16.1001 44.8162 24.0442C44.8162 31.9884 50.3539 34.9542 56.1384 34.9542C61.923 34.9542 67.4254 32.0237 67.4254 24.1502C67.4254 16.2766 61.9583 13.0284 56.1384 13.0284L56.1032 12.9931ZM56.1737 29.6581C54.0574 29.6581 52.6818 29.1638 52.6818 24.0089C52.6818 18.8541 53.7047 18.3245 56.2442 18.3245C57.7962 18.3245 59.6656 18.4304 59.6656 23.8677C59.6656 29.305 58.29 29.6581 56.1384 29.6581H56.1737ZM18.574 10.9452C19.9849 8.89742 21.6779 7.06145 23.6532 5.54324C24.4644 6.14346 25.3109 6.67307 26.1927 7.13206C24.7113 8.7915 23.371 10.6275 23.1594 10.9452H24.0411C24.5702 10.2391 25.6989 8.7562 26.8629 7.48513C28.1327 8.12066 29.5083 8.61497 30.9191 9.00335C30.5311 9.81541 30.249 10.5216 30.0726 10.9452H30.8486C31.025 10.4862 31.2719 9.88603 31.6246 9.17988C33.4234 9.63888 35.3281 9.88603 37.268 9.92133V10.9452H37.9735V9.92133C39.9134 9.92133 41.7828 9.67418 43.5817 9.2858C43.8991 9.92133 44.146 10.5216 44.3224 10.9452H45.0984C44.922 10.5216 44.6751 9.88603 44.3224 9.10927C45.7685 8.72089 47.1441 8.22659 48.4492 7.62636C49.5779 8.89742 50.636 10.2744 51.1298 10.9452H52.0116C51.8 10.6628 50.5302 8.89742 49.0841 7.27329C50.0717 6.77899 51.024 6.17877 51.8706 5.54324C53.8458 7.06145 55.5388 8.89742 56.9497 10.9452H57.8315C53.5636 4.3781 46.1565 0 37.7619 0C29.3672 0 21.9954 4.3781 17.7275 10.9452H18.6093H18.574ZM31.2366 8.36782C29.8963 8.01474 28.5912 7.52044 27.392 6.95553C27.5683 6.77899 27.7094 6.60245 27.8858 6.46122C29.5435 4.83709 32.2947 3.07173 32.8944 2.68335C33.3882 2.96581 33.9172 3.17765 34.4816 3.35419C34.0583 3.9191 33.1765 5.11955 32.2242 6.60245C31.8715 7.16737 31.5188 7.8029 31.2366 8.36782ZM37.268 9.21519C35.4339 9.17988 33.6703 8.96804 31.942 8.54435C32.2242 8.01474 32.5064 7.48513 32.8238 6.99083C33.9172 5.26078 34.9048 3.98972 35.2223 3.56603C35.8572 3.70726 36.5626 3.81318 37.268 3.84849V9.21519ZM37.9735 9.21519V3.84849C38.6789 3.84849 39.3491 3.77787 39.984 3.63665C40.372 4.13095 41.289 5.3667 42.3119 6.99083C42.6646 7.52044 42.9468 8.08536 43.229 8.65027C41.5359 9.03865 39.7723 9.21519 37.9382 9.2505L37.9735 9.21519ZM43.9697 8.43843C43.6522 7.83821 43.2995 7.16737 42.9115 6.56715C42.0297 5.15486 41.1832 4.02503 40.7247 3.4248C41.3243 3.24827 41.8886 3.03642 42.4177 2.75396C43.2642 3.28357 45.7333 4.90771 47.25 6.39061C47.4616 6.60245 47.6732 6.8143 47.8848 7.02614C46.6503 7.59106 45.31 8.05005 43.9344 8.40312L43.9697 8.43843ZM51.3062 5.08424C50.4597 5.68447 49.5426 6.24938 48.5903 6.70838C48.3081 6.42592 48.0612 6.14346 47.779 5.89631C46.3329 4.51933 44.1813 3.03642 43.1232 2.36559C43.4759 2.11843 43.7933 1.87128 44.1108 1.58883C46.7209 2.33028 49.1194 3.53072 51.2709 5.08424H51.3062ZM37.7971 0.706145C39.7018 0.706145 41.5359 0.953295 43.3348 1.37698C41.9945 2.47151 39.984 3.10704 37.7971 3.10704C35.6103 3.10704 33.5998 2.47151 32.2595 1.37698C34.0231 0.953295 35.8925 0.706145 37.7971 0.706145ZM31.4482 1.58883C31.6951 1.80067 31.942 2.01251 32.2242 2.22436C31.2719 2.82458 28.9086 4.4134 27.392 5.89631C27.1803 6.10815 26.9334 6.3553 26.7218 6.56715C25.8753 6.10815 25.064 5.61385 24.288 5.08424C26.4396 3.53072 28.8381 2.33028 31.4482 1.58883ZM57.0202 36.8608C55.6446 38.8733 53.9869 40.6739 52.0822 42.1568C51.1651 41.486 50.1775 40.8505 49.1546 40.3209C50.3891 38.9086 51.5178 37.4257 51.9411 36.8608H51.0593C50.4949 37.6022 49.5426 38.838 48.5197 40.0031C47.2147 39.3676 45.8391 38.8733 44.3929 38.5202C44.7104 37.8494 44.922 37.2844 45.0984 36.8608H44.3224C44.146 37.2491 43.9344 37.7787 43.6875 38.3437C41.8886 37.92 40.0192 37.7081 38.0793 37.7081V36.8961H37.3739V37.7434C35.4339 37.7787 33.5292 38.0259 31.7304 38.4849C31.4482 37.8847 31.2013 37.3551 31.025 36.9314H30.249C30.4253 37.3551 30.6722 37.9906 30.9897 38.6614C29.5788 39.0498 28.2032 39.5794 26.9334 40.1796C25.8753 38.9792 24.8524 37.6728 24.2528 36.8961H23.371C23.7942 37.4963 24.9935 39.0498 26.2633 40.5327C25.3109 41.027 24.4291 41.5919 23.6179 42.2275C21.7132 40.7446 20.0202 38.9439 18.6798 36.9314H17.798C22.0659 43.4985 29.473 47.8766 37.8677 47.8766C46.2623 47.8766 53.6694 43.4985 57.9373 36.9314H57.0555L57.0202 36.8608ZM44.0049 39.1557C45.3805 39.5088 46.6856 39.9678 47.9554 40.5327C47.7438 40.7446 47.5321 40.9564 47.3205 41.1682C45.7685 42.6511 43.3348 44.2753 42.4883 44.8049C41.9592 44.5224 41.3948 44.3106 40.7952 44.134C41.2538 43.5338 42.065 42.404 42.9821 40.9917C43.3701 40.3915 43.7228 39.7206 44.0402 39.1204L44.0049 39.1557ZM38.0088 38.379C39.8076 38.379 41.6065 38.5908 43.2995 38.9792C43.0173 39.5441 42.6999 40.109 42.3825 40.6386C41.3596 42.2628 40.4072 43.4985 40.0545 43.9928C39.4196 43.8516 38.7142 43.781 38.044 43.781V38.4143L38.0088 38.379ZM37.3033 38.379V43.7457C36.5979 43.7457 35.9277 43.8869 35.2576 44.0281C34.9401 43.6044 33.9525 42.3334 32.8591 40.6033C32.5416 40.109 32.2242 39.5441 31.9773 39.0498C33.6703 38.6614 35.4692 38.4143 37.3033 38.379ZM31.2719 39.2263C31.554 39.8266 31.9067 40.4268 32.2595 40.9917C33.2118 42.4746 34.0583 43.6397 34.5169 44.24C33.9525 44.4165 33.4234 44.6637 32.9296 44.9108C32.33 44.5224 29.5788 42.7571 27.921 41.1329C27.7447 40.9917 27.6036 40.8152 27.4272 40.6386C28.6617 40.0384 29.9315 39.5794 31.2719 39.2263ZM24.1822 42.5805C24.9935 41.9803 25.84 41.4507 26.7571 40.9917C26.9687 41.2389 27.2156 41.4507 27.4272 41.6625C28.9792 43.1454 31.3071 44.699 32.2595 45.3345C31.9067 45.5816 31.6246 45.8288 31.3424 46.1113C28.7323 45.3345 26.3338 44.134 24.1822 42.5805ZM37.8324 47.0292C35.8572 47.0292 33.9525 46.7821 32.1184 46.3231C33.4587 45.158 35.575 44.4518 37.8324 44.4518C40.0898 44.4518 42.2061 45.158 43.5464 46.3231C41.7123 46.7821 39.8076 47.0292 37.8324 47.0292ZM44.3577 46.1113C44.0402 45.7582 43.6522 45.4757 43.229 45.1933C44.2871 44.5224 46.4387 43.0395 47.8496 41.6625C48.1317 41.4154 48.3787 41.1329 48.6608 40.8505C49.6484 41.3448 50.6008 41.945 51.4826 42.5805C49.331 44.134 46.9325 45.3345 44.3224 46.1113H44.3577Z" fill="#C89C66"/>
<path d="M1.61722 53.3695H2.43585V62.1826H1.61722V53.3695ZM7.13728 62.3361C6.583 62.3361 6.08415 62.221 5.64072 61.9908C5.20582 61.7605 4.86046 61.4578 4.60464 61.0826C4.34882 60.6988 4.21238 60.2895 4.19533 59.8546H5.00117C5.03528 60.1531 5.14187 60.4345 5.32094 60.6988C5.50855 60.9547 5.75584 61.1636 6.06283 61.3256C6.37834 61.4791 6.73649 61.5559 7.13728 61.5559C7.58924 61.5559 7.97297 61.4706 8.28848 61.3C8.61252 61.1295 8.85556 60.9078 9.01758 60.6349C9.1796 60.362 9.26061 60.0806 9.26061 59.7907C9.26061 59.3473 9.09859 58.9934 8.77455 58.729C8.4505 58.4647 8.03692 58.2685 7.53381 58.1406L6.34423 57.8592C5.53413 57.6716 4.98411 57.3774 4.69418 56.9766C4.40425 56.5758 4.25928 56.1409 4.25928 55.6719C4.25928 55.2029 4.38719 54.7808 4.64302 54.4056C4.90736 54.0304 5.25272 53.7405 5.6791 53.5358C6.11399 53.3226 6.57021 53.216 7.04775 53.216C7.55086 53.216 8.00708 53.3141 8.41639 53.5102C8.82571 53.7064 9.14975 53.9835 9.38852 54.3417C9.63581 54.6998 9.76799 55.1177 9.78504 55.5952H8.96641C8.94083 55.1177 8.7447 54.7339 8.37802 54.444C8.01987 54.1455 7.57218 53.9963 7.03495 53.9963C6.69386 53.9963 6.37408 54.0688 6.07562 54.2138C5.77716 54.3502 5.53413 54.5463 5.34653 54.8021C5.16745 55.058 5.07791 55.3436 5.07791 55.6591C5.07791 55.9576 5.17171 56.239 5.35932 56.5034C5.55545 56.7592 5.94771 56.9596 6.5361 57.1045L7.73847 57.3987C8.47182 57.5863 9.04742 57.872 9.46527 58.2557C9.88311 58.6395 10.092 59.1383 10.092 59.7523C10.092 60.1787 9.97691 60.5923 9.74667 60.993C9.51643 61.3938 9.1796 61.7179 8.73617 61.9652C8.29275 62.2125 7.75978 62.3361 7.13728 62.3361ZM15.5724 62.3361C14.7538 62.3361 14.0034 62.1315 13.3212 61.7221C12.6475 61.3128 12.1146 60.7628 11.7223 60.0721C11.33 59.3728 11.1339 58.6139 11.1339 57.7953C11.1339 56.9681 11.33 56.2049 11.7223 55.5057C12.1146 54.8064 12.6475 54.2521 13.3212 53.8428C14.0034 53.425 14.7538 53.216 15.5724 53.216C16.3911 53.216 17.1415 53.425 17.8237 53.8428C18.5059 54.2521 19.0431 54.8064 19.4353 55.5057C19.8276 56.2049 20.0237 56.9681 20.0237 57.7953C20.0237 58.6139 19.8276 59.3728 19.4353 60.0721C19.0431 60.7628 18.5059 61.3128 17.8237 61.7221C17.1415 62.1315 16.3911 62.3361 15.5724 62.3361ZM15.5724 61.5559C16.2376 61.5559 16.8473 61.3896 17.4016 61.057C17.9644 60.7159 18.4035 60.2554 18.719 59.6756C19.0431 59.0957 19.2051 58.4689 19.2051 57.7953C19.2051 57.1216 19.0431 56.4906 18.719 55.9022C18.4035 55.3138 17.9644 54.849 17.4016 54.5079C16.8473 54.1669 16.2376 53.9963 15.5724 53.9963C14.9073 53.9963 14.2976 54.1711 13.7433 54.5207C13.189 54.8618 12.7499 55.3266 12.4258 55.915C12.1103 56.4948 11.9525 57.1216 11.9525 57.7953C11.9525 58.4689 12.1103 59.0957 12.4258 59.6756C12.7499 60.2469 13.189 60.7031 13.7433 61.0442C14.2976 61.3853 14.9073 61.5559 15.5724 61.5559ZM26.8478 62.3361C26.302 62.3361 25.816 62.2167 25.3896 61.978C24.9632 61.7392 24.6221 61.3256 24.3663 60.7372L25.0954 60.443C25.2745 60.8438 25.5133 61.1337 25.8117 61.3128C26.1187 61.4919 26.4683 61.5814 26.8606 61.5814C27.4234 61.5814 27.8881 61.3938 28.2548 61.0186C28.63 60.6434 28.8944 60.1744 29.0479 59.6116C29.2099 59.0488 29.2781 58.4476 29.2525 57.8081L29.4316 57.4883C29.3719 57.8038 29.2269 58.0895 28.9967 58.3453C28.7665 58.5926 28.4808 58.7844 28.1397 58.9209C27.7986 59.0488 27.4362 59.1127 27.0524 59.1127C26.5152 59.1127 26.0292 58.9934 25.5943 58.7546C25.1679 58.5073 24.8353 58.1747 24.5966 57.7569C24.3663 57.339 24.2512 56.8871 24.2512 56.401C24.2512 55.9406 24.3578 55.5014 24.571 55.0835C24.7927 54.6657 25.121 54.3246 25.5559 54.0603C25.9993 53.7874 26.528 53.6509 27.142 53.6509C27.773 53.6509 28.3145 53.8044 28.7665 54.1114C29.2184 54.4099 29.5552 54.8363 29.777 55.3905C30.0072 55.9448 30.1223 56.5972 30.1223 57.3476C30.1223 58.1577 30.037 58.9251 29.8665 59.65C29.7045 60.3663 29.3804 60.993 28.8944 61.5303C28.4083 62.0675 27.7261 62.3361 26.8478 62.3361ZM27.0652 58.3581C27.4149 58.3581 27.7517 58.2941 28.0757 58.1662C28.4083 58.0383 28.6812 57.8422 28.8944 57.5778C29.1161 57.3049 29.2312 56.9766 29.2397 56.5929C29.2397 56.1495 29.1459 55.7657 28.9583 55.4417C28.7793 55.1091 28.532 54.8576 28.2164 54.687C27.9009 54.5165 27.5556 54.4269 27.1804 54.4184C26.771 54.4184 26.4044 54.5122 26.0803 54.6998C25.7563 54.8789 25.5047 55.1219 25.3256 55.4289C25.1551 55.7274 25.0698 56.0599 25.0698 56.4266C25.0698 56.7762 25.1551 57.1003 25.3256 57.3987C25.4962 57.6887 25.7307 57.9189 26.0292 58.0895C26.3361 58.26 26.6815 58.3495 27.0652 58.3581ZM34.4479 62.3361C33.3394 62.3361 32.5634 61.9481 32.1199 61.1721C31.6765 60.3876 31.4548 59.3259 31.4548 57.9871C31.4548 56.6398 31.6765 55.5824 32.1199 54.8149C32.5634 54.0389 33.3394 53.6509 34.4479 53.6509C35.548 53.6509 36.3197 54.0389 36.7631 54.8149C37.2065 55.5824 37.4282 56.6398 37.4282 57.9871C37.4282 59.3259 37.2065 60.3876 36.7631 61.1721C36.3197 61.9481 35.548 62.3361 34.4479 62.3361ZM34.4479 61.5814C35.258 61.5814 35.8251 61.2574 36.1491 60.6093C36.4732 59.9612 36.6352 59.0872 36.6352 57.9871C36.6352 56.8786 36.4732 56.0088 36.1491 55.3777C35.8251 54.7382 35.258 54.4184 34.4479 54.4184C33.6293 54.4184 33.0579 54.7382 32.7339 55.3777C32.4099 56.0173 32.2478 56.8871 32.2478 57.9871C32.2478 59.0872 32.4099 59.9612 32.7339 60.6093C33.0579 61.2574 33.6293 61.5814 34.4479 61.5814ZM41.7743 62.3361C40.6658 62.3361 39.8898 61.9481 39.4463 61.1721C39.0029 60.3876 38.7812 59.3259 38.7812 57.9871C38.7812 56.6398 39.0029 55.5824 39.4463 54.8149C39.8898 54.0389 40.6658 53.6509 41.7743 53.6509C42.8744 53.6509 43.6461 54.0389 44.0895 54.8149C44.5329 55.5824 44.7547 56.6398 44.7547 57.9871C44.7547 59.3259 44.5329 60.3876 44.0895 61.1721C43.6461 61.9481 42.8744 62.3361 41.7743 62.3361ZM41.7743 61.5814C42.5844 61.5814 43.1515 61.2574 43.4755 60.6093C43.7996 59.9612 43.9616 59.0872 43.9616 57.9871C43.9616 56.8786 43.7996 56.0088 43.4755 55.3777C43.1515 54.7382 42.5844 54.4184 41.7743 54.4184C40.9557 54.4184 40.3844 54.7382 40.0603 55.3777C39.7363 56.0173 39.5743 56.8871 39.5743 57.9871C39.5743 59.0872 39.7363 59.9612 40.0603 60.6093C40.3844 61.2574 40.9557 61.5814 41.7743 61.5814ZM47.4763 54.3417L47.7832 54.7126L45.6471 55.6208V54.8405L48.2181 53.6509H48.2693V62.1826H47.4763V54.3417ZM50.8657 57.2708C50.6866 57.2708 50.5331 57.2154 50.4052 57.1045C50.2858 56.9937 50.2262 56.853 50.2262 56.6824C50.2262 56.5034 50.2858 56.3584 50.4052 56.2475C50.5331 56.1367 50.6866 56.0813 50.8657 56.0813C51.0448 56.0813 51.194 56.1367 51.3134 56.2475C51.4413 56.3584 51.5053 56.5034 51.5053 56.6824C51.5053 56.853 51.4413 56.9937 51.3134 57.1045C51.194 57.2154 51.0448 57.2708 50.8657 57.2708ZM50.8657 62.3105C50.6866 62.3105 50.5331 62.2551 50.4052 62.1442C50.2858 62.0334 50.2262 61.8927 50.2262 61.7221C50.2262 61.5431 50.2858 61.3981 50.4052 61.2872C50.5331 61.1764 50.6866 61.121 50.8657 61.121C51.0448 61.121 51.194 61.1764 51.3134 61.2872C51.4413 61.3981 51.5053 61.5431 51.5053 61.7221C51.5053 61.8927 51.4413 62.0334 51.3134 62.1442C51.194 62.2551 51.0448 62.3105 50.8657 62.3105ZM52.8124 61.8373L56.1508 57.8208C56.4067 57.5053 56.6113 57.1941 56.7648 56.8871C56.9268 56.5716 57.0078 56.2902 57.0078 56.0429C57.0078 55.5568 56.8458 55.1646 56.5218 54.8661C56.1977 54.5676 55.7799 54.4184 55.2683 54.4184C54.7992 54.4184 54.4027 54.5378 54.0787 54.7766C53.7546 55.0068 53.5542 55.3223 53.4775 55.7231L52.7612 55.5568C52.8635 54.977 53.1407 54.5165 53.5926 54.1754C54.0531 53.8258 54.6116 53.6509 55.2683 53.6509C55.7628 53.6509 56.202 53.7533 56.5857 53.9579C56.9695 54.1541 57.2679 54.4355 57.4811 54.8021C57.6943 55.1603 57.8009 55.5739 57.8009 56.0429C57.8009 56.384 57.7114 56.7421 57.5323 57.1173C57.3617 57.4925 57.1358 57.8507 56.8544 58.1918L53.9636 61.6454L53.8612 61.4024H57.9032V62.1826H52.8124V61.8373ZM62.1487 62.3361C61.0401 62.3361 60.2641 61.9481 59.8207 61.1721C59.3773 60.3876 59.1556 59.3259 59.1556 57.9871C59.1556 56.6398 59.3773 55.5824 59.8207 54.8149C60.2641 54.0389 61.0401 53.6509 62.1487 53.6509C63.2487 53.6509 64.0204 54.0389 64.4639 54.8149C64.9073 55.5824 65.129 56.6398 65.129 57.9871C65.129 59.3259 64.9073 60.3876 64.4639 61.1721C64.0204 61.9481 63.2487 62.3361 62.1487 62.3361ZM62.1487 61.5814C62.9588 61.5814 63.5259 61.2574 63.8499 60.6093C64.1739 59.9612 64.336 59.0872 64.336 57.9871C64.336 56.8786 64.1739 56.0088 63.8499 55.3777C63.5259 54.7382 62.9588 54.4184 62.1487 54.4184C61.33 54.4184 60.7587 54.7382 60.4347 55.3777C60.1106 56.0173 59.9486 56.8871 59.9486 57.9871C59.9486 59.0872 60.1106 59.9612 60.4347 60.6093C60.7587 61.2574 61.33 61.5814 62.1487 61.5814ZM67.8506 54.3417L68.1576 54.7126L66.0215 55.6208V54.8405L68.5925 53.6509H68.6437V62.1826H67.8506V54.3417ZM73.1843 62.3361C72.5362 62.3361 71.9564 62.1784 71.4447 61.8628C70.9331 61.5388 70.5366 61.1124 70.2551 60.5837L70.9331 60.2128C71.1463 60.6221 71.4447 60.9547 71.8285 61.2105C72.2122 61.4578 72.6471 61.5814 73.1331 61.5814C73.5425 61.5814 73.9091 61.4962 74.2332 61.3256C74.5572 61.1465 74.8088 60.9035 74.9879 60.5965C75.1755 60.2895 75.2693 59.9442 75.2693 59.5604C75.2693 59.1852 75.1797 58.8527 75.0007 58.5627C74.8301 58.2643 74.5913 58.0383 74.2843 57.8848C73.9774 57.7228 73.632 57.6418 73.2483 57.6418C72.9072 57.6418 72.5405 57.7057 72.1482 57.8336C71.756 57.953 71.3808 58.1236 71.0226 58.3453L70.5621 57.936L71.2912 53.7661H75.4995V54.5207H71.6238L72.0075 54.1882L71.3552 57.7697L71.2529 57.5778C71.5769 57.3732 71.9223 57.2111 72.2889 57.0918C72.6641 56.9724 73.0351 56.9127 73.4018 56.9127C73.9134 56.9127 74.3696 57.0235 74.7704 57.2452C75.1797 57.4584 75.4952 57.7654 75.717 58.1662C75.9472 58.5585 76.0623 59.0189 76.0623 59.5476C76.0623 60.0849 75.9387 60.5667 75.6914 60.993C75.4441 61.4194 75.0987 61.752 74.6553 61.9908C74.2204 62.221 73.7301 62.3361 73.1843 62.3361Z" fill="#C89C66"/>
</svg>
