<svg width="18" height="18" viewBox="0 0 18 18" fill="none" xmlns="http://www.w3.org/2000/svg">
<path fill-rule="evenodd" clip-rule="evenodd" d="M4.99443 8.63419C5.11581 9.65266 5.69864 10.5353 6.51281 11.1722C6.60715 11.2461 6.70269 11.3152 6.79883 11.3801V15.7237H4.37015C4.04208 15.7237 3.77529 15.4581 3.77469 15.1301V11.186C3.7801 10.2528 3.45324 9.34795 2.85177 8.63407L4.99443 8.63419ZM3.90387 3.4752C4.14842 3.4752 4.36893 3.62241 4.46267 3.84834C4.55581 4.07427 4.50413 4.33444 4.33108 4.50749C4.15744 4.67994 3.89726 4.73161 3.67133 4.63728C3.4454 4.54354 3.29879 4.32242 3.29939 4.07788C3.29879 3.91744 3.36248 3.76362 3.47604 3.65067C3.5896 3.53711 3.74345 3.474 3.90387 3.4752ZM1.7996 1.45215H6.01583C6.17927 1.45335 6.31206 1.58554 6.31266 1.74898V2.22425C6.31206 2.38829 6.17927 2.52048 6.01583 2.52108H1.7996C1.63557 2.52108 1.50218 2.38889 1.50098 2.22425V1.74898C1.50218 1.58494 1.63557 1.45215 1.7996 1.45215ZM5.86201 2.81791H1.94266V7.74017C1.94386 8.06884 2.20944 8.33503 2.53811 8.33563H5.26966C5.59653 8.33323 5.8603 8.06884 5.86212 7.74197V4.6734H4.58108C4.33293 4.9564 3.93576 5.05615 3.58365 4.92396C3.23154 4.79177 2.99841 4.45468 2.99841 4.07855C2.99841 3.70241 3.23154 3.36593 3.58365 3.23373C3.93576 3.10094 4.33293 3.20128 4.58108 3.48429H5.86212L5.86201 2.81791ZM6.14321 3.78109C6.29943 3.7925 6.42021 3.92229 6.42021 4.07852C6.42021 4.23534 6.29944 4.36513 6.14321 4.37654H4.75882C4.82672 4.18367 4.82672 3.97396 4.75882 3.78109H6.14321ZM5.93291 8.33741H15.0162C15.2571 8.33741 15.453 8.14154 15.453 7.90059C15.453 7.65905 15.2571 7.46377 15.0162 7.46377H6.16072V7.74197C6.16072 7.96189 6.07952 8.17398 5.93291 8.33741ZM14.9897 8.63424H5.29901C5.54957 10.5552 7.62494 12.0549 10.1474 12.0549C12.6704 12.0549 14.7393 10.5552 14.9897 8.63424ZM11.5149 12.2058C12.102 13.1197 12.7984 13.9586 13.5884 14.7042C13.7621 14.8724 13.8161 15.1296 13.7248 15.3537C13.6335 15.5784 13.4154 15.7244 13.1732 15.7238H7.09254V11.5707C8.02147 12.0946 9.07175 12.3656 10.1383 12.3566C10.601 12.356 11.0625 12.3056 11.5149 12.2058Z" fill="#591B42"/>
</svg>
