<svg width="18" height="18" viewBox="0 0 18 18" fill="none" xmlns="http://www.w3.org/2000/svg">
<path d="M14.1574 11.0714V9.25637H15.9724C16.2295 9.25637 16.4451 9.34334 16.619 9.51727C16.793 9.69121 16.8799 9.90674 16.8799 10.1639C16.8799 10.421 16.793 10.6365 16.619 10.8105C16.4451 10.9844 16.2295 11.0714 15.9724 11.0714H14.1574ZM14.1574 14.7014V12.8864H15.9724C16.2295 12.8864 16.4451 12.9733 16.619 13.1473C16.793 13.3212 16.8799 13.5367 16.8799 13.7939C16.8799 14.051 16.793 14.2665 16.619 14.4405C16.4451 14.6144 16.2295 14.7014 15.9724 14.7014H14.1574ZM10.5274 15.6089C10.0283 15.6089 9.60102 15.4311 9.24558 15.0757C8.89014 14.7203 8.71242 14.293 8.71242 13.7939H6.89742V10.1639H8.71242C8.71242 9.66474 8.89014 9.23746 9.24558 8.88202C9.60102 8.52659 10.0283 8.34887 10.5274 8.34887H13.2499V15.6089H10.5274ZM4.17492 12.8864C3.17667 12.8864 2.32211 12.5309 1.61123 11.8201C0.900359 11.1092 0.544922 10.2546 0.544922 9.25637C0.544922 8.25812 0.900359 7.40355 1.61123 6.69268C2.32211 5.9818 3.17667 5.62637 4.17492 5.62637H5.53617C5.9143 5.62637 6.2357 5.49402 6.50039 5.22934C6.76508 4.96465 6.89742 4.64324 6.89742 4.26512C6.89742 3.88699 6.76508 3.56559 6.50039 3.3009C6.2357 3.03621 5.9143 2.90387 5.53617 2.90387H2.35992C2.1028 2.90387 1.88727 2.8169 1.71333 2.64296C1.53939 2.46902 1.45242 2.25349 1.45242 1.99637C1.45242 1.73924 1.53939 1.52371 1.71333 1.34977C1.88727 1.17584 2.1028 1.08887 2.35992 1.08887H5.53617C6.41342 1.08887 7.16211 1.39893 7.78223 2.01905C8.40236 2.63918 8.71242 3.38787 8.71242 4.26512C8.71242 5.14237 8.40236 5.89105 7.78223 6.51118C7.16211 7.1313 6.41342 7.44137 5.53617 7.44137H4.17492C3.6758 7.44137 3.24852 7.61909 2.89308 7.97452C2.53764 8.32996 2.35992 8.75724 2.35992 9.25637C2.35992 9.75549 2.53764 10.1828 2.89308 10.5382C3.24852 10.8936 3.6758 11.0714 4.17492 11.0714H5.98992V12.8864H4.17492Z" fill="#591B42"/>
<mask id="mask0_26_13860" style="mask-type:alpha" maskUnits="userSpaceOnUse" x="0" y="0" width="18" height="18">
<rect width="17.424" height="17.424" fill="#D9D9D9"/>
</mask>
<g mask="url(#mask0_26_13860)">
</g>
</svg>
