<svg width="40" height="18" viewBox="0 0 40 18" fill="none" xmlns="http://www.w3.org/2000/svg">
<mask id="mask0_26_13926" style="mask-type:alpha" maskUnits="userSpaceOnUse" x="0" y="0" width="18" height="18">
<rect width="17.424" height="17.424" fill="#D9D9D9"/>
</mask>
<g mask="url(#mask0_26_13926)">
<path d="M4.35525 13.7939V14.5199C4.35525 14.7256 4.28567 14.898 4.14652 15.0372C4.00737 15.1763 3.83495 15.2459 3.62925 15.2459H2.90325C2.69755 15.2459 2.52512 15.1763 2.38597 15.0372C2.24682 14.898 2.17725 14.7256 2.17725 14.5199V8.71188L3.70185 4.35588C3.77445 4.13808 3.90452 3.96263 4.09207 3.82953C4.27962 3.69643 4.48835 3.62988 4.71825 3.62988H12.7042C12.9341 3.62988 13.1429 3.69643 13.3304 3.82953C13.518 3.96263 13.648 4.13808 13.7206 4.35588L15.2452 8.71188V14.5199C15.2452 14.7256 15.1757 14.898 15.0365 15.0372C14.8974 15.1763 14.7249 15.2459 14.5192 15.2459H13.7932C13.5875 15.2459 13.4151 15.1763 13.276 15.0372C13.1368 14.898 13.0672 14.7256 13.0672 14.5199V13.7939H4.35525ZM4.21005 7.25988H13.2124L12.4501 5.08188H4.97235L4.21005 7.25988ZM5.44425 11.6159C5.74675 11.6159 6.00387 11.51 6.21562 11.2983C6.42737 11.0865 6.53325 10.8294 6.53325 10.5269C6.53325 10.2244 6.42737 9.96726 6.21562 9.75551C6.00387 9.54376 5.74675 9.43788 5.44425 9.43788C5.14175 9.43788 4.88462 9.54376 4.67287 9.75551C4.46112 9.96726 4.35525 10.2244 4.35525 10.5269C4.35525 10.8294 4.46112 11.0865 4.67287 11.2983C4.88462 11.51 5.14175 11.6159 5.44425 11.6159ZM11.9782 11.6159C12.2807 11.6159 12.5379 11.51 12.7496 11.2983C12.9614 11.0865 13.0672 10.8294 13.0672 10.5269C13.0672 10.2244 12.9614 9.96726 12.7496 9.75551C12.5379 9.54376 12.2807 9.43788 11.9782 9.43788C11.6757 9.43788 11.4186 9.54376 11.2069 9.75551C10.9951 9.96726 10.8892 10.2244 10.8892 10.5269C10.8892 10.8294 10.9951 11.0865 11.2069 11.2983C11.4186 11.51 11.6757 11.6159 11.9782 11.6159Z" fill="#591B42"/>
</g>
<mask id="mask1_26_13926" style="mask-type:alpha" maskUnits="userSpaceOnUse" x="21" y="0" width="19" height="18">
<rect x="21.7803" width="17.424" height="17.424" fill="#D9D9D9"/>
</mask>
<g mask="url(#mask1_26_13926)">
<path d="M24.6843 13.7939C23.8857 13.7939 23.202 13.5095 22.6333 12.9408C22.0646 12.3721 21.7803 11.6885 21.7803 10.8899C21.7803 10.2002 22.0011 9.58913 22.4427 9.05673C22.8844 8.52433 23.4501 8.19158 24.1398 8.05848L23.6316 7.62288H21.7803V6.53388H25.0473L26.8623 7.62288L29.7663 6.53388H32.0532L30.9279 5.08188H29.0403V3.62988H31.6176L33.1422 5.59008L35.5743 4.35588V6.53388H33.9045L35.175 8.20368C35.3565 8.13108 35.541 8.07663 35.7285 8.04033C35.9161 8.00403 36.1067 7.98588 36.3003 7.98588C37.0989 7.98588 37.7825 8.27023 38.3512 8.83893C38.9199 9.40763 39.2043 10.0913 39.2043 10.8899C39.2043 11.6885 38.9199 12.3721 38.3512 12.9408C37.7825 13.5095 37.0989 13.7939 36.3003 13.7939C35.5017 13.7939 34.818 13.5095 34.2493 12.9408C33.6806 12.3721 33.3963 11.6885 33.3963 10.8899C33.3963 10.5632 33.4537 10.2456 33.5687 9.93701C33.6836 9.62846 33.844 9.34108 34.0497 9.07488L33.6867 8.63928L31.2183 12.3419H29.0403L27.5883 11.0714C27.5278 11.8337 27.2192 12.478 26.6626 13.0044C26.106 13.5307 25.4466 13.7939 24.6843 13.7939ZM24.6843 12.3419C25.0836 12.3419 25.4254 12.1997 25.7097 11.9154C25.9941 11.631 26.1363 11.2892 26.1363 10.8899C26.1363 10.4906 25.9941 10.1488 25.7097 9.86441C25.4254 9.58006 25.0836 9.43788 24.6843 9.43788C24.285 9.43788 23.9431 9.58006 23.6588 9.86441C23.3744 10.1488 23.2323 10.4906 23.2323 10.8899C23.2323 11.2892 23.3744 11.631 23.6588 11.9154C23.9431 12.1997 24.285 12.3419 24.6843 12.3419ZM36.3003 12.3419C36.6996 12.3419 37.0414 12.1997 37.3257 11.9154C37.6101 11.631 37.7523 11.2892 37.7523 10.8899C37.7523 10.4906 37.6101 10.1488 37.3257 9.86441C37.0414 9.58006 36.6996 9.43788 36.3003 9.43788C35.901 9.43788 35.5591 9.58006 35.2748 9.86441C34.9904 10.1488 34.8483 10.4906 34.8483 10.8899C34.8483 11.2892 34.9904 11.631 35.2748 11.9154C35.5591 12.1997 35.901 12.3419 36.3003 12.3419Z" fill="#591B42"/>
</g>
</svg>
