<svg width="18" height="18" viewBox="0 0 18 18" fill="none" xmlns="http://www.w3.org/2000/svg">
<path fill-rule="evenodd" clip-rule="evenodd" d="M4.99394 8.63419C5.11532 9.65266 5.69815 10.5353 6.51232 11.1722C6.60666 11.2461 6.7022 11.3152 6.79834 11.3801V15.7237H4.36966C4.04159 15.7237 3.77481 15.4581 3.77421 15.1301V11.186C3.77961 10.2528 3.45275 9.34795 2.85128 8.63407L4.99394 8.63419ZM3.90338 3.4752C4.14793 3.4752 4.36845 3.62241 4.46218 3.84834C4.55532 4.07427 4.50364 4.33444 4.3306 4.50749C4.15695 4.67994 3.89677 4.73161 3.67084 4.63728C3.44491 4.54354 3.2983 4.32242 3.2989 4.07788C3.2983 3.91744 3.362 3.76362 3.47555 3.65067C3.58911 3.53711 3.74296 3.474 3.90338 3.4752ZM1.79912 1.45215H6.01534C6.17878 1.45335 6.31157 1.58554 6.31217 1.74898V2.22425C6.31157 2.38829 6.17878 2.52048 6.01534 2.52108H1.79912C1.63508 2.52108 1.50169 2.38889 1.50049 2.22425V1.74898C1.50169 1.58494 1.63508 1.45215 1.79912 1.45215ZM5.86152 2.81791H1.94217V7.74017C1.94337 8.06884 2.20896 8.33503 2.53762 8.33563H5.26917C5.59604 8.33323 5.85982 8.06884 5.86163 7.74197V4.6734H4.5806C4.33244 4.9564 3.93527 5.05615 3.58316 4.92396C3.23105 4.79177 2.99792 4.45468 2.99792 4.07855C2.99792 3.70241 3.23105 3.36593 3.58316 3.23373C3.93527 3.10094 4.33244 3.20128 4.5806 3.48429H5.86163L5.86152 2.81791ZM6.14272 3.78109C6.29894 3.7925 6.41972 3.92229 6.41972 4.07852C6.41972 4.23534 6.29895 4.36513 6.14272 4.37654H4.75834C4.82623 4.18367 4.82623 3.97396 4.75834 3.78109H6.14272ZM5.93242 8.33741H15.0157C15.2566 8.33741 15.4525 8.14154 15.4525 7.90059C15.4525 7.65905 15.2566 7.46377 15.0157 7.46377H6.16023V7.74197C6.16023 7.96189 6.07903 8.17398 5.93242 8.33741ZM14.9892 8.63424H5.29852C5.54908 10.5552 7.62445 12.0549 10.147 12.0549C12.6699 12.0549 14.7388 10.5552 14.9892 8.63424ZM11.5144 12.2058C12.1015 13.1197 12.7979 13.9586 13.5879 14.7042C13.7616 14.8724 13.8157 15.1296 13.7243 15.3537C13.633 15.5784 13.4149 15.7244 13.1727 15.7238H7.09205V11.5707C8.02099 12.0946 9.07126 12.3656 10.1379 12.3566C10.6005 12.356 11.062 12.3056 11.5144 12.2058Z" fill="#591B42"/>
</svg>
