<svg width="18" height="18" viewBox="0 0 18 18" fill="none" xmlns="http://www.w3.org/2000/svg">
<mask id="mask0_26_15178" style="mask-type:alpha" maskUnits="userSpaceOnUse" x="0" y="0" width="18" height="18">
<rect width="17.424" height="17.424" fill="#D9D9D9"/>
</mask>
<g mask="url(#mask0_26_15178)">
<path d="M13.6857 15.9539C13.5889 15.9539 13.4982 15.9388 13.4135 15.9085C13.3288 15.8783 13.2501 15.8269 13.1775 15.7543L9.47494 12.0517C9.40234 11.9791 9.35091 11.9004 9.32066 11.8157C9.29041 11.731 9.27529 11.6403 9.27529 11.5435C9.27529 11.4467 9.29041 11.3559 9.32066 11.2712C9.35091 11.1865 9.40234 11.1079 9.47494 11.0353L11.0177 9.49252C11.0903 9.41992 11.1689 9.3685 11.2536 9.33825C11.3383 9.308 11.4291 9.29287 11.5259 9.29287C11.6227 9.29287 11.7134 9.308 11.7981 9.33825C11.8828 9.3685 11.9615 9.41992 12.0341 9.49252L15.7367 13.1951C15.8093 13.2677 15.8607 13.3464 15.891 13.4311C15.9212 13.5158 15.9363 13.6065 15.9363 13.7033C15.9363 13.8001 15.9212 13.8909 15.891 13.9756C15.8607 14.0603 15.8093 14.1389 15.7367 14.2115L14.1939 15.7543C14.1213 15.8269 14.0427 15.8783 13.958 15.9085C13.8733 15.9388 13.7825 15.9539 13.6857 15.9539ZM3.72139 15.9721C3.62459 15.9721 3.53081 15.9539 3.44006 15.9176C3.34931 15.8813 3.26764 15.8269 3.19504 15.7543L1.67044 14.2297C1.59784 14.1571 1.54339 14.0754 1.50709 13.9846C1.47079 13.8939 1.45264 13.8001 1.45264 13.7033C1.45264 13.6065 1.47079 13.5158 1.50709 13.4311C1.54339 13.3464 1.59784 13.2677 1.67044 13.1951L5.51824 9.34732H7.06099L7.67809 8.73022L4.68334 5.73547H3.64879L1.45264 3.53932L3.50359 1.48837L5.69974 3.68452V4.71907L8.69449 7.71382L10.7999 5.60842L10.0194 4.82797L11.0358 3.81157H8.98489L8.47669 3.30337L11.054 0.726074L11.5622 1.23427V3.28522L12.5786 2.26882L15.1559 4.84612C15.3616 5.05182 15.5189 5.28475 15.6278 5.5449C15.7367 5.80505 15.7911 6.08032 15.7911 6.37072C15.7911 6.66112 15.7367 6.93942 15.6278 7.20562C15.5189 7.47182 15.3616 7.70777 15.1559 7.91347L13.6131 6.37072L12.5967 7.38712L11.8344 6.62482L8.07739 10.3819V11.9065L4.22959 15.7543C4.15699 15.8269 4.07834 15.8813 3.99364 15.9176C3.90894 15.9539 3.81819 15.9721 3.72139 15.9721Z" fill="#591B42"/>
</g>
</svg>
