<svg width="18" height="18" viewBox="0 0 18 18" fill="none" xmlns="http://www.w3.org/2000/svg">
<mask id="mask0_26_13881" style="mask-type:alpha" maskUnits="userSpaceOnUse" x="0" y="0" width="18" height="18">
<rect width="17.424" height="17.424" fill="#D9D9D9"/>
</mask>
<g mask="url(#mask0_26_13881)">
<path d="M13.6852 15.9534C13.5884 15.9534 13.4977 15.9383 13.413 15.9081C13.3283 15.8778 13.2496 15.8264 13.177 15.7538L9.47445 12.0512C9.40185 11.9786 9.35042 11.8999 9.32017 11.8152C9.28992 11.7305 9.2748 11.6398 9.2748 11.543C9.2748 11.4462 9.28992 11.3554 9.32017 11.2707C9.35042 11.186 9.40185 11.1074 9.47445 11.0348L11.0172 9.49204C11.0898 9.41944 11.1684 9.36801 11.2531 9.33776C11.3378 9.30751 11.4286 9.29239 11.5254 9.29239C11.6222 9.29239 11.7129 9.30751 11.7976 9.33776C11.8823 9.36801 11.961 9.41944 12.0336 9.49204L15.7362 13.1946C15.8088 13.2672 15.8602 13.3459 15.8905 13.4306C15.9207 13.5153 15.9358 13.606 15.9358 13.7028C15.9358 13.7996 15.9207 13.8904 15.8905 13.9751C15.8602 14.0598 15.8088 14.1384 15.7362 14.211L14.1934 15.7538C14.1208 15.8264 14.0422 15.8778 13.9575 15.9081C13.8728 15.9383 13.782 15.9534 13.6852 15.9534ZM3.7209 15.9716C3.6241 15.9716 3.53032 15.9534 3.43957 15.9171C3.34882 15.8808 3.26715 15.8264 3.19455 15.7538L1.66995 14.2292C1.59735 14.1566 1.5429 14.0749 1.5066 13.9842C1.4703 13.8934 1.45215 13.7996 1.45215 13.7028C1.45215 13.606 1.4703 13.5153 1.5066 13.4306C1.5429 13.3459 1.59735 13.2672 1.66995 13.1946L5.51775 9.34684H7.0605L7.6776 8.72974L4.68285 5.73499H3.6483L1.45215 3.53884L3.5031 1.48789L5.69925 3.68404V4.71859L8.694 7.71334L10.7994 5.60794L10.0189 4.82749L11.0353 3.81109H8.9844L8.4762 3.30289L11.0535 0.725586L11.5617 1.23379V3.28474L12.5781 2.26834L15.1554 4.84564C15.3611 5.05134 15.5184 5.28426 15.6273 5.54441C15.7362 5.80456 15.7906 6.07984 15.7906 6.37024C15.7906 6.66064 15.7362 6.93894 15.6273 7.20514C15.5184 7.47134 15.3611 7.70729 15.1554 7.91299L13.6126 6.37024L12.5962 7.38664L11.8339 6.62434L8.0769 10.3814V11.906L4.2291 15.7538C4.1565 15.8264 4.07785 15.8808 3.99315 15.9171C3.90845 15.9534 3.8177 15.9716 3.7209 15.9716Z" fill="#591B42"/>
</g>
</svg>
