<svg width="56" height="56" viewBox="0 0 56 56" fill="none" xmlns="http://www.w3.org/2000/svg">
<mask id="mask0_26_12266" style="mask-type:alpha" maskUnits="userSpaceOnUse" x="0" y="0" width="56" height="56">
<rect width="56" height="56" fill="#D9D9D9"/>
</mask>
<g mask="url(#mask0_26_12266)">
<path d="M27.8245 49C24.9258 49 22.1991 48.4474 19.6445 47.3422C17.0898 46.2366 14.8672 44.7386 12.9764 42.8482C11.086 40.9574 9.58798 38.7347 8.48237 36.1801C7.37715 33.6255 6.82454 30.8988 6.82454 28C6.82454 25.1012 7.37715 22.3745 8.48237 19.8199C9.58798 17.2653 11.086 15.0426 12.9764 13.1518C14.8672 11.2614 17.0898 9.76344 19.6445 8.65783C22.1991 7.55261 24.9258 7 27.8245 7C30.7233 7 33.45 7.55261 36.0046 8.65783C38.5592 9.76344 40.7819 11.2614 42.6727 13.1518C44.5631 15.0426 46.0611 17.2653 47.1667 19.8199C48.2719 22.3745 48.8245 25.1012 48.8245 28C48.8245 30.8988 48.2719 33.6255 47.1667 36.1801C46.0611 38.7347 44.5631 40.9574 42.6727 42.8482C40.7819 44.7386 38.5592 46.2366 36.0046 47.3422C33.45 48.4474 30.7233 49 27.8245 49ZM44.6245 36.1667H21.206L16.5394 40.8333H41.3894C42.0594 40.1454 42.663 39.4147 43.2 38.6412C43.7367 37.8681 44.2115 37.0432 44.6245 36.1667ZM46.4644 29.1667H28.2644L23.5977 33.8333H45.5491C45.8062 33.0855 46.0109 32.3248 46.1634 31.5513C46.3162 30.7782 46.4165 29.9833 46.4644 29.1667ZM45.5491 22.1667H35.3093L30.5977 26.8333H46.4644C46.4165 26.0167 46.3162 25.2218 46.1634 24.4487C46.0109 23.6752 45.8062 22.9145 45.5491 22.1667ZM41.8199 15.6695L37.656 19.8333H44.6245C44.2504 19.0556 43.8324 18.3219 43.3704 17.6324C42.9084 16.9429 42.3915 16.2886 41.8199 15.6695ZM13.8292 40.3305L40.2274 14.0496C38.573 12.5656 36.6914 11.4086 34.5825 10.5787C32.4735 9.74847 30.2209 9.33333 27.8245 9.33333C22.6134 9.33333 18.1995 11.1417 14.5829 14.7583C10.9662 18.375 9.15787 22.7889 9.15787 28C9.15787 30.387 9.57301 32.6254 10.4033 34.7153C11.2332 36.8048 12.3752 38.6766 13.8292 40.3305ZM27.8245 46.6667C29.8557 46.6667 31.7867 46.36 33.6176 45.7467C35.4481 45.1335 37.1338 44.2734 38.6745 43.1667H16.9745C18.5153 44.2734 20.201 45.1335 22.0315 45.7467C23.8623 46.36 25.7934 46.6667 27.8245 46.6667Z" fill="#C89C66"/>
</g>
</svg>
