<svg width="18" height="18" viewBox="0 0 18 18" fill="none" xmlns="http://www.w3.org/2000/svg">
<mask id="mask0_26_13896" style="mask-type:alpha" maskUnits="userSpaceOnUse" x="0" y="0" width="18" height="18">
<rect width="17.424" height="17.424" fill="#D9D9D9"/>
</mask>
<g mask="url(#mask0_26_13896)">
<path d="M6.53479 9.43815H7.98679V7.44165H9.43879V9.43815H10.8908V5.98965L8.71279 4.53765L6.53479 5.98965V9.43815ZM8.71279 15.9721C6.76469 14.3144 5.30966 12.7747 4.34771 11.353C3.38576 9.93122 2.90479 8.61535 2.90479 7.40535C2.90479 5.59035 3.48861 4.1444 4.65626 3.0675C5.82391 1.9906 7.17609 1.45215 8.71279 1.45215C10.2495 1.45215 11.6017 1.9906 12.7693 3.0675C13.937 4.1444 14.5208 5.59035 14.5208 7.40535C14.5208 8.61535 14.0398 9.93122 13.0779 11.353C12.1159 12.7747 10.6609 14.3144 8.71279 15.9721Z" fill="#591B42"/>
</g>
</svg>
