<svg width="163" height="24" viewBox="0 0 163 24" fill="none" xmlns="http://www.w3.org/2000/svg">
<path d="M64.7749 0.00277337H5.60915C5.39283 0.00277337 5.18066 0.00277337 4.96573 0.00416006C4.78546 0.00554675 4.60657 0.00832012 4.42492 0.0110935C4.02971 0.0152536 3.63589 0.0499207 3.24623 0.115095C2.85658 0.181656 2.48078 0.305071 2.12856 0.483954C1.77635 0.664223 1.45602 0.898573 1.17591 1.1773C0.8958 1.45602 0.66145 1.77773 0.482567 2.13134C0.303684 2.48356 0.180269 2.86074 0.115095 3.25039C0.0499207 3.64005 0.0138669 4.03249 0.00970681 4.42769C0.00416006 4.60796 0.00277337 4.78823 0 4.96989V18.5636C0.00277337 18.7466 0.00416006 18.9227 0.00970681 19.1058C0.0138669 19.4996 0.0499207 19.8934 0.115095 20.2831C0.180269 20.6727 0.303684 21.0513 0.482567 21.4035C0.66145 21.7543 0.894413 22.0761 1.17591 22.352C1.45463 22.6321 1.77496 22.8665 2.12718 23.0454C2.4794 23.2242 2.85658 23.349 3.24485 23.417C3.63451 23.4808 4.02833 23.5154 4.42353 23.521C4.60519 23.5251 4.78407 23.5265 4.96434 23.5265C5.17928 23.5279 5.39283 23.5279 5.60776 23.5279H73.8217C74.0324 23.5279 74.2474 23.5279 74.4595 23.5265C74.6384 23.5265 74.8229 23.5238 75.0017 23.5196C75.3956 23.5154 75.7894 23.4808 76.1777 23.4156C76.5687 23.349 76.9459 23.2228 77.2995 23.044C77.6517 22.8651 77.9734 22.6307 78.2507 22.3506C78.5309 22.0733 78.7652 21.7516 78.9455 21.4021C79.123 21.0499 79.2464 20.6713 79.3102 20.2817C79.3754 19.892 79.4114 19.4996 79.4197 19.1044C79.4225 18.9213 79.4225 18.7452 79.4225 18.5622C79.4267 18.3486 79.4267 18.1365 79.4267 17.9188V5.61054C79.4267 5.3956 79.4267 5.18205 79.4225 4.9685C79.4225 4.78823 79.4225 4.60796 79.4197 4.4263C79.4128 4.03249 79.3767 3.63867 79.3102 3.24901C79.2464 2.85935 79.123 2.48217 78.9455 2.12995C78.5822 1.42274 78.0067 0.845879 77.2995 0.482567C76.9459 0.303684 76.5673 0.180269 76.1777 0.113708C75.788 0.048534 75.3956 0.0138669 75.0017 0.00970681C74.8229 0.00693344 74.6384 0.00277337 74.4595 0.00138669C74.2488 0 74.0338 0 73.8217 0H64.7749V0.00277337Z" fill="#591B42"/>
<path d="M4.96828 23.013C4.78939 23.013 4.61467 23.0102 4.43718 23.0074C4.06832 23.0019 3.70085 22.97 3.33753 22.9118C2.99779 22.8535 2.67054 22.744 2.36269 22.5887C2.05901 22.4347 1.78167 22.2337 1.54177 21.991C1.29772 21.7511 1.09526 21.4738 0.941338 21.1701C0.786029 20.8636 0.677867 20.535 0.6224 20.1952C0.562772 19.8305 0.529492 19.4617 0.525332 19.0928C0.521172 18.9694 0.515625 18.5562 0.515625 18.5562V4.9708C0.515625 4.9708 0.521172 4.56311 0.525332 4.44524C0.529492 4.07638 0.562772 3.70752 0.6224 3.34421C0.677867 3.00447 0.786029 2.67444 0.942725 2.3666C1.09665 2.06153 1.29772 1.78419 1.54039 1.54429C1.78167 1.30162 2.06039 1.09917 2.36408 0.942471C2.67054 0.788549 2.99779 0.680387 3.33615 0.623533C3.70085 0.563905 4.0697 0.530625 4.43856 0.526465L4.96966 0.519531H74.4579L74.9946 0.527851C75.3607 0.532011 75.7268 0.563905 76.0873 0.623533C76.4284 0.681774 76.7598 0.789935 77.0705 0.946631C77.6806 1.26141 78.177 1.75923 78.4904 2.36937C78.643 2.67583 78.7497 3.0017 78.8052 3.33867C78.8662 3.70614 78.9009 4.07638 78.9078 4.44802C78.9092 4.61442 78.9092 4.7933 78.9092 4.97218C78.9134 5.19267 78.9134 5.40206 78.9134 5.61422V17.9225C78.9134 18.136 78.9134 18.344 78.9092 18.5548C78.9092 18.7461 78.9092 18.9209 78.9064 19.1011C78.8995 19.4658 78.8662 19.8305 78.8066 20.1911C78.7525 20.5322 78.6443 20.8636 78.489 21.1728C78.3337 21.4738 78.1327 21.7497 77.8914 21.9882C77.6515 22.2309 77.3728 22.4347 77.0677 22.59C76.7585 22.7467 76.4284 22.8563 76.0873 22.9131C75.724 22.9714 75.3565 23.0047 74.9877 23.0088C74.8157 23.013 74.6354 23.0158 74.4593 23.0158H73.8214L4.96828 23.013Z" fill="#591B42"/>
<path d="M19.2255 11.6984C19.2394 10.6612 19.7829 9.70299 20.6663 9.15941C20.106 8.35929 19.2019 7.86979 18.2257 7.83928C17.1982 7.73112 16.2039 8.45358 15.6797 8.45358C15.1556 8.45358 14.3402 7.84899 13.4735 7.86702C12.3323 7.90446 11.2936 8.53817 10.7376 9.5352C9.55473 11.5833 10.4367 14.5924 11.5696 16.2482C12.1367 17.0594 12.7996 17.9635 13.6663 17.9316C14.5149 17.8969 14.8311 17.3908 15.8558 17.3908C16.8806 17.3908 17.1676 17.9316 18.0524 17.9108C18.962 17.8969 19.5361 17.0968 20.0825 16.2787C20.4901 15.7004 20.8035 15.0625 21.0115 14.3872C19.9299 13.931 19.2269 12.8716 19.2255 11.6984ZM17.5559 6.75073C18.0523 6.15446 18.2964 5.38901 18.2382 4.61523C17.4796 4.69428 16.7794 5.05759 16.276 5.63029C15.7796 6.19606 15.5272 6.93516 15.5771 7.68536C16.344 7.69368 17.0733 7.34839 17.5559 6.75073Z" fill="white"/>
<path d="M29.405 15.9618H26.6219L25.9521 17.9351H24.7734L27.4095 10.6314H28.634L31.2715 17.9351H30.072L29.405 15.9618ZM26.9089 15.0508H29.1152L28.0266 11.8475H27.9961L26.9089 15.0508ZM36.9666 15.2726C36.9666 16.9269 36.0805 17.9905 34.7437 17.9905C34.0531 18.0266 33.4028 17.6647 33.0686 17.0587H33.0436V19.6962H31.9509V12.6102H33.009V13.4963H33.0284C33.3764 12.8945 34.0282 12.5325 34.7243 12.5547C36.0763 12.5547 36.9666 13.6239 36.9666 15.2726ZM35.8434 15.2726C35.8434 14.1952 35.2859 13.4866 34.4359 13.4866C33.5858 13.4866 33.0395 14.2104 33.0395 15.274C33.0395 16.3376 33.6011 17.0656 34.4359 17.0656C35.2859 17.0656 35.8434 16.3612 35.8434 15.2726ZM42.8267 15.2726C42.8267 16.9269 41.9406 17.9905 40.6039 17.9905C39.9133 18.0266 39.2629 17.6647 38.9287 17.0587H38.9038V19.6962H37.8111V12.6102H38.8691V13.4963H38.8885C39.238 12.8945 39.8883 12.5325 40.5844 12.5547C41.9365 12.5547 42.8267 13.6239 42.8267 15.2726ZM41.7035 15.2726C41.7035 14.1952 41.1461 13.4866 40.296 13.4866C39.446 13.4866 38.8996 14.2104 38.8996 15.274C38.8996 16.3376 39.4612 17.0656 40.296 17.0656C41.1461 17.0656 41.7035 16.3612 41.7035 15.2726ZM46.6997 15.9008C46.7815 16.6246 47.4846 17.1003 48.4456 17.1003C49.4065 17.1003 50.0292 16.6246 50.0292 15.9715C50.0292 15.4044 49.6298 15.066 48.6827 14.833L47.7356 14.6056C46.3947 14.2811 45.772 13.6544 45.772 12.6365C45.772 11.376 46.8703 10.5107 48.4289 10.5107C49.9876 10.5107 51.0304 11.376 51.0664 12.6365H49.9626C49.896 11.9071 49.2942 11.4676 48.4137 11.4676C47.5331 11.4676 46.9313 11.9127 46.9313 12.5603C46.9313 13.0775 47.3168 13.3798 48.2584 13.6128L49.0626 13.8111C50.5617 14.1647 51.1829 14.7679 51.1829 15.8356C51.1829 17.2015 50.0943 18.0585 48.3638 18.0585C46.7441 18.0585 45.65 17.2223 45.5793 15.9022H46.6997V15.9008ZM53.5444 11.3511V12.6116H54.5567V13.4769H53.5444V16.4125C53.5444 16.8687 53.7469 17.0809 54.192 17.0809C54.3126 17.0781 54.4319 17.0698 54.5512 17.0559V17.9157C54.3501 17.9531 54.1476 17.9697 53.9438 17.967C52.8663 17.967 52.4448 17.562 52.4448 16.5304V13.4783H51.6696V12.613H52.4448V11.3511H53.5444ZM55.1419 15.2726C55.1419 13.5975 56.1292 12.545 57.667 12.545C59.2049 12.545 60.1936 13.5975 60.1936 15.2726C60.1936 16.9477 59.216 18.0002 57.667 18.0002C56.1195 18.0016 55.1419 16.9533 55.1419 15.2726ZM59.0801 15.2726C59.0801 14.1231 58.5531 13.445 57.667 13.445C56.7809 13.445 56.2554 14.1286 56.2554 15.2726C56.2554 16.4166 56.7823 17.0989 57.667 17.0989C58.5531 17.1003 59.0801 16.4277 59.0801 15.2726ZM61.0949 12.6102H62.1377V13.5157H62.1627C62.3083 12.9319 62.8422 12.5311 63.4426 12.5533C63.5688 12.5533 63.695 12.5672 63.817 12.5935V13.6155C63.6575 13.567 63.4925 13.5448 63.3261 13.549C63.0044 13.5365 62.6938 13.6641 62.4747 13.8998C62.2556 14.1355 62.1502 14.4545 62.1876 14.7748V17.9323H61.0935V12.6102H61.0949ZM68.8576 16.3709C68.7106 17.3374 67.7691 18.0002 66.5654 18.0002C65.0165 18.0002 64.0555 16.963 64.0555 15.2976C64.0555 13.6322 65.022 12.5436 66.5197 12.5436C68.0173 12.5436 68.9186 13.5559 68.9186 15.17V15.5444H65.1579V15.611C65.1233 16.0076 65.2592 16.4 65.5337 16.6884C65.8083 16.9769 66.1924 17.1336 66.5904 17.1197C67.1215 17.1696 67.6207 16.8645 67.8204 16.3709H68.8576ZM65.1621 14.7817H67.8245C67.8439 14.4254 67.715 14.0773 67.4668 13.8208C67.2185 13.5642 66.8746 13.4228 66.5183 13.4297C66.1591 13.4269 65.8138 13.5684 65.5587 13.8235C65.3049 14.0773 65.1607 14.4226 65.1621 14.7817Z" fill="white"/>
<path d="M28.4484 6.92682C28.4484 7.1953 28.4066 7.42946 28.3231 7.62933C28.2396 7.82621 28.1218 7.99027 27.9696 8.12153C27.8175 8.2498 27.6355 8.34675 27.4237 8.41237C27.2119 8.47502 26.9793 8.50634 26.7257 8.50634C26.6004 8.50634 26.4617 8.50037 26.3096 8.48844C26.1604 8.47949 26.0247 8.4601 25.9024 8.43027V5.42337C26.0247 5.39354 26.1604 5.37415 26.3096 5.3652C26.4617 5.35327 26.6004 5.34731 26.7257 5.34731C26.9793 5.34731 27.2119 5.38012 27.4237 5.44575C27.6355 5.50839 27.8175 5.60534 27.9696 5.73659C28.1218 5.86486 28.2396 6.02893 28.3231 6.22879C28.4066 6.42567 28.4484 6.65835 28.4484 6.92682ZM26.7615 8.126C27.1732 8.126 27.4804 8.0216 27.6833 7.81278C27.8861 7.60099 27.9875 7.30567 27.9875 6.92682C27.9875 6.54798 27.8861 6.25415 27.6833 6.04534C27.4804 5.83354 27.1732 5.72764 26.7615 5.72764C26.6392 5.72764 26.5437 5.72913 26.4751 5.73212C26.4095 5.7351 26.3633 5.73808 26.3364 5.74107V8.11258C26.3633 8.11556 26.4095 8.11855 26.4751 8.12153C26.5437 8.12451 26.6392 8.126 26.7615 8.126ZM31.1192 7.31611C31.1192 7.50106 31.0924 7.66811 31.0387 7.81726C30.985 7.96641 30.9089 8.09468 30.8105 8.20207C30.715 8.30946 30.6002 8.39298 30.4659 8.45264C30.3317 8.50932 30.1855 8.53766 30.0274 8.53766C29.8693 8.53766 29.7232 8.50932 29.5889 8.45264C29.4547 8.39298 29.3384 8.30946 29.2399 8.20207C29.1445 8.09468 29.0699 7.96641 29.0162 7.81726C28.9625 7.66811 28.9356 7.50106 28.9356 7.31611C28.9356 7.13414 28.9625 6.96859 29.0162 6.81943C29.0699 6.6673 29.1445 6.53754 29.2399 6.43015C29.3384 6.32276 29.4547 6.24073 29.5889 6.18405C29.7232 6.12439 29.8693 6.09456 30.0274 6.09456C30.1855 6.09456 30.3317 6.12439 30.4659 6.18405C30.6002 6.24073 30.715 6.32276 30.8105 6.43015C30.9089 6.53754 30.985 6.6673 31.0387 6.81943C31.0924 6.96859 31.1192 7.13414 31.1192 7.31611ZM30.6852 7.31611C30.6852 7.0536 30.6255 6.84628 30.5062 6.69415C30.3899 6.53903 30.2303 6.46147 30.0274 6.46147C29.8246 6.46147 29.6635 6.53903 29.5442 6.69415C29.4278 6.84628 29.3697 7.0536 29.3697 7.31611C29.3697 7.57862 29.4278 7.78743 29.5442 7.94255C29.6635 8.09468 29.8246 8.17075 30.0274 8.17075C30.2303 8.17075 30.3899 8.09468 30.5062 7.94255C30.6255 7.78743 30.6852 7.57862 30.6852 7.31611ZM33.5496 8.47949C33.466 8.26471 33.3766 8.0201 33.2811 7.74567C33.1886 7.46824 33.1036 7.18038 33.026 6.88208C32.9485 7.18038 32.8635 7.46824 32.771 7.74567C32.6785 8.0201 32.5905 8.26471 32.507 8.47949H32.1446C32.0073 8.17224 31.8731 7.82173 31.7419 7.42797C31.6106 7.03421 31.4868 6.60913 31.3705 6.15273H31.8179C31.8478 6.29293 31.8835 6.44506 31.9253 6.60913C31.9671 6.7732 32.0103 6.93726 32.0551 7.10133C32.1028 7.2654 32.152 7.4235 32.2027 7.57563C32.2534 7.72777 32.3012 7.86051 32.3459 7.97387C32.3966 7.83367 32.4458 7.68601 32.4936 7.53089C32.5443 7.37279 32.592 7.21469 32.6368 7.05658C32.6815 6.8955 32.7233 6.73889 32.7621 6.58676C32.8038 6.43164 32.8396 6.28696 32.8694 6.15273H33.214C33.2408 6.28696 33.2736 6.43164 33.3124 6.58676C33.3512 6.73889 33.393 6.8955 33.4377 7.05658C33.4825 7.21469 33.5287 7.37279 33.5764 7.53089C33.6271 7.68601 33.6778 7.83367 33.7286 7.97387C33.7733 7.86051 33.8195 7.72777 33.8673 7.57563C33.918 7.4235 33.9672 7.2654 34.0149 7.10133C34.0627 6.93726 34.1074 6.7732 34.1492 6.60913C34.1909 6.44506 34.2267 6.29293 34.2566 6.15273H34.6861C34.5698 6.60913 34.446 7.03421 34.3147 7.42797C34.1835 7.82173 34.0492 8.17224 33.912 8.47949H33.5496ZM35.1262 6.21984C35.2216 6.19598 35.3484 6.17062 35.5065 6.14378C35.6646 6.11693 35.8466 6.10351 36.0524 6.10351C36.2373 6.10351 36.391 6.13035 36.5133 6.18405C36.6356 6.23476 36.7325 6.30784 36.8041 6.4033C36.8787 6.49577 36.9309 6.60764 36.9607 6.73889C36.9905 6.87015 37.0055 7.01482 37.0055 7.17292V8.47949H36.5893V7.26241C36.5893 7.11923 36.5789 6.99692 36.558 6.8955C36.5401 6.79408 36.5088 6.71204 36.464 6.6494C36.4193 6.58676 36.3596 6.54201 36.2851 6.51516C36.2105 6.48533 36.118 6.47042 36.0076 6.47042C35.9629 6.47042 35.9167 6.47191 35.8689 6.47489C35.8212 6.47788 35.775 6.48235 35.7302 6.48832C35.6885 6.4913 35.6497 6.49577 35.6139 6.50174C35.5811 6.50771 35.5572 6.51218 35.5423 6.51516V8.47949H35.1262V6.21984ZM38.3936 8.52424C38.137 8.51827 37.955 8.46309 37.8477 8.35868C37.7403 8.25427 37.6866 8.0917 37.6866 7.87095V5.07883L38.1027 5.00724V7.80383C38.1027 7.87244 38.1087 7.92912 38.1206 7.97387C38.1325 8.01861 38.1519 8.05441 38.1788 8.08126C38.2056 8.1081 38.2414 8.12899 38.2862 8.1439C38.3309 8.15583 38.3861 8.16627 38.4517 8.17522L38.3936 8.52424ZM40.9729 7.31611C40.9729 7.50106 40.946 7.66811 40.8923 7.81726C40.8386 7.96641 40.7625 8.09468 40.6641 8.20207C40.5687 8.30946 40.4538 8.39298 40.3196 8.45264C40.1853 8.50932 40.0392 8.53766 39.8811 8.53766C39.723 8.53766 39.5768 8.50932 39.4426 8.45264C39.3083 8.39298 39.192 8.30946 39.0935 8.20207C38.9981 8.09468 38.9235 7.96641 38.8698 7.81726C38.8161 7.66811 38.7893 7.50106 38.7893 7.31611C38.7893 7.13414 38.8161 6.96859 38.8698 6.81943C38.9235 6.6673 38.9981 6.53754 39.0935 6.43015C39.192 6.32276 39.3083 6.24073 39.4426 6.18405C39.5768 6.12439 39.723 6.09456 39.8811 6.09456C40.0392 6.09456 40.1853 6.12439 40.3196 6.18405C40.4538 6.24073 40.5687 6.32276 40.6641 6.43015C40.7625 6.53754 40.8386 6.6673 40.8923 6.81943C40.946 6.96859 40.9729 7.13414 40.9729 7.31611ZM40.5388 7.31611C40.5388 7.0536 40.4792 6.84628 40.3598 6.69415C40.2435 6.53903 40.0839 6.46147 39.8811 6.46147C39.6782 6.46147 39.5171 6.53903 39.3978 6.69415C39.2815 6.84628 39.2233 7.0536 39.2233 7.31611C39.2233 7.57862 39.2815 7.78743 39.3978 7.94255C39.5171 8.09468 39.6782 8.17075 39.8811 8.17075C40.0839 8.17075 40.2435 8.09468 40.3598 7.94255C40.4792 7.78743 40.5388 7.57862 40.5388 7.31611ZM42.3458 8.1797C42.4443 8.1797 42.5308 8.17821 42.6054 8.17522C42.6829 8.16926 42.7471 8.16031 42.7978 8.14838V7.45482C42.7679 7.4399 42.7187 7.42797 42.6501 7.41902C42.5845 7.40709 42.5039 7.40113 42.4085 7.40113C42.3458 7.40113 42.2787 7.4056 42.2071 7.41455C42.1385 7.4235 42.0744 7.44289 42.0147 7.47272C41.958 7.49957 41.9103 7.53834 41.8715 7.58906C41.8328 7.63679 41.8134 7.70092 41.8134 7.78146C41.8134 7.93061 41.8611 8.03502 41.9566 8.09468C42.052 8.15136 42.1818 8.1797 42.3458 8.1797ZM42.31 6.09456C42.4771 6.09456 42.6173 6.11693 42.7307 6.16167C42.847 6.20344 42.9395 6.26459 43.0081 6.34513C43.0797 6.42269 43.1304 6.51666 43.1602 6.62703C43.19 6.73442 43.205 6.85374 43.205 6.98499V8.43922C43.1692 8.44519 43.1184 8.45414 43.0528 8.46607C42.9902 8.47502 42.9186 8.48397 42.838 8.49292C42.7575 8.50186 42.6695 8.50932 42.574 8.51529C42.4816 8.52424 42.3891 8.52871 42.2966 8.52871C42.1654 8.52871 42.0446 8.51529 41.9342 8.48844C41.8238 8.46159 41.7284 8.41983 41.6478 8.36315C41.5673 8.30349 41.5046 8.22593 41.4599 8.13048C41.4151 8.03502 41.3928 7.92017 41.3928 7.78594C41.3928 7.65767 41.4181 7.54729 41.4688 7.45482C41.5225 7.36235 41.5941 7.28777 41.6836 7.23109C41.7731 7.17441 41.8775 7.13265 41.9968 7.10581C42.1161 7.07896 42.2414 7.06553 42.3727 7.06553C42.4144 7.06553 42.4577 7.06852 42.5024 7.07448C42.5472 7.07747 42.589 7.08343 42.6277 7.09238C42.6695 7.09835 42.7053 7.10431 42.7351 7.11028C42.765 7.11625 42.7858 7.12072 42.7978 7.1237V7.00736C42.7978 6.93876 42.7903 6.87164 42.7754 6.80601C42.7605 6.7374 42.7336 6.67774 42.6949 6.62703C42.6561 6.57333 42.6024 6.53157 42.5338 6.50174C42.4681 6.46893 42.3816 6.45252 42.2742 6.45252C42.137 6.45252 42.0162 6.46296 41.9118 6.48384C41.8104 6.50174 41.7343 6.52113 41.6836 6.54201L41.6344 6.19747C41.6881 6.17361 41.7776 6.15123 41.9029 6.13035C42.0281 6.10649 42.1639 6.09456 42.31 6.09456ZM45.3995 6.64493C45.3488 6.60316 45.2757 6.56289 45.1803 6.52411C45.0848 6.48533 44.9804 6.46594 44.8671 6.46594C44.7478 6.46594 44.6448 6.48832 44.5583 6.53306C44.4748 6.57482 44.4062 6.63449 44.3525 6.71204C44.2988 6.78662 44.26 6.87611 44.2362 6.98052C44.2123 7.08492 44.2004 7.19679 44.2004 7.31611C44.2004 7.58757 44.2675 7.79787 44.4017 7.94702C44.536 8.09319 44.7149 8.16627 44.9387 8.16627C45.052 8.16627 45.146 8.1618 45.2206 8.15285C45.2981 8.14092 45.3578 8.12899 45.3995 8.11705V6.64493ZM45.3995 5.07883L45.8157 5.00724V8.41237C45.7202 8.43922 45.5979 8.46607 45.4488 8.49292C45.2996 8.51976 45.1281 8.53319 44.9342 8.53319C44.7552 8.53319 44.5941 8.50485 44.4509 8.44817C44.3078 8.39149 44.1855 8.31095 44.084 8.20654C43.9826 8.10214 43.9036 7.97536 43.8469 7.82621C43.7932 7.67407 43.7663 7.50404 43.7663 7.31611C43.7663 7.13713 43.7887 6.97306 43.8335 6.82391C43.8812 6.67476 43.9498 6.54649 44.0393 6.4391C44.1288 6.33171 44.2377 6.24818 44.3659 6.18852C44.4972 6.12886 44.6463 6.09903 44.8134 6.09903C44.9476 6.09903 45.0654 6.11693 45.1669 6.15273C45.2713 6.18852 45.3488 6.22283 45.3995 6.25564V5.07883ZM49.6204 7.31611C49.6204 7.50106 49.5936 7.66811 49.5399 7.81726C49.4862 7.96641 49.4101 8.09468 49.3117 8.20207C49.2162 8.30946 49.1014 8.39298 48.9672 8.45264C48.8329 8.50932 48.6868 8.53766 48.5287 8.53766C48.3706 8.53766 48.2244 8.50932 48.0901 8.45264C47.9559 8.39298 47.8396 8.30946 47.7411 8.20207C47.6457 8.09468 47.5711 7.96641 47.5174 7.81726C47.4637 7.66811 47.4369 7.50106 47.4369 7.31611C47.4369 7.13414 47.4637 6.96859 47.5174 6.81943C47.5711 6.6673 47.6457 6.53754 47.7411 6.43015C47.8396 6.32276 47.9559 6.24073 48.0901 6.18405C48.2244 6.12439 48.3706 6.09456 48.5287 6.09456C48.6868 6.09456 48.8329 6.12439 48.9672 6.18405C49.1014 6.24073 49.2162 6.32276 49.3117 6.43015C49.4101 6.53754 49.4862 6.6673 49.5399 6.81943C49.5936 6.96859 49.6204 7.13414 49.6204 7.31611ZM49.1864 7.31611C49.1864 7.0536 49.1268 6.84628 49.0074 6.69415C48.8911 6.53903 48.7315 6.46147 48.5287 6.46147C48.3258 6.46147 48.1647 6.53903 48.0454 6.69415C47.9291 6.84628 47.8709 7.0536 47.8709 7.31611C47.8709 7.57862 47.9291 7.78743 48.0454 7.94255C48.1647 8.09468 48.3258 8.17075 48.5287 8.17075C48.7315 8.17075 48.8911 8.09468 49.0074 7.94255C49.1268 7.78743 49.1864 7.57862 49.1864 7.31611ZM50.2059 6.21984C50.3014 6.19598 50.4281 6.17062 50.5862 6.14378C50.7443 6.11693 50.9263 6.10351 51.1321 6.10351C51.3171 6.10351 51.4707 6.13035 51.593 6.18405C51.7153 6.23476 51.8123 6.30784 51.8839 6.4033C51.9584 6.49577 52.0106 6.60764 52.0405 6.73889C52.0703 6.87015 52.0852 7.01482 52.0852 7.17292V8.47949H51.6691V7.26241C51.6691 7.11923 51.6586 6.99692 51.6378 6.8955C51.6199 6.79408 51.5885 6.71204 51.5438 6.6494C51.4991 6.58676 51.4394 6.54201 51.3648 6.51516C51.2902 6.48533 51.1978 6.47042 51.0874 6.47042C51.0427 6.47042 50.9964 6.47191 50.9487 6.47489C50.901 6.47788 50.8547 6.48235 50.81 6.48832C50.7682 6.4913 50.7294 6.49577 50.6936 6.50174C50.6608 6.50771 50.637 6.51218 50.622 6.51516V8.47949H50.2059V6.21984Z" fill="white"/>
<path fill-rule="evenodd" clip-rule="evenodd" d="M159.677 23.5251H86.1619C84.545 23.5251 83.2207 22.2022 83.2207 20.584V2.94116C83.2207 1.32428 84.5436 0 86.1619 0H159.677C161.294 0 162.618 1.3229 162.618 2.94116V20.5854C162.618 22.2022 161.295 23.5251 159.677 23.5251Z" fill="#591B42"/>
<path d="M116.359 18.1086C117.746 18.1086 118.87 16.9886 118.87 15.6071C118.87 14.2255 117.746 13.1055 116.359 13.1055C114.972 13.1055 113.848 14.2255 113.848 15.6071C113.848 16.9886 114.972 18.1086 116.359 18.1086Z" fill="white"/>
<path d="M121.836 18.1086C123.222 18.1086 124.347 16.9886 124.347 15.6071C124.347 14.2255 123.222 13.1055 121.836 13.1055C120.449 13.1055 119.324 14.2255 119.324 15.6071C119.324 16.9886 120.449 18.1086 121.836 18.1086Z" fill="white"/>
<path fill-rule="evenodd" clip-rule="evenodd" d="M159.677 0.000976562H86.1619C84.545 0.000976562 83.2207 1.32388 83.2207 2.94214V20.5863C83.2207 22.2032 84.5436 23.5275 86.1619 23.5275H159.677C161.294 23.5275 162.618 22.2046 162.618 20.5863V2.94075C162.618 1.32388 161.295 0.000976562 159.677 0.000976562ZM159.677 0.471063C161.039 0.471063 162.147 1.57903 162.147 2.94075V20.585C162.147 21.9467 161.039 23.0546 159.677 23.0546H86.1619C84.8001 23.0546 83.6922 21.9467 83.6922 20.585V2.94075C83.6922 1.57903 84.8001 0.471063 86.1619 0.471063H159.677Z" fill="#591B42"/>
<path d="M145.755 10.6055H144.658V17.9577H145.755V10.6055Z" fill="white"/>
<path fill-rule="evenodd" clip-rule="evenodd" d="M154.54 13.2549L153.282 16.4429H153.244L151.939 13.2549H150.756L152.714 17.7089L151.598 20.1883H152.742L155.759 13.2549H154.54Z" fill="white"/>
<path fill-rule="evenodd" clip-rule="evenodd" d="M148.449 13.0918C147.654 13.0918 146.832 13.4412 146.491 14.2178L147.464 14.6241C147.672 14.2178 148.06 14.0847 148.467 14.0847C149.034 14.0847 149.611 14.4258 149.62 15.0304V15.1067C149.421 14.9929 148.996 14.8238 148.476 14.8238C147.425 14.8238 146.357 15.4006 146.357 16.4781C146.357 17.4626 147.219 18.0964 148.184 18.0964C148.92 18.0964 149.328 17.7649 149.583 17.3767H149.62V17.9438H150.68V15.1247C150.681 13.8198 149.706 13.0918 148.449 13.0918Z" fill="white"/>
<path fill-rule="evenodd" clip-rule="evenodd" d="M141.639 10.6055H139.01V17.9577H140.107V15.1718H141.639C142.855 15.1718 144.05 14.2913 144.05 12.888C144.05 11.486 142.855 10.6055 141.639 10.6055Z" fill="white"/>
<path fill-rule="evenodd" clip-rule="evenodd" d="M128.558 13.6647H128.52C128.273 13.3707 127.799 13.1045 127.204 13.1045C125.953 13.1045 124.807 14.2041 124.807 15.6158C124.807 17.0274 125.953 18.1077 127.204 18.1077C127.8 18.1077 128.275 17.8428 128.52 17.5405H128.558V17.8997C128.558 18.8565 128.046 19.3682 127.222 19.3682C126.55 19.3682 126.132 18.8856 125.962 18.4779L125.005 18.8759C125.279 19.5387 126.009 20.3541 127.222 20.3541C128.512 20.3541 129.6 19.5956 129.6 17.7485V13.257H128.558V13.6647Z" fill="white"/>
<path fill-rule="evenodd" clip-rule="evenodd" d="M130.359 17.9577H131.459V10.6055H130.359V17.9577Z" fill="white"/>
<path fill-rule="evenodd" clip-rule="evenodd" d="M136.488 14.6974C136.28 14.1386 135.645 13.1055 134.347 13.1055C133.049 13.1055 131.988 14.1205 131.988 15.6071C131.988 17.009 133.049 18.1086 134.47 18.1086C135.617 18.1086 136.28 17.407 136.556 16.9993L135.703 16.4307C135.418 16.8481 135.031 17.1227 134.47 17.1227C133.91 17.1227 133.514 16.8662 133.258 16.3642L136.603 14.9803L136.488 14.6974Z" fill="white"/>
<path fill-rule="evenodd" clip-rule="evenodd" d="M109.843 13.872V14.9328H112.384C112.307 15.5305 112.108 15.9659 111.805 16.2682C111.435 16.6384 110.857 17.0447 109.843 17.0447C108.279 17.0447 107.057 15.7842 107.057 14.2214C107.057 12.6586 108.281 11.3981 109.843 11.3981C110.686 11.3981 111.302 11.7296 111.757 12.1553L112.506 11.4065C111.871 10.8005 111.028 10.3359 109.843 10.3359C107.702 10.3359 105.902 12.0804 105.902 14.2214C105.902 16.3625 107.702 18.1055 109.843 18.1055C111 18.1055 111.871 17.727 112.553 17.0156C113.253 16.3139 113.472 15.3294 113.472 14.5334C113.472 14.288 113.454 14.0606 113.415 13.8706H109.843V13.872Z" fill="white"/>
<path fill-rule="evenodd" clip-rule="evenodd" d="M96.3397 11.759L89.2163 4.64941C89.1345 4.81443 89.0859 5.01689 89.0859 5.26233V18.2584C89.0859 18.5066 89.1359 18.7132 89.2204 18.8782L96.3397 11.759Z" fill="white"/>
<path fill-rule="evenodd" clip-rule="evenodd" d="M89.2363 4.60451C89.2363 4.60451 89.2433 4.59194 89.2475 4.58496C89.2433 4.59194 89.2405 4.59892 89.2363 4.60451Z" fill="white"/>
<path fill-rule="evenodd" clip-rule="evenodd" d="M96.7535 11.3497L98.9472 9.15596L90.5828 4.40378C90.3456 4.26789 90.1224 4.2041 89.9227 4.2041C89.8215 4.2041 89.7286 4.22213 89.6426 4.25402L96.7535 11.3497Z" fill="white"/>
<path fill-rule="evenodd" clip-rule="evenodd" d="M102.039 10.9125L99.4754 9.45508L97.168 11.7625L99.4754 14.0644L102.039 12.607C102.86 12.1425 102.86 11.3784 102.039 10.9125Z" fill="white"/>
<path fill-rule="evenodd" clip-rule="evenodd" d="M96.7558 12.1758L89.6602 19.2742C89.9139 19.3602 90.2315 19.3186 90.5795 19.1217L98.9496 14.364L96.7558 12.1758Z" fill="white"/>
<path fill-rule="evenodd" clip-rule="evenodd" d="M89.2305 18.9033C89.2638 18.9644 89.3012 19.0199 89.3443 19.0671C89.3012 19.0171 89.261 18.9644 89.2305 18.9033Z" fill="white"/>
<path d="M116.357 14.0918C115.6 14.0918 114.945 14.7075 114.945 15.6074C114.945 16.5074 115.598 17.1245 116.357 17.1245C117.115 17.1245 117.769 16.4991 117.769 15.6074C117.769 14.7158 117.115 14.0918 116.357 14.0918Z" fill="#591B42"/>
<path d="M123.247 15.6074C123.247 14.7075 122.594 14.0918 121.835 14.0918C121.077 14.0918 120.424 14.7075 120.424 15.6074C120.424 16.5074 121.077 17.1245 121.835 17.1245C122.594 17.1245 123.247 16.4977 123.247 15.6074Z" fill="#591B42"/>
<path fill-rule="evenodd" clip-rule="evenodd" d="M127.298 17.1251C126.541 17.1251 125.906 16.4899 125.906 15.6191C125.906 14.7483 126.541 14.0938 127.3 14.0938C128.058 14.0938 128.635 14.7386 128.635 15.6191C128.635 16.4899 128.046 17.1237 127.298 17.1251Z" fill="#591B42"/>
<path fill-rule="evenodd" clip-rule="evenodd" d="M141.667 14.1456H140.105V11.626H141.667C142.488 11.626 142.954 12.3055 142.954 12.8851C142.952 13.455 142.486 14.1456 141.667 14.1456Z" fill="#591B42"/>
<path fill-rule="evenodd" clip-rule="evenodd" d="M133.079 15.5311C133.051 14.5645 133.828 14.0723 134.388 14.0723C134.823 14.0723 135.194 14.2914 135.316 14.6034L133.079 15.5311Z" fill="#591B42"/>
<path fill-rule="evenodd" clip-rule="evenodd" d="M148.316 17.1247C147.957 17.1247 147.455 16.9444 147.455 16.5007C147.455 15.9335 148.079 15.7158 148.619 15.7158C149.1 15.7158 149.328 15.8198 149.621 15.9613C149.536 16.6421 148.95 17.1247 148.316 17.1247Z" fill="#591B42"/>
<path d="M108.743 6.48346C108.743 6.75194 108.702 6.9861 108.618 7.18597C108.535 7.38285 108.417 7.54692 108.265 7.67817C108.112 7.80644 107.93 7.90339 107.719 7.96901C107.507 8.03166 107.274 8.06298 107.021 8.06298C106.895 8.06298 106.757 8.05701 106.604 8.04508C106.455 8.03613 106.32 8.01674 106.197 7.98691V4.98001C106.32 4.95018 106.455 4.93079 106.604 4.92185C106.757 4.90991 106.895 4.90395 107.021 4.90395C107.274 4.90395 107.507 4.93676 107.719 5.00239C107.93 5.06503 108.112 5.16198 108.265 5.29323C108.417 5.4215 108.535 5.58557 108.618 5.78543C108.702 5.98231 108.743 6.21499 108.743 6.48346ZM107.056 7.68264C107.468 7.68264 107.775 7.57824 107.978 7.36942C108.181 7.15763 108.282 6.86231 108.282 6.48346C108.282 6.10462 108.181 5.81079 107.978 5.60198C107.775 5.39018 107.468 5.28428 107.056 5.28428C106.934 5.28428 106.839 5.28578 106.77 5.28876C106.704 5.29174 106.658 5.29472 106.631 5.29771V7.66922C106.658 7.6722 106.704 7.67519 106.77 7.67817C106.839 7.68115 106.934 7.68264 107.056 7.68264ZM111.414 6.87275C111.414 7.0577 111.387 7.22475 111.334 7.3739C111.28 7.52305 111.204 7.65132 111.105 7.75871C111.01 7.8661 110.895 7.94962 110.761 8.00929C110.627 8.06596 110.48 8.0943 110.322 8.0943C110.164 8.0943 110.018 8.06596 109.884 8.00929C109.75 7.94962 109.633 7.8661 109.535 7.75871C109.439 7.65132 109.365 7.52305 109.311 7.3739C109.257 7.22475 109.231 7.0577 109.231 6.87275C109.231 6.69078 109.257 6.52523 109.311 6.37607C109.365 6.22394 109.439 6.09418 109.535 5.98679C109.633 5.8794 109.75 5.79737 109.884 5.74069C110.018 5.68103 110.164 5.6512 110.322 5.6512C110.48 5.6512 110.627 5.68103 110.761 5.74069C110.895 5.79737 111.01 5.8794 111.105 5.98679C111.204 6.09418 111.28 6.22394 111.334 6.37607C111.387 6.52523 111.414 6.69078 111.414 6.87275ZM110.98 6.87275C110.98 6.61024 110.92 6.40292 110.801 6.25079C110.685 6.09567 110.525 6.01811 110.322 6.01811C110.12 6.01811 109.958 6.09567 109.839 6.25079C109.723 6.40292 109.665 6.61024 109.665 6.87275C109.665 7.13526 109.723 7.34407 109.839 7.49919C109.958 7.65132 110.12 7.72739 110.322 7.72739C110.525 7.72739 110.685 7.65132 110.801 7.49919C110.92 7.34407 110.98 7.13526 110.98 6.87275ZM113.844 8.03613C113.761 7.82135 113.671 7.57675 113.576 7.30231C113.484 7.02488 113.399 6.73702 113.321 6.43872C113.243 6.73702 113.158 7.02488 113.066 7.30231C112.973 7.57675 112.885 7.82135 112.802 8.03613H112.439C112.302 7.72888 112.168 7.37837 112.037 6.98461C111.906 6.59085 111.782 6.16577 111.665 5.70937H112.113C112.143 5.84957 112.178 6.0017 112.22 6.16577C112.262 6.32984 112.305 6.4939 112.35 6.65797C112.398 6.82204 112.447 6.98014 112.498 7.13227C112.548 7.28441 112.596 7.41715 112.641 7.53051C112.692 7.39031 112.741 7.24265 112.788 7.08753C112.839 6.92943 112.887 6.77133 112.932 6.61323C112.976 6.45214 113.018 6.29553 113.057 6.1434C113.099 5.98828 113.135 5.8436 113.164 5.70937H113.509C113.536 5.8436 113.569 5.98828 113.607 6.1434C113.646 6.29553 113.688 6.45214 113.733 6.61323C113.777 6.77133 113.824 6.92943 113.871 7.08753C113.922 7.24265 113.973 7.39031 114.023 7.53051C114.068 7.41715 114.114 7.28441 114.162 7.13227C114.213 6.98014 114.262 6.82204 114.31 6.65797C114.358 6.4939 114.402 6.32984 114.444 6.16577C114.486 6.0017 114.522 5.84957 114.551 5.70937H114.981C114.865 6.16577 114.741 6.59085 114.61 6.98461C114.478 7.37837 114.344 7.72888 114.207 8.03613H113.844ZM115.421 5.77648C115.517 5.75262 115.643 5.72726 115.801 5.70042C115.96 5.67357 116.141 5.66015 116.347 5.66015C116.532 5.66015 116.686 5.68699 116.808 5.74069C116.93 5.7914 117.027 5.86448 117.099 5.95994C117.174 6.05242 117.226 6.16428 117.256 6.29553C117.285 6.42679 117.3 6.57146 117.3 6.72956V8.03613H116.884V6.81905C116.884 6.67587 116.874 6.55356 116.853 6.45214C116.835 6.35072 116.804 6.26869 116.759 6.20604C116.714 6.1434 116.655 6.09865 116.58 6.0718C116.505 6.04197 116.413 6.02706 116.303 6.02706C116.258 6.02706 116.212 6.02855 116.164 6.03153C116.116 6.03452 116.07 6.03899 116.025 6.04496C115.983 6.04794 115.945 6.05242 115.909 6.05838C115.876 6.06435 115.852 6.06882 115.837 6.0718V8.03613H115.421V5.77648ZM118.688 8.08088C118.432 8.07491 118.25 8.01973 118.143 7.91532C118.035 7.81091 117.981 7.64834 117.981 7.42759V4.63547L118.398 4.56388V7.36048C118.398 7.42909 118.404 7.48576 118.416 7.53051C118.427 7.57525 118.447 7.61105 118.474 7.6379C118.501 7.66475 118.536 7.68563 118.581 7.70054C118.626 7.71247 118.681 7.72291 118.747 7.73186L118.688 8.08088ZM121.268 6.87275C121.268 7.0577 121.241 7.22475 121.187 7.3739C121.134 7.52305 121.057 7.65132 120.959 7.75871C120.864 7.8661 120.749 7.94962 120.614 8.00929C120.48 8.06596 120.334 8.0943 120.176 8.0943C120.018 8.0943 119.872 8.06596 119.737 8.00929C119.603 7.94962 119.487 7.8661 119.388 7.75871C119.293 7.65132 119.218 7.52305 119.165 7.3739C119.111 7.22475 119.084 7.0577 119.084 6.87275C119.084 6.69078 119.111 6.52523 119.165 6.37607C119.218 6.22394 119.293 6.09418 119.388 5.98679C119.487 5.8794 119.603 5.79737 119.737 5.74069C119.872 5.68103 120.018 5.6512 120.176 5.6512C120.334 5.6512 120.48 5.68103 120.614 5.74069C120.749 5.79737 120.864 5.8794 120.959 5.98679C121.057 6.09418 121.134 6.22394 121.187 6.37607C121.241 6.52523 121.268 6.69078 121.268 6.87275ZM120.834 6.87275C120.834 6.61024 120.774 6.40292 120.655 6.25079C120.538 6.09567 120.379 6.01811 120.176 6.01811C119.973 6.01811 119.812 6.09567 119.693 6.25079C119.576 6.40292 119.518 6.61024 119.518 6.87275C119.518 7.13526 119.576 7.34407 119.693 7.49919C119.812 7.65132 119.973 7.72739 120.176 7.72739C120.379 7.72739 120.538 7.65132 120.655 7.49919C120.774 7.34407 120.834 7.13526 120.834 6.87275ZM122.641 7.73634C122.739 7.73634 122.826 7.73485 122.9 7.73186C122.978 7.7259 123.042 7.71695 123.093 7.70502V7.01146C123.063 6.99655 123.014 6.98461 122.945 6.97566C122.879 6.96373 122.799 6.95777 122.703 6.95777C122.641 6.95777 122.574 6.96224 122.502 6.97119C122.433 6.98014 122.369 6.99953 122.31 7.02936C122.253 7.05621 122.205 7.09499 122.166 7.1457C122.128 7.19343 122.108 7.25756 122.108 7.3381C122.108 7.48725 122.156 7.59166 122.251 7.65132C122.347 7.708 122.477 7.73634 122.641 7.73634ZM122.605 5.6512C122.772 5.6512 122.912 5.67357 123.026 5.71832C123.142 5.76008 123.234 5.82123 123.303 5.90177C123.375 5.97933 123.425 6.0733 123.455 6.18367C123.485 6.29106 123.5 6.41038 123.5 6.54163V7.99586C123.464 8.00183 123.413 8.01078 123.348 8.02271C123.285 8.03166 123.214 8.04061 123.133 8.04956C123.052 8.05851 122.964 8.06596 122.869 8.07193C122.776 8.08088 122.684 8.08535 122.592 8.08535C122.46 8.08535 122.339 8.07193 122.229 8.04508C122.119 8.01823 122.023 7.97647 121.943 7.91979C121.862 7.86013 121.8 7.78257 121.755 7.68712C121.71 7.59166 121.688 7.47681 121.688 7.34258C121.688 7.21431 121.713 7.10393 121.764 7.01146C121.817 6.91899 121.889 6.84441 121.979 6.78773C122.068 6.73106 122.172 6.68929 122.292 6.66245C122.411 6.6356 122.536 6.62217 122.668 6.62217C122.709 6.62217 122.753 6.62516 122.797 6.63112C122.842 6.63411 122.884 6.64007 122.923 6.64902C122.964 6.65499 123 6.66095 123.03 6.66692C123.06 6.67289 123.081 6.67736 123.093 6.68034V6.56401C123.093 6.4954 123.085 6.42828 123.07 6.36265C123.055 6.29404 123.029 6.23438 122.99 6.18367C122.951 6.12997 122.897 6.08821 122.829 6.05838C122.763 6.02557 122.677 6.00916 122.569 6.00916C122.432 6.00916 122.311 6.0196 122.207 6.04048C122.105 6.05838 122.029 6.07777 121.979 6.09865L121.929 5.75411C121.983 5.73025 122.072 5.70787 122.198 5.68699C122.323 5.66313 122.459 5.6512 122.605 5.6512ZM125.694 6.20157C125.644 6.1598 125.571 6.11953 125.475 6.08075C125.38 6.04197 125.275 6.02258 125.162 6.02258C125.043 6.02258 124.94 6.04496 124.853 6.0897C124.77 6.13147 124.701 6.19113 124.647 6.26869C124.594 6.34326 124.555 6.43275 124.531 6.53716C124.507 6.64156 124.495 6.75343 124.495 6.87275C124.495 7.14421 124.562 7.35451 124.697 7.50366C124.831 7.64983 125.01 7.72291 125.234 7.72291C125.347 7.72291 125.441 7.71844 125.515 7.70949C125.593 7.69756 125.653 7.68563 125.694 7.67369V6.20157ZM125.694 4.63547L126.111 4.56388V7.96901C126.015 7.99586 125.893 8.02271 125.744 8.04956C125.595 8.0764 125.423 8.08983 125.229 8.08983C125.05 8.08983 124.889 8.06149 124.746 8.00481C124.603 7.94813 124.48 7.86759 124.379 7.76319C124.278 7.65878 124.198 7.532 124.142 7.38285C124.088 7.23071 124.061 7.06068 124.061 6.87275C124.061 6.69377 124.084 6.5297 124.128 6.38055C124.176 6.2314 124.245 6.10313 124.334 5.99574C124.424 5.88835 124.533 5.80482 124.661 5.74516C124.792 5.6855 124.941 5.65567 125.108 5.65567C125.243 5.65567 125.36 5.67357 125.462 5.70937C125.566 5.74516 125.644 5.77947 125.694 5.81228V4.63547ZM129.915 6.87275C129.915 7.0577 129.889 7.22475 129.835 7.3739C129.781 7.52305 129.705 7.65132 129.607 7.75871C129.511 7.8661 129.396 7.94962 129.262 8.00929C129.128 8.06596 128.982 8.0943 128.824 8.0943C128.665 8.0943 128.519 8.06596 128.385 8.00929C128.251 7.94962 128.134 7.8661 128.036 7.75871C127.941 7.65132 127.866 7.52305 127.812 7.3739C127.759 7.22475 127.732 7.0577 127.732 6.87275C127.732 6.69078 127.759 6.52523 127.812 6.37607C127.866 6.22394 127.941 6.09418 128.036 5.98679C128.134 5.8794 128.251 5.79737 128.385 5.74069C128.519 5.68103 128.665 5.6512 128.824 5.6512C128.982 5.6512 129.128 5.68103 129.262 5.74069C129.396 5.79737 129.511 5.8794 129.607 5.98679C129.705 6.09418 129.781 6.22394 129.835 6.37607C129.889 6.52523 129.915 6.69078 129.915 6.87275ZM129.481 6.87275C129.481 6.61024 129.422 6.40292 129.302 6.25079C129.186 6.09567 129.026 6.01811 128.824 6.01811C128.621 6.01811 128.46 6.09567 128.34 6.25079C128.224 6.40292 128.166 6.61024 128.166 6.87275C128.166 7.13526 128.224 7.34407 128.34 7.49919C128.46 7.65132 128.621 7.72739 128.824 7.72739C129.026 7.72739 129.186 7.65132 129.302 7.49919C129.422 7.34407 129.481 7.13526 129.481 6.87275ZM130.501 5.77648C130.596 5.75262 130.723 5.72726 130.881 5.70042C131.039 5.67357 131.221 5.66015 131.427 5.66015C131.612 5.66015 131.766 5.68699 131.888 5.74069C132.01 5.7914 132.107 5.86448 132.179 5.95994C132.253 6.05242 132.306 6.16428 132.335 6.29553C132.365 6.42679 132.38 6.57146 132.38 6.72956V8.03613H131.964V6.81905C131.964 6.67587 131.954 6.55356 131.933 6.45214C131.915 6.35072 131.883 6.26869 131.839 6.20604C131.794 6.1434 131.734 6.09865 131.66 6.0718C131.585 6.04197 131.493 6.02706 131.382 6.02706C131.338 6.02706 131.291 6.02855 131.244 6.03153C131.196 6.03452 131.15 6.03899 131.105 6.04496C131.063 6.04794 131.024 6.05242 130.989 6.05838C130.956 6.06435 130.932 6.06882 130.917 6.0718V8.03613H130.501V5.77648Z" fill="white"/>
</svg>
