<svg width="18" height="18" viewBox="0 0 18 18" fill="none" xmlns="http://www.w3.org/2000/svg">
<mask id="mask0_26_13886" style="mask-type:alpha" maskUnits="userSpaceOnUse" x="0" y="0" width="18" height="18">
<rect width="17.424" height="17.424" fill="#D9D9D9"/>
</mask>
<g mask="url(#mask0_26_13886)">
<path d="M10.8906 16.6981H7.98664C7.78094 16.6981 7.60851 16.6286 7.46936 16.4894C7.33021 16.3503 7.26064 16.1778 7.26064 15.9721V11.6161C7.26064 11.4104 7.33021 11.238 7.46936 11.0989C7.60851 10.9597 7.78094 10.8901 7.98664 10.8901H8.71264V8.71215H2.90464C2.50534 8.71215 2.16351 8.56997 1.87916 8.28562C1.59481 8.00127 1.45264 7.65945 1.45264 7.26015V4.35615C1.45264 3.95685 1.59481 3.61502 1.87916 3.33067C2.16351 3.04632 2.50534 2.90415 2.90464 2.90415H4.35664V2.17815C4.35664 1.97245 4.42621 1.80002 4.56536 1.66087C4.70451 1.52172 4.87694 1.45215 5.08264 1.45215H13.7946C14.0003 1.45215 14.1728 1.52172 14.3119 1.66087C14.4511 1.80002 14.5206 1.97245 14.5206 2.17815V5.08215C14.5206 5.28785 14.4511 5.46027 14.3119 5.59942C14.1728 5.73857 14.0003 5.80815 13.7946 5.80815H5.08264C4.87694 5.80815 4.70451 5.73857 4.56536 5.59942C4.42621 5.46027 4.35664 5.28785 4.35664 5.08215V4.35615H2.90464V7.26015H8.71264C9.11194 7.26015 9.45376 7.40232 9.73811 7.68667C10.0225 7.97102 10.1646 8.31285 10.1646 8.71215V10.8901H10.8906C11.0963 10.8901 11.2688 10.9597 11.4079 11.0989C11.5471 11.238 11.6166 11.4104 11.6166 11.6161V15.9721C11.6166 16.1778 11.5471 16.3503 11.4079 16.4894C11.2688 16.6286 11.0963 16.6981 10.8906 16.6981Z" fill="#591B42"/>
</g>
</svg>
