<svg width="18" height="18" viewBox="0 0 18 18" fill="none" xmlns="http://www.w3.org/2000/svg">
<mask id="mask0_26_15188" style="mask-type:alpha" maskUnits="userSpaceOnUse" x="0" y="0" width="18" height="18">
<rect width="17.424" height="17.424" fill="#D9D9D9"/>
</mask>
<g mask="url(#mask0_26_15188)">
<path d="M10.8897 16.6981H7.98566C7.77996 16.6981 7.60754 16.6286 7.46839 16.4894C7.32924 16.3503 7.25966 16.1778 7.25966 15.9721V11.6161C7.25966 11.4104 7.32924 11.238 7.46839 11.0989C7.60754 10.9597 7.77996 10.8901 7.98566 10.8901H8.71166V8.71215H2.90366C2.50436 8.71215 2.16254 8.56997 1.87819 8.28562C1.59384 8.00127 1.45166 7.65945 1.45166 7.26015V4.35615C1.45166 3.95685 1.59384 3.61502 1.87819 3.33067C2.16254 3.04632 2.50436 2.90415 2.90366 2.90415H4.35566V2.17815C4.35566 1.97245 4.42524 1.80002 4.56439 1.66087C4.70354 1.52172 4.87596 1.45215 5.08166 1.45215H13.7937C13.9994 1.45215 14.1718 1.52172 14.3109 1.66087C14.4501 1.80002 14.5197 1.97245 14.5197 2.17815V5.08215C14.5197 5.28785 14.4501 5.46027 14.3109 5.59942C14.1718 5.73857 13.9994 5.80815 13.7937 5.80815H5.08166C4.87596 5.80815 4.70354 5.73857 4.56439 5.59942C4.42524 5.46027 4.35566 5.28785 4.35566 5.08215V4.35615H2.90366V7.26015H8.71166C9.11096 7.26015 9.45279 7.40232 9.73714 7.68667C10.0215 7.97102 10.1637 8.31285 10.1637 8.71215V10.8901H10.8897C11.0954 10.8901 11.2678 10.9597 11.4069 11.0989C11.5461 11.238 11.6157 11.4104 11.6157 11.6161V15.9721C11.6157 16.1778 11.5461 16.3503 11.4069 16.4894C11.2678 16.6286 11.0954 16.6981 10.8897 16.6981Z" fill="#591B42"/>
</g>
</svg>
