<svg width="24" height="24" viewBox="0 0 24 24" fill="none" xmlns="http://www.w3.org/2000/svg">
<mask id="mask0_26_309" style="mask-type:alpha" maskUnits="userSpaceOnUse" x="0" y="0" width="24" height="24">
<rect width="24" height="24" fill="#D9D9D9"/>
</mask>
<g mask="url(#mask0_26_309)">
<path d="M10.0004 13.9994V9.99944H14.0004V13.9994H10.0004ZM11.0004 12.9994H13.0004V10.9994H11.0004V12.9994ZM9.50041 19.5379V17.9994H7.61591C7.15558 17.9994 6.77125 17.8453 6.46291 17.5369C6.15458 17.2286 6.00041 16.8443 6.00041 16.3839V14.4994H4.46191V13.4994H6.00041V10.4994H4.46191V9.49944H6.00041V7.61494C6.00041 7.1546 6.15458 6.77027 6.46291 6.46194C6.77125 6.1536 7.15558 5.99944 7.61591 5.99944H9.50041V4.46094H10.5004V5.99944H13.5004V4.46094H14.5004V5.99944H16.3849C16.8452 5.99944 17.2296 6.1536 17.5379 6.46194C17.8462 6.77027 18.0004 7.1546 18.0004 7.61494V9.49944H19.5389V10.4994H18.0004V13.4994H19.5389V14.4994H18.0004V16.3839C18.0004 16.8443 17.8462 17.2286 17.5379 17.5369C17.2296 17.8453 16.8452 17.9994 16.3849 17.9994H14.5004V19.5379H13.5004V17.9994H10.5004V19.5379H9.50041ZM16.3849 16.9994C16.5389 16.9994 16.68 16.9354 16.8082 16.8072C16.9363 16.679 17.0004 16.5379 17.0004 16.3839V7.61494C17.0004 7.46094 16.9363 7.31985 16.8082 7.19169C16.68 7.06352 16.5389 6.99944 16.3849 6.99944H7.61591C7.46191 6.99944 7.32083 7.06352 7.19266 7.19169C7.0645 7.31985 7.00041 7.46094 7.00041 7.61494V16.3839C7.00041 16.5379 7.0645 16.679 7.19266 16.8072C7.32083 16.9354 7.46191 16.9994 7.61591 16.9994H16.3849Z" fill="#C89C66"/>
</g>
</svg>
