<svg width="18" height="18" viewBox="0 0 18 18" fill="none" xmlns="http://www.w3.org/2000/svg">
<g clip-path="url(#clip0_26_13980)">
<mask id="mask0_26_13980" style="mask-type:alpha" maskUnits="userSpaceOnUse" x="-1" y="0" width="118" height="117">
<rect x="-0.000976562" width="116.16" height="116.16" fill="#D9D9D9"/>
</mask>
<g mask="url(#mask0_26_13980)">
<path d="M5.80683 5.80815H7.25883V3.63015H5.80683V5.80815ZM5.80683 12.3421H7.25883V8.71215H5.80683V12.3421ZM4.35483 15.9721C3.95553 15.9721 3.61371 15.83 3.32936 15.5456C3.04501 15.2613 2.90283 14.9194 2.90283 14.5201V7.98615H14.5188V14.5201C14.5188 14.9194 14.3767 15.2613 14.0923 15.5456C13.808 15.83 13.4661 15.9721 13.0668 15.9721H4.35483ZM2.90283 6.53415V2.90415C2.90283 2.50485 3.04501 2.16302 3.32936 1.87867C3.61371 1.59432 3.95553 1.45215 4.35483 1.45215H13.0668C13.4661 1.45215 13.808 1.59432 14.0923 1.87867C14.3767 2.16302 14.5188 2.50485 14.5188 2.90415V6.53415H2.90283Z" fill="#591B42"/>
</g>
<path opacity="0.04" d="M13.8691 1.42773C13.9115 1.44121 13.9488 1.46726 13.9766 1.50195L14.0107 1.56055L14.0166 1.57812C14.1135 1.96749 14.3695 2.29615 14.7178 2.48438L14.8721 2.55664L14.8818 2.56055L14.9385 2.58008C14.9655 2.58861 15.0029 2.60012 15.0371 2.61328C15.0696 2.62581 15.1137 2.64561 15.1504 2.67578C15.1844 2.70382 15.223 2.75414 15.2266 2.8252H15.2285C15.2291 2.83042 15.2274 2.83578 15.2275 2.84082C15.2274 2.84622 15.2291 2.8518 15.2285 2.85742L15.2266 2.85645C15.2237 2.92411 15.1904 2.97467 15.1553 3.00488C15.1191 3.03597 15.0754 3.05502 15.0439 3.06738C15.011 3.08032 14.9733 3.09172 14.9463 3.10059C14.9159 3.11055 14.8963 3.11849 14.8828 3.125C14.8786 3.12706 14.8736 3.12824 14.8691 3.12988C14.5069 3.2638 14.223 3.54928 14.0889 3.91016L14.0879 3.91309C14.0781 3.93757 14.0696 3.966 14.0537 4.01172C14.0402 4.0506 14.0212 4.10145 13.9961 4.14453C13.976 4.17897 13.9251 4.25649 13.8291 4.26953C13.7233 4.28374 13.6502 4.21073 13.6113 4.16016C13.6024 4.14852 13.5949 4.13583 13.5898 4.12207L13.5137 3.91309L13.4414 3.75781C13.2522 3.4095 12.9244 3.15244 12.5352 3.05566V3.05469C12.5291 3.05311 12.5225 3.05319 12.5166 3.05078C12.455 3.02559 12.4068 2.9742 12.3867 2.91016L12.376 2.84277L12.3867 2.77539C12.4068 2.71131 12.4549 2.65997 12.5166 2.63477L12.5215 2.63281L12.7344 2.55469C13.1605 2.3866 13.4777 2.02351 13.5869 1.5791L13.5898 1.56543H13.5908C13.6236 1.47165 13.713 1.41699 13.8018 1.41699L13.8691 1.42773Z" stroke="#7B7B7B" stroke-width="0.2904" stroke-linejoin="round"/>
<path opacity="0.04" d="M15.6709 2.93457C15.7083 2.9463 15.7413 2.9686 15.7656 2.99902L15.7959 3.0498L15.8008 3.06836C15.86 3.30629 16.0168 3.50714 16.2295 3.62207L16.3242 3.66602L16.334 3.66992L16.3408 3.67285C16.3466 3.67487 16.354 3.67677 16.3633 3.67969C16.3799 3.68494 16.4058 3.69297 16.4297 3.70215C16.452 3.71075 16.4872 3.726 16.5176 3.75098C16.5456 3.77402 16.5808 3.81821 16.585 3.88184H16.5869C16.5875 3.88713 16.5858 3.89238 16.5859 3.89746C16.5858 3.90279 16.5875 3.90848 16.5869 3.91406L16.585 3.91309C16.5814 3.97299 16.5508 4.01672 16.5215 4.04199C16.4912 4.06799 16.4562 4.08331 16.4346 4.0918C16.4116 4.10082 16.3855 4.10889 16.3691 4.11426C16.3492 4.1208 16.3392 4.12443 16.334 4.12695C16.3298 4.12899 16.3257 4.13119 16.3213 4.13281C16.101 4.21425 15.9283 4.38782 15.8467 4.60742L15.8457 4.61035C15.8399 4.6248 15.8354 4.6397 15.8242 4.67188C15.8154 4.69722 15.8021 4.73405 15.7832 4.7666C15.7695 4.79015 15.7256 4.85995 15.6377 4.87207C15.5401 4.88533 15.4768 4.81809 15.4492 4.78223C15.4403 4.77057 15.4328 4.75793 15.4277 4.74414L15.377 4.60645V4.60547C15.2729 4.34699 15.0506 4.15309 14.7803 4.08594L14.7812 4.08496C14.7749 4.08335 14.768 4.08358 14.7617 4.08105C14.708 4.0591 14.6661 4.01389 14.6484 3.95801L14.6387 3.89844L14.6484 3.83984C14.666 3.78376 14.7079 3.7388 14.7617 3.7168L14.7666 3.71484L14.9043 3.66406C15.164 3.56117 15.3573 3.33946 15.4238 3.06836L15.4268 3.05566H15.4277C15.4566 2.9727 15.535 2.92489 15.6123 2.9248L15.6709 2.93457Z" stroke="#7B7B7B" stroke-width="0.2904" stroke-linejoin="round"/>
<path opacity="0.04" d="M15.2129 1.12402C15.2468 1.13468 15.2768 1.15499 15.2988 1.18262L15.3252 1.22852L15.3311 1.24707C15.3604 1.3644 15.4309 1.46599 15.5273 1.53418L15.6318 1.59082L15.6426 1.59473H15.6416C15.6388 1.5934 15.6397 1.59434 15.6533 1.59863C15.6632 1.60173 15.682 1.60667 15.6992 1.61328C15.7147 1.61926 15.7434 1.63189 15.7695 1.65332C15.7936 1.67313 15.8255 1.71313 15.8301 1.77148H15.832V1.80371L15.8311 1.80273C15.827 1.85754 15.7981 1.89694 15.7725 1.91895C15.7462 1.94147 15.7172 1.95406 15.7021 1.95996C15.6857 1.96639 15.6675 1.97254 15.6582 1.97559C15.6481 1.97889 15.6438 1.97999 15.6426 1.98047C15.6383 1.98253 15.6333 1.98469 15.6289 1.98633C15.5034 2.03281 15.405 2.1316 15.3584 2.25684L15.3574 2.26074C15.3544 2.26835 15.3526 2.27423 15.3447 2.29688C15.3391 2.31308 15.3291 2.34085 15.3145 2.36621C15.3048 2.38274 15.2651 2.44874 15.1826 2.45996C15.0908 2.47231 15.0337 2.40882 15.0137 2.38281C15.0046 2.37107 14.9973 2.35766 14.9922 2.34375L14.9619 2.25977C14.9025 2.10995 14.7743 1.99795 14.6182 1.95898L14.6191 1.95605C14.6124 1.95439 14.6052 1.95482 14.5986 1.95215C14.5502 1.93235 14.5121 1.89229 14.4961 1.8418L14.4873 1.78809L14.4961 1.73438C14.512 1.68372 14.5501 1.6429 14.5986 1.62305L14.6035 1.62109L14.6914 1.58887C14.8399 1.52942 14.9501 1.40242 14.9883 1.24707L14.9922 1.2334V1.23438C15.0186 1.15859 15.0903 1.11523 15.1602 1.11523L15.2129 1.12402Z" stroke="#7B7B7B" stroke-width="0.2904" stroke-linejoin="round"/>
<path d="M12.5697 2.91503C13.0604 3.0369 13.4625 3.38909 13.6488 3.85913L13.7266 4.07205C13.8553 4.23945 13.9075 3.97296 13.9531 3.85913C14.1019 3.45873 14.4169 3.14269 14.8191 2.99404C14.9129 2.94851 15.0939 2.92575 15.0845 2.84138C15.0939 2.75702 14.8968 2.72889 14.8191 2.6914C14.3486 2.5066 13.9973 2.10351 13.8754 1.61339C13.8633 1.58259 13.8338 1.5625 13.8016 1.5625C13.7695 1.5625 13.7386 1.58259 13.7279 1.61339C13.6073 2.10485 13.2561 2.5066 12.7842 2.6914L12.5711 2.76907C12.5416 2.78112 12.5215 2.80924 12.5215 2.84272C12.5215 2.8762 12.5416 2.90432 12.5711 2.91637L12.5697 2.91503Z" fill="#591B42"/>
<path d="M14.8154 3.94548C15.1329 4.02433 15.3931 4.25222 15.5136 4.55637L15.5639 4.69414C15.6472 4.80246 15.681 4.63002 15.7105 4.55637C15.8068 4.29728 16.0106 4.09279 16.2708 3.99661C16.3316 3.96714 16.4487 3.95241 16.4426 3.89782C16.4487 3.84323 16.3212 3.82504 16.2708 3.80078C15.9664 3.6812 15.7391 3.42038 15.6602 3.10324C15.6524 3.08331 15.6333 3.07031 15.6125 3.07031C15.5917 3.07031 15.5717 3.08331 15.5648 3.10324C15.4867 3.42125 15.2595 3.6812 14.9542 3.80078L14.8163 3.85103C14.7972 3.85883 14.7842 3.87703 14.7842 3.89869C14.7842 3.92035 14.7972 3.93855 14.8163 3.94635L14.8154 3.94548Z" fill="#591B42"/>
<path d="M14.6527 1.81767C14.8547 1.86785 15.0203 2.01287 15.097 2.20641L15.129 2.29409C15.182 2.36301 15.2035 2.25328 15.2223 2.20641C15.2836 2.04154 15.4133 1.91141 15.5789 1.8502C15.6175 1.83145 15.692 1.82208 15.6882 1.78734C15.692 1.7526 15.6109 1.74102 15.5789 1.72558C15.3851 1.64949 15.2405 1.48351 15.1903 1.2817C15.1853 1.26901 15.1732 1.26074 15.1599 1.26074C15.1467 1.26074 15.134 1.26901 15.1296 1.2817C15.0799 1.48406 14.9353 1.64949 14.741 1.72558L14.6532 1.75756C14.6411 1.76253 14.6328 1.77411 14.6328 1.78789C14.6328 1.80168 14.6411 1.81326 14.6532 1.81822L14.6527 1.81767Z" fill="#591B42"/>
</g>
<defs>
<clipPath id="clip0_26_13980">
<rect width="17.424" height="17.424" fill="white"/>
</clipPath>
</defs>
</svg>
