<svg width="18" height="18" viewBox="0 0 18 18" fill="none" xmlns="http://www.w3.org/2000/svg">
<path d="M9.5777 4.81749C10.179 4.96699 10.6718 5.39906 10.9002 5.97571L10.9955 6.23692C11.1532 6.44228 11.2173 6.11535 11.2731 5.97571C11.4555 5.48449 11.8416 5.09678 12.3344 4.91442C12.4494 4.85856 12.6712 4.83063 12.6597 4.72713C12.6712 4.62363 12.4297 4.58913 12.3344 4.54313C11.7578 4.31642 11.3273 3.82192 11.1778 3.22063C11.1631 3.18285 11.1269 3.1582 11.0875 3.1582C11.0481 3.1582 11.0103 3.18285 10.9971 3.22063C10.8493 3.82356 10.4188 4.31642 9.84055 4.54313L9.57934 4.63842C9.5432 4.6532 9.51855 4.6877 9.51855 4.72878C9.51855 4.76985 9.5432 4.80435 9.57934 4.81913L9.5777 4.81749Z" fill="#591B42"/>
<path d="M2.1616 9.27819C2.44746 9.35376 2.7021 9.51805 2.88774 9.74805C2.99617 9.90083 3.07832 10.07 3.12924 10.2491C3.14896 10.2984 3.1966 10.3296 3.24917 10.3296C3.30174 10.3296 3.34939 10.2968 3.3691 10.2491C3.46767 9.8384 3.7601 9.50326 4.15275 9.34883L4.33675 9.27983C4.4846 9.21248 4.42546 9.04162 4.2776 9.01862C3.82746 8.88719 3.48082 8.52576 3.3691 8.07069C3.3461 8.02469 3.29846 7.99512 3.24917 7.99512C3.19989 7.99512 3.1506 8.02469 3.12924 8.07069L3.06189 8.25469C2.90582 8.64733 2.57067 8.93976 2.15996 9.03833C2.11067 9.05805 2.07617 9.10569 2.07617 9.1599C2.07617 9.21412 2.10903 9.26176 2.15996 9.27983L2.1616 9.27819Z" fill="#591B42"/>
<path d="M15.2318 11.1572C14.9411 11.0799 14.6831 10.9124 14.4942 10.6791C14.3825 10.5247 14.2971 10.3522 14.2428 10.1682C14.2264 10.1337 14.1903 10.1123 14.1525 10.1123C14.1147 10.1123 14.0786 10.1337 14.0621 10.1682C13.9603 10.5871 13.6596 10.9304 13.2588 11.0882L13.0748 11.1572C13.0386 11.1719 13.0156 11.2064 13.0156 11.2475C13.0156 11.2886 13.0386 11.3214 13.0748 11.3379C13.1224 11.3543 13.2128 11.3904 13.2588 11.4069C13.6596 11.5646 13.9586 11.9079 14.0621 12.3252C14.0769 12.363 14.1114 12.3893 14.1525 12.3893C14.1936 12.3893 14.2297 12.3647 14.2428 12.3252C14.3447 11.9063 14.6453 11.5629 15.0462 11.4069L15.2302 11.3379C15.268 11.3231 15.2926 11.2886 15.2926 11.2475C15.2926 11.2064 15.268 11.1719 15.2302 11.1572H15.2318Z" fill="#591B42"/>
<path d="M15.622 9.73633L12.885 8.29883C12.5745 8.46311 9.65352 9.99754 9.26416 10.2045C9.6568 10.4132 12.5778 11.9427 12.885 12.107L13.1988 11.9427C13.0263 11.8408 12.7815 11.8178 12.6517 11.6503C12.5992 11.5911 12.5597 11.5238 12.5335 11.4498V11.044C12.6895 10.5627 13.3713 10.6875 13.5142 10.175C13.557 9.93183 13.7229 9.72812 13.9512 9.63283H14.293C14.495 9.65747 14.6642 9.79712 14.7267 9.98933C14.7694 10.1536 14.8499 10.3048 14.96 10.4329C15.098 10.5923 15.3378 10.6218 15.512 10.7237C15.7206 10.6629 15.8717 10.4822 15.8964 10.2653C15.9194 10.0501 15.8126 9.83983 15.6237 9.73469L15.622 9.73633Z" fill="#591B42"/>
<path d="M8.71546 9.91342C9.1081 9.70806 12.0209 8.17199 12.333 8.00771L9.08181 6.29749C8.85017 6.17427 8.57417 6.17427 8.34253 6.29749L5.09131 8.00606C5.37881 8.15228 8.34253 9.72121 8.71546 9.91342Z" fill="#591B42"/>
<path d="M8.16156 10.2042C7.76564 9.99395 4.84956 8.46116 4.53742 8.29688L4.24992 8.44802C4.2762 8.4628 4.30413 8.47595 4.33206 8.4858C5.00892 8.6238 5.17649 9.4748 4.51442 9.75902L4.33206 9.82638C4.08235 9.93481 3.90327 10.1582 3.84906 10.4244C3.75213 10.6724 3.51227 10.8351 3.24777 10.8351C2.98327 10.8351 2.74342 10.6724 2.64484 10.4244C2.59392 10.1582 2.41484 9.93316 2.16513 9.82638L1.98113 9.75902C1.9417 9.74423 1.90391 9.72616 1.86777 9.70316L1.80041 9.73602C1.62956 9.82966 1.52441 10.0071 1.52441 10.2009C1.52441 10.3948 1.62956 10.5739 1.80041 10.6659L4.5407 12.1067C4.84956 11.9424 7.77221 10.4096 8.15992 10.2042H8.16156Z" fill="#591B42"/>
<path d="M8.71546 10.4917C8.31953 10.7003 5.40674 12.2315 5.09131 12.3974L8.34253 14.1076C8.57417 14.2276 8.85017 14.2276 9.08181 14.1076L12.333 12.3974C12.0488 12.2512 9.0851 10.6839 8.71546 10.4917Z" fill="#591B42"/>
</svg>
