<svg width="18" height="18" viewBox="0 0 18 18" fill="none" xmlns="http://www.w3.org/2000/svg">
<path fill-rule="evenodd" clip-rule="evenodd" d="M2.50737 5.8121H1.8311C1.66124 5.8121 1.52441 5.6737 1.52441 5.50541C1.52441 5.33713 1.66281 5.19873 1.8311 5.19873H2.50737V5.81367V5.8121Z" fill="#591B42"/>
<path fill-rule="evenodd" clip-rule="evenodd" d="M2.50737 9.74227H1.8311C1.66124 9.74227 1.52441 9.60387 1.52441 9.43559C1.52441 9.26731 1.66281 9.12891 1.8311 9.12891H2.50737V9.74385V9.74227Z" fill="#591B42"/>
<path fill-rule="evenodd" clip-rule="evenodd" d="M2.50737 7.77792H1.8311C1.66124 7.77792 1.52441 7.63952 1.52441 7.47123C1.52441 7.30295 1.66281 7.16455 1.8311 7.16455H2.50737V7.77949V7.77792Z" fill="#591B42"/>
<path fill-rule="evenodd" clip-rule="evenodd" d="M2.50737 11.7081H1.8311C1.66124 11.7081 1.52441 11.5697 1.52441 11.4014C1.52441 11.2331 1.66281 11.0947 1.8311 11.0947H2.50737V11.7097V11.7081Z" fill="#591B42"/>
<path fill-rule="evenodd" clip-rule="evenodd" d="M2.50737 13.6744H1.8311C1.66124 13.6744 1.52441 13.536 1.52441 13.3677C1.52441 13.1994 1.66281 13.061 1.8311 13.061H2.50737V13.676V13.6744Z" fill="#591B42"/>
<path fill-rule="evenodd" clip-rule="evenodd" d="M3.12169 14.1964V4.67659C3.12169 4.6357 3.13742 4.59638 3.1673 4.56807C3.19718 4.53976 3.23493 4.52246 3.27582 4.52246H12.3348V5.87344H5.08604C4.74633 5.87344 4.4711 6.14867 4.4711 6.48838V12.3846C4.4711 12.7243 4.74633 12.9995 5.08604 12.9995H12.3364C12.3678 13.5264 12.5927 13.9998 12.9434 14.3505H3.27425C3.23335 14.3505 3.19404 14.3348 3.16573 14.3049C3.13742 14.275 3.12012 14.2373 3.12012 14.1964H3.12169Z" fill="#591B42"/>
<path fill-rule="evenodd" clip-rule="evenodd" d="M12.3321 12.3851H5.23909C5.15416 12.3851 5.08496 12.3159 5.08496 12.2309V6.64143C5.08496 6.55651 5.15416 6.4873 5.23909 6.4873H12.3321V12.3835V12.3851Z" fill="#591B42"/>
<path fill-rule="evenodd" clip-rule="evenodd" d="M12.9488 4.52248C12.9488 3.70938 13.6094 3.04883 14.4225 3.04883C15.2356 3.04883 15.8961 3.70938 15.8961 4.52248V11.3969C15.72 11.2208 15.5124 11.0761 15.2812 10.9723C15.0186 10.8543 14.7276 10.7867 14.4209 10.7867C14.2526 10.7867 14.0875 10.8071 13.9302 10.8449C13.8028 10.8763 13.6786 10.9188 13.5622 10.9707C13.3326 11.0745 13.125 11.2192 12.9473 11.3953V4.52248H12.9488ZM15.8977 12.8753C15.8977 13.6884 15.2372 14.3489 14.4241 14.3489C13.611 14.3489 12.9504 13.6884 12.9504 12.8753C12.9504 12.7039 12.9803 12.5372 13.0353 12.3846C13.136 12.0984 13.3231 11.853 13.5654 11.6784C13.677 11.5982 13.8013 11.5322 13.9334 11.485C14.0875 11.4299 14.2526 11.4001 14.4241 11.4001C14.7449 11.4001 15.0422 11.5023 15.2844 11.6769C15.6555 11.9442 15.8993 12.3815 15.8993 12.8737L15.8977 12.8753Z" fill="#591B42"/>
<path fill-rule="evenodd" clip-rule="evenodd" d="M15.8956 12.8755C15.8956 13.6902 15.235 14.3492 14.4219 14.3492C13.6088 14.3492 12.9482 13.6886 12.9482 12.8755C12.9482 12.0624 13.6088 11.4019 14.4219 11.4019C15.235 11.4019 15.8956 12.0624 15.8956 12.8755Z" fill="#591B42"/>
<path d="M9.81009 9.71606C10.0737 9.71606 10.288 9.93038 10.288 10.194C10.288 10.4576 10.0745 10.6719 9.81009 10.6719C9.54568 10.6719 9.33301 10.4576 9.33301 10.194C9.33301 9.93038 9.54651 9.71606 9.81009 9.71606Z" fill="#7B7B7B" fill-opacity="0.04"/>
<path d="M9.1875 10.1943C9.1875 9.85088 9.46644 9.57129 9.81055 9.57129C10.1541 9.57153 10.4336 9.85071 10.4336 10.1943C10.4334 10.5376 10.155 10.8171 9.81055 10.8174C9.46558 10.8174 9.1877 10.5375 9.1875 10.1943Z" stroke="#7B7B7B" stroke-opacity="0.04" stroke-width="0.2904"/>
<path d="M7.68359 9.42301C7.68359 10.0151 8.16561 10.4971 8.75766 10.4971C8.88165 10.4971 9.00236 10.4765 9.11732 10.4347C9.09104 10.3591 9.07626 10.2778 9.07626 10.1941C9.07626 9.78924 9.40554 9.45996 9.81037 9.45996C9.81776 9.45996 9.82433 9.46078 9.83172 9.46078C9.85635 8.84574 9.36284 8.34813 8.75848 8.34813C8.15411 8.34813 7.68441 8.83096 7.68441 9.42301L7.68359 9.42301ZM8.14754 9.42301C8.14754 9.69645 8.3323 9.93294 8.59753 9.99863C8.65583 10.0134 8.69525 10.0651 8.69525 10.1234C8.69525 10.1333 8.69361 10.144 8.69114 10.1547C8.6739 10.2236 8.60492 10.2655 8.53595 10.2483C8.15658 10.1547 7.89052 9.81552 7.89052 9.42383C7.89052 9.35321 7.948 9.29573 8.01862 9.29573C8.08924 9.29573 8.14672 9.35321 8.14672 9.42383L8.14754 9.42301Z" fill="#7B7B7B" fill-opacity="0.04"/>
<path d="M7.53809 9.27734L7.54883 9.27734C7.61957 8.6744 8.1234 8.20312 8.75879 8.20312C9.44371 8.2033 10.0046 8.7677 9.97656 9.4668L9.97168 9.60645L9.83203 9.60645C9.82342 9.60645 9.81546 9.60564 9.8125 9.60547L9.81055 9.60547C9.48591 9.60547 9.22168 9.8697 9.22168 10.1943C9.22171 10.2609 9.2337 10.3258 9.25488 10.3867L9.30176 10.5225L9.16699 10.5713C9.0355 10.6192 8.89794 10.6426 8.75781 10.6426C8.08557 10.6426 7.53809 10.0951 7.53809 9.42285L7.53809 9.27734Z" stroke="#7B7B7B" stroke-opacity="0.04" stroke-width="0.2904"/>
<path d="M6.56834 8.08988C6.42875 8.08988 6.31543 8.20319 6.31543 8.34279C6.31543 8.48238 6.42875 8.5957 6.56834 8.5957C6.70794 8.5957 6.82126 8.48238 6.82126 8.34279C6.82126 8.20319 6.70794 8.08988 6.56834 8.08988Z" fill="#7B7B7B" fill-opacity="0.04"/>
<path d="M6.16992 8.34277C6.16993 8.12299 6.34858 7.94434 6.56836 7.94434C6.78813 7.94434 6.96679 8.123 6.9668 8.34277C6.9668 8.56255 6.78814 8.7412 6.56836 8.74121C6.34857 8.74121 6.16992 8.56256 6.16992 8.34277Z" stroke="#7B7B7B" stroke-opacity="0.04" stroke-width="0.2904"/>
<path d="M10.3057 7.8997C10.3057 8.11238 10.4789 8.28564 10.6916 8.28564C10.9043 8.28564 11.0767 8.11238 11.0767 7.8997C11.0767 7.68703 10.9035 7.51377 10.6916 7.51377C10.4797 7.51377 10.3057 7.68703 10.3057 7.8997Z" fill="#7B7B7B" fill-opacity="0.04"/>
<path d="M10.1602 7.8999C10.1602 7.6069 10.3996 7.36876 10.6914 7.36865C10.9837 7.36865 11.2217 7.60723 11.2217 7.8999C11.2216 8.19228 10.9846 8.43115 10.6914 8.43115C10.3987 8.43105 10.1603 8.19262 10.1602 7.8999Z" stroke="#7B7B7B" stroke-opacity="0.04" stroke-width="0.2904"/>
<path d="M9.81009 9.71606C10.0737 9.71606 10.288 9.93038 10.288 10.194C10.288 10.4576 10.0745 10.6719 9.81009 10.6719C9.54568 10.6719 9.33301 10.4576 9.33301 10.194C9.33301 9.93038 9.54651 9.71606 9.81009 9.71606Z" fill="#591B42"/>
<path d="M7.68359 9.42301C7.68359 10.0151 8.16561 10.4971 8.75766 10.4971C8.88165 10.4971 9.00236 10.4765 9.11732 10.4347C9.09104 10.3591 9.07626 10.2778 9.07626 10.1941C9.07626 9.78924 9.40554 9.45996 9.81037 9.45996C9.81776 9.45996 9.82433 9.46078 9.83172 9.46078C9.85635 8.84574 9.36284 8.34813 8.75848 8.34813C8.15411 8.34813 7.68441 8.83096 7.68441 9.42301L7.68359 9.42301ZM8.14754 9.42301C8.14754 9.69645 8.3323 9.93294 8.59753 9.99863C8.65583 10.0134 8.69525 10.0651 8.69525 10.1234C8.69525 10.1333 8.69361 10.144 8.69114 10.1547C8.6739 10.2236 8.60492 10.2655 8.53595 10.2483C8.15658 10.1547 7.89052 9.81552 7.89052 9.42383C7.89052 9.35321 7.948 9.29573 8.01862 9.29573C8.08924 9.29573 8.14672 9.35321 8.14672 9.42383L8.14754 9.42301Z" fill="#591B42"/>
<path d="M6.56834 8.08988C6.42875 8.08988 6.31543 8.20319 6.31543 8.34279C6.31543 8.48238 6.42875 8.5957 6.56834 8.5957C6.70794 8.5957 6.82126 8.48238 6.82126 8.34279C6.82126 8.20319 6.70794 8.08988 6.56834 8.08988Z" fill="#591B42"/>
<path d="M10.3057 7.8997C10.3057 8.11238 10.4789 8.28564 10.6916 8.28564C10.9043 8.28564 11.0767 8.11238 11.0767 7.8997C11.0767 7.68703 10.9035 7.51377 10.6916 7.51377C10.4797 7.51377 10.3057 7.68703 10.3057 7.8997Z" fill="#591B42"/>
</svg>
