<svg width="18" height="18" viewBox="0 0 18 18" fill="none" xmlns="http://www.w3.org/2000/svg">
<path d="M14.8755 7.14062C14.3102 7.14062 13.8485 7.60237 13.8485 8.16763V9.70896H3.57843V8.16763C3.57843 7.60237 3.11668 7.14062 2.55142 7.14062C1.98616 7.14062 1.52441 7.60401 1.52441 8.16927V9.71061C1.52441 10.4698 1.94015 11.1221 2.55142 11.482V12.2773C2.55142 12.5599 2.78311 12.79 3.0641 12.79C3.34509 12.79 3.57678 12.5583 3.57678 12.2773V11.7646H13.8468V12.2773C13.8468 12.5599 14.0785 12.79 14.3595 12.79C14.6405 12.79 14.8722 12.5583 14.8722 12.2773V11.482C15.4835 11.1271 15.8992 10.4698 15.8992 9.71061V8.16927C15.8992 7.60401 15.4375 7.14227 14.8722 7.14227L14.8755 7.14062Z" fill="#591B42"/>
<path d="M4.60383 8.16907V8.68176H8.19917V4.57373H4.08951C3.52424 4.57373 3.0625 5.03547 3.0625 5.60074V6.18572C3.94655 6.41741 4.60383 7.21273 4.60383 8.16743V8.16907Z" fill="#591B42"/>
<path d="M12.8212 8.16907C12.8212 7.21437 13.4785 6.41741 14.3626 6.18736V5.60238C14.3609 5.03547 13.8992 4.57373 13.3356 4.57373H9.22754V8.68176H12.8229V8.16743L12.8212 8.16907Z" fill="#591B42"/>
<path opacity="0.04" d="M11.8013 5.29395C11.8013 4.95049 12.0802 4.6709 12.4243 4.6709C12.7679 4.67114 13.0474 4.95032 13.0474 5.29395C13.0472 5.63724 12.7687 5.91675 12.4243 5.91699C12.0794 5.91699 11.8015 5.63707 11.8013 5.29395Z" stroke="#7B7B7B" stroke-width="0.2904"/>
<path opacity="0.04" d="M10.1514 4.37695L10.1621 4.37695C10.2329 3.774 10.7367 3.30273 11.3721 3.30273C12.057 3.30291 12.6178 3.86731 12.5898 4.56641L12.585 4.70605L12.4453 4.70605C12.4367 4.70605 12.4287 4.70525 12.4258 4.70508L12.4238 4.70508C12.0992 4.70508 11.835 4.96931 11.835 5.29395C11.835 5.36049 11.847 5.4254 11.8682 5.48633L11.915 5.62207L11.7803 5.6709C11.6488 5.71879 11.5112 5.74217 11.3711 5.74219C10.6989 5.74219 10.1514 5.1947 10.1514 4.52246L10.1514 4.37695Z" stroke="#7B7B7B" stroke-width="0.2904"/>
<path opacity="0.04" d="M8.78418 3.44189C8.78419 3.22212 8.96284 3.04346 9.18262 3.04346C9.40239 3.04347 9.58105 3.22212 9.58105 3.44189C9.58105 3.66168 9.4024 3.84032 9.18262 3.84033C8.96283 3.84033 8.78418 3.66168 8.78418 3.44189Z" stroke="#7B7B7B" stroke-width="0.2904"/>
<path opacity="0.04" d="M12.7725 2.99951C12.7725 2.70651 13.012 2.46837 13.3037 2.46826C13.596 2.46826 13.834 2.70684 13.834 2.99951C13.8339 3.29189 13.5969 3.53076 13.3037 3.53076C13.011 3.53065 12.7726 3.29222 12.7725 2.99951Z" stroke="#7B7B7B" stroke-width="0.2904"/>
<path d="M12.4239 4.81567C12.6875 4.81567 12.9018 5.02999 12.9018 5.29358C12.9018 5.55716 12.6883 5.77148 12.4239 5.77148C12.1595 5.77148 11.9468 5.55716 11.9468 5.29358C11.9468 5.02999 12.1603 4.81567 12.4239 4.81567Z" fill="#591B42"/>
<path d="M10.2969 4.52262C10.2969 5.11467 10.7789 5.59668 11.3709 5.59668C11.4949 5.59668 11.6156 5.57615 11.7306 5.53427C11.7043 5.45873 11.6895 5.37743 11.6895 5.29368C11.6895 4.88885 12.0188 4.55957 12.4236 4.55957C12.431 4.55957 12.4376 4.56039 12.445 4.56039C12.4696 3.94535 11.9761 3.44774 11.3718 3.44774C10.7674 3.44774 10.2977 3.93057 10.2977 4.52262L10.2969 4.52262ZM10.7608 4.52262C10.7608 4.79606 10.9456 5.03255 11.2108 5.09824C11.2691 5.11302 11.3085 5.16476 11.3085 5.22306C11.3085 5.23291 11.3069 5.24359 11.3044 5.25426C11.2872 5.32324 11.2182 5.36512 11.1492 5.34787C10.7699 5.25426 10.5038 4.91513 10.5038 4.52344C10.5038 4.45282 10.5613 4.39534 10.6319 4.39534C10.7025 4.39534 10.76 4.45282 10.76 4.52344L10.7608 4.52262Z" fill="#591B42"/>
<path d="M9.1826 3.189C9.04301 3.189 8.92969 3.30232 8.92969 3.44191C8.92969 3.58151 9.04301 3.69482 9.1826 3.69482C9.3222 3.69482 9.43551 3.58151 9.43551 3.44191C9.43551 3.30232 9.3222 3.189 9.1826 3.189Z" fill="#591B42"/>
<path d="M12.918 2.99931C12.918 3.21199 13.0912 3.38525 13.3039 3.38525C13.5166 3.38525 13.689 3.21199 13.689 2.99931C13.689 2.78664 13.5158 2.61337 13.3039 2.61337C13.0921 2.61337 12.918 2.78664 12.918 2.99931Z" fill="#591B42"/>
</svg>
