<svg width="18" height="18" viewBox="0 0 18 18" fill="none" xmlns="http://www.w3.org/2000/svg">
<g clip-path="url(#clip0_26_13901)">
<mask id="mask0_26_13901" style="mask-type:alpha" maskUnits="userSpaceOnUse" x="0" y="0" width="117" height="117">
<rect x="0.000976562" width="116.16" height="116.16" fill="#D9D9D9"/>
</mask>
<g mask="url(#mask0_26_13901)">
<path d="M1.45264 13.7939V9.43788C1.45264 9.11118 1.51919 8.81473 1.65229 8.54853C1.78539 8.28233 1.96084 8.04638 2.17864 7.84068V5.80788C2.17864 5.20288 2.39039 4.68863 2.81389 4.26513C3.23739 3.84163 3.75164 3.62988 4.35664 3.62988H7.26064C7.53894 3.62988 7.79909 3.68131 8.04109 3.78416C8.28309 3.88701 8.50694 4.02918 8.71264 4.21068C8.91834 4.02918 9.14219 3.88701 9.38419 3.78416C9.62619 3.68131 9.88634 3.62988 10.1646 3.62988H13.0686C13.6736 3.62988 14.1879 3.84163 14.6114 4.26513C15.0349 4.68863 15.2466 5.20288 15.2466 5.80788V7.84068C15.4644 8.04638 15.6399 8.28233 15.773 8.54853C15.9061 8.81473 15.9726 9.11118 15.9726 9.43788V13.7939H14.5206V12.3419H2.90464V13.7939H1.45264ZM9.43864 7.25988H13.7946V5.80788C13.7946 5.60218 13.7251 5.42976 13.5859 5.29061C13.4468 5.15146 13.2743 5.08188 13.0686 5.08188H10.1646C9.95894 5.08188 9.78651 5.15146 9.64736 5.29061C9.50821 5.42976 9.43864 5.60218 9.43864 5.80788V7.25988ZM3.63064 7.25988H7.98664V5.80788C7.98664 5.60218 7.91706 5.42976 7.77791 5.29061C7.63876 5.15146 7.46634 5.08188 7.26064 5.08188H4.35664C4.15094 5.08188 3.97851 5.15146 3.83936 5.29061C3.70021 5.42976 3.63064 5.60218 3.63064 5.80788V7.25988Z" fill="#591B42"/>
</g>
<path opacity="0.04" d="M11.4761 10.6211C11.5185 10.6346 11.5558 10.6606 11.5835 10.6953L11.6177 10.7539L11.6235 10.7715C11.7204 11.1609 11.9764 11.4895 12.3247 11.6777L12.479 11.75L12.4888 11.7539L12.5454 11.7734C12.5725 11.782 12.6099 11.7935 12.644 11.8066C12.6765 11.8192 12.7206 11.839 12.7573 11.8691C12.7913 11.8972 12.8299 11.9475 12.8335 12.0186H12.8354C12.836 12.0238 12.8343 12.0291 12.8345 12.0342C12.8343 12.0396 12.8361 12.0452 12.8354 12.0508L12.8335 12.0498C12.8307 12.1175 12.7973 12.168 12.7622 12.1982C12.726 12.2293 12.6823 12.2484 12.6509 12.2607C12.618 12.2737 12.5802 12.2851 12.5532 12.2939C12.5229 12.3039 12.5032 12.3119 12.4897 12.3184C12.4855 12.3204 12.4805 12.3216 12.4761 12.3232C12.1139 12.4572 11.8299 12.7426 11.6958 13.1035L11.6948 13.1064C11.685 13.1309 11.6765 13.1594 11.6606 13.2051C11.6471 13.244 11.6281 13.2948 11.603 13.3379C11.5829 13.3723 11.532 13.4498 11.436 13.4629C11.3303 13.4771 11.2571 13.4041 11.2183 13.3535C11.2094 13.3419 11.2018 13.3292 11.1968 13.3154L11.1206 13.1064L11.0483 12.9512C10.8592 12.6029 10.5313 12.3458 10.1421 12.249V12.248C10.136 12.2465 10.1295 12.2465 10.1235 12.2441C10.0619 12.2189 10.0137 12.1676 9.99365 12.1035L9.98291 12.0361L9.99365 11.9688C10.0137 11.9047 10.0619 11.8533 10.1235 11.8281L10.1284 11.8262L10.3413 11.748C10.7674 11.58 11.0847 11.2169 11.1938 10.7725L11.1968 10.7588H11.1978C11.2305 10.665 11.32 10.6104 11.4087 10.6104L11.4761 10.6211Z" stroke="#7B7B7B" stroke-width="0.2904" stroke-linejoin="round"/>
<path opacity="0.04" d="M13.2764 12.1279C13.3137 12.1397 13.3467 12.162 13.3711 12.1924L13.4014 12.2432L13.4062 12.2617C13.4655 12.4997 13.6223 12.7005 13.835 12.8154L13.9297 12.8594L13.9395 12.8633L13.9463 12.8662C13.952 12.8682 13.9595 12.8701 13.9688 12.873C13.9854 12.8783 14.0113 12.8863 14.0352 12.8955C14.0575 12.9041 14.0926 12.9194 14.123 12.9443C14.1511 12.9674 14.1862 13.0116 14.1904 13.0752H14.1924C14.193 13.0805 14.1913 13.0857 14.1914 13.0908C14.1913 13.0962 14.193 13.1018 14.1924 13.1074L14.1904 13.1064C14.1868 13.1663 14.1563 13.2101 14.127 13.2354C14.0967 13.2614 14.0616 13.2767 14.04 13.2852C14.017 13.2942 13.991 13.3022 13.9746 13.3076C13.9547 13.3142 13.9447 13.3178 13.9395 13.3203C13.9353 13.3223 13.9311 13.3246 13.9268 13.3262C13.7064 13.4076 13.5338 13.5812 13.4521 13.8008L13.4512 13.8037C13.4454 13.8182 13.4409 13.8331 13.4297 13.8652C13.4209 13.8906 13.4076 13.9274 13.3887 13.96C13.375 13.9835 13.331 14.0533 13.2432 14.0654C13.1456 14.0787 13.0823 14.0114 13.0547 13.9756C13.0457 13.9639 13.0383 13.9513 13.0332 13.9375L12.9824 13.7998V13.7988C12.8783 13.5403 12.6561 13.3464 12.3857 13.2793L12.3867 13.2783C12.3803 13.2767 12.3734 13.2769 12.3672 13.2744C12.3135 13.2525 12.2716 13.2073 12.2539 13.1514L12.2441 13.0918L12.2539 13.0332C12.2715 12.9771 12.3133 12.9322 12.3672 12.9102L12.3721 12.9082L12.5098 12.8574C12.7695 12.7545 12.9627 12.5328 13.0293 12.2617L13.0322 12.249H13.0332C13.0621 12.1661 13.1404 12.1182 13.2178 12.1182L13.2764 12.1279Z" stroke="#7B7B7B" stroke-width="0.2904" stroke-linejoin="round"/>
<path opacity="0.04" d="M12.8188 10.3179C12.8528 10.3285 12.8828 10.3488 12.9048 10.3765L12.9312 10.4224L12.937 10.4409C12.9663 10.5583 13.0368 10.6598 13.1333 10.728L13.2378 10.7847L13.2485 10.7886H13.2476C13.2448 10.7872 13.2457 10.7882 13.2593 10.7925C13.2691 10.7956 13.288 10.8005 13.3052 10.8071C13.3207 10.8131 13.3494 10.8257 13.3755 10.8472C13.3995 10.867 13.4315 10.907 13.436 10.9653H13.438V10.9976L13.437 10.9966C13.4329 11.0514 13.404 11.0908 13.3784 11.1128C13.3522 11.1353 13.3231 11.1479 13.3081 11.1538C13.2917 11.1602 13.2734 11.1664 13.2642 11.1694C13.2541 11.1727 13.2498 11.1738 13.2485 11.1743C13.2443 11.1764 13.2393 11.1785 13.2349 11.1802C13.1093 11.2267 13.0109 11.3254 12.9644 11.4507L12.9634 11.4546C12.9603 11.4622 12.9585 11.4681 12.9507 11.4907C12.9451 11.5069 12.9351 11.5347 12.9204 11.5601C12.9108 11.5766 12.8711 11.6426 12.7886 11.6538C12.6968 11.6662 12.6396 11.6027 12.6196 11.5767C12.6106 11.5649 12.6032 11.5515 12.5981 11.5376L12.5679 11.4536C12.5084 11.3038 12.3802 11.1918 12.2241 11.1528L12.2251 11.1499C12.2184 11.1482 12.2112 11.1487 12.2046 11.146C12.1561 11.1262 12.1181 11.0861 12.1021 11.0356L12.0933 10.9819L12.1021 10.9282C12.118 10.8776 12.156 10.8367 12.2046 10.8169L12.2095 10.8149L12.2974 10.7827C12.4459 10.7233 12.5561 10.5963 12.5942 10.4409L12.5981 10.4272V10.4282C12.6245 10.3524 12.6963 10.3091 12.7661 10.3091L12.8188 10.3179Z" stroke="#7B7B7B" stroke-width="0.2904" stroke-linejoin="round"/>
<path d="M10.1767 12.1084C10.6673 12.2303 11.0694 12.5825 11.2558 13.0525L11.3335 13.2654C11.4622 13.4328 11.5145 13.1663 11.56 13.0525C11.7088 12.6521 12.0238 12.336 12.426 12.1874C12.5198 12.1419 12.7008 12.1191 12.6914 12.0347C12.7008 11.9504 12.5037 11.9223 12.426 11.8848C11.9555 11.7 11.6043 11.2969 11.4823 10.8067C11.4702 10.7759 11.4407 10.7559 11.4086 10.7559C11.3764 10.7559 11.3456 10.7759 11.3348 10.8067C11.2142 11.2982 10.863 11.7 10.3912 11.8848L10.178 11.9624C10.1485 11.9745 10.1284 12.0026 10.1284 12.0361C10.1284 12.0696 10.1485 12.0977 10.178 12.1097L10.1767 12.1084Z" fill="#591B42"/>
<path d="M12.4209 13.1388C12.7383 13.2177 12.9985 13.4456 13.1191 13.7497L13.1694 13.8875C13.2527 13.9958 13.2865 13.8234 13.316 13.7497C13.4123 13.4906 13.6161 13.2861 13.8763 13.19C13.937 13.1605 14.0541 13.1458 14.0481 13.0912C14.0541 13.0366 13.9266 13.0184 13.8763 12.9941C13.5719 12.8746 13.3446 12.6137 13.2657 12.2966C13.2579 12.2767 13.2388 12.2637 13.218 12.2637C13.1972 12.2637 13.1772 12.2767 13.1703 12.2966C13.0922 12.6146 12.865 12.8746 12.5597 12.9941L12.4217 13.0444C12.4027 13.0522 12.3896 13.0704 12.3896 13.0921C12.3896 13.1137 12.4027 13.1319 12.4217 13.1397L12.4209 13.1388Z" fill="#591B42"/>
<path d="M12.2586 11.0115C12.4607 11.0617 12.6262 11.2067 12.703 11.4003L12.735 11.4879C12.788 11.5569 12.8095 11.4471 12.8283 11.4003C12.8895 11.2354 13.0192 11.1053 13.1848 11.044C13.2235 11.0253 13.298 11.0159 13.2941 10.9812C13.298 10.9464 13.2168 10.9349 13.1848 10.9194C12.9911 10.8433 12.8465 10.6774 12.7962 10.4755C12.7913 10.4629 12.7791 10.4546 12.7659 10.4546C12.7526 10.4546 12.7399 10.4629 12.7355 10.4755C12.6859 10.6779 12.5412 10.8433 12.347 10.9194L12.2592 10.9514C12.247 10.9564 12.2388 10.968 12.2388 10.9817C12.2388 10.9955 12.247 11.0071 12.2592 11.0121L12.2586 11.0115Z" fill="#591B42"/>
</g>
<defs>
<clipPath id="clip0_26_13901">
<rect width="17.424" height="17.424" fill="white"/>
</clipPath>
</defs>
</svg>
