<svg width="18" height="18" viewBox="0 0 18 18" fill="none" xmlns="http://www.w3.org/2000/svg">
<path d="M13.3384 5.69287C13.9114 6.2507 14.3542 6.90072 14.6675 7.63428C14.9807 8.36782 15.1343 9.13178 15.1343 9.93408C15.1343 11.6153 14.5374 13.0441 13.3452 14.2134C12.1531 15.3826 10.7089 15.9712 9.02002 15.9712C7.32356 15.9711 5.88694 15.3826 4.69482 14.2134C3.50278 13.0442 2.90674 11.6153 2.90674 9.93408C2.90675 9.13183 3.05935 8.36778 3.37256 7.63428C3.68588 6.90064 4.12948 6.25839 4.70264 5.69287L9.02002 1.45166L13.3384 5.69287ZM8.47803 6.46436V9.72021H5.22217V10.8052H8.47803V14.061H9.56299V10.8052H12.8188V9.72021H9.56299V6.46436H8.47803Z" fill="#591B42"/>
</svg>
