<svg width="56" height="56" viewBox="0 0 56 56" fill="none" xmlns="http://www.w3.org/2000/svg">
<mask id="mask0_26_913" style="mask-type:alpha" maskUnits="userSpaceOnUse" x="0" y="0" width="56" height="56">
<rect width="56" height="56" fill="#D9D9D9"/>
</mask>
<g mask="url(#mask0_26_913)">
<path d="M21 49C19.0435 49 17.2231 48.6321 15.5388 47.8963C13.8549 47.1602 12.3787 46.158 11.1102 44.8898C9.842 43.6213 8.83983 42.1451 8.10367 40.4612C7.36789 38.7769 7 36.9565 7 35C7 32.2389 7.73442 29.6977 9.20325 27.3764C10.6721 25.0551 12.6838 23.3335 15.2384 22.2116C15.9563 20.6051 16.9038 19.2133 18.081 18.0361C19.2582 16.8589 20.635 15.9264 22.2116 15.2384C23.3152 12.7437 25.0024 10.7469 27.2732 9.24817C29.5435 7.74939 32.1191 7 35 7C36.9565 7 38.7769 7.36789 40.4612 8.10367C42.1451 8.83983 43.6213 9.842 44.8898 11.1102C46.158 12.3787 47.1602 13.8549 47.8963 15.5388C48.6321 17.2231 49 19.0435 49 21C49 23.8867 48.2732 26.4444 46.8195 28.6732C45.3654 30.9019 43.3461 32.607 40.7616 33.7884C40.0437 35.3949 39.1036 36.7792 37.9412 37.9412C36.7792 39.1036 35.3949 40.0437 33.7884 40.7616C32.6665 43.2563 30.9748 45.2531 28.7134 46.7518C26.452 48.2506 23.8809 49 21 49ZM21.0898 46.6667C22.8219 46.6667 24.5578 46.2478 26.2973 45.4102C28.0368 44.5725 29.4121 43.3459 30.4232 41.7305C28.0478 42.1493 25.8012 41.9835 23.6833 41.2329C21.5654 40.482 19.7377 39.3526 18.2 37.8449C16.6623 36.3073 15.518 34.4869 14.7671 32.3837C14.0165 30.281 13.8507 28.042 14.2695 25.6667C12.684 26.7077 11.4648 28.0756 10.612 29.7704C9.75956 31.4648 9.33333 33.208 9.33333 35C9.33333 36.6333 9.64444 38.1574 10.2667 39.5722C10.8889 40.9873 11.725 42.2199 12.775 43.2699C13.8549 44.3199 15.1023 45.1484 16.5171 45.7555C17.9323 46.3629 19.4565 46.6667 21.0898 46.6667ZM28 39.6667C30.2408 39.6667 32.1681 39.1582 33.782 38.1412C35.3959 37.1239 36.6186 35.987 37.45 34.7305C35.0657 35.1493 32.8146 34.9811 30.6967 34.2259C28.5789 33.4707 26.7511 32.3392 25.2134 30.8315C23.6758 29.2938 22.5293 27.4734 21.7741 25.3703C21.0189 23.2676 20.8507 21.0241 21.2695 18.6398C19.9232 19.5611 18.7789 20.8363 17.8366 22.4653C16.8943 24.094 16.4232 25.9389 16.4232 28C16.4232 29.6333 16.7246 31.15 17.3273 32.55C17.9301 33.95 18.761 35.175 19.8199 36.225C20.8699 37.3139 22.0873 38.1597 23.4722 38.7625C24.8574 39.3653 26.3667 39.6667 28 39.6667ZM35.0898 32.6667C35.7898 32.6667 36.4607 32.6083 37.1023 32.4917C37.744 32.375 38.3954 32.2 39.0565 31.9667C39.9121 29.6333 40.0384 27.3875 39.4357 25.2292C38.8329 23.0708 37.7926 21.2528 36.3148 19.775C34.8371 18.2972 33.019 17.2569 30.8607 16.6542C28.7023 16.0514 26.4565 16.1778 24.1232 17.0333C23.8898 17.6944 23.7148 18.3458 23.5982 18.9875C23.4815 19.6292 23.4232 20.3 23.4232 21C23.4232 22.6333 23.7246 24.15 24.3273 25.55C24.9301 26.95 25.7759 28.175 26.8648 29.225C27.9148 30.3139 29.1398 31.1597 30.5398 31.7625C31.9398 32.3653 33.4565 32.6667 35.0898 32.6667ZM41.8203 30.3602C43.316 29.3491 44.4976 28.0815 45.3652 26.5574C46.2329 25.0334 46.6667 23.1809 46.6667 21C46.6667 19.3667 46.3653 17.85 45.7625 16.45C45.1597 15.05 44.3139 13.825 43.225 12.775C42.175 11.6861 40.95 10.8403 39.55 10.2375C38.15 9.63472 36.6333 9.33333 35 9.33333C33.0108 9.33333 31.2288 9.77453 29.6538 10.6569C28.0788 11.5393 26.7408 12.7435 25.6398 14.2695C28.0241 13.8507 30.2752 14.0189 32.3931 14.7741C34.511 15.5293 36.3387 16.6608 37.8764 18.1685C39.4141 19.7062 40.5605 21.5266 41.3158 23.6297C42.071 25.7324 42.2392 27.9759 41.8203 30.3602Z" fill="#C89C66"/>
</g>
</svg>
