<svg width="19" height="25" viewBox="0 0 19 25" fill="none" xmlns="http://www.w3.org/2000/svg">
<path d="M2.154 24.4103C1.54022 24.4103 1.02778 24.2048 0.616667 23.7937C0.205556 23.3826 0 22.8701 0 22.2563V10.5643C0 9.95055 0.205556 9.43811 0.616667 9.027C1.02778 8.61589 1.54022 8.41033 2.154 8.41033H4.97433V9.74367H2.154C1.94867 9.74367 1.76056 9.82911 1.58967 10C1.41878 10.1709 1.33333 10.359 1.33333 10.5643V22.2563C1.33333 22.4617 1.41878 22.6498 1.58967 22.8207C1.76056 22.9916 1.94867 23.077 2.154 23.077H16.5127C16.718 23.077 16.9061 22.9916 17.077 22.8207C17.2479 22.6498 17.3333 22.4617 17.3333 22.2563V10.5643C17.3333 10.359 17.2479 10.1709 17.077 10C16.9061 9.82911 16.718 9.74367 16.5127 9.74367H13.6923V8.41033H16.5127C17.1264 8.41033 17.6389 8.61589 18.05 9.027C18.4611 9.43811 18.6667 9.95055 18.6667 10.5643V22.2563C18.6667 22.8701 18.4611 23.3826 18.05 23.7937C17.6389 24.2048 17.1264 24.4103 16.5127 24.4103H2.154ZM8.66667 17.077V2.56167L5.86667 5.36167L4.923 4.41033L9.33333 0L13.7437 4.41033L12.8 5.36167L10 2.56167V17.077H8.66667Z" fill="#C89C66"/>
</svg>
