<svg width="48" height="40" viewBox="0 0 48 40" fill="none" xmlns="http://www.w3.org/2000/svg">
<path opacity="0.5" d="M11.113 15.3982V11.1209H0V15.3982H2.55101V24.5428H0V28.8201H11.113V24.5428H8.562V15.3982H11.113ZM23.3696 17.9056C22.6952 17.6991 19.1472 16.6962 18.5315 16.4897C17.9157 16.2832 17.4172 15.9882 17.4172 15.6342C17.4172 15.2802 17.9743 14.8673 19.1179 14.8673C22.6952 14.8673 24.4252 17.0796 24.4252 17.0796C24.4252 17.0796 24.6304 17.3451 24.6891 17.4336H28.1491V11.3864H24.4252V12.4779C24.1319 12.2714 22.0501 10.9145 18.7954 10.9145C14.5144 10.9145 12.1393 13.1563 12.1393 16.4897C12.1393 19.823 15.1594 21.2094 15.9804 21.5634C16.8015 21.9174 20.0855 22.8319 21.493 23.2743C22.9004 23.7168 23.3989 24.0413 23.3989 24.2478C23.3989 24.4543 22.7831 25.0737 21.0531 25.0737C18.0037 25.0737 16.4496 23.2743 16.1564 22.9204C16.1564 22.9204 15.9805 22.6549 15.9218 22.5959C15.8925 22.5369 15.7752 22.3894 15.7166 22.3009H12.2566V28.7611H16.1271V27.4041C16.5669 27.6991 18.8833 29.1445 21.6689 29.1445C24.777 29.1445 28.7062 27.7876 28.7062 23.5693C28.7062 19.351 24.0147 18.0531 23.3403 17.8466L23.3696 17.9056ZM38.5877 10.8555C33.427 10.8555 29.2046 13.4513 29.2046 20.0885C29.2046 26.7257 33.8082 29.2035 38.617 29.2035C43.4258 29.2035 48 26.7552 48 20.177C48 13.5988 43.4551 10.885 38.617 10.885L38.5877 10.8555ZM38.6463 24.7788C36.887 24.7788 35.7434 24.3658 35.7434 20.059C35.7434 15.7522 36.5938 15.3097 38.7049 15.3097C39.9951 15.3097 41.5492 15.3982 41.5492 19.941C41.5492 24.4838 40.4056 24.7788 38.617 24.7788H38.6463ZM7.38913 9.14454C8.562 7.43363 9.96946 5.8997 11.6115 4.63127C12.2859 5.13274 12.9896 5.57522 13.7227 5.9587C12.4911 7.34513 11.3769 8.87906 11.201 9.14454H11.934C12.3739 8.55457 13.3122 7.31563 14.2798 6.25369C15.3354 6.78466 16.4789 7.19764 17.6518 7.52212C17.3293 8.20059 17.0947 8.79056 16.9481 9.14454H17.5932C17.7398 8.76106 17.945 8.25959 18.2382 7.66962C19.7337 8.0531 21.317 8.25959 22.9297 8.28909V9.14454H23.5162V8.28909C25.1289 8.28909 26.683 8.0826 28.1784 7.75811C28.4423 8.28909 28.6475 8.79056 28.7941 9.14454H29.4392C29.2926 8.79056 29.0874 8.25959 28.7941 7.61062C29.9963 7.28613 31.1399 6.87316 32.2248 6.37168C33.1631 7.43363 34.0428 8.58407 34.4533 9.14454H35.1863C35.0104 8.90855 33.9548 7.43363 32.7526 6.0767C33.5736 5.66372 34.3653 5.16224 35.069 4.63127C36.7111 5.8997 38.1185 7.43363 39.2914 9.14454H40.0244C36.4765 3.65782 30.3189 0 23.3403 0C16.3616 0 10.2334 3.65782 6.6854 9.14454H7.41845H7.38913ZM17.9157 6.99115C16.8015 6.69616 15.7166 6.28319 14.7196 5.81121C14.8662 5.66372 14.9835 5.51622 15.1301 5.39823C16.5082 4.0413 18.7954 2.56637 19.2938 2.24189C19.7043 2.47788 20.1442 2.65487 20.6133 2.80236C20.2615 3.27434 19.5284 4.27729 18.7367 5.51622C18.4435 5.9882 18.1503 6.51917 17.9157 6.99115ZM22.9297 7.69911C21.405 7.66962 19.9389 7.49262 18.5021 7.13864C18.7367 6.69617 18.9713 6.25369 19.2352 5.84071C20.1442 4.39528 20.9652 3.33333 21.2291 2.97935C21.7569 3.09734 22.3433 3.18584 22.9297 3.21534V7.69911ZM23.5162 7.69911V3.21534C24.1026 3.21534 24.6597 3.15634 25.1875 3.03835C25.5101 3.45133 26.2724 4.48378 27.1228 5.84071C27.416 6.28319 27.6506 6.75516 27.8852 7.22714C26.4777 7.55162 25.0116 7.69911 23.4869 7.72861L23.5162 7.69911ZM28.5009 7.05015C28.237 6.54867 27.9438 5.9882 27.6213 5.48673C26.8882 4.30678 26.1845 3.36283 25.8033 2.86136C26.3018 2.71386 26.7709 2.53687 27.2107 2.30088C27.9145 2.74336 29.967 4.10029 31.2279 5.33923C31.4038 5.51622 31.5797 5.69321 31.7556 5.87021C30.7294 6.34218 29.6151 6.72566 28.4716 7.02065L28.5009 7.05015ZM34.5999 4.24779C33.8961 4.74926 33.1338 5.22124 32.3421 5.60472C32.1075 5.36873 31.9023 5.13274 31.6677 4.92625C30.4655 3.77581 28.6768 2.53687 27.7972 1.9764C28.0904 1.76991 28.3543 1.56342 28.6182 1.32743C30.788 1.9469 32.7819 2.94985 34.5706 4.24779H34.5999ZM23.3696 0.58997C24.953 0.58997 26.4777 0.79646 27.9731 1.15044C26.8589 2.0649 25.1875 2.59587 23.3696 2.59587C21.5516 2.59587 19.8803 2.0649 18.766 1.15044C20.2321 0.79646 21.7862 0.58997 23.3696 0.58997ZM18.0916 1.32743C18.2969 1.50442 18.5021 1.68142 18.7367 1.85841C17.945 2.35988 15.9804 3.68732 14.7196 4.92625C14.5437 5.10324 14.3384 5.30973 14.1625 5.48673C13.4588 5.10324 12.7844 4.69027 12.1393 4.24779C13.9279 2.94985 15.9218 1.9469 18.0916 1.32743ZM39.35 30.7965C38.2065 32.4779 36.8283 33.9823 35.245 35.2212C34.4826 34.6608 33.6616 34.1298 32.8112 33.6873C33.8375 32.5074 34.7758 31.2684 35.1277 30.7965H34.3946C33.9255 31.4159 33.1338 32.4484 32.2834 33.4218C31.1985 32.8909 30.055 32.4779 28.8528 32.1829C29.1167 31.6224 29.2926 31.1504 29.4392 30.7965H28.7941C28.6475 31.1209 28.4716 31.5634 28.2663 32.0354C26.7709 31.6814 25.2169 31.5044 23.6042 31.5044V30.826H23.0177V31.5339C21.405 31.5634 19.8216 31.7699 18.3262 32.1534C18.0916 31.6519 17.8864 31.2094 17.7398 30.8555H17.0947C17.2413 31.2094 17.4465 31.7404 17.7104 32.3009C16.5376 32.6254 15.394 33.0678 14.3384 33.5693C13.4588 32.5664 12.6084 31.4749 12.11 30.826H11.3769C11.7288 31.3274 12.7257 32.6254 13.7813 33.8643C12.9896 34.2773 12.2566 34.7493 11.5822 35.2802C9.99878 34.0413 8.59132 32.5369 7.47709 30.8555H6.74404C10.292 36.3422 16.4496 40 23.4282 40C30.4068 40 36.5644 36.3422 40.1124 30.8555H39.3793L39.35 30.7965ZM28.5302 32.7139C29.6738 33.0089 30.7587 33.3923 31.8143 33.8643C31.6384 34.0413 31.4624 34.2183 31.2865 34.3953C29.9963 35.6342 27.9731 36.9911 27.2694 37.4336C26.8296 37.1976 26.3604 37.0206 25.8619 36.8732C26.2431 36.3717 26.9175 35.4277 27.6799 34.2478C28.0024 33.7463 28.2957 33.1858 28.5596 32.6844L28.5302 32.7139ZM23.5455 32.0649C25.0409 32.0649 26.5363 32.2419 27.9438 32.5664C27.7092 33.0383 27.4453 33.5103 27.1814 33.9528C26.3311 35.3097 25.5394 36.3422 25.2462 36.7552C24.7184 36.6372 24.1319 36.5782 23.5748 36.5782V32.0944L23.5455 32.0649ZM22.9591 32.0649V36.5487C22.3726 36.5487 21.8155 36.6667 21.2584 36.7847C20.9945 36.4307 20.1735 35.3687 19.2645 33.9233C19.0006 33.5103 18.7367 33.0383 18.5315 32.6254C19.9389 32.3009 21.4343 32.0944 22.9591 32.0649ZM17.945 32.7729C18.1796 33.2743 18.4728 33.7758 18.766 34.2478C19.5577 35.4867 20.2615 36.4602 20.6426 36.9616C20.1735 37.1091 19.7337 37.3156 19.3232 37.5221C18.8247 37.1976 16.5376 35.7227 15.1594 34.3658C15.0128 34.2478 14.8955 34.1003 14.7489 33.9528C15.7752 33.4513 16.8308 33.0678 17.945 32.7729ZM12.0513 35.5752C12.7257 35.0737 13.4294 34.6313 14.1918 34.2478C14.3677 34.4543 14.573 34.6313 14.7489 34.8083C16.0391 36.0472 17.9743 37.3451 18.766 37.8761C18.4728 38.0826 18.2382 38.2891 18.0037 38.5251C15.8338 37.8761 13.8399 36.8732 12.0513 35.5752ZM23.3989 39.292C21.7569 39.292 20.1735 39.0855 18.6487 38.7021C19.763 37.7286 21.5223 37.1386 23.3989 37.1386C25.2755 37.1386 27.0348 37.7286 28.1491 38.7021C26.6243 39.0855 25.0409 39.292 23.3989 39.292ZM28.8235 38.5251C28.5596 38.2301 28.237 37.9941 27.8852 37.7581C28.7648 37.1976 30.5534 35.9587 31.7263 34.8083C31.9609 34.6018 32.1662 34.3658 32.4007 34.1298C33.2217 34.5428 34.0134 35.0442 34.7465 35.5752C32.9578 36.8732 30.964 37.8761 28.7941 38.5251H28.8235Z" fill="#7B7B7B"/>
</svg>
