<svg width="29" height="24" viewBox="0 0 29 24" fill="none" xmlns="http://www.w3.org/2000/svg">
<path d="M6.71411 9.23894V6.67257H0V9.23894H1.54123V14.7257H0V17.292H6.71411V14.7257H5.17288V9.23894H6.71411ZM14.1191 10.7434C13.7117 10.6195 11.5681 10.0177 11.1961 9.89381C10.8241 9.76991 10.5229 9.59292 10.5229 9.38053C10.5229 9.16814 10.8595 8.92035 11.5504 8.92035C13.7117 8.92035 14.7569 10.2478 14.7569 10.2478C14.7569 10.2478 14.8809 10.4071 14.9163 10.4602H17.0067V6.83186H14.7569V7.48673C14.5797 7.36283 13.3219 6.54867 11.3555 6.54867C8.76909 6.54867 7.33415 7.89381 7.33415 9.89381C7.33415 11.8938 9.15883 12.7257 9.65486 12.9381C10.1509 13.1504 12.135 13.6991 12.9853 13.9646C13.8357 14.2301 14.1368 14.4248 14.1368 14.5487C14.1368 14.6726 13.7648 15.0442 12.7196 15.0442C10.8772 15.0442 9.9383 13.9646 9.76115 13.7522C9.76115 13.7522 9.65486 13.5929 9.61942 13.5575C9.60171 13.5221 9.53085 13.4336 9.49542 13.3805H7.40501V17.2566H9.74343V16.4425C10.0092 16.6195 11.4087 17.4867 13.0916 17.4867C14.9695 17.4867 17.3433 16.6726 17.3433 14.1416C17.3433 11.6106 14.5089 10.8319 14.1014 10.708L14.1191 10.7434ZM23.3134 6.51327C20.1955 6.51327 17.6445 8.0708 17.6445 12.0531C17.6445 16.0354 20.4258 17.5221 23.3311 17.5221C26.2364 17.5221 29 16.0531 29 12.1062C29 8.15929 26.2541 6.53097 23.3311 6.53097L23.3134 6.51327ZM23.3488 14.8673C22.2859 14.8673 21.595 14.6195 21.595 12.0354C21.595 9.45133 22.1087 9.18584 23.3842 9.18584C24.1637 9.18584 25.1026 9.23894 25.1026 11.9646C25.1026 14.6903 24.4117 14.8673 23.3311 14.8673H23.3488ZM4.46426 5.48673C5.17288 4.46018 6.02321 3.53982 7.01527 2.77876C7.42272 3.07965 7.84789 3.34513 8.29078 3.57522C7.54673 4.40708 6.87355 5.32743 6.76726 5.48673H7.21014C7.47587 5.13274 8.04276 4.38938 8.62737 3.75221C9.26512 4.0708 9.95602 4.31858 10.6646 4.51327C10.4698 4.92035 10.328 5.27434 10.2395 5.48673H10.6292C10.7178 5.25664 10.8418 4.95575 11.0189 4.60177C11.9224 4.83186 12.879 4.95575 13.8534 4.97345V5.48673H14.2077V4.97345C15.182 4.97345 16.121 4.84956 17.0244 4.65487C17.1839 4.97345 17.3079 5.27434 17.3965 5.48673H17.7862C17.6976 5.27434 17.5736 4.95575 17.3965 4.56637C18.1228 4.37168 18.8137 4.12389 19.4691 3.82301C20.036 4.46018 20.5675 5.15044 20.8155 5.48673H21.2584C21.1521 5.34513 20.5144 4.46018 19.788 3.64602C20.2841 3.39823 20.7624 3.09735 21.1875 2.77876C22.1796 3.53982 23.0299 4.46018 23.7385 5.48673H24.1814C22.0379 2.19469 18.3177 0 14.1014 0C9.88515 0 6.18265 2.19469 4.0391 5.48673H4.48198H4.46426ZM10.8241 4.19469C10.1509 4.0177 9.49542 3.76991 8.8931 3.48673C8.98167 3.39823 9.05253 3.30973 9.14111 3.23894C9.97373 2.42478 11.3555 1.53982 11.6567 1.34513C11.9047 1.48673 12.1704 1.59292 12.4539 1.68142C12.2413 1.9646 11.7984 2.56637 11.3201 3.30973C11.1429 3.59292 10.9658 3.9115 10.8241 4.19469ZM13.8534 4.61947C12.9322 4.60177 12.0464 4.49557 11.1784 4.28319C11.3201 4.0177 11.4618 3.75221 11.6213 3.50442C12.1704 2.63717 12.6665 2 12.8259 1.78761C13.1448 1.85841 13.4991 1.9115 13.8534 1.9292V4.61947ZM14.2077 4.61947V1.9292C14.562 1.9292 14.8986 1.89381 15.2175 1.82301C15.4123 2.0708 15.8729 2.69027 16.3867 3.50442C16.5638 3.76991 16.7056 4.0531 16.8473 4.33628C15.9969 4.53097 15.1112 4.61947 14.19 4.63717L14.2077 4.61947ZM17.2193 4.23009C17.0599 3.9292 16.8827 3.59292 16.6878 3.29204C16.245 2.58407 15.8198 2.0177 15.5895 1.71681C15.8907 1.62832 16.1741 1.52212 16.4398 1.38053C16.865 1.64602 18.1051 2.46018 18.8668 3.20354C18.9731 3.30973 19.0794 3.41593 19.1857 3.52212C18.5657 3.80531 17.8925 4.0354 17.2016 4.21239L17.2193 4.23009ZM20.9041 2.54867C20.4789 2.84956 20.0183 3.13274 19.54 3.36283C19.3983 3.22124 19.2743 3.07965 19.1326 2.95575C18.4062 2.26549 17.3256 1.52212 16.7941 1.18584C16.9713 1.06195 17.1307 0.938053 17.2902 0.79646C18.6011 1.16814 19.8057 1.76991 20.8864 2.54867H20.9041ZM14.1191 0.353982C15.0757 0.353982 15.9969 0.477876 16.9004 0.690265C16.2272 1.23894 15.2175 1.55752 14.1191 1.55752C13.0208 1.55752 12.011 1.23894 11.3378 0.690265C12.2236 0.477876 13.1625 0.353982 14.1191 0.353982ZM10.9304 0.79646C11.0544 0.902655 11.1784 1.00885 11.3201 1.11504C10.8418 1.41593 9.65486 2.21239 8.8931 2.95575C8.7868 3.06195 8.6628 3.18584 8.55651 3.29204C8.13134 3.06195 7.72388 2.81416 7.33415 2.54867C8.41478 1.76991 9.61942 1.16814 10.9304 0.79646ZM23.774 18.4779C23.0831 19.4867 22.2505 20.3894 21.2938 21.1327C20.8332 20.7965 20.3372 20.4779 19.8235 20.2124C20.4435 19.5044 21.0104 18.7611 21.223 18.4779H20.7801C20.4966 18.8496 20.0183 19.469 19.5046 20.0531C18.8491 19.7345 18.1582 19.4867 17.4319 19.3097C17.5913 18.9734 17.6976 18.6903 17.7862 18.4779H17.3965C17.3079 18.6726 17.2016 18.9381 17.0776 19.2212C16.1741 19.0088 15.2352 18.9027 14.2608 18.9027V18.4956H13.9065V18.9204C12.9322 18.9381 11.9756 19.0619 11.0721 19.292C10.9304 18.9911 10.8064 18.7257 10.7178 18.5133H10.328C10.4166 18.7257 10.5406 19.0442 10.7001 19.3805C9.99145 19.5752 9.30055 19.8407 8.6628 20.1416C8.13134 19.5398 7.61759 18.885 7.31643 18.4956H6.87355C7.08613 18.7965 7.68845 19.5752 8.32621 20.3186C7.84789 20.5664 7.40501 20.8496 6.99756 21.1681C6.04093 20.4248 5.19059 19.5221 4.51741 18.5133H4.07453C6.21808 21.8053 9.9383 24 14.1545 24C18.3708 24 22.091 21.8053 24.2346 18.5133H23.7917L23.774 18.4779ZM17.237 19.6283C17.9279 19.8053 18.5834 20.0354 19.2211 20.3186C19.1148 20.4248 19.0086 20.531 18.9023 20.6372C18.1228 21.3805 16.9004 22.1947 16.4753 22.4602C16.2095 22.3186 15.9261 22.2124 15.6249 22.1239C15.8552 21.823 16.2627 21.2566 16.7233 20.5487C16.9181 20.2478 17.0953 19.9115 17.2547 19.6106L17.237 19.6283ZM14.2254 19.2389C15.1289 19.2389 16.0324 19.3451 16.8827 19.5398C16.741 19.823 16.5816 20.1062 16.4221 20.3717C15.9084 21.1858 15.4301 21.8053 15.2529 22.0531C14.934 21.9823 14.5797 21.9469 14.2431 21.9469V19.2566L14.2254 19.2389ZM13.8711 19.2389V21.9292C13.5168 21.9292 13.1802 22 12.8436 22.0708C12.6842 21.8584 12.1881 21.2212 11.639 20.354C11.4795 20.1062 11.3201 19.823 11.1961 19.5752C12.0464 19.3805 12.9499 19.2566 13.8711 19.2389ZM10.8418 19.6637C10.9835 19.9646 11.1607 20.2655 11.3378 20.5487C11.8161 21.292 12.2413 21.8761 12.4716 22.177C12.1881 22.2655 11.9224 22.3894 11.6744 22.5133C11.3732 22.3186 9.99145 21.4336 9.15883 20.6195C9.07025 20.5487 8.99939 20.4602 8.91081 20.3717C9.53085 20.0708 10.1686 19.8407 10.8418 19.6637ZM7.281 21.3451C7.68845 21.0442 8.11362 20.7788 8.57422 20.5487C8.68051 20.6726 8.80452 20.7788 8.91081 20.885C9.69029 21.6283 10.8595 22.4071 11.3378 22.7257C11.1607 22.8496 11.0189 22.9735 10.8772 23.115C9.56628 22.7257 8.36164 22.1239 7.281 21.3451ZM14.1368 23.5752C13.1448 23.5752 12.1881 23.4513 11.267 23.2212C11.9401 22.6372 13.0031 22.2832 14.1368 22.2832C15.2706 22.2832 16.3335 22.6372 17.0067 23.2212C16.0855 23.4513 15.1289 23.5752 14.1368 23.5752ZM17.4142 23.115C17.2547 22.9381 17.0599 22.7965 16.8473 22.6549C17.3787 22.3186 18.4594 21.5752 19.168 20.885C19.3097 20.7611 19.4337 20.6195 19.5754 20.4779C20.0715 20.7257 20.5498 21.0265 20.9927 21.3451C19.912 22.1239 18.7074 22.7257 17.3965 23.115H17.4142Z" fill="white"/>
</svg>
