<svg width="80" height="80" viewBox="0 0 80 80" fill="none" xmlns="http://www.w3.org/2000/svg">
<g opacity="0.4">
<mask id="mask0_26_10011" style="mask-type:alpha" maskUnits="userSpaceOnUse" x="0" y="0" width="80" height="80">
<rect width="80" height="80" fill="#D9D9D9"/>
</mask>
<g mask="url(#mask0_26_10011)">
<path d="M7.16614 63.3332L16.7536 44.9357C17.2164 44.0468 17.8631 43.3437 18.6936 42.8265C19.5236 42.3098 20.4547 42.0515 21.487 42.0515C22.5636 42.0515 23.5528 42.3318 24.4545 42.8923C25.3567 43.4534 26.0106 44.2498 26.4161 45.2815L28.1536 49.3715C28.5636 50.2604 29.3278 50.6682 30.4461 50.5948C31.5639 50.5209 32.2825 50.0426 32.602 49.1598L39.5761 26.9098C40.2684 24.7132 41.5517 22.9696 43.4261 21.679C45.3 20.3885 47.3775 19.7432 49.6586 19.7432C51.8942 19.7432 53.9425 20.3746 55.8036 21.6373C57.6648 22.9001 58.9481 24.5957 59.6536 26.724L62.012 33.2115C61.5114 33.3532 61.0356 33.5373 60.5845 33.764C60.1339 33.9912 59.7081 34.2748 59.307 34.6148L59.0378 34.904L56.4611 27.7815C55.9739 26.2904 55.0978 25.1334 53.8328 24.3107C52.5678 23.4879 51.1684 23.0765 49.6345 23.0765C48.1 23.0765 46.6973 23.5018 45.4261 24.3523C44.1545 25.2029 43.275 26.3737 42.7878 27.8648L35.8136 50.1148C35.3992 51.2859 34.6995 52.2326 33.7145 52.9548C32.7295 53.6771 31.6089 54.0382 30.3528 54.0382C29.2222 54.0382 28.1756 53.7423 27.2128 53.1507C26.25 52.5584 25.5336 51.7326 25.0636 50.6732L23.1978 46.1982C22.8561 45.4721 22.2686 45.0982 21.4353 45.0765C20.602 45.0554 19.9931 45.4082 19.6086 46.1348L10.8011 63.3332H7.16614ZM45.512 66.6665V59.3015L63.2878 41.609C63.6167 41.3223 63.9561 41.1107 64.3061 40.974C64.6561 40.8373 65.0061 40.769 65.3561 40.769C65.7378 40.769 66.1131 40.8407 66.482 40.984C66.8503 41.1268 67.1853 41.3415 67.487 41.6282L70.5703 44.7757C70.8436 45.1046 71.052 45.4465 71.1953 45.8015C71.3381 46.1559 71.4095 46.5104 71.4095 46.8648C71.4095 47.2198 71.3411 47.5779 71.2045 47.939C71.0678 48.3001 70.8564 48.6451 70.5703 48.974L52.8778 66.6665H45.512ZM48.4611 63.7182H51.6278L63.1853 52.1407L61.6853 50.4915L60.102 48.929L48.4611 60.5515V63.7182ZM61.6853 50.4915L60.102 48.929L63.1853 52.1407L61.6853 50.4915ZM21.5986 33.0765C19.3359 33.0765 17.3925 32.269 15.7686 30.654C14.1447 29.0384 13.3328 27.1159 13.3328 24.8865C13.3328 22.6115 14.1447 20.6729 15.7686 19.0707C17.3925 17.4679 19.3359 16.6665 21.5986 16.6665C23.8609 16.6665 25.7839 17.4662 27.3678 19.0657C28.9511 20.6646 29.7428 22.6065 29.7428 24.8915C29.7428 27.1304 28.9511 29.0543 27.3678 30.6632C25.7839 32.2721 23.8609 33.0765 21.5986 33.0765ZM21.592 29.7432C22.957 29.7432 24.1011 29.2635 25.0245 28.304C25.9478 27.3446 26.4095 26.1898 26.4095 24.8398C26.4095 23.4893 25.9478 22.3448 25.0245 21.4065C24.1011 20.4687 22.957 19.9998 21.592 19.9998C20.227 19.9998 19.0647 20.4668 18.1053 21.4007C17.1459 22.3346 16.6661 23.4915 16.6661 24.8715C16.6661 26.2004 17.1459 27.3446 18.1053 28.304C19.0647 29.2635 20.227 29.7432 21.592 29.7432Z" fill="#7B7B7B"/>
</g>
</g>
</svg>
