<svg width="109" height="109" viewBox="0 0 109 109" fill="none" xmlns="http://www.w3.org/2000/svg">
<g clip-path="url(#clip0_26_28901)">
<path fill-rule="evenodd" clip-rule="evenodd" d="M81.5118 7.05211C77.3773 4.6726 73.0697 2.93118 68.6955 1.78795L69.4412 19.4947C69.6009 23.2833 73.3959 25.4501 76.7581 23.702L92.4839 15.5C89.3081 12.2897 85.6396 9.43161 81.5118 7.05211ZM74.9139 20.6379C73.8886 21.1696 73.0697 20.7243 73.0164 19.5545L72.4705 6.79953C74.9538 7.63037 77.3973 8.71377 79.7541 10.0763C82.1177 11.4389 84.2815 13.0075 86.2389 14.7356L74.9139 20.6379ZM60.1735 74.097H48.0429C44.6341 74.097 41.8578 76.8753 41.8578 80.2784V89.1384L45.9124 89.2514V80.2784C45.9124 79.1086 46.8711 78.1515 48.0429 78.1515H52.0842V85.1969H56.1388V78.1515H60.1735C61.3452 78.1515 62.3106 79.1086 62.3106 80.2784V89.2447H66.3652V80.2784C66.3652 76.8753 63.5823 74.097 60.1735 74.097ZM54.3412 49.8699C52.0376 49.8699 50.1734 51.731 50.1734 54.0307C50.1734 56.3305 52.0376 58.1982 54.3412 58.1982C56.6448 58.1982 58.509 56.3305 58.509 54.0307C58.509 51.731 56.6448 49.8699 54.3412 49.8699ZM39.8471 69.1053C37.8298 65.6158 35.8058 62.1197 33.7885 58.6236C32.0774 55.6724 28.2825 54.6555 25.333 56.3637L17.6432 60.7904L19.574 64.353H19.5807L21.1652 63.4357L27.357 59.8665C28.3757 59.2816 29.6873 59.6338 30.2731 60.6441L32.2905 64.1336L26.1786 67.663L28.2026 71.1658L34.3211 67.6431L36.3384 71.1326C36.9243 72.1429 36.5715 73.4589 35.5595 74.0438L29.361 77.6131L27.7765 78.5237L29.8071 82.0331L37.5834 77.5533C40.5395 75.8451 41.5515 72.0565 39.8471 69.1053ZM26.4449 76.2239L25.2065 74.0837L14.2478 80.398C13.2291 80.9829 11.9175 80.6373 11.3316 79.6204L10.4062 78.0252C9.8203 77.0082 10.1732 75.6988 11.1852 75.1139L22.1506 68.7929L20.9122 66.6527L20.12 65.2902L9.16117 71.6045C6.2051 73.3127 5.18645 77.1013 6.89085 80.0457L7.81629 81.6476C9.52069 84.5921 13.3223 85.609 16.2717 83.9075L27.2372 77.5865L26.4449 76.2239ZM44.7672 59.2882C43.6154 57.2942 41.0588 56.6096 39.0681 57.7595C37.0708 58.9094 36.3917 61.455 37.5435 63.449C38.6953 65.4364 41.2453 66.121 43.2359 64.9711C45.2333 63.8212 45.919 61.2756 44.7672 59.2882ZM37.8165 30.116L30.1267 25.6827L28.0028 29.1323H28.0095L29.594 30.0496L35.7858 33.6188C36.8045 34.2037 37.1573 35.5198 36.5648 36.5301L34.5475 40.0196L28.4356 36.4968L26.4116 39.9996L32.5235 43.529L30.5062 47.0185C29.9203 48.0288 28.602 48.3811 27.59 47.7961L21.3916 44.2269L19.8137 43.3097L17.7831 46.8191L25.5594 51.3056C28.5155 53.0071 32.3104 51.9902 34.0148 49.0391C36.0388 45.5429 38.0561 42.0468 40.0801 38.5573C41.7845 35.6062 40.7725 31.8176 37.8165 30.116ZM16.5048 23.7552C13.5487 22.0536 9.75372 23.0706 8.04932 26.015L7.12388 27.6169C5.41947 30.5613 6.43812 34.3566 9.38754 36.0581L20.353 42.3725L21.1386 41.0099L22.3836 38.8697L11.4182 32.5487C10.4062 31.9638 10.0533 30.6544 10.6392 29.6375L11.558 28.0423C12.1505 27.032 13.4621 26.6797 14.4741 27.2646L25.4396 33.5789L26.6779 31.4387L27.4635 30.0761L16.5048 23.7552ZM43.469 42.6915C41.4716 41.5416 38.9217 42.2262 37.7699 44.2136C36.6181 46.2076 37.3038 48.7533 39.3012 49.9031C41.2919 51.053 43.8418 50.3684 44.9936 48.3811C46.1454 46.3871 45.4663 43.8414 43.469 42.6915ZM62.77 18.8101V27.783C62.77 28.9529 61.8113 29.9166 60.6395 29.9166H56.5982V22.8645H52.5436V29.9166H48.5089C47.3372 29.9166 46.3718 28.9529 46.3718 27.783V18.8167H42.3172V27.783C42.3172 31.1861 45.1001 33.9644 48.5089 33.9644H60.6395C64.0483 33.9644 66.8246 31.1928 66.8246 27.783V18.923L62.77 18.8101ZM55.493 0H53.6488C50.24 0 47.457 2.7783 47.457 6.1814V18.8167H51.5116V6.1814C51.5116 5.01158 52.477 4.04782 53.6488 4.04782H55.493C56.6714 4.04782 57.6302 5.01158 57.6302 6.1814V18.8167H61.6848V6.1814C61.6848 2.7783 58.9085 0 55.493 0ZM54.5742 34.7953C52.2706 34.7953 50.3998 36.663 50.3998 38.9627C50.3998 41.2625 52.2706 43.1235 54.5742 43.1235C56.8778 43.1235 58.742 41.2625 58.742 38.9627C58.742 36.663 56.8778 34.7953 54.5742 34.7953ZM89.1084 43.7085H89.1017L87.5172 44.6257L81.3254 48.1949C80.3134 48.7799 78.9951 48.4276 78.4092 47.4173L76.3919 43.9278L82.5038 40.4051L80.4798 36.8956L74.3613 40.4184L72.344 36.9289C71.7581 35.9186 72.1109 34.6025 73.1229 34.0176L79.3214 30.4484L80.9059 29.5378L78.8753 26.0283L71.099 30.5148C68.1429 32.2164 67.1309 36.005 68.8353 38.9561C70.8526 42.4522 72.8766 45.9417 74.9006 49.4379C76.605 52.389 80.3999 53.4059 83.356 51.7044L91.0392 47.2711L89.1084 43.7085ZM101.792 28.0157L100.866 26.4205C99.1617 23.4694 95.3667 22.4524 92.4107 24.154L81.4452 30.4749L82.2375 31.8375L83.4759 33.9844L94.4346 27.6634C95.4533 27.0785 96.7649 27.4308 97.3508 28.4411L98.2762 30.0363C98.8621 31.0532 98.5092 32.3626 97.4972 32.9475L86.5318 39.2685L87.7702 41.4154L88.5624 42.7779L99.5212 36.4569C102.477 34.7554 103.496 30.9668 101.792 28.0157ZM71.1389 44.6124C69.9871 42.625 67.4371 41.9404 65.4465 43.0903C63.4491 44.2402 62.7634 46.7859 63.9152 48.7799C65.067 50.7672 67.6236 51.4518 69.6143 50.3019C71.6116 49.1521 72.2907 46.6064 71.1389 44.6124ZM83.123 56.7625C80.1669 55.0609 76.372 56.0712 74.6675 59.0224C72.6436 62.5185 70.6262 66.0146 68.6023 69.5108C66.8979 72.4553 67.9165 76.2439 70.8659 77.952L78.5557 82.3787L80.6796 78.9291H80.6729L79.0883 78.0119L72.8966 74.4426C71.8779 73.8577 71.5317 72.5483 72.1176 71.5314L74.1349 68.0419L80.2468 71.5646L82.2775 68.0618L76.1589 64.5391L78.1762 61.0496C78.7621 60.0326 80.0804 59.6804 81.0924 60.2653L87.2841 63.8345L88.8687 64.7518L90.8993 61.2423L83.123 56.7625ZM99.2949 72.0033L88.3294 65.689L87.5438 67.0515L86.2988 69.1917L97.2642 75.5127C98.2829 76.0976 98.6291 77.407 98.0432 78.424L97.1244 80.0192C96.5385 81.0361 95.2203 81.3884 94.2083 80.7968L83.2428 74.4825L82.0045 76.6227L81.2188 77.9853L92.1776 84.3063C95.1337 86.0078 98.9287 84.9975 100.633 82.0464L101.559 80.4445C103.263 77.5001 102.244 73.7115 99.2949 72.0033ZM69.3812 58.1583C67.3905 57.0084 64.8406 57.693 63.6888 59.687C62.537 61.6744 63.2161 64.22 65.2134 65.3699C67.2108 66.5198 69.7607 65.8418 70.9125 63.8478C72.0643 61.8538 71.3786 59.3082 69.3812 58.1583ZM57.1708 89.2447V101.88C57.1708 103.05 56.2054 104.014 55.0336 104.014H53.1894C52.011 104.014 51.0522 103.05 51.0522 101.88V89.2447H46.9976V101.88C46.9976 105.29 49.7739 108.061 53.1894 108.061H55.0336C58.4424 108.061 61.2254 105.29 61.2254 101.88V89.2447H57.1708ZM54.1082 64.9379C51.8046 64.9379 49.9404 66.799 49.9404 69.0987C49.9404 71.3984 51.8046 73.2662 54.1082 73.2662C56.4118 73.2662 58.2826 71.3984 58.2826 69.0987C58.2826 66.799 56.4118 64.9379 54.1082 64.9379ZM27.1706 7.05211C23.0427 9.43161 19.3743 12.2897 16.1985 15.5L31.9309 23.7086C35.2998 25.4634 39.0748 23.27 39.2346 19.488L39.9869 1.78795C35.6194 2.93118 31.3051 4.6726 27.1706 7.05211ZM35.6593 19.5478C35.6127 20.7044 34.8071 21.1829 33.7752 20.6445L22.4369 14.7423C24.3943 13.0075 26.5581 11.4389 28.9216 10.083C31.2851 8.72042 33.7219 7.63037 36.2053 6.80618L35.6593 19.5478ZM16.8243 49.8167L1.84422 40.3186C0.645809 44.6656 0 49.2717 0 54.0307C0 58.7897 0.645809 63.3959 1.84422 67.7428L16.831 58.2447C20.0401 56.2108 20.0201 51.8506 16.8243 49.8167ZM15.0933 55.1208L4.30096 61.9735C3.78165 59.4145 3.50202 56.7558 3.50202 54.0374C3.50202 51.3189 3.78165 48.6602 4.30096 46.1012L15.0866 52.9407C16.0653 53.5654 16.0853 54.496 15.0933 55.1208ZM39.2412 88.5668C39.0815 84.7782 35.2865 82.6114 31.9243 84.3661L16.1985 92.5614C19.3743 95.7717 23.0427 98.6298 27.1706 101.009C31.3051 103.389 35.6194 105.137 39.9869 106.273L39.2412 88.5668ZM28.9283 97.9851C26.5647 96.6225 24.4009 95.0539 22.4435 93.3258L33.7685 87.4235C34.7938 86.8918 35.6127 87.3438 35.666 88.507L36.2119 101.262C33.7286 100.431 31.2851 99.3476 28.9283 97.9851ZM76.7514 84.3528C73.3892 82.5981 69.6076 84.7981 69.4478 88.5734L68.6955 106.273C73.063 105.137 77.3773 103.389 81.5118 101.009C85.6396 98.6298 89.3081 95.7717 92.4839 92.5614L76.7514 84.3528ZM79.7608 97.9851C77.4039 99.341 74.9605 100.431 72.4771 101.262L73.0231 88.5136C73.0697 87.3571 73.8753 86.8785 74.9072 87.4169L86.2455 93.3258C84.2881 95.0539 82.1243 96.6225 79.7608 97.9851ZM106.838 40.3186L91.8514 49.8167C88.6423 51.8506 88.6623 56.2175 91.8581 58.2447L106.838 67.7428C108.037 63.3959 108.682 58.7897 108.682 54.0307C108.682 49.2717 108.037 44.6656 106.838 40.3186ZM104.381 61.9602L93.5958 55.1208C92.6171 54.5026 92.6037 53.5654 93.5891 52.9407L104.381 46.0946C104.901 48.6536 105.18 51.3056 105.18 54.0307C105.18 56.7558 104.901 59.4079 104.381 61.9602Z" fill="url(#paint0_linear_26_28901)"/>
</g>
<defs>
<linearGradient id="paint0_linear_26_28901" x1="0" y1="54.0193" x2="108.682" y2="54.0193" gradientUnits="userSpaceOnUse">
<stop stop-color="#FFD45D"/>
<stop offset="0.5" stop-color="#F8AF3C"/>
<stop offset="1" stop-color="#9D5316"/>
</linearGradient>
<clipPath id="clip0_26_28901">
<rect width="108.5" height="108.061" fill="white"/>
</clipPath>
</defs>
</svg>
