<svg width="56" height="56" viewBox="0 0 56 56" fill="none" xmlns="http://www.w3.org/2000/svg">
<mask id="mask0_26_12276" style="mask-type:alpha" maskUnits="userSpaceOnUse" x="0" y="0" width="56" height="56">
<rect width="56" height="56" fill="#D9D9D9"/>
</mask>
<g mask="url(#mask0_26_12276)">
<path d="M11.6667 44.3335V11.6668V37.8807V33.1469V44.3335ZM13.1028 46.6668C12.0287 46.6668 11.132 46.3071 10.4125 45.5877C9.69307 44.8682 9.33334 43.9714 9.33334 42.8973V13.103C9.33334 12.0289 9.69307 11.1321 10.4125 10.4127C11.132 9.69322 12.0287 9.3335 13.1028 9.3335H42.8972C43.9713 9.3335 44.8681 9.69322 45.5875 10.4127C46.307 11.1321 46.6667 12.0289 46.6667 13.103V31.6798H44.3333V13.103C44.3333 12.7437 44.1838 12.4145 43.8848 12.1154C43.5857 11.8164 43.2565 11.6668 42.8972 11.6668H13.1028C12.7435 11.6668 12.4143 11.8164 12.1153 12.1154C11.8162 12.4145 11.6667 12.7437 11.6667 13.103V42.8973C11.6667 43.2567 11.8162 43.5859 12.1153 43.8849C12.4143 44.184 12.7435 44.3335 13.1028 44.3335H27.9102V46.6668H13.1028ZM40.2588 49.0002L33.8602 42.6465L35.525 40.9951L40.2588 45.7288L49.7268 36.2613L51.3783 37.9256L40.2588 49.0002ZM18.9362 29.7951C19.4476 29.7951 19.8746 29.6238 20.2172 29.2812C20.5594 28.9386 20.7305 28.5116 20.7305 28.0002C20.7305 27.4888 20.5594 27.0618 20.2172 26.7192C19.8746 26.3766 19.4476 26.2052 18.9362 26.2052C18.4244 26.2052 17.9972 26.3766 17.6546 26.7192C17.3124 27.0618 17.1413 27.4888 17.1413 28.0002C17.1413 28.5116 17.3124 28.9386 17.6546 29.2812C17.9972 29.6238 18.4244 29.7951 18.9362 29.7951ZM18.9362 21.0002C19.4476 21.0002 19.8746 20.8289 20.2172 20.4862C20.5594 20.1436 20.7305 19.7166 20.7305 19.2052C20.7305 18.6939 20.5594 18.2669 20.2172 17.9242C19.8746 17.5816 19.4476 17.4103 18.9362 17.4103C18.4244 17.4103 17.9972 17.5816 17.6546 17.9242C17.3124 18.2669 17.1413 18.6939 17.1413 19.2052C17.1413 19.7166 17.3124 20.1436 17.6546 20.4862C17.9972 20.8289 18.4244 21.0002 18.9362 21.0002ZM26.1153 29.1668H38.6797V26.8335H26.1153V29.1668ZM26.1153 20.3719H38.6797V18.0386H26.1153V20.3719Z" fill="#C89C66"/>
</g>
</svg>
