<svg width="29" height="37" viewBox="0 0 29 37" fill="none" xmlns="http://www.w3.org/2000/svg">
<path d="M14.1995 17.4615C15.0898 17.4615 15.8497 17.1445 16.479 16.5105C17.1087 15.8765 17.4235 15.1143 17.4235 14.224C17.4235 13.3337 17.1063 12.5737 16.472 11.944C15.838 11.3147 15.0758 11 14.1855 11C13.2952 11 12.5353 11.317 11.906 11.951C11.2763 12.585 10.9615 13.3472 10.9615 14.2375C10.9615 15.1278 11.2787 15.8878 11.913 16.5175C12.547 17.1468 13.3092 17.4615 14.1995 17.4615ZM14.1925 33.354C17.9515 30.082 20.9233 26.7543 23.108 23.371C25.2927 19.9877 26.385 17.0615 26.385 14.5925C26.385 10.9335 25.2267 7.9135 22.91 5.5325C20.5933 3.15183 17.6875 1.9615 14.1925 1.9615C10.6975 1.9615 7.79167 3.15183 5.475 5.5325C3.15833 7.9135 2 10.9335 2 14.5925C2 17.0615 3.09233 19.9877 5.277 23.371C7.46167 26.7543 10.4335 30.082 14.1925 33.354ZM14.1925 36.0385C9.4925 31.8822 5.95217 28.0058 3.5715 24.4095C1.1905 20.8135 0 17.5412 0 14.5925C0 10.3615 1.37767 6.87167 4.133 4.123C6.888 1.37433 10.2412 0 14.1925 0C18.1438 0 21.497 1.37433 24.252 4.123C27.0073 6.87167 28.385 10.3615 28.385 14.5925C28.385 17.5412 27.1945 20.8135 24.8135 24.4095C22.4328 28.0058 18.8925 31.8822 14.1925 36.0385Z" fill="#C89C66"/>
</svg>
