<svg width="18" height="18" viewBox="0 0 18 18" fill="none" xmlns="http://www.w3.org/2000/svg">
<mask id="mask0_26_15273" style="mask-type:alpha" maskUnits="userSpaceOnUse" x="0" y="0" width="18" height="18">
<rect width="17.424" height="17.424" fill="#D9D9D9"/>
</mask>
<g mask="url(#mask0_26_15273)">
<path d="M4.35498 15.2457V2.17773H9.43698C10.647 2.17773 11.6755 2.60123 12.5225 3.44823C13.3695 4.29523 13.793 5.32373 13.793 6.53373C13.793 7.74373 13.3695 8.77223 12.5225 9.61923C11.6755 10.4662 10.647 10.8897 9.43698 10.8897H7.25898V15.2457H4.35498ZM7.25898 7.98573H9.58218C9.98148 7.98573 10.3233 7.84356 10.6077 7.55921C10.892 7.27486 11.0342 6.93303 11.0342 6.53373C11.0342 6.13443 10.892 5.79261 10.6077 5.50826C10.3233 5.22391 9.98148 5.08173 9.58218 5.08173H7.25898V7.98573Z" fill="#591B42"/>
</g>
</svg>
