<svg width="36" height="28" viewBox="0 0 36 28" fill="none" xmlns="http://www.w3.org/2000/svg">
<path d="M3.231 28C2.31033 28 1.54167 27.6917 0.925 27.075C0.308333 26.4583 0 25.6897 0 24.769V3.231C0 2.31033 0.308333 1.54167 0.925 0.925C1.54167 0.308333 2.31033 0 3.231 0H32.769C33.6897 0 34.4583 0.308333 35.075 0.925C35.6917 1.54167 36 2.31033 36 3.231V24.769C36 25.6897 35.6917 26.4583 35.075 27.075C34.4583 27.6917 33.6897 28 32.769 28H3.231ZM18 14.231L2 3.769V24.769C2 25.128 2.11533 25.423 2.346 25.654C2.577 25.8847 2.872 26 3.231 26H32.769C33.128 26 33.423 25.8847 33.654 25.654C33.8847 25.423 34 25.128 34 24.769V3.769L18 14.231ZM18 12L33.3845 2H2.6155L18 12ZM2 3.769V2V24.769C2 25.128 2.11533 25.423 2.346 25.654C2.577 25.8847 2.872 26 3.231 26H2V3.769Z" fill="#C89C66"/>
</svg>
