<svg width="51" height="51" viewBox="0 0 51 51" fill="none" xmlns="http://www.w3.org/2000/svg">
<circle cx="25.5" cy="25.5" r="25" stroke="white"/>
<mask id="mask0_26_1090" style="mask-type:alpha" maskUnits="userSpaceOnUse" x="7" y="7" width="38" height="38">
<rect x="7" y="7" width="38" height="38" fill="#D9D9D9"/>
</mask>
<g mask="url(#mask0_26_1090)">
<path d="M14.3079 37.0837C13.579 37.0837 12.9705 36.8396 12.4823 36.3514C11.9941 35.8632 11.75 35.2546 11.75 34.5258V17.4749C11.75 16.746 11.9941 16.1375 12.4823 15.6493C12.9705 15.1611 13.579 14.917 14.3079 14.917H37.6921C38.421 14.917 39.0295 15.1611 39.5177 15.6493C40.0059 16.1375 40.25 16.746 40.25 17.4749V34.5258C40.25 35.2546 40.0059 35.8632 39.5177 36.3514C39.0295 36.8396 38.421 37.0837 37.6921 37.0837H14.3079ZM26 26.1832L13.3333 17.9008V34.5258C13.3333 34.81 13.4246 35.0435 13.6072 35.2264C13.7901 35.409 14.0237 35.5003 14.3079 35.5003H37.6921C37.9763 35.5003 38.2099 35.409 38.3928 35.2264C38.5754 35.0435 38.6667 34.81 38.6667 34.5258V17.9008L26 26.1832ZM26 24.417L38.1794 16.5003H13.8206L26 24.417ZM13.3333 17.9008V16.5003V34.5258C13.3333 34.81 13.4246 35.0435 13.6072 35.2264C13.7901 35.409 14.0237 35.5003 14.3079 35.5003H13.3333V17.9008Z" fill="white"/>
</g>
</svg>
