<svg width="107" height="103" viewBox="0 0 107 103" fill="none" xmlns="http://www.w3.org/2000/svg">
<path d="M6.66667 102.974V94.9744H26.6667L9.33333 38.3077C6.44444 36.9744 4.16667 35.0855 2.5 32.641C0.833333 30.1966 0 27.3077 0 23.9744C0 19.641 1.52778 15.9466 4.58333 12.891C7.63889 9.83547 11.3333 8.30769 15.6667 8.30769C19.6667 8.30769 23.0556 9.55769 25.8333 12.0577C28.6111 14.5577 30.4444 17.7521 31.3333 21.641H56.6667V10.641C56.6667 9.97436 56.8889 9.4188 57.3333 8.97436C57.7778 8.52991 58.3333 8.30769 59 8.30769C59.6667 8.30769 60.2222 8.52991 60.6667 8.97436C61.1111 9.4188 61.3333 9.97436 61.3333 10.641V12.9744L73.6667 1.64103C74.5556 0.752137 75.5278 0.224359 76.5833 0.0576923C77.6389 -0.108974 78.6667 0.0854701 79.6667 0.641026L104.667 12.3077C105.333 12.641 105.861 13.1132 106.25 13.7244C106.639 14.3355 106.667 14.9744 106.333 15.641C106 16.3077 105.528 16.7244 104.917 16.891C104.306 17.0577 103.667 16.9744 103 16.641L77.3333 4.64103L61.3333 19.3077V28.641L77.3333 42.9744L103 30.9744C103.667 30.641 104.306 30.5577 104.917 30.7244C105.528 30.891 106 31.3077 106.333 31.9744C106.667 32.641 106.639 33.2799 106.25 33.891C105.861 34.5021 105.333 34.9744 104.667 35.3077L79.6667 46.9744C78.6667 47.5299 77.6389 47.6966 76.5833 47.4744C75.5278 47.2521 74.5556 46.7521 73.6667 45.9744L61.3333 34.9744V37.3077C61.3333 37.9744 61.1111 38.5299 60.6667 38.9744C60.2222 39.4188 59.6667 39.641 59 39.641C58.3333 39.641 57.7778 39.4188 57.3333 38.9744C56.8889 38.5299 56.6667 37.9744 56.6667 37.3077V26.3077H31.3333C31 27.9744 30.3889 29.641 29.5 31.3077C28.6111 32.9744 27.6667 34.3077 26.6667 35.3077L58.6667 94.9744H84.6667V102.974H6.66667ZM15.6667 34.9744C18.6667 34.9744 21.25 33.891 23.4167 31.7244C25.5833 29.5577 26.6667 26.9744 26.6667 23.9744C26.6667 20.9744 25.5833 18.391 23.4167 16.2244C21.25 14.0577 18.6667 12.9744 15.6667 12.9744C12.6667 12.9744 10.0833 14.0577 7.91667 16.2244C5.75 18.391 4.66667 20.9744 4.66667 23.9744C4.66667 26.9744 5.75 29.5577 7.91667 31.7244C10.0833 33.891 12.6667 34.9744 15.6667 34.9744ZM31.6667 94.9744H53.3333L22.6667 37.9744C21.7778 38.5299 20.5556 39.0021 19 39.391C17.4444 39.7799 16 39.8632 14.6667 39.641L31.6667 94.9744Z" fill="#C89C66"/>
</svg>
