<svg width="24" height="24" viewBox="0 0 24 24" fill="none" xmlns="http://www.w3.org/2000/svg">
<mask id="mask0_27_7840" style="mask-type:alpha" maskUnits="userSpaceOnUse" x="0" y="0" width="24" height="24">
<rect width="24" height="24" fill="#D9D9D9"/>
</mask>
<g mask="url(#mask0_27_7840)">
<path d="M10.0004 13.9997V9.99968H14.0004V13.9997H10.0004ZM11.0004 12.9997H13.0004V10.9997H11.0004V12.9997ZM9.50041 19.5382V17.9997H7.61591C7.15558 17.9997 6.77125 17.8455 6.46291 17.5372C6.15458 17.2288 6.00041 16.8445 6.00041 16.3842V14.4997H4.46191V13.4997H6.00041V10.4997H4.46191V9.49968H6.00041V7.61518C6.00041 7.15485 6.15458 6.77051 6.46291 6.46218C6.77125 6.15385 7.15558 5.99968 7.61591 5.99968H9.50041V4.46118H10.5004V5.99968H13.5004V4.46118H14.5004V5.99968H16.3849C16.8452 5.99968 17.2296 6.15385 17.5379 6.46218C17.8462 6.77051 18.0004 7.15485 18.0004 7.61518V9.49968H19.5389V10.4997H18.0004V13.4997H19.5389V14.4997H18.0004V16.3842C18.0004 16.8445 17.8462 17.2288 17.5379 17.5372C17.2296 17.8455 16.8452 17.9997 16.3849 17.9997H14.5004V19.5382H13.5004V17.9997H10.5004V19.5382H9.50041ZM16.3849 16.9997C16.5389 16.9997 16.68 16.9356 16.8082 16.8074C16.9363 16.6793 17.0004 16.5382 17.0004 16.3842V7.61518C17.0004 7.46118 16.9363 7.3201 16.8082 7.19193C16.68 7.06376 16.5389 6.99968 16.3849 6.99968H7.61591C7.46191 6.99968 7.32083 7.06376 7.19266 7.19193C7.0645 7.3201 7.00041 7.46118 7.00041 7.61518V16.3842C7.00041 16.5382 7.0645 16.6793 7.19266 16.8074C7.32083 16.9356 7.46191 16.9997 7.61591 16.9997H16.3849Z" fill="#C89C66"/>
</g>
</svg>
