<svg width="18" height="18" viewBox="0 0 18 18" fill="none" xmlns="http://www.w3.org/2000/svg">
<mask id="mask0_26_15073" style="mask-type:alpha" maskUnits="userSpaceOnUse" x="0" y="0" width="18" height="18">
<rect width="17.424" height="17.424" fill="#D9D9D9"/>
</mask>
<g mask="url(#mask0_26_15073)">
<path d="M7.98561 7.98559H9.43761V2.90359C9.43761 2.69789 9.36803 2.52546 9.22888 2.38631C9.08973 2.24716 8.91731 2.17759 8.71161 2.17759C8.50591 2.17759 8.33348 2.24716 8.19433 2.38631C8.05518 2.52546 7.98561 2.69789 7.98561 2.90359V7.98559ZM3.62961 10.8896H13.7936V9.43759H3.62961V10.8896ZM2.57691 15.2456H4.35561V13.7936C4.35561 13.5879 4.42518 13.4155 4.56433 13.2763C4.70348 13.1372 4.87591 13.0676 5.08161 13.0676C5.28731 13.0676 5.45973 13.1372 5.59888 13.2763C5.73803 13.4155 5.80761 13.5879 5.80761 13.7936V15.2456H7.98561V13.7936C7.98561 13.5879 8.05518 13.4155 8.19433 13.2763C8.33348 13.1372 8.50591 13.0676 8.71161 13.0676C8.91731 13.0676 9.08973 13.1372 9.22888 13.2763C9.36803 13.4155 9.43761 13.5879 9.43761 13.7936V15.2456H11.6156V13.7936C11.6156 13.5879 11.6852 13.4155 11.8243 13.2763C11.9635 13.1372 12.1359 13.0676 12.3416 13.0676C12.5473 13.0676 12.7197 13.1372 12.8589 13.2763C12.998 13.4155 13.0676 13.5879 13.0676 13.7936V15.2456H14.8463L14.1203 12.3416H3.30291L2.57691 15.2456ZM14.8463 16.6976H2.57691C2.10501 16.6976 1.72386 16.51 1.43346 16.1349C1.14306 15.7598 1.05836 15.3424 1.17936 14.8826L2.17761 10.8896V9.43759C2.17761 9.03829 2.31978 8.69646 2.60413 8.41211C2.88848 8.12776 3.23031 7.98559 3.62961 7.98559H6.53361V2.90359C6.53361 2.29859 6.74536 1.78434 7.16886 1.36084C7.59236 0.937336 8.10661 0.725586 8.71161 0.725586C9.31661 0.725586 9.83086 0.937336 10.2544 1.36084C10.6779 1.78434 10.8896 2.29859 10.8896 2.90359V7.98559H13.7936C14.1929 7.98559 14.5347 8.12776 14.8191 8.41211C15.1034 8.69646 15.2456 9.03829 15.2456 9.43759V10.8896L16.2439 14.8826C16.4012 15.3424 16.3316 15.7598 16.0351 16.1349C15.7387 16.51 15.3424 16.6976 14.8463 16.6976Z" fill="#591B42"/>
</g>
</svg>
