<svg width="123" height="110" viewBox="0 0 123 110" fill="none" xmlns="http://www.w3.org/2000/svg">
<path d="M52.5 109.333V104.667H65.3333L62 71.3333C59.1111 70.8889 56.25 70.5555 53.4167 70.3333C50.5833 70.1111 47.7222 70 44.8333 70C42.6111 70 40.4167 70.0833 38.25 70.25C36.0833 70.4167 33.8889 70.6667 31.6667 71L36.3333 89.3333L31.8333 90.3333L27.1667 71.6667C23.0556 72.5555 19 73.6667 15 75C11 76.3333 7.11111 77.9444 3.33333 79.8333L1.33333 75.5C5.33333 73.7222 9.38889 72.1389 13.5 70.75C17.6111 69.3611 21.7778 68.2222 26 67.3333L16.8333 31C12.2778 31.4444 8.33333 30.1667 5 27.1667C1.66667 24.1667 0 20.3333 0 15.6667C0 11.3144 1.51 7.61555 4.53 4.57C7.54889 1.52333 11.2156 0 15.53 0C19.8433 0 23.5 1.52333 26.5 4.57C29.5 7.61555 31 11.3144 31 15.6667C31 18.8889 30.1389 21.75 28.4167 24.25C26.6944 26.75 24.3889 28.6111 21.5 29.8333L30.6667 66.5C33 66.0555 35.34 65.75 37.6867 65.5833C40.0333 65.4167 42.4156 65.3333 44.8333 65.3333C47.7222 65.3333 50.5372 65.4444 53.2783 65.6667C56.0183 65.8889 58.7589 66.2222 61.5 66.6667L59.1667 44.1667C55.2778 43.6111 52.0556 41.9167 49.5 39.0833C46.9444 36.25 45.6667 32.8889 45.6667 29C45.6667 24.6478 47.1767 20.9489 50.1967 17.9033C53.2156 14.8567 56.8822 13.3333 61.1967 13.3333C65.51 13.3333 69.1667 14.8567 72.1667 17.9033C75.1667 20.9489 76.6667 24.6478 76.6667 29C76.6667 32.8889 75.4444 36.2222 73 39C70.5555 41.7778 67.5 43.5 63.8333 44.1667L66.1667 67.5C71.0556 68.3889 75.8333 69.4444 80.5 70.6667C85.1667 71.8889 89.8889 73.1111 94.6667 74.3333L101.167 29.8333C98.2778 28.6111 95.9444 26.75 94.1667 24.25C92.3889 21.75 91.5 18.8889 91.5 15.6667C91.5 11.3144 93.01 7.61555 96.03 4.57C99.0489 1.52333 102.716 0 107.03 0C111.343 0 115 1.52333 118 4.57C121 7.61555 122.5 11.3144 122.5 15.6667C122.5 20.1111 120.889 23.8333 117.667 26.8333C114.444 29.8333 110.611 31.2222 106.167 31L99.3333 75.6667C102.778 76.5555 106.25 77.25 109.75 77.75C113.25 78.25 116.778 78.5 120.333 78.5V83.1667C116.667 83.1667 113.028 82.9167 109.417 82.4167C105.806 81.9167 102.222 81.2222 98.6667 80.3333L97.1667 90L92.5 89.3333L94 79.1667C89.4444 77.9444 84.9167 76.6944 80.4167 75.4167C75.9167 74.1389 71.3333 73.0555 66.6667 72.1667L70 104.667H83.3333V109.333H52.5ZM61.1667 39.6667C64.1667 39.6667 66.7222 38.6111 68.8333 36.5C70.9444 34.3889 72 31.8611 72 28.9167C72 25.9722 70.9444 23.4167 68.8333 21.25C66.7222 19.0833 64.1667 18 61.1667 18C58.1667 18 55.6111 19.0833 53.5 21.25C51.3889 23.4167 50.3333 25.9722 50.3333 28.9167C50.3333 31.8611 51.3889 34.3889 53.5 36.5C55.6111 38.6111 58.1667 39.6667 61.1667 39.6667ZM15.5 26.3333C18.5 26.3333 21.0556 25.2778 23.1667 23.1667C25.2778 21.0556 26.3333 18.5278 26.3333 15.5833C26.3333 12.6389 25.2778 10.0833 23.1667 7.91667C21.0556 5.75 18.5 4.66667 15.5 4.66667C12.5 4.66667 9.94444 5.75 7.83333 7.91667C5.72222 10.0833 4.66667 12.6389 4.66667 15.5833C4.66667 18.5278 5.72222 21.0556 7.83333 23.1667C9.94444 25.2778 12.5 26.3333 15.5 26.3333ZM107 26.3333C110 26.3333 112.556 25.2778 114.667 23.1667C116.778 21.0556 117.833 18.5278 117.833 15.5833C117.833 12.6389 116.778 10.0833 114.667 7.91667C112.556 5.75 110 4.66667 107 4.66667C104 4.66667 101.444 5.75 99.3333 7.91667C97.2222 10.0833 96.1667 12.6389 96.1667 15.5833C96.1667 18.5278 97.2222 21.0556 99.3333 23.1667C101.444 25.2778 104 26.3333 107 26.3333Z" fill="#C89C66"/>
</svg>
