<svg width="80" height="80" viewBox="0 0 80 80" fill="none" xmlns="http://www.w3.org/2000/svg">
<g opacity="0.5">
<mask id="mask0_26_12361" style="mask-type:alpha" maskUnits="userSpaceOnUse" x="0" y="0" width="80" height="80">
<rect width="80" height="80" fill="#D9D9D9"/>
</mask>
<g mask="url(#mask0_26_12361)">
<path d="M40 63.0768C37.0739 63.0768 34.3178 62.5693 31.7316 61.5543C29.1455 60.5393 26.8205 59.1429 24.7566 57.3652L17.8458 64.1927C17.548 64.5043 17.1691 64.6602 16.7091 64.6602C16.2491 64.6602 15.8633 64.5043 15.5516 64.1927C15.2394 63.8804 15.0833 63.4943 15.0833 63.0343C15.0833 62.5743 15.2394 62.1954 15.5516 61.8977L22.3783 55.071C20.6005 53.0065 19.2041 50.6677 18.1891 48.0543C17.1741 45.441 16.6666 42.6707 16.6666 39.7435C16.6666 33.2296 18.9269 27.7124 23.4475 23.1918C27.9686 18.6707 33.4861 16.4102 40 16.4102H63.3333V39.7435C63.3333 46.2574 61.073 51.7749 56.5525 56.296C52.0314 60.8165 46.5139 63.0768 40 63.0768ZM40 59.7435C45.5555 59.7435 50.2778 57.799 54.1666 53.9102C58.0555 50.0213 60 45.299 60 39.7435V19.7435H40C34.4444 19.7435 29.7222 21.6879 25.8333 25.5768C21.9444 29.4657 20 34.1879 20 39.7435C20 42.2096 20.4189 44.5463 21.2566 46.7535C22.0939 48.9607 23.2669 50.934 24.7758 52.6735L42.2183 35.231C42.5155 34.9188 42.8944 34.7627 43.355 34.7627C43.815 34.7627 44.2075 34.9252 44.5325 35.2502C44.8869 35.6046 45.0641 35.9946 45.0641 36.4202C45.0641 36.8452 44.8803 37.2415 44.5125 37.6093L27.0708 54.9877C28.8097 56.496 30.7828 57.6657 32.99 58.4968C35.1978 59.3279 37.5344 59.7435 40 59.7435Z" fill="#7B7B7B"/>
</g>
</g>
</svg>
