<svg width="80" height="80" viewBox="0 0 80 80" fill="none" xmlns="http://www.w3.org/2000/svg">
<g opacity="0.4">
<mask id="mask0_26_13533" style="mask-type:alpha" maskUnits="userSpaceOnUse" x="0" y="0" width="80" height="80">
<rect width="80" height="80" fill="#7B7B7B"/>
</mask>
<g mask="url(#mask0_26_13533)">
<path d="M39.0064 66.4749C39.442 66.4749 39.8884 66.3765 40.3456 66.1799C40.8028 65.9838 41.1726 65.7446 41.4548 65.4624L67.4423 39.4749C68.2795 38.6376 68.9259 37.781 69.3814 36.9049C69.8364 36.0287 70.0639 35.0671 70.0639 34.0199C70.0639 32.9599 69.8364 31.931 69.3814 30.9332C68.9259 29.9354 68.2795 29.024 67.4423 28.199L54.9423 15.699C54.1173 14.8618 53.2701 14.2476 52.4006 13.8565C51.5306 13.4654 50.5659 13.2699 49.5064 13.2699C48.4592 13.2699 47.487 13.4654 46.5898 13.8565C45.692 14.2476 44.8459 14.8618 44.0514 15.699L41.1473 18.6032L47.3139 24.789C47.9762 25.4385 48.4698 26.1779 48.7948 27.0074C49.1192 27.8363 49.2814 28.6779 49.2814 29.5324C49.2814 31.2679 48.7142 32.7029 47.5798 33.8374C46.4453 34.9718 45.0106 35.539 43.2756 35.539C42.4206 35.539 41.5862 35.4088 40.7723 35.1482C39.9584 34.8876 39.2264 34.4324 38.5764 33.7824L32.1981 27.424L17.8073 41.8149C17.4701 42.1526 17.217 42.5362 17.0481 42.9657C16.8792 43.3951 16.7948 43.8276 16.7948 44.2632C16.7948 45.0499 17.047 45.6985 17.5514 46.209C18.0553 46.7196 18.7006 46.9749 19.4873 46.9749C19.9228 46.9749 20.3692 46.8765 20.8264 46.6799C21.2837 46.4837 21.6534 46.2446 21.9356 45.9624L32.4998 35.3982L34.8589 37.7574L24.3139 48.3215C23.9762 48.6588 23.7228 49.0421 23.5539 49.4715C23.3856 49.901 23.3014 50.3338 23.3014 50.7699C23.3014 51.5138 23.5642 52.1485 24.0898 52.674C24.6153 53.1996 25.2498 53.4624 25.9931 53.4624C26.4292 53.4624 26.8759 53.364 27.3331 53.1674C27.7903 52.9707 28.1601 52.7313 28.4423 52.449L39.7756 41.1357L42.1348 43.494L30.8206 54.8274C30.5256 55.1096 30.2831 55.4793 30.0931 55.9365C29.9025 56.3937 29.8073 56.8404 29.8073 57.2765C29.8073 58.0199 30.0701 58.6543 30.5956 59.1799C31.1217 59.706 31.7564 59.969 32.4998 59.969C32.9359 59.969 33.3687 59.8846 33.7981 59.7157C34.2276 59.5468 34.6109 59.2935 34.9481 58.9557L46.2814 47.6415L48.6406 50.0007L37.3073 61.334C36.9701 61.6718 36.717 62.0768 36.5481 62.549C36.3792 63.0213 36.2948 63.4538 36.2948 63.8465C36.2948 64.6332 36.5714 65.2679 37.1248 65.7507C37.6781 66.2335 38.3053 66.4749 39.0064 66.4749ZM38.9873 69.8082C37.2734 69.8082 35.8064 69.1813 34.5864 67.9274C33.3664 66.6729 32.8312 65.1246 32.9806 63.2824C31.0917 63.304 29.5189 62.7401 28.2623 61.5907C27.0062 60.4407 26.4101 58.836 26.4739 56.7765C24.4145 56.7976 22.7917 56.209 21.6056 55.0107C20.4195 53.8118 19.8801 52.2315 19.9873 50.2699C18.1323 50.2915 16.5809 49.7701 15.3331 48.7057C14.0853 47.6418 13.4614 46.161 13.4614 44.2632C13.4614 43.4087 13.627 42.5532 13.9581 41.6965C14.2892 40.8393 14.7795 40.086 15.4289 39.4365L32.1981 22.6865L40.8073 31.2957C41.0895 31.5907 41.4378 31.8332 41.8523 32.0232C42.2667 32.2132 42.7348 32.3082 43.2564 32.3082C43.9698 32.3082 44.6001 32.0593 45.1473 31.5615C45.6945 31.0637 45.9681 30.4151 45.9681 29.6157C45.9681 29.0946 45.8728 28.6268 45.6823 28.2124C45.4923 27.7979 45.2498 27.4496 44.9548 27.1674L33.4873 15.699C32.6623 14.8618 31.8042 14.2476 30.9131 13.8565C30.022 13.4654 29.0467 13.2699 27.9873 13.2699C26.9401 13.2699 25.9892 13.4654 25.1348 13.8565C24.2798 14.2476 23.4334 14.8618 22.5956 15.699L12.4481 25.8657C11.7348 26.5796 11.1581 27.4301 10.7181 28.4174C10.2776 29.4046 10.0445 30.4237 10.0189 31.4749C9.99339 32.2271 10.0576 32.9504 10.2114 33.6449C10.3653 34.3393 10.6089 34.9921 10.9423 35.6032L8.41644 38.129C7.85644 37.2357 7.41839 36.2068 7.10228 35.0424C6.78616 33.8779 6.64089 32.6887 6.66644 31.4749C6.692 29.9621 6.99533 28.5124 7.57644 27.1257C8.15755 25.739 8.98894 24.5051 10.0706 23.424L20.1539 13.3407C21.3162 12.1907 22.5459 11.336 23.8431 10.7765C25.1398 10.2165 26.5426 9.93652 28.0514 9.93652C29.5598 9.93652 30.9517 10.2165 32.2273 10.7765C33.5028 11.336 34.7153 12.1907 35.8648 13.3407L38.7689 16.244L41.6731 13.3407C42.8353 12.1907 44.0542 11.336 45.3298 10.7765C46.6053 10.2165 47.9976 9.93652 49.5064 9.93652C51.0148 9.93652 52.4176 10.2165 53.7148 10.7765C55.0114 11.336 56.2348 12.1907 57.3848 13.3407L69.8014 25.7574C70.9509 26.9068 71.8376 28.1974 72.4614 29.629C73.0853 31.0607 73.3973 32.5307 73.3973 34.039C73.3973 35.5479 73.0853 36.9401 72.4614 38.2157C71.8376 39.4912 70.9509 40.7037 69.8014 41.8532L43.8139 67.8215C43.1217 68.5137 42.3684 69.0179 41.5539 69.334C40.7401 69.6501 39.8845 69.8082 38.9873 69.8082Z" fill="#7B7B7B"/>
</g>
</g>
</svg>
