<svg width="18" height="18" viewBox="0 0 18 18" fill="none" xmlns="http://www.w3.org/2000/svg">
<mask id="mask0_26_15213" style="mask-type:alpha" maskUnits="userSpaceOnUse" x="0" y="0" width="18" height="18">
<rect width="17.424" height="17.424" fill="#D9D9D9"/>
</mask>
<g mask="url(#mask0_26_15213)">
<path d="M2.17773 8.71222V13.7942C2.17773 14.1935 2.31991 14.5353 2.60426 14.8197C2.88861 15.104 3.23043 15.2462 3.62973 15.2462H13.7937C14.193 15.2462 14.5349 15.104 14.8192 14.8197C15.1036 14.5353 15.2457 14.1935 15.2457 13.7942V8.71222H12.3417V12.3422H5.08173V8.71222H2.17773ZM6.53373 10.8902H10.8897V8.71222H6.53373V10.8902ZM2.17773 7.26022H15.2457V3.63022C15.2457 3.23092 15.1036 2.8891 14.8192 2.60475C14.5349 2.3204 14.193 2.17822 13.7937 2.17822H3.62973C3.23043 2.17822 2.88861 2.3204 2.60426 2.60475C2.31991 2.8891 2.17773 3.23092 2.17773 3.63022V7.26022ZM5.80773 5.80822C5.60203 5.80822 5.42961 5.73865 5.29046 5.5995C5.15131 5.46035 5.08173 5.28792 5.08173 5.08222C5.08173 4.87652 5.15131 4.7041 5.29046 4.56495C5.42961 4.4258 5.60203 4.35622 5.80773 4.35622C6.01343 4.35622 6.18586 4.4258 6.32501 4.56495C6.46416 4.7041 6.53373 4.87652 6.53373 5.08222C6.53373 5.28792 6.46416 5.46035 6.32501 5.5995C6.18586 5.73865 6.01343 5.80822 5.80773 5.80822ZM8.71173 5.80822C8.50603 5.80822 8.33361 5.73865 8.19446 5.5995C8.05531 5.46035 7.98573 5.28792 7.98573 5.08222C7.98573 4.87652 8.05531 4.7041 8.19446 4.56495C8.33361 4.4258 8.50603 4.35622 8.71173 4.35622C8.91743 4.35622 9.08986 4.4258 9.22901 4.56495C9.36816 4.7041 9.43773 4.87652 9.43773 5.08222C9.43773 5.28792 9.36816 5.46035 9.22901 5.5995C9.08986 5.73865 8.91743 5.80822 8.71173 5.80822ZM11.6157 5.80822C11.41 5.80822 11.2376 5.73865 11.0985 5.5995C10.9593 5.46035 10.8897 5.28792 10.8897 5.08222C10.8897 4.87652 10.9593 4.7041 11.0985 4.56495C11.2376 4.4258 11.41 4.35622 11.6157 4.35622C11.8214 4.35622 11.9939 4.4258 12.133 4.56495C12.2722 4.7041 12.3417 4.87652 12.3417 5.08222C12.3417 5.28792 12.2722 5.46035 12.133 5.5995C11.9939 5.73865 11.8214 5.80822 11.6157 5.80822Z" fill="#591B42"/>
</g>
</svg>
