<svg width="18" height="18" viewBox="0 0 18 18" fill="none" xmlns="http://www.w3.org/2000/svg">
<mask id="mask0_26_13866" style="mask-type:alpha" maskUnits="userSpaceOnUse" x="0" y="0" width="18" height="18">
<rect width="17.424" height="17.424" fill="#D9D9D9"/>
</mask>
<g mask="url(#mask0_26_13866)">
<path d="M2.17822 8.71173V13.7937C2.17822 14.193 2.3204 14.5349 2.60475 14.8192C2.8891 15.1036 3.23092 15.2457 3.63022 15.2457H13.7942C14.1935 15.2457 14.5353 15.1036 14.8197 14.8192C15.104 14.5349 15.2462 14.193 15.2462 13.7937V8.71173H12.3422V12.3417H5.08222V8.71173H2.17822ZM6.53422 10.8897H10.8902V8.71173H6.53422V10.8897ZM2.17822 7.25973H15.2462V3.62973C15.2462 3.23043 15.104 2.88861 14.8197 2.60426C14.5353 2.31991 14.1935 2.17773 13.7942 2.17773H3.63022C3.23092 2.17773 2.8891 2.31991 2.60475 2.60426C2.3204 2.88861 2.17822 3.23043 2.17822 3.62973V7.25973ZM5.80822 5.80773C5.60252 5.80773 5.4301 5.73816 5.29095 5.59901C5.1518 5.45986 5.08222 5.28743 5.08222 5.08173C5.08222 4.87603 5.1518 4.70361 5.29095 4.56446C5.4301 4.42531 5.60252 4.35573 5.80822 4.35573C6.01392 4.35573 6.18635 4.42531 6.3255 4.56446C6.46465 4.70361 6.53422 4.87603 6.53422 5.08173C6.53422 5.28743 6.46465 5.45986 6.3255 5.59901C6.18635 5.73816 6.01392 5.80773 5.80822 5.80773ZM8.71222 5.80773C8.50652 5.80773 8.3341 5.73816 8.19495 5.59901C8.0558 5.45986 7.98622 5.28743 7.98622 5.08173C7.98622 4.87603 8.0558 4.70361 8.19495 4.56446C8.3341 4.42531 8.50652 4.35573 8.71222 4.35573C8.91792 4.35573 9.09035 4.42531 9.2295 4.56446C9.36865 4.70361 9.43822 4.87603 9.43822 5.08173C9.43822 5.28743 9.36865 5.45986 9.2295 5.59901C9.09035 5.73816 8.91792 5.80773 8.71222 5.80773ZM11.6162 5.80773C11.4105 5.80773 11.2381 5.73816 11.0989 5.59901C10.9598 5.45986 10.8902 5.28743 10.8902 5.08173C10.8902 4.87603 10.9598 4.70361 11.0989 4.56446C11.2381 4.42531 11.4105 4.35573 11.6162 4.35573C11.8219 4.35573 11.9943 4.42531 12.1335 4.56446C12.2726 4.70361 12.3422 4.87603 12.3422 5.08173C12.3422 5.28743 12.2726 5.45986 12.1335 5.59901C11.9943 5.73816 11.8219 5.80773 11.6162 5.80773Z" fill="#591B42"/>
</g>
</svg>
