<svg width="143" height="54" viewBox="0 0 143 54" fill="none" xmlns="http://www.w3.org/2000/svg">
<path d="M0 53.6667V49.3333C0 45.4444 2.11111 42.1944 6.33333 39.5833C10.5556 36.9722 15.9444 35.6667 22.5 35.6667C23.3889 35.6667 24.3889 35.7222 25.5 35.8333C26.6111 35.9444 27.8333 36.1111 29.1667 36.3333C28.2778 38 27.6389 39.6944 27.25 41.4167C26.8611 43.1389 26.6667 44.8333 26.6667 46.5V53.6667H0ZM40 53.6667V47.1667C40 44.74 40.7222 42.5222 42.1667 40.5133C43.6111 38.5044 45.7778 36.7778 48.6667 35.3333C51.5556 33.8889 54.8889 32.8056 58.6667 32.0833C62.4444 31.3611 66.6444 31 71.2667 31C75.9778 31 80.2222 31.3611 84 32.0833C87.7778 32.8056 91.1111 33.8889 94 35.3333C96.8889 36.7778 99.0555 38.5044 100.5 40.5133C101.944 42.5222 102.667 44.74 102.667 47.1667V53.6667H40ZM116 53.6667V46.55C116 44.6522 115.806 42.8639 115.417 41.185C115.028 39.5061 114.444 37.8889 113.667 36.3333C115.111 36.1111 116.361 35.9444 117.417 35.8333C118.472 35.7222 119.444 35.6667 120.333 35.6667C126.889 35.6667 132.25 36.9722 136.417 39.5833C140.583 42.1944 142.667 45.4444 142.667 49.3333V53.6667H116ZM44.6667 49H98V47.1667C98 43.7222 95.5556 40.9444 90.6667 38.8333C85.7778 36.7222 79.3333 35.6667 71.3333 35.6667C63.3333 35.6667 56.8889 36.7222 52 38.8333C47.1111 40.9444 44.6667 43.7222 44.6667 47.1667V49ZM22.455 29.5C20.1517 29.5 18.1944 28.6839 16.5833 27.0517C14.9722 25.4194 14.1667 23.4578 14.1667 21.1667C14.1667 18.9444 14.9828 17.0278 16.615 15.4167C18.2472 13.8056 20.2089 13 22.5 13C24.7222 13 26.6667 13.8056 28.3333 15.4167C30 17.0278 30.8333 18.9611 30.8333 21.2167C30.8333 23.4056 30.0306 25.3333 28.425 27C26.8194 28.6667 24.8294 29.5 22.455 29.5ZM120.333 29.5C118.111 29.5 116.167 28.6667 114.5 27C112.833 25.3333 112 23.4056 112 21.2167C112 18.9611 112.833 17.0278 114.5 15.4167C116.167 13.8056 118.122 13 120.365 13C122.677 13 124.639 13.8056 126.25 15.4167C127.861 17.0278 128.667 18.9444 128.667 21.1667C128.667 23.4578 127.868 25.4194 126.272 27.0517C124.674 28.6839 122.694 29.5 120.333 29.5ZM71.3917 26C67.7972 26 64.7222 24.7361 62.1667 22.2083C59.6111 19.6806 58.3333 16.6111 58.3333 13C58.3333 9.31667 59.5972 6.22889 62.125 3.73666C64.6528 1.24555 67.7222 0 71.3333 0C75.0167 0 78.1044 1.24 80.5967 3.72C83.0878 6.20111 84.3333 9.275 84.3333 12.9417C84.3333 16.5361 83.0933 19.6111 80.6133 22.1667C78.1322 24.7222 75.0583 26 71.3917 26ZM71.4167 21.3333C73.6944 21.3333 75.6389 20.5 77.25 18.8333C78.8611 17.1667 79.6667 15.1944 79.6667 12.9167C79.6667 10.6389 78.8683 8.69444 77.2717 7.08333C75.6739 5.47222 73.6944 4.66667 71.3333 4.66667C69.1111 4.66667 67.1667 5.465 65.5 7.06167C63.8333 8.65944 63 10.6389 63 13C63 15.2222 63.8333 17.1667 65.5 18.8333C67.1667 20.5 69.1389 21.3333 71.4167 21.3333Z" fill="#C89C66"/>
</svg>
