<svg width="80" height="80" viewBox="0 0 80 80" fill="none" xmlns="http://www.w3.org/2000/svg">
<g opacity="0.4">
<mask id="mask0_26_13540" style="mask-type:alpha" maskUnits="userSpaceOnUse" x="0" y="0" width="80" height="80">
<rect width="80" height="80" fill="#7B7B7B"/>
</mask>
<g mask="url(#mask0_26_13540)">
<path d="M40.0009 33.9742C38.1204 33.9742 36.5393 33.3333 35.2576 32.0517C33.9754 30.7694 33.3343 29.1881 33.3343 27.3075C33.3343 25.4275 33.9754 23.8464 35.2576 22.5642C36.5393 21.2819 38.1204 20.6408 40.0009 20.6408C41.8815 20.6408 43.4626 21.2819 44.7443 22.5642C46.0265 23.8464 46.6676 25.4275 46.6676 27.3075C46.6676 29.1881 46.0265 30.7694 44.7443 32.0517C43.4626 33.3333 41.8815 33.9742 40.0009 33.9742ZM18.7826 44.615C17.302 44.615 16.0345 44.0878 14.9801 43.0333C13.9257 41.9789 13.3984 40.7114 13.3984 39.2308V15.385C13.3984 13.9039 13.9257 12.6361 14.9801 11.5817C16.0345 10.5272 17.302 10 18.7826 10H61.2826C62.7637 10 64.0315 10.5272 65.0859 11.5817C66.1404 12.6361 66.6676 13.9039 66.6676 15.385V39.2308C66.6676 40.7114 66.1404 41.9789 65.0859 43.0333C64.0315 44.0878 62.7637 44.615 61.2826 44.615H18.7826ZM22.1159 41.2817H57.9493C57.9493 39.7906 58.4768 38.5203 59.5318 37.4708C60.5862 36.4219 61.8537 35.8975 63.3343 35.8975V18.7183C61.8426 18.7183 60.5723 18.1908 59.5234 17.1358C58.474 16.0814 57.9493 14.8139 57.9493 13.3333H22.1159C22.1159 14.825 21.5887 16.0953 20.5343 17.1442C19.4798 18.1936 18.2123 18.7183 16.7318 18.7183V35.8975C18.2234 35.8975 19.4937 36.4247 20.5426 37.4792C21.5915 38.5336 22.1159 39.8011 22.1159 41.2817ZM40.0651 70L51.0268 59.0383L48.7318 56.7433L41.7318 63.7433V50.5125H38.3343V63.7433L31.3343 56.7433L29.0393 59.0383L40.0651 70Z" fill="#7B7B7B"/>
</g>
</g>
</svg>
