<svg width="32" height="32" viewBox="0 0 32 32" fill="none" xmlns="http://www.w3.org/2000/svg">
<mask id="mask0_26_12537" style="mask-type:alpha" maskUnits="userSpaceOnUse" x="0" y="0" width="32" height="32">
<rect width="32" height="32" fill="#D9D9D9"/>
</mask>
<g mask="url(#mask0_26_12537)">
<path d="M12.6667 10.9332V9.9999H23.3334V10.9332H12.6667ZM12.6667 14.5332V13.5999H23.3334V14.5332H12.6667ZM15.7334 27.5999H8.00007C7.35562 27.5999 6.81673 27.3832 6.3834 26.9499C5.95007 26.5166 5.7334 25.9777 5.7334 25.3332V21.7332H9.7334V4.3999H26.2667V14.4666C26.089 14.4888 25.9278 14.5166 25.7834 14.5499C25.639 14.5832 25.489 14.6221 25.3334 14.6666V5.33324H10.6667V21.7332H17.5334L16.6001 22.6666H6.66673V25.3332C6.66673 25.711 6.79451 26.0277 7.05007 26.2832C7.30562 26.5388 7.62229 26.6666 8.00007 26.6666H15.7334V27.5999ZM19.0667 27.5999V24.9999L26.1001 17.9999C26.2112 17.8888 26.3223 17.8166 26.4334 17.7832C26.5445 17.7499 26.6556 17.7332 26.7667 17.7332C26.8778 17.7332 26.9945 17.7555 27.1167 17.7999C27.239 17.8443 27.3445 17.911 27.4334 17.9999L28.6667 19.2666C28.7556 19.3777 28.8223 19.4888 28.8667 19.5999C28.9112 19.711 28.9334 19.8221 28.9334 19.9332C28.9334 20.0443 28.9112 20.1555 28.8667 20.2666C28.8223 20.3777 28.7556 20.4888 28.6667 20.5999L21.6667 27.5999H19.0667ZM20.0001 26.6666H21.2667L26.0667 21.8666L25.4334 21.2332L24.8334 20.5666L20.0001 25.3999V26.6666ZM25.4334 21.2332L24.8334 20.5666L26.0667 21.8666L25.4334 21.2332Z" fill="#C89C66"/>
</g>
</svg>
