<svg width="32" height="32" viewBox="0 0 32 32" fill="none" xmlns="http://www.w3.org/2000/svg">
<mask id="mask0_26_13750" style="mask-type:alpha" maskUnits="userSpaceOnUse" x="0" y="0" width="32" height="32">
<rect width="32" height="32" fill="#D9D9D9"/>
</mask>
<g mask="url(#mask0_26_13750)">
<path d="M11.4617 15.5897C12.2239 15.5897 12.8734 15.3234 13.4103 14.791C13.947 14.2586 14.3376 13.6197 14.582 12.8743L13.4437 12.5873C13.2812 13.0762 13.0354 13.5022 12.7063 13.8653C12.3772 14.2287 11.9623 14.4103 11.4617 14.4103C10.9608 14.4103 10.5458 14.2287 10.2167 13.8653C9.88756 13.5022 9.64178 13.0762 9.47933 12.5873L8.341 12.8743C8.58544 13.6197 8.976 14.2586 9.51267 14.791C10.0496 15.3234 10.6992 15.5897 11.4617 15.5897ZM16.0073 22.923C16.7664 22.923 17.4948 22.7628 18.1923 22.4423C18.8897 22.1219 19.5401 21.6497 20.1437 21.0257L19.2923 20.2307C18.7863 20.7129 18.2556 21.08 17.7 21.332C17.1444 21.5842 16.5778 21.7103 16 21.7103C15.4222 21.7103 14.8556 21.5842 14.3 21.332C13.7444 21.08 13.2137 20.7129 12.7077 20.2307L11.8563 21.0257C12.4821 21.6668 13.1406 22.1432 13.8317 22.455C14.5228 22.767 15.248 22.923 16.0073 22.923ZM20.5383 15.5897C21.3008 15.5897 21.9504 15.3234 22.4873 14.791C23.024 14.2586 23.4146 13.6197 23.659 12.8743L22.5207 12.5873C22.3582 13.0762 22.1124 13.5022 21.7833 13.8653C21.4542 14.2287 21.0392 14.4103 20.5383 14.4103C20.0377 14.4103 19.6228 14.2287 19.2937 13.8653C18.9646 13.5022 18.7188 13.0762 18.5563 12.5873L17.418 12.8743C17.6624 13.6197 18.053 14.2586 18.5897 14.791C19.1266 15.3234 19.7761 15.5897 20.5383 15.5897ZM16.0043 28C14.345 28 12.7849 27.6851 11.324 27.0553C9.86333 26.4256 8.59267 25.5709 7.512 24.4913C6.43133 23.4118 5.57589 22.1422 4.94567 20.6827C4.31522 19.2233 4 17.6639 4 16.0043C4 14.345 4.31489 12.7849 4.94467 11.324C5.57444 9.86333 6.42911 8.59267 7.50867 7.512C8.58822 6.43133 9.85778 5.57589 11.3173 4.94567C12.7767 4.31522 14.3361 4 15.9957 4C17.655 4 19.2151 4.31489 20.676 4.94467C22.1367 5.57445 23.4073 6.42911 24.488 7.50867C25.5687 8.58822 26.4241 9.85778 27.0543 11.3173C27.6848 12.7767 28 14.3361 28 15.9957C28 17.655 27.6851 19.2151 27.0553 20.676C26.4256 22.1367 25.5709 23.4073 24.4913 24.488C23.4118 25.5687 22.1422 26.4241 20.6827 27.0543C19.2233 27.6848 17.6639 28 16.0043 28ZM16 26.6667C18.9778 26.6667 21.5 25.6333 23.5667 23.5667C25.6333 21.5 26.6667 18.9778 26.6667 16C26.6667 13.0222 25.6333 10.5 23.5667 8.43333C21.5 6.36667 18.9778 5.33333 16 5.33333C13.0222 5.33333 10.5 6.36667 8.43333 8.43333C6.36667 10.5 5.33333 13.0222 5.33333 16C5.33333 18.9778 6.36667 21.5 8.43333 23.5667C10.5 25.6333 13.0222 26.6667 16 26.6667Z" fill="#C89C66"/>
</g>
</svg>
