<svg width="56" height="56" viewBox="0 0 56 56" fill="none" xmlns="http://www.w3.org/2000/svg">
<mask id="mask0_26_945" style="mask-type:alpha" maskUnits="userSpaceOnUse" x="0" y="0" width="56" height="56">
<rect width="56" height="56" fill="#D9D9D9"/>
</mask>
<g mask="url(#mask0_26_945)">
<path d="M28 25.3967C26.3846 25.3967 25.0085 24.8283 23.8718 23.6916C22.735 22.5549 22.1667 21.1788 22.1667 19.5634C22.1667 17.9483 22.735 16.5724 23.8718 15.4357C25.0085 14.2986 26.3846 13.73 28 13.73C29.6155 13.73 30.9915 14.2986 32.1283 15.4357C33.265 16.5724 33.8333 17.9483 33.8333 19.5634C33.8333 21.1788 33.265 22.5549 32.1283 23.6916C30.9915 24.8283 29.6155 25.3967 28 25.3967ZM28 23.0634C28.9602 23.0634 29.7837 22.7202 30.4704 22.0338C31.1568 21.3474 31.5 20.5239 31.5 19.5634C31.5 18.6032 31.1568 17.7799 30.4704 17.0935C29.7837 16.4067 28.9602 16.0634 28 16.0634C27.0398 16.0634 26.2164 16.4067 25.5296 17.0935C24.8432 17.7799 24.5 18.6032 24.5 19.5634C24.5 20.5239 24.8432 21.3474 25.5296 22.0338C26.2164 22.7202 27.0398 23.0634 28 23.0634ZM15.1667 37.6024V34.3357C15.1667 33.6684 15.3185 33.0722 15.6223 32.5472C15.926 32.0222 16.368 31.5907 16.9482 31.2528C18.6083 30.2716 20.3657 29.529 22.2203 29.025C24.0753 28.521 26.0019 28.269 28 28.269C29.9686 28.269 31.8875 28.521 33.7569 29.025C35.6267 29.529 37.3917 30.2716 39.0518 31.2528C39.6025 31.5907 40.0371 32.0298 40.3556 32.5699C40.6741 33.1097 40.8333 33.6983 40.8333 34.3357V37.6024H15.1667ZM28 30.6024C26.2558 30.6024 24.5058 30.8565 22.75 31.3648C20.9942 31.8734 19.271 32.6063 17.5805 33.5634V35.3134H38.4195V33.519C36.759 32.5616 35.0432 31.8361 33.2722 31.3426C31.5016 30.8491 29.7442 30.6024 28 30.6024ZM49.525 19.0162C48.3195 16.1474 46.6301 13.6338 44.457 11.4754C42.2835 9.31711 39.7923 7.65014 36.9833 6.47452L37.8945 4.31152C41.1371 5.74147 43.8793 7.56477 46.1213 9.78144C48.3636 11.9981 50.2342 14.7726 51.7329 18.105L49.525 19.0162ZM6.47501 19.0162L4.31201 18.105C5.7509 14.8026 7.59151 12.0378 9.83385 9.81061C12.0758 7.58344 14.833 5.75041 18.1055 4.31152L19.0167 6.47452C16.1778 7.68008 13.6792 9.36202 11.5208 11.5204C9.36251 13.6787 7.68057 16.1773 6.47501 19.0162ZM18.0612 51.6875C14.8482 50.3175 12.0908 48.4642 9.78893 46.1278C7.4871 43.7913 5.66146 41.0318 4.31201 37.8491L6.47501 36.9829C7.68057 39.8218 9.36251 42.3204 11.5208 44.4787C13.6792 46.637 16.1778 48.319 19.0167 49.5245L18.0612 51.6875ZM37.8496 51.6875L36.9833 49.5245C39.8222 48.319 42.3209 46.637 44.4792 44.4787C46.6375 42.3204 48.3195 39.8218 49.525 36.9829L51.688 37.894C50.2581 41.1366 48.3972 43.9014 46.1055 46.1884C43.8142 48.4755 41.0622 50.3085 37.8496 51.6875Z" fill="#C89C66"/>
</g>
</svg>
