<svg width="18" height="18" viewBox="0 0 18 18" fill="none" xmlns="http://www.w3.org/2000/svg">
<mask id="mask0_26_15268" style="mask-type:alpha" maskUnits="userSpaceOnUse" x="0" y="0" width="18" height="18">
<rect width="17.424" height="17.424" fill="#D9D9D9"/>
</mask>
<g mask="url(#mask0_26_15268)">
<path d="M8.71215 15.2462C7.62315 15.2462 6.66725 14.8983 5.84445 14.2026C5.02165 13.5068 4.5437 12.6205 4.4106 11.5436C3.5394 11.3742 2.82852 10.9507 2.27797 10.2731C1.72742 9.59552 1.45215 8.82112 1.45215 7.94992C1.45215 6.94562 1.80607 6.0956 2.51392 5.39985C3.22177 4.7041 4.07785 4.35622 5.08215 4.35622H6.89715C6.99395 4.35622 7.07865 4.31992 7.15125 4.24732C7.22385 4.17472 7.26015 4.09002 7.26015 3.99322C7.26015 3.89642 7.22385 3.81172 7.15125 3.73912C7.07865 3.66652 6.99395 3.63022 6.89715 3.63022H5.80815C5.60245 3.63022 5.43002 3.56065 5.29087 3.4215C5.15172 3.28235 5.08215 3.10992 5.08215 2.90422C5.08215 2.69852 5.15172 2.5261 5.29087 2.38695C5.43002 2.2478 5.60245 2.17822 5.80815 2.17822H6.89715C7.40535 2.17822 7.8349 2.35367 8.1858 2.70457C8.5367 3.05547 8.71215 3.48502 8.71215 3.99322C8.71215 4.50142 8.5367 4.93097 8.1858 5.28187C7.8349 5.63277 7.40535 5.80822 6.89715 5.80822H5.08215C4.47715 5.80822 3.9629 6.01392 3.5394 6.42532C3.1159 6.83672 2.90415 7.33887 2.90415 7.93177C2.90415 8.41577 3.0433 8.8544 3.3216 9.24765C3.5999 9.6409 3.96895 9.91012 4.42875 10.0553C4.62235 9.02682 5.11542 8.18285 5.90797 7.5234C6.70052 6.86395 7.62315 6.53422 8.67585 6.53422C8.91785 6.53422 9.15077 6.54935 9.37462 6.5796C9.59847 6.60985 9.82535 6.66127 10.0552 6.73387C9.43815 6.98797 8.93902 7.38727 8.55787 7.93177C8.17672 8.47627 7.98615 9.08127 7.98615 9.74677C7.98615 10.1945 8.05875 10.6301 8.20395 11.0536C8.34915 11.4771 8.5972 11.828 8.9481 12.1063L9.43815 11.6162C9.18405 11.3863 8.99952 11.1141 8.88457 10.7995C8.76962 10.4849 8.71215 10.1521 8.71215 9.80122C8.71215 9.08732 8.9602 8.48535 9.4563 7.9953C9.9524 7.50525 10.5574 7.26022 11.2713 7.26022C11.9731 7.26022 12.569 7.50525 13.0591 7.9953C13.5491 8.48535 13.7941 9.07522 13.7941 9.76492C13.7941 10.0553 13.7427 10.3366 13.6399 10.6089C13.537 10.8811 13.3827 11.1201 13.177 11.3258L15.4639 13.3223C15.6091 13.4554 15.7271 13.6036 15.8179 13.767C15.9086 13.9303 15.954 14.1088 15.954 14.3024C15.954 14.5807 15.836 14.8076 15.6001 14.983C15.3641 15.1585 15.0888 15.2462 14.7742 15.2462H8.71215ZM12.3421 13.7942C12.5478 13.7942 12.7203 13.7246 12.8594 13.5855C12.9986 13.4463 13.0681 13.2739 13.0681 13.0682C13.0681 12.8625 12.9986 12.6901 12.8594 12.5509C12.7203 12.4118 12.5478 12.3422 12.3421 12.3422C12.1364 12.3422 11.964 12.4118 11.8249 12.5509C11.6857 12.6901 11.6161 12.8625 11.6161 13.0682C11.6161 13.2739 11.6857 13.4463 11.8249 13.5855C11.964 13.7246 12.1364 13.7942 12.3421 13.7942Z" fill="#591B42"/>
</g>
</svg>
