<svg width="18" height="18" viewBox="0 0 18 18" fill="none" xmlns="http://www.w3.org/2000/svg">
<mask id="mask0_26_13999" style="mask-type:alpha" maskUnits="userSpaceOnUse" x="0" y="0" width="18" height="18">
<rect width="17.424" height="17.424" fill="#D9D9D9"/>
</mask>
<g mask="url(#mask0_26_13999)">
<path d="M8.71222 15.2461C7.93782 15.2461 7.2451 15.0464 6.63405 14.6471C6.023 14.2478 5.52387 13.7215 5.13667 13.0681L3.41242 14.0482L2.68642 12.7958L4.55587 11.7068C4.51957 11.5737 4.48932 11.4376 4.46512 11.2985C4.44092 11.1593 4.41672 11.0232 4.39252 10.8901H2.17822V9.43808H4.39252C4.41672 9.29288 4.44092 9.15071 4.46512 9.01156C4.48932 8.87241 4.51957 8.73628 4.55587 8.60318L2.68642 7.51418L3.41242 6.26183L5.11852 7.26008C5.21532 7.09068 5.32725 6.92431 5.4543 6.76096C5.58135 6.59761 5.71142 6.44938 5.84452 6.31628C5.82032 6.23158 5.80822 6.14688 5.80822 6.06218V5.80808C5.80822 5.51768 5.85057 5.23938 5.93527 4.97318C6.01997 4.70698 6.13492 4.45893 6.28012 4.22903L5.08222 3.03113L6.09862 1.99658L7.36912 3.23078C7.57482 3.12188 7.7896 3.04021 8.01345 2.98576C8.2373 2.93131 8.47022 2.90408 8.71222 2.90408C8.95422 2.90408 9.19017 2.93433 9.42007 2.99483C9.64997 3.05533 9.86777 3.14003 10.0735 3.24893L11.3258 1.99658L12.3422 3.03113L11.1443 4.22903C11.2895 4.45893 11.4014 4.70698 11.4801 4.97318C11.5587 5.23938 11.5981 5.51768 11.5981 5.80808V6.05311C11.5981 6.13176 11.586 6.21343 11.5618 6.29813C11.6949 6.43123 11.8249 6.58248 11.952 6.75188C12.079 6.92128 12.191 7.09068 12.2878 7.26008L14.012 6.27998L14.738 7.53233L12.8504 8.60318C12.8867 8.73628 12.92 8.87241 12.9502 9.01156C12.9805 9.15071 13.0077 9.29288 13.0319 9.43808H15.2462V10.8901H13.0319C13.0077 11.0353 12.9835 11.1775 12.9593 11.3166C12.9351 11.4558 12.9049 11.5919 12.8686 11.725L14.738 12.814L14.012 14.0663L12.2878 13.0681C11.9006 13.7215 11.4014 14.2478 10.7904 14.6471C10.1793 15.0464 9.48662 15.2461 8.71222 15.2461ZM7.33282 5.33618C7.53852 5.25148 7.75935 5.18796 7.9953 5.14561C8.23125 5.10326 8.47022 5.08208 8.71222 5.08208C8.95422 5.08208 9.18715 5.10023 9.411 5.13653C9.63485 5.17283 9.84962 5.23333 10.0553 5.31803C9.95852 5.03973 9.78912 4.80983 9.54712 4.62833C9.30512 4.44683 9.02682 4.35608 8.71222 4.35608C8.39762 4.35608 8.11327 4.44986 7.85917 4.63741C7.60507 4.82496 7.42962 5.05788 7.33282 5.33618ZM8.71222 13.7941C9.59552 13.7941 10.3003 13.425 10.8267 12.6869C11.353 11.9488 11.6162 11.1079 11.6162 10.1641C11.6162 9.31708 11.3712 8.50033 10.8811 7.71383C10.3911 6.92733 9.66812 6.53408 8.71222 6.53408C7.76842 6.53408 7.04847 6.92431 6.55237 7.70476C6.05627 8.48521 5.80822 9.30498 5.80822 10.1641C5.80822 11.1079 6.0714 11.9488 6.59775 12.6869C7.1241 13.425 7.82892 13.7941 8.71222 13.7941ZM7.98622 12.3421V7.98608H9.43822V12.3421H7.98622Z" fill="#591B42"/>
</g>
</svg>
