<svg width="18" height="18" viewBox="0 0 18 18" fill="none" xmlns="http://www.w3.org/2000/svg">
<mask id="mask0_26_15183" style="mask-type:alpha" maskUnits="userSpaceOnUse" x="0" y="0" width="18" height="18">
<rect width="17.424" height="17.424" fill="#D9D9D9"/>
</mask>
<g mask="url(#mask0_26_15183)">
<path d="M8.71125 15.2461C7.93685 15.2461 7.24412 15.0464 6.63307 14.6471C6.02202 14.2478 5.5229 13.7215 5.1357 13.0681L3.41145 14.0482L2.68545 12.7958L4.5549 11.7068C4.5186 11.5737 4.48835 11.4376 4.46415 11.2985C4.43995 11.1593 4.41575 11.0232 4.39155 10.8901H2.17725V9.43808H4.39155C4.41575 9.29288 4.43995 9.15071 4.46415 9.01156C4.48835 8.87241 4.5186 8.73628 4.5549 8.60318L2.68545 7.51418L3.41145 6.26183L5.11755 7.26008C5.21435 7.09068 5.32627 6.92431 5.45332 6.76096C5.58037 6.59761 5.71045 6.44938 5.84355 6.31628C5.81935 6.23158 5.80725 6.14688 5.80725 6.06218V5.80808C5.80725 5.51768 5.8496 5.23938 5.9343 4.97318C6.019 4.70698 6.13395 4.45893 6.27915 4.22903L5.08125 3.03113L6.09765 1.99658L7.36815 3.23078C7.57385 3.12188 7.78862 3.04021 8.01247 2.98576C8.23632 2.93131 8.46925 2.90408 8.71125 2.90408C8.95325 2.90408 9.1892 2.93433 9.4191 2.99483C9.649 3.05533 9.8668 3.14003 10.0725 3.24893L11.3248 1.99658L12.3412 3.03113L11.1433 4.22903C11.2885 4.45893 11.4005 4.70698 11.4791 4.97318C11.5578 5.23938 11.5971 5.51768 11.5971 5.80808V6.05311C11.5971 6.13176 11.585 6.21343 11.5608 6.29813C11.6939 6.43123 11.824 6.58248 11.951 6.75188C12.0781 6.92128 12.19 7.09068 12.2868 7.26008L14.011 6.27998L14.737 7.53233L12.8494 8.60318C12.8857 8.73628 12.919 8.87241 12.9493 9.01156C12.9795 9.15071 13.0067 9.29288 13.0309 9.43808H15.2452V10.8901H13.0309C13.0067 11.0353 12.9825 11.1775 12.9583 11.3166C12.9341 11.4558 12.9039 11.5919 12.8676 11.725L14.737 12.814L14.011 14.0663L12.2868 13.0681C11.8996 13.7215 11.4005 14.2478 10.7894 14.6471C10.1784 15.0464 9.48565 15.2461 8.71125 15.2461ZM7.33185 5.33618C7.53755 5.25148 7.75837 5.18796 7.99432 5.14561C8.23027 5.10326 8.46925 5.08208 8.71125 5.08208C8.95325 5.08208 9.18617 5.10023 9.41002 5.13653C9.63387 5.17283 9.84865 5.23333 10.0543 5.31803C9.95755 5.03973 9.78815 4.80983 9.54615 4.62833C9.30415 4.44683 9.02585 4.35608 8.71125 4.35608C8.39665 4.35608 8.1123 4.44986 7.8582 4.63741C7.6041 4.82496 7.42865 5.05788 7.33185 5.33618ZM8.71125 13.7941C9.59455 13.7941 10.2994 13.425 10.8257 12.6869C11.3521 11.9488 11.6152 11.1079 11.6152 10.1641C11.6152 9.31708 11.3702 8.50033 10.8802 7.71383C10.3901 6.92733 9.66715 6.53408 8.71125 6.53408C7.76745 6.53408 7.0475 6.92431 6.5514 7.70476C6.0553 8.48521 5.80725 9.30498 5.80725 10.1641C5.80725 11.1079 6.07042 11.9488 6.59677 12.6869C7.12312 13.425 7.82795 13.7941 8.71125 13.7941ZM7.98525 12.3421V7.98608H9.43725V12.3421H7.98525Z" fill="#591B42"/>
</g>
</svg>
