<svg width="16" height="16" viewBox="0 0 16 16" fill="none" xmlns="http://www.w3.org/2000/svg">
<path d="M4.625 16C3.34033 16 2.24833 15.5503 1.349 14.651C0.449667 13.7517 0 12.6597 0 11.375C0 10.7532 0.11925 10.1583 0.35775 9.5905C0.59625 9.0225 0.930833 8.52308 1.3615 8.09225L8.09225 1.3615C8.52308 0.930834 9.0225 0.59625 9.5905 0.35775C10.1583 0.11925 10.7532 0 11.375 0C12.6597 0 13.7517 0.449667 14.651 1.349C15.5503 2.24833 16 3.34033 16 4.625C16 5.24683 15.8807 5.84167 15.6422 6.4095C15.4037 6.9775 15.0692 7.47692 14.6385 7.90775L7.90775 14.6385C7.47692 15.0692 6.9775 15.4037 6.4095 15.6422C5.84167 15.8807 5.24683 16 4.625 16ZM10.9288 10.1962L13.95 7.2C14.2833 6.86667 14.5417 6.475 14.725 6.025C14.9083 5.575 15 5.10833 15 4.625C15 3.625 14.6458 2.77083 13.9375 2.0625C13.2292 1.35417 12.375 1 11.375 1C10.8917 1 10.425 1.09167 9.975 1.275C9.525 1.45833 9.13333 1.71667 8.8 2.05L5.80375 5.07125L10.9288 10.1962ZM4.625 15C5.10833 15 5.575 14.9083 6.025 14.725C6.475 14.5417 6.86667 14.2833 7.2 13.95L10.1962 10.9287L5.07125 5.80375L2.05 8.8C1.71667 9.13333 1.45833 9.525 1.275 9.975C1.09167 10.425 1 10.8917 1 11.375C1 12.375 1.35417 13.2292 2.0625 13.9375C2.77083 14.6458 3.625 15 4.625 15Z" fill="#C89C66"/>
</svg>
