<svg width="18" height="18" viewBox="0 0 18 18" fill="none" xmlns="http://www.w3.org/2000/svg">
<mask id="mask0_26_13871" style="mask-type:alpha" maskUnits="userSpaceOnUse" x="0" y="0" width="18" height="18">
<rect width="17.424" height="17.424" fill="#D9D9D9"/>
</mask>
<g mask="url(#mask0_26_13871)">
<path d="M13.994 6.66142L11.4348 4.10227L9.89206 5.62687L8.34931 4.10227L10.4003 2.03317C10.5455 1.88797 10.7088 1.7821 10.8903 1.71555C11.0718 1.649 11.2533 1.61572 11.4348 1.61572C11.6284 1.61572 11.8129 1.649 11.9884 1.71555C12.1638 1.7821 12.3181 1.88797 12.4512 2.03317L13.994 3.57592C14.2118 3.78162 14.3721 4.0206 14.4749 4.29285C14.5778 4.5651 14.6292 4.84037 14.6292 5.11867C14.6292 5.39697 14.5778 5.66922 14.4749 5.93542C14.3721 6.20162 14.2118 6.44362 13.994 6.66142ZM3.99331 10.001C3.77551 9.78322 3.66661 9.5261 3.66661 9.22965C3.66661 8.9332 3.77551 8.67607 3.99331 8.45827L5.77201 6.66142L7.31476 8.20417L5.51791 10.001C5.31221 10.2188 5.06114 10.3277 4.76469 10.3277C4.46824 10.3277 4.21111 10.2188 3.99331 10.001ZM3.21286 15.3916C3.07976 15.2464 2.97691 15.086 2.90431 14.9106C2.83171 14.7351 2.79541 14.5506 2.79541 14.357C2.79541 14.1634 2.82869 13.9789 2.89524 13.8034C2.96179 13.628 3.06766 13.4677 3.21286 13.3225L8.34931 8.20417L6.04426 5.88097C5.82646 5.67527 5.71756 5.4242 5.71756 5.12775C5.71756 4.8313 5.82646 4.57417 6.04426 4.35637C6.24996 4.13857 6.50406 4.02967 6.80656 4.02967C7.10906 4.02967 7.36921 4.13857 7.58701 4.35637L9.89206 6.66142L10.9266 5.62687L12.9594 7.69597C13.1046 7.84117 13.1772 8.01057 13.1772 8.20417C13.1772 8.39777 13.1046 8.56717 12.9594 8.71237C12.8142 8.85757 12.6448 8.93017 12.4512 8.93017C12.2576 8.93017 12.0882 8.85757 11.943 8.71237L5.26381 15.3916C5.11861 15.5368 4.95829 15.6426 4.78284 15.7092C4.60739 15.7757 4.42891 15.809 4.24741 15.809C4.06591 15.809 3.88441 15.7727 3.70291 15.7001C3.52141 15.6275 3.35806 15.5247 3.21286 15.3916Z" fill="#591B42"/>
</g>
</svg>
