<svg width="18" height="18" viewBox="0 0 18 18" fill="none" xmlns="http://www.w3.org/2000/svg">
<mask id="mask0_26_15173" style="mask-type:alpha" maskUnits="userSpaceOnUse" x="0" y="0" width="18" height="18">
<rect width="17.424" height="17.424" fill="#D9D9D9"/>
</mask>
<g mask="url(#mask0_26_15173)">
<path d="M13.9949 6.66142L11.4358 4.10227L9.89304 5.62687L8.35029 4.10227L10.4012 2.03317C10.5464 1.88797 10.7098 1.7821 10.8913 1.71555C11.0728 1.649 11.2543 1.61572 11.4358 1.61572C11.6294 1.61572 11.8139 1.649 11.9894 1.71555C12.1648 1.7821 12.3191 1.88797 12.4522 2.03317L13.9949 3.57592C14.2127 3.78162 14.3731 4.0206 14.4759 4.29285C14.5788 4.5651 14.6302 4.84037 14.6302 5.11867C14.6302 5.39697 14.5788 5.66922 14.4759 5.93542C14.3731 6.20162 14.2127 6.44362 13.9949 6.66142ZM3.99429 10.001C3.77649 9.78322 3.66759 9.5261 3.66759 9.22965C3.66759 8.9332 3.77649 8.67607 3.99429 8.45827L5.77299 6.66142L7.31574 8.20417L5.51889 10.001C5.31319 10.2188 5.06211 10.3277 4.76566 10.3277C4.46921 10.3277 4.21209 10.2188 3.99429 10.001ZM3.21384 15.3916C3.08074 15.2464 2.97789 15.086 2.90529 14.9106C2.83269 14.7351 2.79639 14.5506 2.79639 14.357C2.79639 14.1634 2.82966 13.9789 2.89621 13.8034C2.96276 13.628 3.06864 13.4677 3.21384 13.3225L8.35029 8.20417L6.04524 5.88097C5.82744 5.67527 5.71854 5.4242 5.71854 5.12775C5.71854 4.8313 5.82744 4.57417 6.04524 4.35637C6.25094 4.13857 6.50504 4.02967 6.80754 4.02967C7.11004 4.02967 7.37019 4.13857 7.58799 4.35637L9.89304 6.66142L10.9276 5.62687L12.9604 7.69597C13.1056 7.84117 13.1782 8.01057 13.1782 8.20417C13.1782 8.39777 13.1056 8.56717 12.9604 8.71237C12.8152 8.85757 12.6458 8.93017 12.4522 8.93017C12.2586 8.93017 12.0892 8.85757 11.944 8.71237L5.26479 15.3916C5.11959 15.5368 4.95926 15.6426 4.78381 15.7092C4.60836 15.7757 4.42989 15.809 4.24839 15.809C4.06689 15.809 3.88539 15.7727 3.70389 15.7001C3.52239 15.6275 3.35904 15.5247 3.21384 15.3916Z" fill="#591B42"/>
</g>
</svg>
