<svg width="18" height="18" viewBox="0 0 18 18" fill="none" xmlns="http://www.w3.org/2000/svg">
<mask id="mask0_26_15253" style="mask-type:alpha" maskUnits="userSpaceOnUse" x="0" y="0" width="18" height="18">
<rect width="17.424" height="17.424" fill="#D9D9D9"/>
</mask>
<g mask="url(#mask0_26_15253)">
<path d="M1.45215 15.2462V13.7942C1.91195 13.7942 2.2568 13.6732 2.4867 13.4312C2.7166 13.1892 3.17035 13.0682 3.84795 13.0682C4.52555 13.0682 4.9914 13.1892 5.2455 13.4312C5.4996 13.6732 5.84445 13.7942 6.28005 13.7942C6.71565 13.7942 7.0605 13.6732 7.3146 13.4312C7.5687 13.1892 8.03455 13.0682 8.71215 13.0682C9.38975 13.0682 9.8556 13.1892 10.1097 13.4312C10.3638 13.6732 10.7086 13.7942 11.1442 13.7942C11.5798 13.7942 11.9247 13.6732 12.1788 13.4312C12.4329 13.1892 12.8987 13.0682 13.5763 13.0682C14.2539 13.0682 14.7077 13.1892 14.9376 13.4312C15.1675 13.6732 15.5123 13.7942 15.9721 13.7942V15.2462C15.2582 15.2462 14.7894 15.1252 14.5655 14.8832C14.3417 14.6412 14.0119 14.5202 13.5763 14.5202C13.1407 14.5202 12.7959 14.6412 12.5418 14.8832C12.2877 15.1252 11.8218 15.2462 11.1442 15.2462C10.4666 15.2462 10.0008 15.1252 9.7467 14.8832C9.4926 14.6412 9.14775 14.5202 8.71215 14.5202C8.27655 14.5202 7.9317 14.6412 7.6776 14.8832C7.4235 15.1252 6.95765 15.2462 6.28005 15.2462C5.60245 15.2462 5.1366 15.1252 4.8825 14.8832C4.6284 14.6412 4.28355 14.5202 3.84795 14.5202C3.41235 14.5202 3.08262 14.6412 2.85877 14.8832C2.63492 15.1252 2.16605 15.2462 1.45215 15.2462ZM1.45215 11.9792V10.5272C1.91195 10.5272 2.2568 10.4062 2.4867 10.1642C2.7166 9.92222 3.17035 9.80122 3.84795 9.80122C4.52555 9.80122 4.99442 9.92222 5.25457 10.1642C5.51472 10.4062 5.85655 10.5272 6.28005 10.5272C6.71565 10.5272 7.0605 10.4062 7.3146 10.1642C7.5687 9.92222 8.03455 9.80122 8.71215 9.80122C9.38975 9.80122 9.8556 9.92222 10.1097 10.1642C10.3638 10.4062 10.7086 10.5272 11.1442 10.5272C11.5798 10.5272 11.9247 10.4062 12.1788 10.1642C12.4329 9.92222 12.8987 9.80122 13.5763 9.80122C14.2539 9.80122 14.7077 9.92222 14.9376 10.1642C15.1675 10.4062 15.5123 10.5272 15.9721 10.5272V11.9792C15.2582 11.9792 14.7894 11.8582 14.5655 11.6162C14.3417 11.3742 14.0119 11.2532 13.5763 11.2532C13.1407 11.2532 12.805 11.3742 12.569 11.6162C12.3331 11.8582 11.8581 11.9792 11.1442 11.9792C10.4545 11.9792 9.98567 11.8582 9.73762 11.6162C9.48957 11.3742 9.14775 11.2532 8.71215 11.2532C8.25235 11.2532 7.91052 11.3742 7.68667 11.6162C7.46282 11.8582 6.99395 11.9792 6.28005 11.9792C5.56615 11.9792 5.09122 11.8582 4.85527 11.6162C4.61932 11.3742 4.28355 11.2532 3.84795 11.2532C3.41235 11.2532 3.08262 11.3742 2.85877 11.6162C2.63492 11.8582 2.16605 11.9792 1.45215 11.9792ZM5.00955 8.27662L7.4235 5.86267L6.6975 5.13667C6.2982 4.73737 5.8747 4.44697 5.427 4.26547C4.9793 4.08397 4.42875 3.99322 3.77535 3.99322V2.17822C4.68285 2.17822 5.43305 2.27805 6.02595 2.4777C6.61885 2.67735 7.19965 3.06152 7.76835 3.63022L12.4147 8.27662C12.209 8.40972 12.0094 8.5156 11.8158 8.59425C11.6222 8.6729 11.3983 8.71222 11.1442 8.71222C10.7086 8.71222 10.3638 8.59122 10.1097 8.34922C9.8556 8.10722 9.38975 7.98622 8.71215 7.98622C8.03455 7.98622 7.5687 8.10722 7.3146 8.34922C7.0605 8.59122 6.71565 8.71222 6.28005 8.71222C6.02595 8.71222 5.8021 8.6729 5.6085 8.59425C5.4149 8.5156 5.21525 8.40972 5.00955 8.27662ZM12.1243 2.17822C12.6325 2.17822 13.0621 2.3567 13.413 2.71365C13.7639 3.0706 13.9393 3.49712 13.9393 3.99322C13.9393 4.50142 13.7639 4.93097 13.413 5.28187C13.0621 5.63277 12.6325 5.80822 12.1243 5.80822C11.6161 5.80822 11.1866 5.63277 10.8357 5.28187C10.4848 4.93097 10.3093 4.50142 10.3093 3.99322C10.3093 3.49712 10.4848 3.0706 10.8357 2.71365C11.1866 2.3567 11.6161 2.17822 12.1243 2.17822Z" fill="#591B42"/>
</g>
</svg>
