<svg width="48" height="48" viewBox="0 0 48 48" fill="none" xmlns="http://www.w3.org/2000/svg">
<mask id="mask0_26_10213" style="mask-type:alpha" maskUnits="userSpaceOnUse" x="0" y="0" width="48" height="48">
<rect width="48" height="48" fill="#D9D9D9"/>
</mask>
<g mask="url(#mask0_26_10213)">
<path d="M9.41501 40C9.08935 39.8923 8.79885 39.711 8.54351 39.456C8.28851 39.2007 8.10718 38.9102 7.99951 38.5845L38.584 8C38.925 8.11533 39.2173 8.29667 39.461 8.544C39.7047 8.79167 39.888 9.08217 40.011 9.4155L9.41501 40ZM7.99951 27.054V24.223L24.2225 8H27.0535L7.99951 27.054ZM7.99951 12.6925V11.231C7.99951 10.3103 8.30785 9.54167 8.92451 8.925C9.54118 8.30833 10.3098 8 11.2305 8H12.692L7.99951 12.6925ZM35.307 40L39.9995 35.3075V36.769C39.9995 37.6897 39.6912 38.4583 39.0745 39.075C38.4578 39.6917 37.6892 40 36.7685 40H35.307ZM20.9455 40L39.9995 20.946V23.777L23.7765 40H20.9455Z" fill="#C89C66"/>
</g>
</svg>
