<svg width="18" height="18" viewBox="0 0 18 18" fill="none" xmlns="http://www.w3.org/2000/svg">
<mask id="mask0_26_13935" style="mask-type:alpha" maskUnits="userSpaceOnUse" x="0" y="0" width="18" height="18">
<rect width="17.424" height="17.424" fill="#D9D9D9"/>
</mask>
<g mask="url(#mask0_26_13935)">
<path d="M7.26064 13.0681L6.06274 15.9721L4.71964 15.4276L5.77234 12.8685C4.48974 12.5297 3.44914 11.84 2.65054 10.7994C1.85194 9.7588 1.45264 8.57905 1.45264 7.26015V4.35615C1.45264 3.55755 1.73699 2.8739 2.30569 2.3052C2.87439 1.7365 3.55804 1.45215 4.35664 1.45215C4.62284 1.45215 4.87694 1.49752 5.11894 1.58827C5.36094 1.67902 5.60294 1.7728 5.84494 1.8696L10.1646 3.63015L7.26064 4.71915V5.80815L12.9597 9.43815H7.26064C6.86134 9.43815 6.51951 9.29597 6.23516 9.01162C5.95081 8.72727 5.80864 8.38545 5.80864 7.98615H4.35664C4.35664 8.78475 4.64099 9.4684 5.20969 10.0371C5.77839 10.6058 6.46204 10.8901 7.26064 10.8901H15.2466L15.9726 14.5201H14.5206L13.7946 13.0681H10.1646V15.9721H8.71264V13.0681H7.26064ZM4.35664 3.63015C4.15094 3.63015 3.97851 3.69972 3.83936 3.83887C3.70021 3.97802 3.63064 4.15045 3.63064 4.35615C3.63064 4.56185 3.70021 4.73427 3.83936 4.87342C3.97851 5.01257 4.15094 5.08215 4.35664 5.08215C4.56234 5.08215 4.73476 5.01257 4.87391 4.87342C5.01306 4.73427 5.08264 4.56185 5.08264 4.35615C5.08264 4.15045 5.01306 3.97802 4.87391 3.83887C4.73476 3.69972 4.56234 3.63015 4.35664 3.63015Z" fill="#591B42"/>
</g>
</svg>
