<svg width="18" height="18" viewBox="0 0 18 18" fill="none" xmlns="http://www.w3.org/2000/svg">
<mask id="mask0_26_15332" style="mask-type:alpha" maskUnits="userSpaceOnUse" x="0" y="0" width="18" height="18">
<rect width="17.424" height="17.424" fill="#D9D9D9"/>
</mask>
<g mask="url(#mask0_26_15332)">
<path d="M7.26015 13.0681L6.06225 15.9721L4.71915 15.4276L5.77185 12.8685C4.48925 12.5297 3.44865 11.84 2.65005 10.7994C1.85145 9.7588 1.45215 8.57905 1.45215 7.26015V4.35615C1.45215 3.55755 1.7365 2.8739 2.3052 2.3052C2.8739 1.7365 3.55755 1.45215 4.35615 1.45215C4.62235 1.45215 4.87645 1.49752 5.11845 1.58827C5.36045 1.67902 5.60245 1.7728 5.84445 1.8696L10.1641 3.63015L7.26015 4.71915V5.80815L12.9592 9.43815H7.26015C6.86085 9.43815 6.51902 9.29597 6.23467 9.01162C5.95032 8.72727 5.80815 8.38545 5.80815 7.98615H4.35615C4.35615 8.78475 4.6405 9.4684 5.2092 10.0371C5.7779 10.6058 6.46155 10.8901 7.26015 10.8901H15.2461L15.9721 14.5201H14.5201L13.7941 13.0681H10.1641V15.9721H8.71215V13.0681H7.26015ZM4.35615 3.63015C4.15045 3.63015 3.97802 3.69972 3.83887 3.83887C3.69972 3.97802 3.63015 4.15045 3.63015 4.35615C3.63015 4.56185 3.69972 4.73427 3.83887 4.87342C3.97802 5.01257 4.15045 5.08215 4.35615 5.08215C4.56185 5.08215 4.73427 5.01257 4.87342 4.87342C5.01257 4.73427 5.08215 4.56185 5.08215 4.35615C5.08215 4.15045 5.01257 3.97802 4.87342 3.83887C4.73427 3.69972 4.56185 3.63015 4.35615 3.63015Z" fill="#591B42"/>
</g>
</svg>
