<svg width="80" height="80" viewBox="0 0 80 80" fill="none" xmlns="http://www.w3.org/2000/svg">
<g opacity="0.4">
<mask id="mask0_26_13526" style="mask-type:alpha" maskUnits="userSpaceOnUse" x="0" y="0" width="80" height="80">
<rect width="80" height="80" fill="#7B7B7B"/>
</mask>
<g mask="url(#mask0_26_13526)">
<path d="M30.5767 72.3144C28.0211 72.3144 25.7831 71.5408 23.8625 69.9936C21.9414 68.4469 20.6175 66.4641 19.8908 64.0452C19.2158 65.1691 18.2833 66.0291 17.0933 66.6252C15.9028 67.2213 14.6494 67.5194 13.3333 67.5194C11.0128 67.5194 9.04389 66.7091 7.42667 65.0886C5.80889 63.4686 5 61.5011 5 59.1861C5 57.1388 5.71361 55.2747 7.14083 53.5936C8.56806 51.9119 10.3694 51.0602 12.545 51.0386C11.425 50.013 10.5392 48.7791 9.8875 47.3369C9.23583 45.8947 8.91 44.3936 8.91 42.8336C8.91 40.9841 9.36194 39.2505 10.2658 37.6327C11.1697 36.0144 12.4358 34.6797 14.0642 33.6286C14.2158 34.1202 14.4203 34.6458 14.6775 35.2052C14.9353 35.7652 15.1989 36.2697 15.4683 36.7186C14.4339 37.5002 13.6517 38.4322 13.1217 39.5144C12.5917 40.5961 12.3267 41.7302 12.3267 42.9169C12.3267 46.3697 13.6044 48.5961 16.16 49.5961C18.7156 50.5961 21.3461 51.3611 24.0517 51.8911L24.8017 53.2119C24.1906 54.9897 23.6947 56.4927 23.3142 57.7211C22.9336 58.95 22.7433 60.0858 22.7433 61.1286C22.7433 63.2052 23.4958 65.0225 25.0008 66.5802C26.5058 68.138 28.3431 68.9169 30.5125 68.9169C32.8803 68.9169 34.8228 68.0258 36.34 66.2436C37.8567 64.4619 39.1022 62.3466 40.0767 59.8977C41.0511 57.4489 41.8067 54.9297 42.3433 52.3402C42.8794 49.7502 43.3292 47.6327 43.6925 45.9877L46.9875 46.9044C46.5303 49.105 45.9831 51.6669 45.3458 54.5902C44.7092 57.513 43.8022 60.2833 42.625 62.9011C41.4478 65.5183 39.9031 67.7416 37.9908 69.5711C36.0781 71.4 33.6067 72.3144 30.5767 72.3144ZM13.3333 64.1861C14.705 64.1861 15.8814 63.6958 16.8625 62.7152C17.8431 61.7341 18.3333 60.5577 18.3333 59.1861C18.3333 57.8144 17.8431 56.638 16.8625 55.6569C15.8814 54.6763 14.705 54.1861 13.3333 54.1861C11.9617 54.1861 10.7853 54.6763 9.80417 55.6569C8.82361 56.638 8.33333 57.8144 8.33333 59.1861C8.33333 60.5577 8.82361 61.7341 9.80417 62.7152C10.7853 63.6958 11.9617 64.1861 13.3333 64.1861ZM33.6025 50.4427C31.3464 48.4211 29.2833 46.5311 27.4133 44.7727C25.5439 43.0144 23.9286 41.29 22.5675 39.5994C21.2064 37.9094 20.1606 36.2194 19.43 34.5294C18.6989 32.8388 18.3333 31.0791 18.3333 29.2502C18.3333 26.108 19.4089 23.4613 21.56 21.3102C23.7111 19.1591 26.3578 18.0836 29.5 18.0836C30.1067 18.0836 30.6536 18.1188 31.1408 18.1894C31.6281 18.26 32.0897 18.3594 32.5258 18.4877C32.2608 17.975 32.0514 17.4475 31.8975 16.9052C31.7436 16.3636 31.6667 15.7947 31.6667 15.1986C31.6667 12.8841 32.4761 10.9166 34.095 9.29607C35.7139 7.67551 37.6797 6.86523 39.9925 6.86523C42.3053 6.86523 44.2736 7.67551 45.8975 9.29607C47.5214 10.9166 48.3333 12.8841 48.3333 15.1986C48.3333 15.8097 48.2564 16.3791 48.1025 16.9069C47.9486 17.4347 47.7392 17.9552 47.4742 18.4686C47.9103 18.3402 48.3719 18.2438 48.8592 18.1794C49.3464 18.1155 49.8933 18.0836 50.5 18.0836C53.0211 18.0836 55.2242 18.8005 57.1092 20.2344C58.9936 21.6683 60.2864 23.4983 60.9875 25.7244C60.4636 25.6433 59.8742 25.6027 59.2192 25.6027C58.5647 25.6027 57.9661 25.6369 57.4233 25.7052C56.8206 24.4275 55.9092 23.3933 54.6892 22.6027C53.4692 21.8122 52.0822 21.4169 50.5283 21.4169C48.4367 21.4169 46.7744 21.9544 45.5417 23.0294C44.3089 24.1038 42.7053 25.7886 40.7308 28.0836H39.1858C37.1558 25.7202 35.5244 24.0183 34.2917 22.9777C33.0589 21.9372 31.4617 21.4169 29.5 21.4169C27.2417 21.4169 25.3717 22.158 23.89 23.6402C22.4078 25.1219 21.6667 26.9919 21.6667 29.2502C21.6667 30.5419 21.9958 31.8755 22.6542 33.2511C23.3119 34.6266 24.2583 36.0783 25.4933 37.6061C26.7289 39.1338 28.2269 40.7588 29.9875 42.4811C31.7481 44.2033 33.7458 46.0644 35.9808 48.0644L33.6025 50.4427ZM40 20.1986C41.3717 20.1986 42.5481 19.7083 43.5292 18.7277C44.5097 17.7472 45 16.5708 45 15.1986C45 13.8269 44.5097 12.6508 43.5292 11.6702C42.5481 10.6891 41.3717 10.1986 40 10.1986C38.6283 10.1986 37.4519 10.6891 36.4708 11.6702C35.4903 12.6508 35 13.8269 35 15.1986C35 16.5708 35.4903 17.7472 36.4708 18.7277C37.4519 19.7083 38.6283 20.1986 40 20.1986ZM49.2117 72.3786C48.4206 72.3786 47.6386 72.2938 46.8658 72.1244C46.0931 71.9555 45.3472 71.6877 44.6283 71.3211C44.9372 70.9216 45.2461 70.4508 45.555 69.9086C45.8639 69.3663 46.1447 68.8669 46.3975 68.4102C46.8908 68.6152 47.3844 68.7616 47.8783 68.8494C48.3717 68.9372 48.8653 68.9811 49.3592 68.9811C51.5214 68.9811 53.3706 68.2041 54.9067 66.6502C56.4433 65.0969 57.2117 63.25 57.2117 61.1094C57.2117 60.0666 57.0214 58.9416 56.6408 57.7344C56.2608 56.5272 55.7653 55.0347 55.1542 53.2569L55.9683 51.9361C58.7289 51.4061 61.3731 50.6305 63.9008 49.6094C66.4286 48.5877 67.6925 46.3505 67.6925 42.8977C67.6925 40.2055 66.7447 38.2097 64.8492 36.9102C62.9542 35.6113 60.8206 34.9619 58.4483 34.9619C56.2083 34.9619 53.595 35.3422 50.6083 36.1027C47.6217 36.8633 44.1731 37.8952 40.2625 39.1986L39.3458 35.9044C43.1664 34.6861 46.6056 33.6475 49.6633 32.7886C52.7206 31.9297 55.5272 31.5002 58.0833 31.5002C61.4467 31.5002 64.4444 32.4897 67.0767 34.4686C69.7094 36.4469 71.0258 39.2566 71.0258 42.8977C71.0258 44.4394 70.7106 45.9038 70.08 47.2911C69.45 48.6783 68.575 49.9275 67.455 51.0386C69.6306 51.103 71.4319 51.9547 72.8592 53.5936C74.2864 55.2325 75 57.0966 75 59.1861C75 61.4511 74.1911 63.4063 72.5733 65.0519C70.9561 66.6969 68.9872 67.5194 66.6667 67.5194C65.3506 67.5194 64.0972 67.2213 62.9067 66.6252C61.7167 66.0291 60.7842 65.1691 60.1092 64.0452C59.3825 66.4641 58.0372 68.4577 56.0733 70.0261C54.11 71.5944 51.8228 72.3786 49.2117 72.3786ZM66.75 64.1861C68.1217 64.1861 69.2842 63.6958 70.2375 62.7152C71.1903 61.7341 71.6667 60.5577 71.6667 59.1861C71.6667 57.8144 71.1764 56.6241 70.1958 55.6152C69.2147 54.6069 68.0383 54.1027 66.6667 54.1027C65.295 54.1027 64.1186 54.593 63.1375 55.5736C62.1569 56.5547 61.6667 57.7311 61.6667 59.1027C61.6667 60.4744 62.1708 61.6647 63.1792 62.6736C64.1881 63.6819 65.3783 64.1861 66.75 64.1861Z" fill="#7B7B7B"/>
</g>
</g>
</svg>
