<svg width="32" height="32" viewBox="0 0 32 32" fill="none" xmlns="http://www.w3.org/2000/svg">
<mask id="mask0_26_13756" style="mask-type:alpha" maskUnits="userSpaceOnUse" x="0" y="0" width="32" height="32">
<rect width="32" height="32" fill="#D9D9D9"/>
</mask>
<g mask="url(#mask0_26_13756)">
<path d="M14.6001 19.8102L21.2104 13.1999L20.2591 12.2485L14.6001 17.9075L11.7487 15.0562L10.7974 16.0075L14.6001 19.8102ZM16.0001 27.9485C13.3214 27.1537 11.0962 25.531 9.32441 23.0805C7.55264 20.6301 6.66675 17.8699 6.66675 14.7999V7.58954L16.0001 4.10254L25.3334 7.58954V14.7999C25.3334 17.8699 24.4475 20.6301 22.6757 23.0805C20.904 25.531 18.6787 27.1537 16.0001 27.9485ZM16.0001 26.5332C18.3112 25.7999 20.2223 24.3332 21.7334 22.1332C23.2445 19.9332 24.0001 17.4888 24.0001 14.7999V8.49987L16.0001 5.52554L8.00008 8.49987V14.7999C8.00008 17.4888 8.75564 19.9332 10.2667 22.1332C11.7779 24.3332 13.689 25.7999 16.0001 26.5332Z" fill="#C89C66"/>
</g>
</svg>
