<svg width="24" height="24" viewBox="0 0 24 24" fill="none" xmlns="http://www.w3.org/2000/svg">
<mask id="mask0_26_298" style="mask-type:alpha" maskUnits="userSpaceOnUse" x="0" y="0" width="24" height="24">
<rect width="24" height="24" fill="#D9D9D9"/>
</mask>
<g mask="url(#mask0_26_298)">
<path d="M5.88477 20.5004V19.5004H10.8848V16.5004H10.3848C9.13977 16.5004 8.07852 16.0617 7.20102 15.1842C6.32352 14.3067 5.88477 13.2454 5.88477 12.0004C5.88477 11.0761 6.15118 10.2351 6.68402 9.47741C7.21668 8.71975 7.91952 8.16841 8.79252 7.82341C8.82335 7.14141 9.11602 6.61258 9.67052 6.23691C10.225 5.86125 10.8131 5.78241 11.4348 6.00041L10.7695 4.18116L11.7195 3.83116L11.3695 2.89266L12.5388 2.46191L12.8773 3.41191L13.7503 3.10041L16.231 9.86966L15.358 10.2197L15.708 11.1697L14.5388 11.6004L14.2003 10.6504L13.2503 11.0389L12.6118 9.19666C12.4131 9.48116 12.1577 9.70741 11.8455 9.87541C11.5333 10.0434 11.1978 10.1236 10.8388 10.1159C10.4208 10.1081 10.0438 9.98591 9.70802 9.74941C9.37202 9.51291 9.11943 9.20808 8.95027 8.83491C8.32077 9.11441 7.81918 9.53691 7.44552 10.1024C7.07168 10.6677 6.88477 11.3004 6.88477 12.0004C6.88477 12.9726 7.2251 13.799 7.90577 14.4797C8.58627 15.1602 9.4126 15.5004 10.3848 15.5004H17.8848V16.5004H12.1158V19.5004H18.1158V20.5004H5.88477ZM13.804 9.85816L15.0888 9.35416L13.2348 4.23116L11.9003 4.69666L13.804 9.85816ZM10.8835 9.23116C11.2318 9.23116 11.5243 9.11333 11.7608 8.87766C11.9974 8.642 12.1158 8.35 12.1158 8.00166C12.1158 7.65333 11.9979 7.36091 11.7623 7.12441C11.5266 6.88791 11.2346 6.76966 10.8863 6.76966C10.5379 6.76966 10.2455 6.8875 10.009 7.12316C9.77235 7.35883 9.65402 7.65083 9.65402 7.99916C9.65402 8.3475 9.77185 8.63991 10.0075 8.87641C10.2432 9.11291 10.5352 9.23116 10.8835 9.23116Z" fill="#C89C66"/>
</g>
</svg>
