<svg width="80" height="80" viewBox="0 0 80 80" fill="none" xmlns="http://www.w3.org/2000/svg">
<g opacity="0.4">
<mask id="mask0_26_12339" style="mask-type:alpha" maskUnits="userSpaceOnUse" x="0" y="0" width="80" height="80">
<rect width="80" height="80" fill="#D9D9D9"/>
</mask>
<g mask="url(#mask0_26_12339)">
<path d="M54.0315 59.718L47.0831 66.6663L42.3715 61.9547L49.3206 54.9422C49.0128 54.2883 48.7712 53.6066 48.5956 52.8972C48.4206 52.1877 48.3331 51.4569 48.3331 50.7047C48.3331 47.9097 49.3012 45.5444 51.2373 43.6088C53.1728 41.6727 55.5381 40.7047 58.3331 40.7047C59.1192 40.7047 59.8778 40.7869 60.609 40.9513C61.3395 41.1158 62.0359 41.3563 62.6981 41.673L55.9998 48.3713L60.6665 53.038L67.3648 46.423C67.6815 47.0852 67.922 47.7677 68.0865 48.4705C68.2509 49.1738 68.3331 49.9186 68.3331 50.7047C68.3331 53.4997 67.3651 55.8652 65.429 57.8013C63.4934 59.7369 61.1281 60.7047 58.3331 60.7047C57.5681 60.7047 56.8234 60.6172 56.099 60.4422C55.3745 60.2666 54.6854 60.0252 54.0315 59.718ZM65.404 32.0513H61.9481C60.3331 27.5469 57.5512 23.8566 53.6023 20.9805C49.6534 18.1044 45.1192 16.6663 39.9998 16.6663C33.4998 16.6663 27.9859 18.9302 23.4581 23.458C18.9304 27.9858 16.6665 33.4997 16.6665 39.9997C16.6665 44.6836 17.9004 48.8952 20.3681 52.6347C22.8365 56.3736 26.047 59.1705 29.9998 61.0255V49.9997H33.3331V66.6663H16.6665V63.333H27.7048C23.4487 61.1108 19.9892 57.943 17.3265 53.8297C14.6642 49.7163 13.3331 45.1063 13.3331 39.9997C13.3331 36.303 14.0287 32.8383 15.4198 29.6055C16.8109 26.3727 18.7148 23.548 21.1315 21.1313C23.5481 18.7147 26.3729 16.8108 29.6056 15.4197C32.8384 14.0286 36.3031 13.333 39.9998 13.333C46.0126 13.333 51.3215 15.0927 55.9265 18.6122C60.5309 22.1311 63.6901 26.6108 65.404 32.0513Z" fill="#7B7B7B"/>
</g>
</g>
</svg>
