<svg width="64" height="64" viewBox="0 0 64 64" fill="none" xmlns="http://www.w3.org/2000/svg">
<mask id="mask0_26_989" style="mask-type:alpha" maskUnits="userSpaceOnUse" x="0" y="0" width="64" height="64">
<rect width="64" height="64" fill="#D9D9D9"/>
</mask>
<g mask="url(#mask0_26_989)">
<path d="M30.6666 40.8209H33.3333V28.3182L38.9333 33.8876L40.8206 32.0002L31.9999 23.1796L23.1793 32.0002L25.0666 33.8876L30.6666 28.3182V40.8209ZM20.3079 53.3336C19.0804 53.3336 18.0555 52.9224 17.2333 52.1002C16.411 51.278 15.9999 50.2531 15.9999 49.0256V16.0002H13.3333V13.3336H23.9999V11.2822H39.9999V13.3336H50.6666V16.0002H47.9999V49.0256C47.9999 50.2531 47.5888 51.278 46.7666 52.1002C45.9444 52.9224 44.9195 53.3336 43.6919 53.3336H20.3079ZM45.3333 16.0002H18.6666V49.0256C18.6666 49.4362 18.8375 49.8124 19.1793 50.1542C19.521 50.496 19.8973 50.6669 20.3079 50.6669H43.6919C44.1026 50.6669 44.4788 50.496 44.8206 50.1542C45.1624 49.8124 45.3333 49.4362 45.3333 49.0256V16.0002Z" fill="#591B42"/>
</g>
</svg>
