<svg width="32" height="32" viewBox="0 0 32 32" fill="none" xmlns="http://www.w3.org/2000/svg">
<mask id="mask0_26_13788" style="mask-type:alpha" maskUnits="userSpaceOnUse" x="0" y="0" width="32" height="32">
<rect width="32" height="32" fill="#D9D9D9"/>
</mask>
<g mask="url(#mask0_26_13788)">
<path d="M16.0043 28C14.345 28 12.7849 27.6851 11.324 27.0553C9.86333 26.4256 8.59267 25.5709 7.512 24.4913C6.43133 23.4118 5.57589 22.1422 4.94567 20.6827C4.31522 19.2233 4 17.6639 4 16.0043C4 14.345 4.315 12.7849 4.945 11.324C5.575 9.86333 6.43 8.59267 7.51 7.512C8.59 6.43133 9.86 5.57589 11.32 4.94567C12.78 4.31522 14.34 4 16 4C17.3647 4 18.6558 4.21111 19.8733 4.63333C21.0911 5.05556 22.2017 5.64444 23.205 6.4L22.246 7.39233C21.3676 6.73922 20.4011 6.23278 19.3467 5.873C18.2924 5.51322 17.1769 5.33333 16 5.33333C13.0444 5.33333 10.5278 6.37222 8.45 8.45C6.37222 10.5278 5.33333 13.0444 5.33333 16C5.33333 18.9556 6.37222 21.4722 8.45 23.55C10.5278 25.6278 13.0444 26.6667 16 26.6667C18.9556 26.6667 21.4722 25.6278 23.55 23.55C25.6278 21.4722 26.6667 18.9556 26.6667 16C26.6667 15.4633 26.6273 14.9369 26.5487 14.4207C26.47 13.9047 26.3521 13.4029 26.195 12.9153L27.259 11.8257C27.5034 12.4854 27.688 13.1624 27.8127 13.8567C27.9376 14.5507 28 15.2651 28 16C28 17.66 27.6851 19.22 27.0553 20.68C26.4256 22.14 25.5709 23.41 24.4913 24.49C23.4118 25.57 22.1422 26.425 20.6827 27.055C19.2233 27.685 17.6639 28 16.0043 28ZM14.082 21.2103L9.33833 16.4667L10.282 15.523L14.082 19.323L27.0563 6.341L28 7.28467L14.082 21.2103Z" fill="#C89C66"/>
</g>
</svg>
