<svg width="48" height="48" viewBox="0 0 48 48" fill="none" xmlns="http://www.w3.org/2000/svg">
<mask id="mask0_26_10225" style="mask-type:alpha" maskUnits="userSpaceOnUse" x="0" y="0" width="48" height="48">
<rect width="48" height="48" fill="#D9D9D9"/>
</mask>
<g mask="url(#mask0_26_10225)">
<path d="M27.4615 44H22.423C21.9847 44 21.6058 43.8468 21.2865 43.5405C20.9672 43.2342 20.8075 42.8745 20.8075 42.4615V32.0385C20.8075 31.6255 20.9672 31.2658 21.2865 30.9595C21.6058 30.6532 21.9847 30.5 22.423 30.5H23.923V22.6925C23.923 22.3592 23.7883 22.077 23.519 21.846C23.25 21.6153 22.9232 21.5 22.5385 21.5H9.3845C8.4385 21.5 7.63783 21.1853 6.9825 20.556C6.3275 19.9263 6 19.164 6 18.269V12.1925C6 11.3232 6.3275 10.5737 6.9825 9.944C7.63783 9.31467 8.4385 9 9.3845 9H11.846V7.5385C11.846 7.1255 12.0057 6.76583 12.325 6.4595C12.6443 6.15317 13.0232 6 13.4615 6H36.3845C36.8232 6 37.202 6.15317 37.521 6.4595C37.8403 6.76583 38 7.1255 38 7.5385V12.4615C38 12.8745 37.8403 13.2342 37.521 13.5405C37.202 13.8468 36.8232 14 36.3845 14H13.4615C13.0232 14 12.6443 13.8468 12.325 13.5405C12.0057 13.2342 11.846 12.8745 11.846 12.4615V11H9.3845C8.97417 11 8.64083 11.1153 8.3845 11.346C8.12817 11.577 8 11.8592 8 12.1925V18.269C8 18.628 8.12817 18.923 8.3845 19.154C8.64083 19.3847 8.97417 19.5 9.3845 19.5H22.5385C23.4588 19.5 24.253 19.8147 24.921 20.444C25.589 21.0737 25.923 21.8232 25.923 22.6925V30.5H27.4615C27.8998 30.5 28.2723 30.6532 28.579 30.9595C28.8853 31.2658 29.0385 31.6255 29.0385 32.0385V42.4615C29.0385 42.8745 28.8853 43.2342 28.579 43.5405C28.2723 43.8468 27.8998 44 27.4615 44ZM22.8075 42H27.0385V32.5H22.8075V42ZM13.846 12H36V8H13.846V12Z" fill="#C89C66"/>
</g>
</svg>
