<svg width="80" height="80" viewBox="0 0 80 80" fill="none" xmlns="http://www.w3.org/2000/svg">
<g opacity="0.4">
<mask id="mask0_26_13554" style="mask-type:alpha" maskUnits="userSpaceOnUse" x="0" y="0" width="80" height="80">
<rect width="80" height="80" fill="#7B7B7B"/>
</mask>
<g mask="url(#mask0_26_13554)">
<path d="M53.7052 66.6667L51.4102 64.3717L56.6602 59.0383L51.4102 53.7883L53.7052 51.41L59.0385 56.7433L64.2885 51.41L66.6668 53.7883L61.3335 59.0383L66.6668 64.3717L64.2885 66.6667L59.0385 61.4167L53.7052 66.6667ZM21.6668 63.3333C23.0385 63.3333 24.2149 62.8431 25.196 61.8625C26.1766 60.8814 26.6668 59.705 26.6668 58.3333C26.6668 56.9617 26.1766 55.7853 25.196 54.8042C24.2149 53.8236 23.0385 53.3333 21.6668 53.3333C20.2952 53.3333 19.1188 53.8236 18.1377 54.8042C17.1571 55.7853 16.6668 56.9617 16.6668 58.3333C16.6668 59.705 17.1571 60.8814 18.1377 61.8625C19.1188 62.8431 20.2952 63.3333 21.6668 63.3333ZM21.6668 66.6667C19.3591 66.6667 17.3932 65.8547 15.7693 64.2308C14.1454 62.6069 13.3335 60.6411 13.3335 58.3333C13.3335 56.0256 14.1454 54.0597 15.7693 52.4358C17.3932 50.8119 19.3591 50 21.6668 50C23.6368 50 25.3835 50.6122 26.9068 51.8367C28.4307 53.0611 29.3891 54.6456 29.7818 56.59C32.3763 56.3633 34.5568 55.2969 36.3235 53.3908C38.0907 51.4847 38.9743 49.2433 38.9743 46.6667V34.295C38.9743 30.1539 40.4391 26.6186 43.3685 23.6892C46.2979 20.7597 49.8332 19.295 53.9743 19.295H60.2435L53.3268 12.3783L55.7052 10L66.6668 20.9617L55.7052 31.9233L53.3268 29.6283L60.1793 22.6283H53.9743C50.7266 22.6283 47.9702 23.7608 45.7052 26.0258C43.4402 28.2908 42.3077 31.0472 42.3077 34.295V46.6667C42.3077 50.1667 41.0982 53.1806 38.6793 55.7083C36.261 58.2361 33.3082 59.6475 29.821 59.9425C29.4532 61.9125 28.5013 63.5256 26.9652 64.7817C25.4285 66.0383 23.6624 66.6667 21.6668 66.6667ZM15.6285 28.59L13.3335 26.295L18.5835 20.9617L13.3335 15.7117L15.6285 13.3333L20.9618 18.6667L26.2118 13.3333L28.5902 15.7117L23.2568 20.9617L28.5902 26.295L26.2118 28.59L20.9618 23.34L15.6285 28.59Z" fill="#7B7B7B"/>
</g>
</g>
</svg>
