<svg width="18" height="18" viewBox="0 0 18 18" fill="none" xmlns="http://www.w3.org/2000/svg">
<mask id="mask0_26_15078" style="mask-type:alpha" maskUnits="userSpaceOnUse" x="0" y="0" width="18" height="18">
<rect width="17.424" height="17.424" fill="#D9D9D9"/>
</mask>
<g mask="url(#mask0_26_15078)">
<path d="M14.2293 15.2457L9.65553 10.6719C9.29253 10.9623 8.87508 11.1922 8.40318 11.3616C7.93128 11.531 7.42913 11.6157 6.89673 11.6157C5.57783 11.6157 4.46161 11.159 3.54806 10.2454C2.63451 9.33186 2.17773 8.21563 2.17773 6.89673C2.17773 5.57783 2.63451 4.46161 3.54806 3.54806C4.46161 2.63451 5.57783 2.17773 6.89673 2.17773C8.21563 2.17773 9.33186 2.63451 10.2454 3.54806C11.159 4.46161 11.6157 5.57783 11.6157 6.89673C11.6157 7.42913 11.531 7.93128 11.3616 8.40318C11.1922 8.87508 10.9623 9.29253 10.6719 9.65553L15.2457 14.2293L14.2293 15.2457ZM6.89673 10.1637C7.80423 10.1637 8.57561 9.84611 9.21086 9.21086C9.84611 8.57561 10.1637 7.80423 10.1637 6.89673C10.1637 5.98923 9.84611 5.21786 9.21086 4.58261C8.57561 3.94736 7.80423 3.62973 6.89673 3.62973C5.98923 3.62973 5.21786 3.94736 4.58261 4.58261C3.94736 5.21786 3.62973 5.98923 3.62973 6.89673C3.62973 7.80423 3.94736 8.57561 4.58261 9.21086C5.21786 9.84611 5.98923 10.1637 6.89673 10.1637Z" fill="#591B42"/>
</g>
</svg>
