<svg width="32" height="32" viewBox="0 0 32 32" fill="none" xmlns="http://www.w3.org/2000/svg">
<mask id="mask0_26_13831" style="mask-type:alpha" maskUnits="userSpaceOnUse" x="0" y="0" width="32" height="32">
<rect width="32" height="32" fill="#D9D9D9"/>
</mask>
<g mask="url(#mask0_26_13831)">
<path d="M15.9993 29.3337C14.1549 29.3337 12.4216 28.9837 10.7993 28.2837C9.17713 27.5837 7.76602 26.6337 6.56602 25.4337C5.36602 24.2337 4.41602 22.8225 3.71602 21.2003C3.01602 19.5781 2.66602 17.8448 2.66602 16.0003H5.33268C5.33268 17.467 5.61046 18.8503 6.16602 20.1503C6.72157 21.4503 7.48268 22.5837 8.44935 23.5503C9.41602 24.517 10.5493 25.2837 11.8493 25.8503C13.1493 26.417 14.5327 26.7003 15.9993 26.7003C18.9771 26.7003 21.4993 25.667 23.566 23.6003C25.6327 21.5337 26.666 19.0114 26.666 16.0337C26.666 13.0559 25.6327 10.5337 23.566 8.46699C21.4993 6.40033 18.9771 5.36699 15.9993 5.36699C14.0216 5.36699 12.2271 5.85033 10.616 6.81699C9.0049 7.78366 7.73268 9.06699 6.79935 10.667H10.666V13.3337H2.66602V5.33366H5.33268V8.00033C6.5549 6.3781 8.08824 5.08366 9.93268 4.11699C11.7771 3.15033 13.7993 2.66699 15.9993 2.66699C17.8438 2.66699 19.5771 3.01699 21.1993 3.71699C22.8216 4.41699 24.2327 5.36699 25.4327 6.56699C26.6327 7.76699 27.5827 9.1781 28.2827 10.8003C28.9827 12.4225 29.3327 14.1559 29.3327 16.0003C29.3327 17.8448 28.9827 19.5781 28.2827 21.2003C27.5827 22.8225 26.6327 24.2337 25.4327 25.4337C24.2327 26.6337 22.8216 27.5837 21.1993 28.2837C19.5771 28.9837 17.8438 29.3337 15.9993 29.3337ZM13.3327 21.3337C12.9549 21.3337 12.6382 21.2059 12.3827 20.9503C12.1271 20.6948 11.9993 20.3781 11.9993 20.0003V16.0003C11.9993 15.6225 12.1271 15.3059 12.3827 15.0503C12.6382 14.7948 12.9549 14.667 13.3327 14.667V13.3337C13.3327 12.6003 13.5938 11.9725 14.116 11.4503C14.6382 10.9281 15.266 10.667 15.9993 10.667C16.7327 10.667 17.3605 10.9281 17.8827 11.4503C18.4049 11.9725 18.666 12.6003 18.666 13.3337V14.667C19.0438 14.667 19.3605 14.7948 19.616 15.0503C19.8716 15.3059 19.9993 15.6225 19.9993 16.0003V20.0003C19.9993 20.3781 19.8716 20.6948 19.616 20.9503C19.3605 21.2059 19.0438 21.3337 18.666 21.3337H13.3327ZM14.666 14.667H17.3327V13.3337C17.3327 12.9559 17.2049 12.6392 16.9493 12.3837C16.6938 12.1281 16.3771 12.0003 15.9993 12.0003C15.6216 12.0003 15.3049 12.1281 15.0493 12.3837C14.7938 12.6392 14.666 12.9559 14.666 13.3337V14.667Z" fill="#C89C66"/>
</g>
</svg>
