<svg width="46" height="46" viewBox="0 0 46 46" fill="none" xmlns="http://www.w3.org/2000/svg">
<mask id="mask0_730_108" style="mask-type:alpha" maskUnits="userSpaceOnUse" x="0" y="0" width="46" height="46">
<rect width="45.0211" height="45.0211" fill="#D9D9D9"/>
</mask>
<g mask="url(#mask0_730_108)">
<path d="M11.0388 38.4552V36.5793H20.4182V30.9517H19.4803C17.1448 30.9517 15.154 30.1287 13.5079 28.4826C11.8619 26.8365 11.0388 24.8457 11.0388 22.5103C11.0388 20.7763 11.5386 19.1987 12.5381 17.7774C13.5373 16.3561 14.8558 15.3219 16.4934 14.6747C16.5512 13.3954 17.1002 12.4033 18.1404 11.6986C19.1806 10.9939 20.2838 10.846 21.4499 11.255L20.202 7.84229L21.9841 7.18573L21.3275 5.42522L23.5209 4.61719L24.1559 6.39927L25.7935 5.81493L30.4471 18.5132L28.8095 19.1698L29.466 20.9519L27.2727 21.7599L26.6377 19.9778L24.8556 20.7066L23.6579 17.2508C23.2852 17.7844 22.806 18.2089 22.2205 18.524C21.6349 18.8392 21.0054 18.9895 20.3319 18.9752C19.5478 18.9605 18.8408 18.7313 18.2108 18.2876C17.5805 17.844 17.1067 17.2722 16.7893 16.5722C15.6085 17.0965 14.6675 17.889 13.9666 18.9498C13.2653 20.0103 12.9147 21.1971 12.9147 22.5103C12.9147 24.3339 13.5531 25.8842 14.83 27.161C16.1065 28.4376 17.6566 29.0758 19.4803 29.0758H33.5494V30.9517H22.7274V36.5793H33.9827V38.4552H11.0388ZM25.8944 18.4917L28.3044 17.5462L24.8265 7.93608L22.3232 8.8093L25.8944 18.4917ZM20.4159 17.3155C21.0693 17.3155 21.6178 17.0944 22.0615 16.6524C22.5054 16.2103 22.7274 15.6625 22.7274 15.0091C22.7274 14.3557 22.5064 13.8071 22.0643 13.3635C21.6222 12.9198 21.0745 12.698 20.421 12.698C19.7676 12.698 19.2191 12.919 18.7754 13.3611C18.3315 13.8032 18.1095 14.351 18.1095 15.0044C18.1095 15.6578 18.3305 16.2064 18.7726 16.65C19.2147 17.0937 19.7624 17.3155 20.4159 17.3155Z" fill="#C89C66"/>
</g>
</svg>
