<svg width="18" height="18" viewBox="0 0 18 18" fill="none" xmlns="http://www.w3.org/2000/svg">
<mask id="mask0_26_13957" style="mask-type:alpha" maskUnits="userSpaceOnUse" x="0" y="0" width="18" height="18">
<rect width="17.424" height="17.424" fill="#D9D9D9"/>
</mask>
<g mask="url(#mask0_26_13957)">
<path d="M3.63015 14.5197C3.02515 14.5197 2.5109 14.308 2.0874 13.8845C1.6639 13.461 1.45215 12.9467 1.45215 12.3417V8.71173H11.6343C11.6948 8.30033 11.8581 7.94036 12.1243 7.63181C12.3905 7.32326 12.7172 7.10243 13.1044 6.96933L16.4622 5.84403L16.9159 7.22343L13.5582 8.34873C13.413 8.39713 13.295 8.48486 13.2043 8.61191C13.1135 8.73896 13.0681 8.88113 13.0681 9.03843V12.3417C13.0681 12.9467 12.8564 13.461 12.4329 13.8845C12.0094 14.308 11.4951 14.5197 10.8901 14.5197H3.63015ZM3.2127 7.25973C3.3821 6.82413 3.40932 6.43693 3.29437 6.09813C3.17942 5.75933 2.9828 5.42053 2.7045 5.08173C2.3052 4.59773 2.04202 4.14096 1.91497 3.71141C1.78792 3.28186 1.76675 2.77063 1.85145 2.17773H3.26715C3.17035 2.63753 3.15522 3.01263 3.22177 3.30303C3.28832 3.59343 3.46075 3.90803 3.73905 4.24683C4.19885 4.80343 4.49227 5.29651 4.61932 5.72606C4.74637 6.15561 4.7494 6.66683 4.6284 7.25973H3.2127ZM6.1167 7.25973C6.2861 6.82413 6.31635 6.43693 6.20745 6.09813C6.09855 5.75933 5.90495 5.42053 5.62665 5.08173C5.22735 4.59773 4.96115 4.14096 4.82805 3.71141C4.69495 3.28186 4.67075 2.77063 4.75545 2.17773H6.17115C6.07435 2.63753 6.05922 3.01263 6.12577 3.30303C6.19232 3.59343 6.36475 3.90803 6.64305 4.24683C7.10285 4.80343 7.39627 5.29651 7.52332 5.72606C7.65037 6.15561 7.6534 6.66683 7.5324 7.25973H6.1167ZM9.0207 7.25973C9.1901 6.82413 9.22035 6.43693 9.11145 6.09813C9.00255 5.75933 8.80895 5.42053 8.53065 5.08173C8.13135 4.59773 7.86515 4.14096 7.73205 3.71141C7.59895 3.28186 7.57475 2.77063 7.65945 2.17773H9.07515C8.97835 2.63753 8.96322 3.01263 9.02977 3.30303C9.09632 3.59343 9.26875 3.90803 9.54705 4.24683C10.0068 4.80343 10.3003 5.29651 10.4273 5.72606C10.5544 6.15561 10.5574 6.66683 10.4364 7.25973H9.0207Z" fill="#591B42"/>
</g>
</svg>
