<svg width="18" height="18" viewBox="0 0 18 18" fill="none" xmlns="http://www.w3.org/2000/svg">
<mask id="mask0_26_15068" style="mask-type:alpha" maskUnits="userSpaceOnUse" x="0" y="0" width="18" height="18">
<rect width="17.424" height="17.424" fill="#D9D9D9"/>
</mask>
<g mask="url(#mask0_26_15068)">
<path d="M3.92047 14.5198L2.90407 13.5034L9.87367 6.53381H7.98607V7.98581H6.53407V5.08181H10.763C10.9566 5.08181 11.1442 5.11811 11.3257 5.19071C11.5072 5.26331 11.6645 5.36616 11.7976 5.49926L13.9756 7.65911C14.3023 7.98581 14.7016 8.23991 15.1735 8.42141C15.6454 8.60291 16.1536 8.69971 16.6981 8.71181V10.1638C15.9479 10.1638 15.2672 10.0489 14.6562 9.81896C14.0451 9.58906 13.5037 9.24421 13.0318 8.78441L12.3058 8.02211L10.7086 9.61931L12.3421 11.2528L7.58677 13.9935L6.86077 12.7411L9.98257 10.9443L8.74837 9.71006L3.92047 14.5198ZM2.17807 9.43781V7.98581H5.80807V9.43781H2.17807ZM0.726074 7.25981V5.80781H4.35607V7.25981H0.726074ZM14.1389 5.80781C13.7396 5.80781 13.3948 5.66563 13.1044 5.38128C12.814 5.09693 12.6688 4.75511 12.6688 4.35581C12.6688 3.95651 12.814 3.61468 13.1044 3.33033C13.3948 3.04598 13.7396 2.90381 14.1389 2.90381C14.5382 2.90381 14.8831 3.04598 15.1735 3.33033C15.4639 3.61468 15.6091 3.95651 15.6091 4.35581C15.6091 4.75511 15.4639 5.09693 15.1735 5.38128C14.8831 5.66563 14.5382 5.80781 14.1389 5.80781ZM2.17807 5.08181V3.62981H5.80807V5.08181H2.17807Z" fill="#591B42"/>
</g>
</svg>
