<svg width="18" height="18" viewBox="0 0 18 18" fill="none" xmlns="http://www.w3.org/2000/svg">
<path d="M9.57867 4.81651C10.18 4.96601 10.6728 5.39809 10.9012 5.97473L10.9965 6.23594C11.1542 6.4413 11.2182 6.11437 11.2741 5.97473C11.4565 5.48352 11.8425 5.0958 12.3354 4.91344C12.4504 4.85759 12.6722 4.82966 12.6607 4.72616C12.6722 4.62266 12.4307 4.58816 12.3354 4.54216C11.7587 4.31544 11.3283 3.82094 11.1788 3.21966C11.164 3.18187 11.1279 3.15723 11.0885 3.15723C11.049 3.15723 11.0112 3.18187 10.9981 3.21966C10.8502 3.82258 10.4198 4.31544 9.84153 4.54216L9.58032 4.63744C9.54417 4.65223 9.51953 4.68673 9.51953 4.7278C9.51953 4.76887 9.54417 4.80337 9.58032 4.81816L9.57867 4.81651Z" fill="#591B42"/>
<path d="M2.16258 9.27721C2.44843 9.35278 2.70308 9.51707 2.88872 9.74707C2.99715 9.89986 3.07929 10.0691 3.13022 10.2481C3.14994 10.2974 3.19758 10.3286 3.25015 10.3286C3.30272 10.3286 3.35036 10.2958 3.37008 10.2481C3.46865 9.83743 3.76108 9.50229 4.15372 9.34786L4.33772 9.27886C4.48558 9.2115 4.42644 9.04064 4.27858 9.01764C3.82844 8.88621 3.48179 8.52478 3.37008 8.06971C3.34708 8.02371 3.29944 7.99414 3.25015 7.99414C3.20086 7.99414 3.15158 8.02371 3.13022 8.06971L3.06286 8.25371C2.90679 8.64636 2.57165 8.93878 2.16093 9.03736C2.11165 9.05707 2.07715 9.10471 2.07715 9.15893C2.07715 9.21314 2.11001 9.26078 2.16093 9.27886L2.16258 9.27721Z" fill="#591B42"/>
<path d="M15.2338 11.1562C14.943 11.079 14.6851 10.9114 14.4962 10.6781C14.3844 10.5237 14.299 10.3512 14.2448 10.1672C14.2284 10.1327 14.1922 10.1113 14.1544 10.1113C14.1167 10.1113 14.0805 10.1327 14.0641 10.1672C13.9622 10.5861 13.6616 10.9295 13.2607 11.0872L13.0767 11.1562C13.0406 11.171 13.0176 11.2055 13.0176 11.2465C13.0176 11.2876 13.0406 11.3205 13.0767 11.3369C13.1244 11.3533 13.2147 11.3895 13.2607 11.4059C13.6616 11.5636 13.9606 11.907 14.0641 12.3243C14.0789 12.362 14.1134 12.3883 14.1544 12.3883C14.1955 12.3883 14.2317 12.3637 14.2448 12.3243C14.3467 11.9053 14.6473 11.562 15.0482 11.4059L15.2322 11.3369C15.2699 11.3221 15.2946 11.2876 15.2946 11.2465C15.2946 11.2055 15.2699 11.171 15.2322 11.1562H15.2338Z" fill="#591B42"/>
<path d="M15.6215 9.73535L12.8845 8.29785C12.574 8.46214 9.65303 9.99657 9.26367 10.2036C9.65632 10.4122 12.5773 11.9417 12.8845 12.106L13.1983 11.9417C13.0258 11.8399 12.781 11.8169 12.6512 11.6493C12.5987 11.5901 12.5592 11.5228 12.533 11.4489V11.0431C12.689 10.5617 13.3708 10.6866 13.5137 10.174C13.5565 9.93085 13.7224 9.72714 13.9507 9.63185H14.2925C14.4945 9.6565 14.6638 9.79614 14.7262 9.98835C14.7689 10.1526 14.8494 10.3038 14.9595 10.4319C15.0975 10.5913 15.3373 10.6209 15.5115 10.7227C15.7201 10.6619 15.8713 10.4812 15.8959 10.2644C15.9189 10.0491 15.8121 9.83885 15.6232 9.73371L15.6215 9.73535Z" fill="#591B42"/>
<path d="M8.71594 9.91342C9.10859 9.70806 12.0214 8.17199 12.3335 8.00771L9.0823 6.29749C8.85066 6.17427 8.57466 6.17427 8.34301 6.29749L5.0918 8.00606C5.3793 8.15228 8.34301 9.72121 8.71594 9.91342Z" fill="#591B42"/>
<path d="M8.16352 10.2037C7.76759 9.99346 4.85151 8.46067 4.53937 8.29639L4.25187 8.44753C4.27816 8.46232 4.30608 8.47546 4.33401 8.48532C5.01087 8.62332 5.17844 9.47432 4.51637 9.75853L4.33401 9.82589C4.0843 9.93432 3.90523 10.1577 3.85101 10.4239C3.75408 10.672 3.51423 10.8346 3.24973 10.8346C2.98523 10.8346 2.74537 10.672 2.6468 10.4239C2.59587 10.1577 2.4168 9.93267 2.16708 9.82589L1.98308 9.75853C1.94365 9.74375 1.90587 9.72567 1.86972 9.70267L1.80237 9.73553C1.63151 9.82917 1.52637 10.0066 1.52637 10.2005C1.52637 10.3943 1.63151 10.5734 1.80237 10.6654L4.54266 12.1062C4.85151 11.9419 7.77416 10.4091 8.16188 10.2037H8.16352Z" fill="#591B42"/>
<path d="M8.71594 10.4912C8.32001 10.6999 5.40723 12.231 5.0918 12.3969L8.34301 14.1071C8.57466 14.2271 8.85066 14.2271 9.0823 14.1071L12.3335 12.3969C12.0493 12.2507 9.08559 10.6834 8.71594 10.4912Z" fill="#591B42"/>
</svg>
