<svg width="18" height="18" viewBox="0 0 18 18" fill="none" xmlns="http://www.w3.org/2000/svg">
<path d="M4.03223 8.22217H8.44349V13.2623H4.03223V8.22217Z" fill="#591B42"/>
<path d="M4.03223 2.60889H8.44349V7.64905H4.03223V2.60889Z" fill="#591B42"/>
<path d="M9.0166 8.22217H13.4279V13.2623H9.0166V8.22217Z" fill="#591B42"/>
<path d="M2.06836 14.918H15.3902V15.899H2.06836V14.918Z" fill="#591B42"/>
<path d="M9.0166 2.60889H13.4279V7.64905H9.0166V2.60889Z" fill="#591B42"/>
<path d="M2.83105 1.52393V14.3426H14.6256V1.52393H2.83105ZM14.0003 13.5484C14.0003 13.6239 13.9697 13.6976 13.9158 13.7515C13.8619 13.8054 13.7882 13.8359 13.7128 13.8359H3.74385C3.58393 13.8359 3.45636 13.7084 3.45636 13.5484V2.32173C3.45636 2.16181 3.58393 2.03423 3.74385 2.03423H13.7128C13.79 2.03423 13.8619 2.06478 13.9158 2.11868C13.9697 2.17259 14.0003 2.24626 14.0003 2.32173V13.5484Z" fill="#591B42"/>
<path d="M9.83466 10.4505C10.189 10.5385 10.4794 10.7928 10.614 11.1323L10.6701 11.2861C10.7631 11.407 10.8008 11.2145 10.8338 11.1323C10.9412 10.8431 11.1687 10.6149 11.4592 10.5075C11.5269 10.4746 11.6576 10.4582 11.6509 10.3973C11.6576 10.3363 11.5153 10.316 11.4592 10.2889C11.1194 10.1555 10.8657 9.86437 10.7776 9.51038C10.7689 9.48814 10.7476 9.47363 10.7244 9.47363C10.7011 9.47363 10.6789 9.48814 10.6711 9.51038C10.584 9.86533 10.3303 10.1555 9.98956 10.2889L9.83563 10.345C9.81433 10.3537 9.7998 10.3741 9.7998 10.3982C9.7998 10.4224 9.81433 10.4427 9.83563 10.4514L9.83466 10.4505Z" fill="#7B7B7B" fill-opacity="0.04"/>
<path d="M10.7246 10.1875C10.787 10.2631 10.8573 10.3314 10.9336 10.3936C10.8545 10.4573 10.7824 10.5293 10.7188 10.6084C10.6562 10.5315 10.5879 10.4604 10.5117 10.3975C10.5898 10.3345 10.661 10.2646 10.7246 10.1875Z" stroke="#7B7B7B" stroke-opacity="0.04" stroke-width="0.726"/>
<mask id="path-9-inside-1_26_15358" fill="white">
<path d="M11.4561 11.1946C11.6854 11.2515 11.8733 11.4161 11.9604 11.6358L11.9968 11.7353C12.0569 11.8135 12.0813 11.689 12.1026 11.6358C12.1722 11.4486 12.3194 11.301 12.5073 11.2315C12.5511 11.2102 12.6357 11.1996 12.6313 11.1601C12.6357 11.1207 12.5436 11.1076 12.5073 11.0901C12.2874 11.0037 12.1233 10.8153 12.0663 10.5863C12.0607 10.5719 12.0469 10.5625 12.0318 10.5625C12.0168 10.5625 12.0024 10.5719 11.9974 10.5863C11.941 10.816 11.7769 11.0037 11.5564 11.0901L11.4568 11.1264C11.443 11.132 11.4336 11.1451 11.4336 11.1608C11.4336 11.1764 11.443 11.1896 11.4568 11.1952L11.4561 11.1946Z"/>
</mask>
<path d="M11.4561 11.1946C11.6854 11.2515 11.8733 11.4161 11.9604 11.6358L11.9968 11.7353C12.0569 11.8135 12.0813 11.689 12.1026 11.6358C12.1722 11.4486 12.3194 11.301 12.5073 11.2315C12.5511 11.2102 12.6357 11.1996 12.6313 11.1601C12.6357 11.1207 12.5436 11.1076 12.5073 11.0901C12.2874 11.0037 12.1233 10.8153 12.0663 10.5863C12.0607 10.5719 12.0469 10.5625 12.0318 10.5625C12.0168 10.5625 12.0024 10.5719 11.9974 10.5863C11.941 10.816 11.7769 11.0037 11.5564 11.0901L11.4568 11.1264C11.443 11.132 11.4336 11.1451 11.4336 11.1608C11.4336 11.1764 11.443 11.1896 11.4568 11.1952L11.4561 11.1946Z" fill="#7B7B7B" fill-opacity="0.04"/>
<path d="M11.4561 11.1946L11.6312 10.49L9.09194 9.85927L10.9431 11.7082L11.4561 11.1946ZM11.9604 11.6358L12.6424 11.3868L12.639 11.3774L12.6353 11.3682L11.9604 11.6358ZM11.9968 11.7353L11.3148 11.9843L11.3531 12.0892L11.4212 12.1777L11.9968 11.7353ZM12.1026 11.6358L12.7766 11.9056L12.78 11.8972L12.7832 11.8887L12.1026 11.6358ZM12.5073 11.2315L12.759 11.9125L12.7923 11.9002L12.8242 11.8847L12.5073 11.2315ZM12.6313 11.1601L11.9098 11.0799L11.9009 11.1601L11.9098 11.2404L12.6313 11.1601ZM12.5073 11.0901L12.8227 10.4361L12.7981 10.4243L12.7727 10.4143L12.5073 11.0901ZM12.0663 10.5863L12.7708 10.4109L12.7594 10.3653L12.7423 10.3215L12.0663 10.5863ZM11.9974 10.5863L11.3118 10.3476L11.3005 10.3799L11.2923 10.4132L11.9974 10.5863ZM11.5564 11.0901L11.805 11.7722L11.8131 11.7692L11.8211 11.7661L11.5564 11.0901ZM11.4568 11.1264L11.2082 10.4442L11.1951 10.449L11.1821 10.4543L11.4568 11.1264ZM11.4568 11.1952L11.1821 11.8672L11.9698 10.6815L11.4568 11.1952ZM11.4561 11.1946L11.2811 11.8992C11.2825 11.8995 11.2846 11.901 11.2855 11.9033L11.9604 11.6358L12.6353 11.3682C12.4621 10.9312 12.0883 10.6035 11.6312 10.49L11.4561 11.1946ZM11.9604 11.6358L11.2785 11.8848L11.3148 11.9843L11.9968 11.7353L12.6787 11.4863L12.6424 11.3868L11.9604 11.6358ZM11.9968 11.7353L11.4212 12.1777C11.47 12.2412 11.7112 12.537 12.1334 12.4796C12.5084 12.4286 12.6715 12.1348 12.6918 12.0998C12.7383 12.0199 12.7643 11.9434 12.7714 11.9228C12.7904 11.8682 12.7792 11.8991 12.7766 11.9056L12.1026 11.6358L11.4286 11.3659C11.4181 11.3923 11.41 11.4162 11.4067 11.4258C11.4011 11.4425 11.4018 11.4406 11.3997 11.4467C11.3944 11.462 11.4065 11.4217 11.4367 11.3698C11.4526 11.3424 11.49 11.2826 11.5565 11.2207C11.6255 11.1565 11.7528 11.066 11.9379 11.0408C12.3379 10.9864 12.5536 11.2684 12.5723 11.2928L11.9968 11.7353ZM12.1026 11.6358L12.7832 11.8887C12.7793 11.899 12.7705 11.9082 12.759 11.9125L12.5073 11.2315L12.2556 10.5505C11.8682 10.6937 11.565 10.9983 11.4221 11.3829L12.1026 11.6358ZM12.5073 11.2315L12.8242 11.8847C12.7854 11.9035 12.755 11.9123 12.7723 11.9067C12.7723 11.9067 12.7884 11.9014 12.7979 11.8982C12.8102 11.8941 12.8301 11.8873 12.853 11.8783C12.8837 11.8662 12.9894 11.8248 13.0932 11.7355C13.2174 11.6288 13.3888 11.403 13.3529 11.0799L12.6313 11.1601L11.9098 11.2404C11.895 11.1076 11.9188 10.9752 11.975 10.8585C12.0276 10.7493 12.0972 10.6769 12.1467 10.6344C12.2346 10.5588 12.3172 10.5288 12.3219 10.5269C12.3339 10.5222 12.3484 10.5176 12.3193 10.5271C12.3085 10.5307 12.2511 10.5489 12.1904 10.5783L12.5073 11.2315ZM12.6313 11.1601L13.3529 11.2404C13.3915 10.8928 13.1915 10.6658 13.0797 10.574C12.9785 10.4909 12.8771 10.4516 12.8455 10.4394C12.8055 10.424 12.7637 10.4113 12.761 10.4105C12.736 10.4026 12.7759 10.4136 12.8227 10.4361L12.5073 11.0901L12.1919 11.744C12.2569 11.7753 12.3219 11.7945 12.3243 11.7952C12.3489 11.803 12.3366 11.7994 12.3237 11.7944C12.3191 11.7926 12.2422 11.7651 12.1581 11.6961C12.1115 11.6578 12.0406 11.589 11.9848 11.4818C11.9243 11.3657 11.8935 11.2262 11.9098 11.0799L12.6313 11.1601ZM12.5073 11.0901L12.7727 10.4143C12.7734 10.4146 12.7715 10.4139 12.7708 10.4109L12.0663 10.5863L11.3618 10.7616C11.4751 11.2168 11.8015 11.5928 12.2419 11.7658L12.5073 11.0901ZM12.0663 10.5863L12.7423 10.3215C12.6292 10.0329 12.3499 9.8365 12.0318 9.8365V10.5625V11.2885C11.7438 11.2885 11.4921 11.1109 11.3903 10.8511L12.0663 10.5863ZM12.0318 10.5625V9.8365C11.7338 9.8365 11.4266 10.0176 11.3118 10.3476L11.9974 10.5863L12.683 10.825C12.5782 11.1261 12.2998 11.2885 12.0318 11.2885V10.5625ZM11.9974 10.5863L11.2923 10.4132C11.2922 10.4139 11.2921 10.4139 11.2916 10.4141L11.5564 11.0901L11.8211 11.7661C12.2617 11.5935 12.5899 11.218 12.7024 10.7594L11.9974 10.5863ZM11.5564 11.0901L11.3078 10.4079L11.2082 10.4442L11.4568 11.1264L11.7053 11.8085L11.805 11.7722L11.5564 11.0901ZM11.4568 11.1264L11.1821 10.4543C10.9053 10.5675 10.7076 10.8397 10.7076 11.1608H11.4336H12.1596C12.1596 11.4506 11.9807 11.6965 11.7314 11.7984L11.4568 11.1264ZM11.4336 11.1608H10.7076C10.7076 11.4818 10.9053 11.7541 11.1821 11.8672L11.4568 11.1952L11.7314 10.5231C11.9807 10.625 12.1596 10.871 12.1596 11.1608H11.4336ZM11.4568 11.1952L11.9698 10.6815L11.9692 10.6809L11.4561 11.1946L10.9431 11.7082L10.9437 11.7089L11.4568 11.1952Z" fill="#7B7B7B" fill-opacity="0.04" mask="url(#path-9-inside-1_26_15358)"/>
<mask id="path-11-inside-2_26_15358" fill="white">
<path d="M11.3386 9.65857C11.4845 9.69481 11.6041 9.79955 11.6595 9.93933L11.6826 10.0027C11.7209 10.0524 11.7364 9.97318 11.75 9.93933C11.7942 9.82026 11.8879 9.72627 12.0075 9.68207C12.0354 9.66853 12.0892 9.66176 12.0864 9.63667C12.0892 9.61158 12.0306 9.60322 12.0075 9.59207C11.8676 9.53711 11.7631 9.41724 11.7268 9.27148C11.7233 9.26232 11.7145 9.25635 11.7049 9.25635C11.6954 9.25635 11.6862 9.26232 11.683 9.27148C11.6471 9.41764 11.5427 9.53711 11.4024 9.59207L11.339 9.61516C11.3302 9.61875 11.3242 9.62711 11.3242 9.63707C11.3242 9.64702 11.3302 9.65539 11.339 9.65897L11.3386 9.65857Z"/>
</mask>
<path d="M11.3386 9.65857C11.4845 9.69481 11.6041 9.79955 11.6595 9.93933L11.6826 10.0027C11.7209 10.0524 11.7364 9.97318 11.75 9.93933C11.7942 9.82026 11.8879 9.72627 12.0075 9.68207C12.0354 9.66853 12.0892 9.66176 12.0864 9.63667C12.0892 9.61158 12.0306 9.60322 12.0075 9.59207C11.8676 9.53711 11.7631 9.41724 11.7268 9.27148C11.7233 9.26232 11.7145 9.25635 11.7049 9.25635C11.6954 9.25635 11.6862 9.26232 11.683 9.27148C11.6471 9.41764 11.5427 9.53711 11.4024 9.59207L11.339 9.61516C11.3302 9.61875 11.3242 9.62711 11.3242 9.63707C11.3242 9.64702 11.3302 9.65539 11.339 9.65897L11.3386 9.65857Z" fill="#7B7B7B" fill-opacity="0.04"/>
<path d="M11.3386 9.65857L11.5136 8.95398L8.97436 8.32327L10.8255 10.1722L11.3386 9.65857ZM11.6595 9.93933L12.3414 9.69032L12.338 9.68101L12.3344 9.6718L11.6595 9.93933ZM11.6826 10.0027L11.0006 10.2517L11.0389 10.3566L11.107 10.4451L11.6826 10.0027ZM11.75 9.93933L12.4239 10.2092L12.4273 10.2007L12.4305 10.1922L11.75 9.93933ZM12.0075 9.68207L12.2592 10.363L12.2925 10.3507L12.3244 10.3352L12.0075 9.68207ZM12.0864 9.63667L11.3649 9.55642L11.3559 9.63667L11.3649 9.71692L12.0864 9.63667ZM12.0075 9.59207L12.3229 8.93814L12.2983 8.92629L12.2729 8.91632L12.0075 9.59207ZM11.7268 9.27148L12.4314 9.09614L12.42 9.0505L12.4028 9.0067L11.7268 9.27148ZM11.683 9.27148L10.9974 9.03276L10.9861 9.06513L10.9779 9.0984L11.683 9.27148ZM11.4024 9.59207L11.6509 10.2742L11.6591 10.2712L11.6671 10.2681L11.4024 9.59207ZM11.339 9.61516L11.0904 8.93305L11.0773 8.93783L11.0643 8.94312L11.339 9.61516ZM11.339 9.65897L11.0643 10.331L11.852 9.14531L11.339 9.65897ZM11.3386 9.65857L11.1636 10.3632C11.0816 10.3428 11.0153 10.2844 10.9846 10.2069L11.6595 9.93933L12.3344 9.6718C12.1928 9.31469 11.8874 9.04683 11.5136 8.95398L11.3386 9.65857ZM11.6595 9.93933L10.9775 10.1883L11.0006 10.2517L11.6826 10.0027L12.3646 9.75364L12.3414 9.69032L11.6595 9.93933ZM11.6826 10.0027L11.107 10.4451C11.1503 10.5015 11.387 10.7947 11.8051 10.7379C12.176 10.6875 12.3357 10.3972 12.3531 10.3673C12.3966 10.2926 12.4201 10.2226 12.425 10.2086C12.4417 10.1604 12.4285 10.1978 12.4239 10.2092L11.75 9.93933L11.076 9.66947C11.0646 9.69778 11.0445 9.75776 11.0532 9.73243C11.0534 9.73193 11.0566 9.72275 11.062 9.70956C11.0671 9.69745 11.0786 9.67062 11.098 9.63736C11.1154 9.60743 11.1543 9.54543 11.2226 9.48191C11.2933 9.41609 11.4225 9.32457 11.6096 9.29913C12.0137 9.24422 12.234 9.52871 12.2582 9.56017L11.6826 10.0027ZM11.75 9.93933L12.4305 10.1922C12.4014 10.2706 12.339 10.3335 12.2592 10.363L12.0075 9.68207L11.7558 9.0011C11.4367 9.11902 11.187 9.36993 11.0694 9.68644L11.75 9.93933ZM12.0075 9.68207L12.3244 10.3352C12.2816 10.356 12.2463 10.3665 12.2585 10.3626C12.2599 10.3621 12.2601 10.362 12.2639 10.3608C12.2667 10.3599 12.2713 10.3584 12.2764 10.3567C12.2862 10.3534 12.3035 10.3474 12.324 10.3394C12.35 10.3292 12.4515 10.2898 12.5524 10.203C12.6737 10.0988 12.8435 9.8759 12.808 9.55642L12.0864 9.63667L11.3649 9.71692C11.3499 9.58229 11.374 9.4483 11.4309 9.33011C11.4843 9.21944 11.555 9.14569 11.6059 9.10189C11.6967 9.02385 11.7835 8.99171 11.7929 8.98801C11.8097 8.9814 11.8295 8.97515 11.8055 8.98302C11.7998 8.9849 11.7473 9.00137 11.6905 9.0289L12.0075 9.68207ZM12.0864 9.63667L12.808 9.71692C12.8462 9.37291 12.648 9.14891 12.5393 9.05965C12.4412 8.9791 12.3443 8.94193 12.3176 8.93165C12.2971 8.92375 12.2796 8.91787 12.2689 8.9144C12.2596 8.91135 12.2484 8.90786 12.2483 8.90783C12.2283 8.90151 12.2728 8.91399 12.3229 8.93814L12.0075 9.59207L11.6921 10.246C11.7294 10.264 11.761 10.2755 11.776 10.2808C11.7923 10.2865 11.8067 10.291 11.8116 10.2926C11.8313 10.2988 11.8136 10.2935 11.7957 10.2866C11.7862 10.283 11.7049 10.2533 11.6177 10.1817C11.52 10.1014 11.328 9.88788 11.3649 9.55642L12.0864 9.63667ZM12.0075 9.59207L12.2729 8.91632C12.3535 8.94799 12.4113 9.01577 12.4314 9.09614L11.7268 9.27148L11.0223 9.44682C11.1149 9.8187 11.3816 10.1262 11.7421 10.2678L12.0075 9.59207ZM11.7268 9.27148L12.4028 9.0067C12.2918 8.72333 12.0175 8.53035 11.7049 8.53035V9.25635V9.98235C11.4115 9.98235 11.1547 9.80131 11.0508 9.53626L11.7268 9.27148ZM11.7049 9.25635V8.53035C11.4123 8.53035 11.1104 8.70808 10.9974 9.03276L11.683 9.27148L12.3686 9.5102C12.262 9.81656 11.9784 9.98235 11.7049 9.98235V9.25635ZM11.683 9.27148L10.9779 9.0984C10.9983 9.01555 11.0579 8.94729 11.1376 8.91606L11.4024 9.59207L11.6671 10.2681C12.0275 10.1269 12.296 9.81972 12.3881 9.44456L11.683 9.27148ZM11.4024 9.59207L11.1538 8.90995L11.0904 8.93305L11.339 9.61516L11.5875 10.2973L11.6509 10.2742L11.4024 9.59207ZM11.339 9.61516L11.0643 8.94312C10.7925 9.05422 10.5982 9.32168 10.5982 9.63707H11.3242H12.0502C12.0502 9.93254 11.8679 10.1833 11.6136 10.2872L11.339 9.61516ZM11.3242 9.63707H10.5982C10.5982 9.95245 10.7925 10.2199 11.0643 10.331L11.339 9.65897L11.6136 8.98693C11.8679 9.09086 12.0502 9.3416 12.0502 9.63707H11.3242ZM11.339 9.65897L11.852 9.14531L11.8516 9.14491L11.3386 9.65857L10.8255 10.1722L10.8259 10.1726L11.339 9.65897Z" fill="#7B7B7B" fill-opacity="0.04" mask="url(#path-11-inside-2_26_15358)"/>
</svg>
