<svg width="32" height="32" viewBox="0 0 32 32" fill="none" xmlns="http://www.w3.org/2000/svg">
<mask id="mask0_26_13738" style="mask-type:alpha" maskUnits="userSpaceOnUse" x="0" y="0" width="32" height="32">
<rect width="32" height="32" fill="#D9D9D9"/>
</mask>
<g mask="url(#mask0_26_13738)">
<path d="M25.3333 27.3332C24.535 27.3332 23.8299 27.0832 23.2179 26.5832C22.6059 26.0832 22.2264 25.4443 22.0793 24.6665H14.6666C13.3708 24.6665 12.2691 24.2126 11.3616 23.3048C10.4538 22.3973 9.99992 21.2956 9.99992 19.9998C9.99992 18.7041 10.4538 17.6024 11.3616 16.6948C12.2691 15.7871 13.3708 15.3332 14.6666 15.3332H17.3333C18.2499 15.3332 19.0346 15.0063 19.6873 14.3525C20.3401 13.6987 20.6666 12.9128 20.6666 11.9948C20.6666 11.0768 20.3401 10.2926 19.6873 9.64217C19.0346 8.99173 18.2499 8.6665 17.3333 8.6665H9.92059C9.76836 9.44428 9.38759 10.0832 8.77825 10.5832C8.1687 11.0832 7.46481 11.3332 6.66659 11.3332C5.74059 11.3332 4.95359 11.0094 4.30559 10.3618C3.65736 9.71428 3.33325 8.92795 3.33325 8.00284C3.33325 7.07773 3.65736 6.29039 4.30559 5.64084C4.95359 4.99128 5.74059 4.6665 6.66659 4.6665C7.46481 4.6665 8.1687 4.9165 8.77825 5.4165C9.38759 5.9165 9.76836 6.55539 9.92059 7.33317H17.3333C18.629 7.33317 19.7307 7.78706 20.6383 8.69484C21.546 9.60239 21.9999 10.7041 21.9999 11.9998C21.9999 13.2956 21.546 14.3973 20.6383 15.3048C19.7307 16.2126 18.629 16.6665 17.3333 16.6665H14.6666C13.7499 16.6665 12.9653 16.9934 12.3126 17.6472C11.6597 18.3009 11.3333 19.0868 11.3333 20.0048C11.3333 20.9228 11.6597 21.7071 12.3126 22.3575C12.9653 23.0079 13.7499 23.3332 14.6666 23.3332H22.0793C22.2315 22.5554 22.6123 21.9165 23.2216 21.4165C23.8311 20.9165 24.535 20.6665 25.3333 20.6665C26.2593 20.6665 27.0463 20.9903 27.6943 21.6378C28.3425 22.2854 28.6666 23.0717 28.6666 23.9968C28.6666 24.9219 28.3425 25.7093 27.6943 26.3588C27.0463 27.0084 26.2593 27.3332 25.3333 27.3332ZM6.66659 9.99984C7.21525 9.99984 7.68581 9.80373 8.07825 9.4115C8.47047 9.01906 8.66659 8.5485 8.66659 7.99984C8.66659 7.45117 8.47047 6.98062 8.07825 6.58817C7.68581 6.19595 7.21525 5.99984 6.66659 5.99984C6.11792 5.99984 5.64736 6.19595 5.25492 6.58817C4.8627 6.98062 4.66659 7.45117 4.66659 7.99984C4.66659 8.5485 4.8627 9.01906 5.25492 9.4115C5.64736 9.80373 6.11792 9.99984 6.66659 9.99984Z" fill="#C89C66"/>
</g>
</svg>
