<svg width="90" height="90" viewBox="0 0 90 90" fill="none" xmlns="http://www.w3.org/2000/svg">
<path d="M45.0163 90C38.7938 90 32.9433 88.8192 27.465 86.4575C21.9875 84.0958 17.2225 80.8908 13.17 76.8425C9.1175 72.7942 5.90958 68.0333 3.54625 62.56C1.18208 57.0875 0 51.2396 0 45.0163C0 38.7938 1.18125 32.9433 3.54375 27.465C5.90625 21.9875 9.1125 17.2225 13.1625 13.17C17.2125 9.1175 21.975 5.90958 27.45 3.54625C32.925 1.18208 38.775 0 45 0C50.1175 0 54.9592 0.791667 59.525 2.375C64.0917 3.95833 68.2563 6.16667 72.0188 9L68.4225 12.7213C65.1283 10.2721 61.5042 8.37292 57.55 7.02375C53.5967 5.67458 49.4133 5 45 5C33.9167 5 24.4792 8.89583 16.6875 16.6875C8.89583 24.4792 5 33.9167 5 45C5 56.0833 8.89583 65.5208 16.6875 73.3125C24.4792 81.1042 33.9167 85 45 85C56.0833 85 65.5208 81.1042 73.3125 73.3125C81.1042 65.5208 85 56.0833 85 45C85 42.9875 84.8525 41.0133 84.5575 39.0775C84.2625 37.1425 83.8204 35.2608 83.2312 33.4325L87.2213 29.3463C88.1379 31.8204 88.83 34.3592 89.2975 36.9625C89.7658 39.565 90 42.2442 90 45C90 51.225 88.8192 57.075 86.4575 62.55C84.0958 68.025 80.8908 72.7875 76.8425 76.8375C72.7942 80.8875 68.0333 84.0938 62.56 86.4563C57.0875 88.8188 51.2396 90 45.0163 90ZM37.8075 64.5387L20.0187 46.75L23.5575 43.2113L37.8075 57.4613L86.4613 8.77875L90 12.3175L37.8075 64.5387Z" fill="white"/>
</svg>
