<svg width="32" height="32" viewBox="0 0 32 32" fill="none" xmlns="http://www.w3.org/2000/svg">
<mask id="mask0_26_13816" style="mask-type:alpha" maskUnits="userSpaceOnUse" x="0" y="0" width="32" height="32">
<rect width="32" height="32" fill="#D9D9D9"/>
</mask>
<g mask="url(#mask0_26_13816)">
<path d="M12.2673 20.8003L16.0007 18.0003L19.6673 20.8003L18.2673 16.267L22.0007 13.3337H17.4673L16.0007 8.80032L14.534 13.3337H10.0007L13.6673 16.267L12.2673 20.8003ZM16.0007 29.3337C12.9118 28.5559 10.3618 26.7837 8.35065 24.017C6.33954 21.2503 5.33398 18.1781 5.33398 14.8003V6.66699L16.0007 2.66699L26.6673 6.66699V14.8003C26.6673 18.1781 25.6618 21.2503 23.6507 24.017C21.6395 26.7837 19.0895 28.5559 16.0007 29.3337ZM16.0007 26.5337C18.3118 25.8003 20.2229 24.3337 21.734 22.1337C23.2451 19.9337 24.0007 17.4892 24.0007 14.8003V8.50033L16.0007 5.50033L8.00065 8.50033V14.8003C8.00065 17.4892 8.75621 19.9337 10.2673 22.1337C11.7784 24.3337 13.6895 25.8003 16.0007 26.5337Z" fill="#C89C66"/>
</g>
</svg>
