<svg width="32" height="32" viewBox="0 0 32 32" fill="none" xmlns="http://www.w3.org/2000/svg">
<mask id="mask0_26_13821" style="mask-type:alpha" maskUnits="userSpaceOnUse" x="0" y="0" width="32" height="32">
<rect width="32" height="32" fill="#D9D9D9"/>
</mask>
<g mask="url(#mask0_26_13821)">
<path d="M15.9998 21.3332C17.0665 21.3332 18.0165 21.0165 18.8498 20.3832C19.6832 19.7498 20.2887 18.9332 20.6665 17.9332H11.3332C11.7109 18.9332 12.3165 19.7498 13.1498 20.3832C13.9832 21.0165 14.9332 21.3332 15.9998 21.3332ZM12.6665 15.9998C13.2221 15.9998 13.6943 15.8054 14.0832 15.4165C14.4721 15.0276 14.6665 14.5554 14.6665 13.9998C14.6665 13.4443 14.4721 12.9721 14.0832 12.5832C13.6943 12.1943 13.2221 11.9998 12.6665 11.9998C12.1109 11.9998 11.6387 12.1943 11.2498 12.5832C10.8609 12.9721 10.6665 13.4443 10.6665 13.9998C10.6665 14.5554 10.8609 15.0276 11.2498 15.4165C11.6387 15.8054 12.1109 15.9998 12.6665 15.9998ZM19.3332 15.9998C19.8887 15.9998 20.3609 15.8054 20.7498 15.4165C21.1387 15.0276 21.3332 14.5554 21.3332 13.9998C21.3332 13.4443 21.1387 12.9721 20.7498 12.5832C20.3609 12.1943 19.8887 11.9998 19.3332 11.9998C18.7776 11.9998 18.3054 12.1943 17.9165 12.5832C17.5276 12.9721 17.3332 13.4443 17.3332 13.9998C17.3332 14.5554 17.5276 15.0276 17.9165 15.4165C18.3054 15.8054 18.7776 15.9998 19.3332 15.9998ZM10.1665 8.53317L13.8998 3.69984C14.1665 3.34428 14.4832 3.08317 14.8498 2.9165C15.2165 2.74984 15.5998 2.6665 15.9998 2.6665C16.3998 2.6665 16.7832 2.74984 17.1498 2.9165C17.5165 3.08317 17.8332 3.34428 18.0998 3.69984L21.8332 8.53317L27.4998 10.4332C28.0776 10.6109 28.5332 10.9387 28.8665 11.4165C29.1998 11.8943 29.3665 12.4221 29.3665 12.9998C29.3665 13.2665 29.3276 13.5332 29.2498 13.7998C29.1721 14.0665 29.0443 14.3221 28.8665 14.5665L25.1998 19.7665L25.3332 25.2332C25.3554 26.011 25.0998 26.6665 24.5665 27.1998C24.0332 27.7332 23.4109 27.9998 22.6998 27.9998C22.6554 27.9998 22.4109 27.9665 21.9665 27.8998L15.9998 26.2332L10.0332 27.8998C9.92206 27.9443 9.79984 27.9721 9.6665 27.9832C9.53317 27.9943 9.41095 27.9998 9.29984 27.9998C8.58873 27.9998 7.9665 27.7332 7.43317 27.1998C6.89984 26.6665 6.64428 26.011 6.6665 25.2332L6.79984 19.7332L3.1665 14.5665C2.98873 14.3221 2.86095 14.0665 2.78317 13.7998C2.70539 13.5332 2.6665 13.2665 2.6665 12.9998C2.6665 12.4443 2.82762 11.9276 3.14984 11.4498C3.47206 10.9721 3.92206 10.6332 4.49984 10.4332L10.1665 8.53317ZM11.7998 10.8332L5.33317 12.9665L9.4665 18.9332L9.33317 25.2998L15.9998 23.4665L22.6665 25.3332L22.5332 18.9332L26.6665 13.0332L20.1998 10.8332L15.9998 5.33317L11.7998 10.8332Z" fill="#C89C66"/>
</g>
</svg>
