<svg width="32" height="32" viewBox="0 0 32 32" fill="none" xmlns="http://www.w3.org/2000/svg">
<mask id="mask0_26_13732" style="mask-type:alpha" maskUnits="userSpaceOnUse" x="0" y="0" width="32" height="32">
<rect width="32" height="32" fill="#D9D9D9"/>
</mask>
<g mask="url(#mask0_26_13732)">
<path d="M19.7548 25.3332C17.1461 25.3332 14.9365 24.4279 13.1261 22.6175C11.3157 20.8071 10.4104 18.5975 10.4104 15.9888C10.4104 13.3995 11.3157 11.1985 13.1261 9.38584C14.9365 7.57295 17.1461 6.6665 19.7548 6.6665C22.3439 6.6665 24.5449 7.57295 26.3578 9.38584C28.1707 11.1985 29.0771 13.3995 29.0771 15.9888C29.0771 18.5975 28.1707 20.8071 26.3578 22.6175C24.5449 24.4279 22.3439 25.3332 19.7548 25.3332ZM19.7438 23.9998C21.966 23.9998 23.8549 23.2221 25.4104 21.6665C26.966 20.1109 27.7438 18.2221 27.7438 15.9998C27.7438 13.7776 26.966 11.8887 25.4104 10.3332C23.8549 8.77761 21.966 7.99984 19.7438 7.99984C17.5215 7.99984 15.6327 8.77761 14.0771 10.3332C12.5215 11.8887 11.7438 13.7776 11.7438 15.9998C11.7438 18.2221 12.5215 20.1109 14.0771 21.6665C15.6327 23.2221 17.5215 23.9998 19.7438 23.9998ZM23.0334 20.2742L23.9848 19.3228L20.4104 15.7485V11.0768H19.0771V16.2845L23.0334 20.2742ZM4.25643 11.3332V9.99984H9.0771V11.3332H4.25643ZM2.9231 16.6665V15.3332H9.0771V16.6665H2.9231ZM4.25643 21.9998V20.6665H9.0771V21.9998H4.25643Z" fill="#C89C66"/>
</g>
</svg>
