<svg width="46" height="46" viewBox="0 0 46 46" fill="none" xmlns="http://www.w3.org/2000/svg">
<mask id="mask0_730_128" style="mask-type:alpha" maskUnits="userSpaceOnUse" x="0" y="0" width="46" height="46">
<rect width="45.0211" height="45.0211" fill="#D9D9D9"/>
</mask>
<g mask="url(#mask0_730_128)">
<path d="M12.1205 24.3865C11.6046 24.3865 11.163 24.2028 10.7957 23.8355C10.4283 23.4681 10.2446 23.0265 10.2446 22.5106C10.2446 21.9948 10.4283 21.5532 10.7957 21.1858C11.163 20.8184 11.6046 20.6348 12.1205 20.6348C12.6364 20.6348 13.078 20.8184 13.4453 21.1858C13.8127 21.5532 13.9964 21.9948 13.9964 22.5106C13.9964 23.0265 13.8127 23.4681 13.4453 23.8355C13.078 24.2028 12.6364 24.3865 12.1205 24.3865ZM22.5101 24.3865C21.9942 24.3865 21.5526 24.2028 21.1852 23.8355C20.8179 23.4681 20.6342 23.0265 20.6342 22.5106C20.6342 21.9948 20.8179 21.5532 21.1852 21.1858C21.5526 20.8184 21.9942 20.6348 22.5101 20.6348C23.0259 20.6348 23.4675 20.8184 23.8349 21.1858C24.2023 21.5532 24.3859 21.9948 24.3859 22.5106C24.3859 23.0265 24.2023 23.4681 23.8349 23.8355C23.4675 24.2028 23.0259 24.3865 22.5101 24.3865ZM32.8996 24.3865C32.3837 24.3865 31.9421 24.2028 31.5748 23.8355C31.2074 23.4681 31.0237 23.0265 31.0237 22.5106C31.0237 21.9948 31.2074 21.5532 31.5748 21.1858C31.9421 20.8184 32.3837 20.6348 32.8996 20.6348C33.4155 20.6348 33.8571 20.8184 34.2244 21.1858C34.5918 21.5532 34.7755 21.9948 34.7755 22.5106C34.7755 23.0265 34.5918 23.4681 34.2244 23.8355C33.8571 24.2028 33.4155 24.3865 32.8996 24.3865Z" fill="#C89C66"/>
</g>
</svg>
