<svg width="18" height="18" viewBox="0 0 18 18" fill="none" xmlns="http://www.w3.org/2000/svg">
<mask id="mask0_26_13945" style="mask-type:alpha" maskUnits="userSpaceOnUse" x="0" y="0" width="18" height="18">
<rect width="17.424" height="17.424" fill="#D9D9D9"/>
</mask>
<g mask="url(#mask0_26_13945)">
<path d="M2.90407 15.9726C2.29907 15.9726 1.78482 15.7608 1.36132 15.3373C0.937824 14.9138 0.726074 14.3996 0.726074 13.7946C0.726074 13.1896 0.937824 12.6753 1.36132 12.2518C1.78482 11.8283 2.29907 11.6166 2.90407 11.6166C3.50907 11.6166 4.02332 11.8283 4.44682 12.2518C4.87032 12.6753 5.08207 13.1896 5.08207 13.7946C5.08207 14.3996 4.87032 14.9138 4.44682 15.3373C4.02332 15.7608 3.50907 15.9726 2.90407 15.9726ZM2.90407 14.5206C3.10977 14.5206 3.2822 14.451 3.42135 14.3118C3.5605 14.1727 3.63007 14.0003 3.63007 13.7946C3.63007 13.5889 3.5605 13.4164 3.42135 13.2773C3.2822 13.1381 3.10977 13.0686 2.90407 13.0686C2.69837 13.0686 2.52595 13.1381 2.3868 13.2773C2.24765 13.4164 2.17807 13.5889 2.17807 13.7946C2.17807 14.0003 2.24765 14.1727 2.3868 14.3118C2.52595 14.451 2.69837 14.5206 2.90407 14.5206ZM5.80807 15.9726C6.05007 15.658 6.23157 15.3131 6.35257 14.938C6.47357 14.5629 6.53407 14.1818 6.53407 13.7946C6.53407 12.7903 6.18015 11.9342 5.4723 11.2263C4.76445 10.5185 3.90837 10.1646 2.90407 10.1646C2.66207 10.1646 2.41705 10.1888 2.169 10.2372C1.92095 10.2856 1.68197 10.3582 1.45207 10.455V6.53456H3.63007V4.06616C3.63007 3.13446 3.95375 2.34494 4.6011 1.69759C5.24845 1.05024 6.03797 0.726562 6.96967 0.726562C7.64727 0.726562 8.26437 0.911087 8.82097 1.28014C9.37757 1.64919 9.78897 2.14226 10.0552 2.75936L15.0101 14.5206H16.6981V15.9726H11.6161V14.5206H13.4311L8.73022 3.34016C8.58502 2.98926 8.3521 2.70794 8.03145 2.49619C7.7108 2.28444 7.35687 2.17856 6.96967 2.17856C6.44937 2.17856 6.0047 2.36309 5.63565 2.73214C5.2666 3.10119 5.08207 3.54586 5.08207 4.06616V6.53456H6.53407C7.33267 6.53456 8.01632 6.81891 8.58502 7.38761C9.15372 7.95631 9.43807 8.63996 9.43807 9.43856V15.9726H5.80807Z" fill="#591B42"/>
</g>
</svg>
