<svg width="18" height="18" viewBox="0 0 18 18" fill="none" xmlns="http://www.w3.org/2000/svg">
<mask id="mask0_26_15198" style="mask-type:alpha" maskUnits="userSpaceOnUse" x="0" y="0" width="18" height="18">
<rect width="17.424" height="17.424" fill="#D9D9D9"/>
</mask>
<g mask="url(#mask0_26_15198)">
<path d="M2.9031 15.9726C2.2981 15.9726 1.78385 15.7608 1.36035 15.3373C0.936848 14.9138 0.725098 14.3996 0.725098 13.7946C0.725098 13.1896 0.936848 12.6753 1.36035 12.2518C1.78385 11.8283 2.2981 11.6166 2.9031 11.6166C3.5081 11.6166 4.02235 11.8283 4.44585 12.2518C4.86935 12.6753 5.0811 13.1896 5.0811 13.7946C5.0811 14.3996 4.86935 14.9138 4.44585 15.3373C4.02235 15.7608 3.5081 15.9726 2.9031 15.9726ZM2.9031 14.5206C3.1088 14.5206 3.28122 14.451 3.42037 14.3118C3.55952 14.1727 3.6291 14.0003 3.6291 13.7946C3.6291 13.5889 3.55952 13.4164 3.42037 13.2773C3.28122 13.1381 3.1088 13.0686 2.9031 13.0686C2.6974 13.0686 2.52497 13.1381 2.38582 13.2773C2.24667 13.4164 2.1771 13.5889 2.1771 13.7946C2.1771 14.0003 2.24667 14.1727 2.38582 14.3118C2.52497 14.451 2.6974 14.5206 2.9031 14.5206ZM5.8071 15.9726C6.0491 15.658 6.2306 15.3131 6.3516 14.938C6.4726 14.5629 6.5331 14.1818 6.5331 13.7946C6.5331 12.7903 6.17917 11.9342 5.47132 11.2263C4.76347 10.5185 3.9074 10.1646 2.9031 10.1646C2.6611 10.1646 2.41607 10.1888 2.16802 10.2372C1.91997 10.2856 1.681 10.3582 1.4511 10.455V6.53456H3.6291V4.06616C3.6291 3.13446 3.95277 2.34494 4.60012 1.69759C5.24747 1.05024 6.037 0.726562 6.9687 0.726562C7.6463 0.726562 8.2634 0.911087 8.82 1.28014C9.3766 1.64919 9.788 2.14226 10.0542 2.75936L15.0091 14.5206H16.6971V15.9726H11.6151V14.5206H13.4301L8.72925 3.34016C8.58405 2.98926 8.35112 2.70794 8.03047 2.49619C7.70982 2.28444 7.3559 2.17856 6.9687 2.17856C6.4484 2.17856 6.00372 2.36309 5.63467 2.73214C5.26562 3.10119 5.0811 3.54586 5.0811 4.06616V6.53456H6.5331C7.3317 6.53456 8.01535 6.81891 8.58405 7.38761C9.15275 7.95631 9.4371 8.63996 9.4371 9.43856V15.9726H5.8071Z" fill="#591B42"/>
</g>
</svg>
