<svg width="40" height="40" viewBox="0 0 40 40" fill="none" xmlns="http://www.w3.org/2000/svg">
<mask id="mask0_26_14053" style="mask-type:alpha" maskUnits="userSpaceOnUse" x="0" y="0" width="40" height="40">
<rect width="40" height="40" fill="#D9D9D9"/>
</mask>
<g mask="url(#mask0_26_14053)">
<path opacity="0.4" d="M13.5896 26.4104L23.2692 23.2692L26.4104 13.5896L16.7308 16.7308L13.5896 26.4104ZM19.9925 21.8592C19.4739 21.8592 19.0357 21.6776 18.6779 21.3146C18.3199 20.9515 18.1408 20.5108 18.1408 19.9925C18.1408 19.4739 18.3224 19.0357 18.6854 18.6779C19.0485 18.3199 19.4892 18.1408 20.0075 18.1408C20.5261 18.1408 20.9643 18.3224 21.3221 18.6854C21.6801 19.0485 21.8592 19.4892 21.8592 20.0075C21.8592 20.5261 21.6776 20.9643 21.3146 21.3221C20.9515 21.6801 20.5108 21.8592 19.9925 21.8592ZM20.0054 35C17.9312 35 15.9811 34.6064 14.155 33.8192C12.3292 33.0319 10.7408 31.9636 9.39 30.6142C8.03917 29.2647 6.96986 27.6778 6.18208 25.8533C5.39403 24.0292 5 22.0799 5 20.0054C5 17.9312 5.39361 15.9811 6.18083 14.155C6.96806 12.3292 8.03639 10.7408 9.38583 9.39C10.7353 8.03917 12.3222 6.96986 14.1467 6.18208C15.9708 5.39403 17.9201 5 19.9946 5C22.0688 5 24.0189 5.39361 25.845 6.18083C27.6708 6.96806 29.2592 8.03639 30.61 9.38583C31.9608 10.7353 33.0301 12.3222 33.8179 14.1467C34.606 15.9708 35 17.9201 35 19.9946C35 22.0688 34.6064 24.0189 33.8192 25.845C33.0319 27.6708 31.9636 29.2592 30.6142 30.61C29.2647 31.9608 27.6778 33.0301 25.8533 33.8179C24.0292 34.606 22.0799 35 20.0054 35ZM20 33.3333C23.7158 33.3333 26.8669 32.04 29.4533 29.4533C32.04 26.8669 33.3333 23.7158 33.3333 20C33.3333 16.2842 32.04 13.1331 29.4533 10.5467C26.8669 7.96 23.7158 6.66667 20 6.66667C16.2842 6.66667 13.1331 7.96 10.5467 10.5467C7.96 13.1331 6.66667 16.2842 6.66667 20C6.66667 23.7158 7.96 26.8669 10.5467 29.4533C13.1331 32.04 16.2842 33.3333 20 33.3333Z" fill="#7B7B7B"/>
</g>
</svg>
