<svg width="18" height="18" viewBox="0 0 18 18" fill="none" xmlns="http://www.w3.org/2000/svg">
<mask id="mask0_26_15307" style="mask-type:alpha" maskUnits="userSpaceOnUse" x="0" y="0" width="18" height="18">
<rect width="17.424" height="17.424" fill="#D9D9D9"/>
</mask>
<g mask="url(#mask0_26_15307)">
<path d="M2.17773 14.5198V13.0678H15.2457V14.5198H2.17773ZM2.17773 4.35581V2.90381H15.2457V4.35581H2.17773ZM3.62973 11.6158C3.23043 11.6158 2.88861 11.4736 2.60426 11.1893C2.31991 10.9049 2.17773 10.5631 2.17773 10.1638V7.25981C2.17773 6.86051 2.31991 6.51868 2.60426 6.23433C2.88861 5.94998 3.23043 5.80781 3.62973 5.80781H13.7937C14.193 5.80781 14.5349 5.94998 14.8192 6.23433C15.1036 6.51868 15.2457 6.86051 15.2457 7.25981V10.1638C15.2457 10.5631 15.1036 10.9049 14.8192 11.1893C14.5349 11.4736 14.193 11.6158 13.7937 11.6158H3.62973Z" fill="#591B42"/>
</g>
</svg>
