<svg width="18" height="18" viewBox="0 0 18 18" fill="none" xmlns="http://www.w3.org/2000/svg">
<mask id="mask0_26_13876" style="mask-type:alpha" maskUnits="userSpaceOnUse" x="0" y="0" width="18" height="18">
<rect width="17.424" height="17.424" fill="#D9D9D9"/>
</mask>
<g mask="url(#mask0_26_13876)">
<path d="M8.71207 6.53381L8.09497 7.44131C7.76827 7.94951 7.54745 8.33973 7.4325 8.61198C7.31755 8.88423 7.26007 9.15951 7.26007 9.43781C7.26007 9.83711 7.40225 10.1789 7.6866 10.4633C7.97095 10.7476 8.31277 10.8898 8.71207 10.8898C9.11137 10.8898 9.4532 10.7476 9.73755 10.4633C10.0219 10.1789 10.1641 9.83711 10.1641 9.43781C10.1641 9.15951 10.1066 8.88423 9.99165 8.61198C9.8767 8.33973 9.65587 7.94951 9.32917 7.44131L8.71207 6.53381ZM8.71207 13.2493C7.45367 13.2493 6.38282 12.8077 5.49952 11.9244C4.61622 11.0411 4.17457 9.97021 4.17457 8.71181C4.17457 7.45341 4.61622 6.38256 5.49952 5.49926C6.38282 4.61596 7.45367 4.17431 8.71207 4.17431C9.97047 4.17431 11.0413 4.61596 11.9246 5.49926C12.8079 6.38256 13.2496 7.45341 13.2496 8.71181C13.2496 9.97021 12.8079 11.0411 11.9246 11.9244C11.0413 12.8077 9.97047 13.2493 8.71207 13.2493ZM15.2461 8.71181V7.98581H14.2841C14.151 7.01781 13.8031 6.14963 13.2405 5.38128C12.6778 4.61293 11.973 4.02911 11.126 3.62981H15.2461V2.90381H16.6981V8.71181H15.2461ZM0.726074 14.5198V8.71181H2.17807V9.43781H3.14002C3.27312 10.4058 3.621 11.274 4.18365 12.0423C4.7463 12.8107 5.45112 13.3945 6.29812 13.7938H2.17807V14.5198H0.726074Z" fill="#591B42"/>
</g>
</svg>
