<svg width="51" height="51" viewBox="0 0 51 51" fill="none" xmlns="http://www.w3.org/2000/svg">
<circle cx="25.5" cy="25.5" r="25" stroke="white"/>
<path fill-rule="evenodd" clip-rule="evenodd" d="M26.2918 11.7676C19.0432 11.7676 13.1501 17.6606 13.1501 24.9092C13.1501 27.461 13.8758 29.9091 15.2474 32.0303L13.2538 36.4242C13.0704 36.8308 13.1342 37.3013 13.4292 37.6442C13.6525 37.9074 13.9715 38.0509 14.2984 38.0509C14.4021 38.0509 14.4978 38.035 14.6015 38.011L20.1037 36.5039C22.0016 37.5166 24.1308 38.0509 26.2918 38.0509C33.5405 38.0509 39.4335 32.1579 39.4335 24.9092C39.4335 17.6606 33.5325 11.7676 26.2918 11.7676ZM26.2918 35.7543C24.37 35.7543 22.4881 35.244 20.8294 34.2791C20.654 34.1754 20.4546 34.1196 20.2473 34.1196C20.1436 34.1196 20.04 34.1355 19.9443 34.1594L16.3478 35.1483L17.5998 32.3892C17.7673 32.0144 17.7274 31.5758 17.4882 31.2408C16.1485 29.3828 15.4388 27.1979 15.4388 24.9013C15.4388 18.9205 20.3031 14.0562 26.2838 14.0562C32.2646 14.0562 37.1289 18.9205 37.1289 24.9013C37.1289 30.882 32.2646 35.7463 26.2838 35.7463L26.2918 35.7543Z" fill="white"/>
<path fill-rule="evenodd" clip-rule="evenodd" d="M31.3404 26.8797C30.7902 26.5527 30.0725 26.1859 29.4266 26.4491C28.9322 26.6564 28.6132 27.4299 28.2863 27.8286C28.1188 28.0359 27.9274 28.0678 27.6722 27.9642C25.8063 27.2226 24.3709 25.9706 23.3422 24.2561C23.1668 23.993 23.1987 23.7777 23.406 23.5305C23.717 23.1636 24.1077 22.749 24.1954 22.2546C24.2832 21.7602 24.0519 21.186 23.8446 20.7474C23.5814 20.1892 23.2943 19.3838 22.7282 19.0648C22.2098 18.7698 21.532 18.9373 21.0695 19.312C20.2721 19.958 19.8893 20.9787 19.9053 21.9834C19.9053 22.2705 19.9451 22.5576 20.0089 22.8287C20.1684 23.4906 20.4794 24.1126 20.8223 24.7027C21.0855 25.1492 21.3646 25.5799 21.6676 25.9945C22.6644 27.3502 23.9084 28.5304 25.3437 29.4075C26.0614 29.8461 26.8349 30.2369 27.6403 30.5C28.5414 30.7951 29.3389 31.1061 30.3117 30.9226C31.3245 30.7313 32.3292 30.1013 32.7359 29.1205C32.8555 28.8334 32.9114 28.5064 32.8476 28.2034C32.712 27.5734 31.8508 27.1907 31.3404 26.8876V26.8797Z" fill="white"/>
</svg>
