<svg width="24" height="24" viewBox="0 0 24 24" fill="none" xmlns="http://www.w3.org/2000/svg">
<path fill-rule="evenodd" clip-rule="evenodd" d="M12.5 2C7.26001 2 3 6.26001 3 11.5C3 13.3447 3.52458 15.1144 4.51608 16.6478L3.07494 19.824C2.94235 20.118 2.98847 20.4581 3.20176 20.706C3.36317 20.8962 3.59375 21 3.8301 21C3.90504 21 3.97421 20.9885 4.04915 20.9712L8.0267 19.8817C9.39867 20.6138 10.9378 21 12.5 21C17.74 21 22 16.74 22 11.5C22 6.26001 17.7342 2 12.5 2ZM12.5 19.3398C11.1107 19.3398 9.7503 18.9709 8.55127 18.2734C8.42445 18.1984 8.28034 18.1581 8.13046 18.1581C8.05552 18.1581 7.98058 18.1696 7.91141 18.1869L5.31159 18.9017L6.21663 16.9072C6.33768 16.6362 6.30886 16.3192 6.13592 16.0771C5.16748 14.7339 4.65443 13.1544 4.65443 11.4942C4.65443 7.17081 8.17081 3.65443 12.4942 3.65443C16.8177 3.65443 20.334 7.17081 20.334 11.4942C20.334 15.8177 16.8177 19.334 12.4942 19.334L12.5 19.3398Z" fill="#591B42"/>
<path fill-rule="evenodd" clip-rule="evenodd" d="M16.1495 12.9243C15.7518 12.6879 15.233 12.4228 14.766 12.613C14.4086 12.7629 14.1781 13.322 13.9417 13.6103C13.8207 13.7601 13.6823 13.7832 13.4978 13.7083C12.1489 13.1722 11.1113 12.2671 10.3677 11.0277C10.2409 10.8375 10.2639 10.6819 10.4138 10.5032C10.6386 10.238 10.9211 9.93824 10.9845 9.58084C11.0479 9.22344 10.8807 8.80839 10.7309 8.49134C10.5406 8.08782 10.3331 7.5056 9.92381 7.27502C9.54912 7.06173 9.05913 7.18278 8.72478 7.45372C8.14833 7.92065 7.87163 8.65851 7.88316 9.38485C7.88316 9.59237 7.91198 9.79989 7.9581 9.99589C8.07339 10.4743 8.29821 10.924 8.54608 11.3506C8.73631 11.6734 8.93807 11.9847 9.15713 12.2844C9.8777 13.2644 10.777 14.1176 11.8146 14.7517C12.3334 15.0687 12.8926 15.3512 13.4748 15.5414C14.1262 15.7547 14.7026 15.9795 15.4059 15.8469C16.138 15.7086 16.8643 15.2532 17.1583 14.5441C17.2448 14.3366 17.2852 14.1003 17.239 13.8812C17.141 13.4258 16.5185 13.1491 16.1495 12.9301V12.9243Z" fill="#591B42"/>
</svg>
