<svg width="38" height="38" viewBox="0 0 38 38" fill="none" xmlns="http://www.w3.org/2000/svg">
<path fill-rule="evenodd" clip-rule="evenodd" d="M19 0C8.52002 0 0 8.52002 0 19C0 22.6893 1.04915 26.2288 3.03216 29.2955L0.149879 35.6481C-0.115291 36.236 -0.0230583 36.9163 0.403519 37.412C0.726335 37.7925 1.1875 38 1.66019 38C1.81007 38 1.94842 37.9769 2.0983 37.9424L10.0534 35.7634C12.7973 37.2276 15.8756 38 19 38C29.48 38 38 29.48 38 19C38 8.52002 29.4684 0 19 0ZM19 34.6796C16.2215 34.6796 13.5006 33.9417 11.1025 32.5467C10.8489 32.3968 10.5607 32.3161 10.2609 32.3161C10.111 32.3161 9.96117 32.3392 9.82282 32.3738L4.62318 33.8034L6.43325 29.8143C6.67536 29.2725 6.61772 28.6383 6.27184 28.1541C4.33495 25.4678 3.30886 22.3089 3.30886 18.9885C3.30886 10.3416 10.3416 3.30886 18.9885 3.30886C27.6353 3.30886 34.6681 10.3416 34.6681 18.9885C34.6681 27.6353 27.6353 34.6681 18.9885 34.6681L19 34.6796Z" fill="#C89C66"/>
<path fill-rule="evenodd" clip-rule="evenodd" d="M26.3001 21.8481C25.5046 21.3754 24.4669 20.8451 23.5331 21.2255C22.8183 21.5253 22.3571 22.6436 21.8844 23.2201C21.6423 23.5198 21.3656 23.5659 20.9967 23.416C18.2988 22.3438 16.2236 20.5338 14.7363 18.055C14.4827 17.6745 14.5288 17.3633 14.8286 17.0059C15.2782 16.4755 15.8431 15.876 15.97 15.1612C16.0968 14.4464 15.7624 13.6163 15.4627 12.9822C15.0822 12.1752 14.6672 11.0107 13.8486 10.5495C13.0992 10.123 12.1192 10.3651 11.4505 10.9069C10.2976 11.8408 9.74423 13.3165 9.76729 14.7692C9.76729 15.1843 9.82494 15.5993 9.91717 15.9913C10.1478 16.9482 10.5974 17.8475 11.0931 18.7006C11.4736 19.3463 11.8771 19.9688 12.3152 20.5684C13.7564 22.5283 15.5549 24.2346 17.6302 25.5028C18.6678 26.1369 19.7861 26.7019 20.9505 27.0823C22.2533 27.5089 23.4063 27.9585 24.8128 27.6934C26.277 27.4167 27.7297 26.5059 28.3177 25.0878C28.4906 24.6727 28.5713 24.2 28.4791 23.7619C28.2831 22.8511 27.0379 22.2977 26.3001 21.8596V21.8481Z" fill="#C89C66"/>
</svg>
