<svg width="18" height="18" viewBox="0 0 18 18" fill="none" xmlns="http://www.w3.org/2000/svg">
<mask id="mask0_26_15112" style="mask-type:alpha" maskUnits="userSpaceOnUse" x="0" y="0" width="18" height="18">
<rect width="17.424" height="17.424" fill="#D9D9D9"/>
</mask>
<g mask="url(#mask0_26_15112)">
<path d="M3.63071 15.2462C3.23141 15.2462 2.88959 15.104 2.60524 14.8197C2.32089 14.5353 2.17871 14.1935 2.17871 13.7942V3.63022C2.17871 3.23092 2.32089 2.8891 2.60524 2.60475C2.88959 2.3204 3.23141 2.17822 3.63071 2.17822H13.7947C14.194 2.17822 14.5358 2.3204 14.8202 2.60475C15.1045 2.8891 15.2467 3.23092 15.2467 3.63022V13.7942C15.2467 14.1935 15.1045 14.5353 14.8202 14.8197C14.5358 15.104 14.194 15.2462 13.7947 15.2462H3.63071ZM9.43871 9.43822V13.7942H13.7947V9.43822H9.43871ZM9.43871 7.98622H13.7947V3.63022H9.43871V7.98622ZM7.98671 7.98622V3.63022H3.63071V7.98622H7.98671ZM7.98671 9.43822H3.63071V13.7942H7.98671V9.43822Z" fill="#591B42"/>
</g>
</svg>
